<svg width="84" height="82" viewBox="0 0 84 82" fill="none" xmlns="http://www.w3.org/2000/svg">
<g id="Frame" clip-path="url(#clip0_683_15131)">
<g id="Group">
<path id="Vector" d="M71.0717 72.6257C69.4559 73.419 67.6044 73.7567 65.8205 73.5144C65.4841 73.4729 65.1724 73.4073 64.8754 73.3221C62.5317 74.9102 59.377 75.3165 56.7154 74.3506C53.8931 73.3299 51.6528 70.7717 50.996 67.8494L51.729 67.684C52.3291 70.3668 54.3856 72.6993 56.9743 73.6402C59.2369 74.4617 61.8929 74.203 63.9752 72.9985C63.6445 72.8448 63.3482 72.6621 63.0815 72.4406C62.2085 71.7268 61.7283 70.6744 61.8282 69.6896C61.9696 68.3685 63.2118 67.2847 64.5434 67.3237C65.8751 67.3626 67.0522 68.5226 67.1108 69.855C67.1699 71.1141 66.3478 72.1132 65.6506 72.7228C65.7432 72.7381 65.8358 72.7534 65.9236 72.759C68.8918 73.1611 72.068 71.8085 73.8129 69.372C75.5626 66.9454 75.8512 63.4981 74.5193 60.81L75.195 60.4782C76.647 63.4112 76.3269 67.1656 74.4195 69.8155C73.5765 71.0193 72.3937 71.9767 71.0717 72.6257ZM63.6828 68.2687C63.0952 68.5572 62.647 69.1296 62.5741 69.7731C62.5003 70.5141 62.8654 71.3072 63.5493 71.8586C63.8742 72.1244 64.2727 72.342 64.7351 72.4917C64.7596 72.4675 64.789 72.4531 64.8038 72.4337C65.4072 71.9795 66.3899 71.0353 66.3446 69.8787C66.2978 68.9416 65.4453 68.0962 64.5087 68.0699C64.2219 68.0725 63.9394 68.1405 63.6828 68.2687Z" fill="#606C9C"/>
<path id="Vector_2" d="M48.8297 14.9908C48.8297 14.9908 38.3774 13.8998 29.5317 26.008C21.2477 37.3543 24.8916 52.1539 24.8916 52.1539L29.1315 51.4579C29.1315 51.4579 25.5667 26.4718 43.6684 20.2711C55.133 16.3442 61.8536 23.3748 61.8536 23.3748L60.2261 19.0696L54.0348 15.741C52.9061 15.2986 51.5476 14.9325 48.8297 14.9908Z" fill="#1C7DC6"/>
<path id="Vector_3" d="M29.9343 49.7521C29.958 49.8499 29.9817 49.9476 29.9956 50.0502L30.5741 53.6793C30.784 54.9982 30.2522 56.3408 29.2877 56.8022C29.2289 56.831 29.1702 56.8599 29.0968 56.8837L27.4828 57.433C27.239 57.5183 26.9807 57.5543 26.7229 57.539C26.4651 57.5237 26.2128 57.4574 25.9808 57.344C25.2369 56.9922 24.6475 56.1878 24.47 55.1083L23.7887 50.849L23.7419 50.5803C23.462 48.8219 24.4724 47.4144 25.8822 47.4393L27.5847 47.4663C28.653 47.4888 29.6264 48.4814 29.9343 49.7521Z" fill="#FFCD3B"/>
<path id="Vector_4" d="M29.9343 49.7521C29.5148 49.7393 28.6345 49.3572 28.313 49.2963C27.6649 49.1891 26.9667 49.2523 26.3984 49.5799C25.5851 50.0521 25.1489 50.9955 24.9616 51.9259C24.5822 53.7771 24.9726 55.7608 25.9856 57.3538C25.2417 57.002 24.6523 56.1975 24.4748 55.118L23.7936 50.8587L23.7467 50.59C23.4668 48.8316 24.4772 47.4241 25.887 47.449L27.5895 47.4761C28.653 47.4887 29.6264 48.4813 29.9343 49.7521Z" fill="#F57F35"/>
<path id="Vector_5" d="M48.8297 14.9912C64.0536 16.0487 64.5754 38.8463 64.5754 38.8463L69.0122 39.913C69.0122 39.913 68.3743 26.3599 63.2521 20.9265C56.5419 13.818 48.8297 14.9912 48.8297 14.9912Z" fill="#509DFF"/>
<path id="Vector_6" d="M69.7513 38.9183L70.2258 42.0881C70.4028 43.2408 69.9162 44.4033 69.0692 44.807C69.0203 44.831 68.9615 44.8599 68.9077 44.8741L67.4992 45.3468C66.3401 45.7336 65.1221 44.8367 64.8991 43.2934L64.3457 39.5668L64.3133 39.3275C64.0806 37.789 64.9872 36.5662 66.2067 36.5994L67.6944 36.6347C68.6748 36.676 69.5602 37.6875 69.7513 38.9183Z" fill="#FFCD3B"/>
<path id="Vector_7" d="M69.7513 38.9183L70.2258 42.0881C70.4028 43.2408 69.9162 44.4033 69.0692 44.8069C69.0785 44.2069 69.0829 43.5971 69.0824 43.0019C69.0908 41.8554 69.0656 40.616 68.3746 39.7035C67.8237 38.9774 66.8606 38.5752 65.9572 38.6906C65.3419 38.7739 64.759 39.0966 64.3311 39.5618L64.2987 39.3225C64.066 37.784 64.9726 36.5611 66.1921 36.5944L67.6798 36.6297C68.6748 36.676 69.5602 37.6874 69.7513 38.9183Z" fill="#F57F35"/>
<path id="Vector_8" d="M75.5964 51.2227C73.7976 44.8816 69.7833 40.4663 66.6301 41.3608C63.477 42.2552 62.3791 48.1208 64.1779 54.4618C65.9767 60.8029 69.9911 65.2182 73.1442 64.3238C76.2974 63.4293 77.3953 57.5637 75.5964 51.2227Z" fill="#509DFF"/>
<path id="Vector_9" d="M75.7981 61.4096C75.2356 62.9374 74.3401 63.9847 73.1471 64.3273C69.9889 65.2215 65.9863 60.8062 64.1835 54.4604C62.3855 48.1243 63.4772 42.2533 66.6354 41.3591C66.8261 41.302 67.0264 41.2644 67.2266 41.2512C64.9062 42.9858 64.1729 47.8788 65.6474 53.0855C67.3361 59.0256 71.2484 63.1084 74.4066 62.2142C74.9102 62.0764 75.3806 61.7968 75.7981 61.4096Z" fill="#1C7DC6"/>
<path id="Vector_10" d="M76.1158 51.2887C77.2689 55.0733 77.3946 58.5723 76.6064 60.2839C76.3536 60.8334 76.0094 61.1968 75.5645 61.3302C73.7357 61.8877 69.744 58.6581 68.2289 53.6657C66.7139 48.6734 68.2324 43.8203 70.0611 43.2628C71.1271 42.9339 72.4901 44.027 73.7541 45.9828C74.6465 47.3798 75.4869 49.2155 76.1158 51.2887Z" fill="#509DFF"/>
<path id="Vector_11" d="M77.6091 51.2362C78.1657 53.1869 78.0352 55.0253 77.3846 55.928C77.1875 56.1949 76.9422 56.3883 76.6537 56.4691C75.407 56.8259 73.8051 55.0481 73.082 52.5107C72.3589 49.9734 72.7859 47.6249 74.0374 47.2778C74.8685 47.04 75.8635 47.7546 76.6446 49.024C77.0402 49.6318 77.3762 50.3905 77.6091 51.2362Z" fill="#FFCD3B"/>
<path id="Vector_12" d="M73.7541 45.9827C73.6346 45.8622 73.5066 45.7504 73.3711 45.6482C72.8763 45.2592 72.2586 44.9912 71.6241 45.0354C70.7064 45.097 69.9303 45.8183 69.5728 46.6743C69.225 47.5256 69.2181 48.4769 69.3041 49.3948C69.5799 52.3826 70.7492 55.2843 72.6154 57.6251C73.6064 58.8764 74.8911 60.0079 76.4602 60.2584C76.509 60.2587 76.5528 60.2737 76.6016 60.2741C76.3488 60.8235 76.0046 61.1869 75.5597 61.3203C73.7309 61.8778 69.7148 58.648 68.2241 53.6559C66.2144 46.9133 68.2276 43.8104 70.0563 43.2529C71.1271 42.9338 72.4999 44.0221 73.7541 45.9827Z" fill="#1C7DC6"/>
<path id="Vector_13" d="M76.6544 49.019C76.4306 48.9345 76.2019 48.8401 76.0118 48.8241C75.5729 48.7965 75.1135 48.9005 74.7893 49.2055C74.4405 49.5347 74.3148 50.0461 74.282 50.5239C74.1861 51.6405 74.4363 52.7937 75.0098 53.7639C75.5689 54.7047 76.4073 55.4719 77.3992 55.9329C77.2021 56.1998 76.9568 56.3931 76.6683 56.474C75.4216 56.8308 73.8197 55.053 73.0966 52.5156C72.3735 49.9782 72.8005 47.6298 74.052 47.2827C74.8783 47.035 75.8733 47.7497 76.6544 49.019Z" fill="#F57F35"/>
<path id="Vector_14" opacity="0.15" d="M66.5164 50.3257C66.791 50.8107 67.1827 51.2868 67.6408 51.3535C68.1573 51.4402 68.5268 50.9551 68.7257 50.4442C69.1932 49.2182 69.0976 47.6123 68.4687 46.2075C67.7823 44.6608 66.4136 44.3484 65.9689 45.7941C65.544 47.1815 65.6781 48.8657 66.5164 50.3257ZM69.6065 53.4267C69.8137 53.7746 70.1236 54.1087 70.5333 54.1263C70.9917 54.1443 71.3655 53.742 71.588 53.329C71.8483 52.8308 71.995 52.2811 72.0177 51.7195C72.0403 51.1578 71.9383 50.5982 71.719 50.0806C71.2247 48.95 70.0158 48.8143 69.5 49.9669C68.9991 51.0756 68.9751 52.3634 69.6065 53.4267Z" fill="white"/>
<path id="Vector_15" d="M29.1386 71.8958L28.5902 72.165C26.7884 73.0496 24.613 72.3068 23.7284 70.505L22.3679 67.7336C21.4833 65.9318 22.2261 63.7563 24.028 62.8718L24.5764 62.6026C25.0562 62.367 25.65 62.5616 25.8904 63.0512L29.5873 70.5818C29.8277 71.0714 29.6185 71.6603 29.1386 71.8958Z" fill="#FFCD3B"/>
<path id="Vector_16" d="M29.8152 53.3708L38.8263 73.4592C37.3012 74.5361 35.7897 75.0715 34.3399 75.1878C29.7218 75.559 25.7642 71.6564 23.9805 67.3793C21.6407 61.7467 21.9465 55.265 29.8152 53.3708Z" fill="#509DFF"/>
<path id="Vector_17" d="M39.1864 62.2115C41.0252 66.3036 41.4121 70.1119 40.417 72.0952C40.3428 72.2411 40.2637 72.3771 40.1701 72.5081C39.8348 72.9887 39.3884 73.3172 38.8215 73.4497C36.1334 74.1131 31.9372 70.1453 29.4455 64.5994C26.9538 59.0536 27.1222 54.0247 29.8006 53.3661C30.6022 53.167 31.5373 53.3885 32.5237 53.9373C33.0096 54.2091 33.495 54.5542 33.9896 54.9676C35.8955 56.5476 37.7989 59.1375 39.1864 62.2115Z" fill="#FFCD3B"/>
<path id="Vector_18" d="M36.5462 68.4036C37.6766 67.8487 37.577 65.3294 36.3238 62.7767C35.0706 60.224 33.1384 58.6044 32.008 59.1593C30.8777 59.7142 30.9773 62.2335 32.2305 64.7862C33.4837 67.339 35.4159 68.9585 36.5462 68.4036Z" fill="#606C9C"/>
<path id="Vector_19" d="M36.8887 62.8531C37.7097 64.674 37.912 66.3733 37.5196 67.3316C37.492 66.4336 37.217 65.329 36.6986 64.1738C35.5416 61.5943 33.5889 59.7456 32.3327 60.0584C31.9661 60.1534 31.6959 60.4197 31.5369 60.8137C31.5011 59.7011 31.8288 58.9083 32.5229 58.7377C33.7692 58.4296 35.7269 60.2637 36.8887 62.8531Z" fill="#464F7A"/>
<path id="Vector_20" d="M23.8667 61.5776C23.7009 66.9089 28.6681 74.2048 34.3351 75.178C29.717 75.5493 25.7594 71.6466 23.9757 67.3695C21.6407 61.7467 21.9367 55.2698 29.8054 53.3757C29.8152 53.3708 24.0512 55.6658 23.8667 61.5776Z" fill="#1C7DC6"/>
<path id="Vector_21" d="M29.1535 60.4893C29.9822 63.9349 31.8177 67.1293 34.371 69.5825C35.9601 71.1114 38.0046 72.4045 40.1749 72.5179C39.8396 72.9985 39.3933 73.327 38.8263 73.4594C36.1382 74.1229 31.942 70.1551 29.4503 64.6092C26.9587 59.0633 27.127 54.0345 29.8054 53.3759C30.607 53.1768 31.5421 53.3983 32.5285 53.947C32.7278 54.0558 32.9172 54.1694 33.1163 54.3026C32.4107 54.0535 31.5318 54.1447 30.8513 54.4666C29.8233 54.947 29.1568 56.0155 28.9389 57.1311C28.726 58.2322 28.8884 59.3799 29.1535 60.4893Z" fill="#F57F35"/>
<path id="Vector_22" opacity="0.15" d="M26.5243 66.447C26.7027 66.7361 26.9641 67.021 27.3104 67.0333C27.7055 67.0459 28.0153 66.7115 28.1983 66.3665C28.6484 65.5257 28.6853 64.4868 28.3062 63.6156C27.8838 62.6563 26.8698 62.5464 26.4237 63.519C26.0118 64.4624 25.9892 65.5551 26.5243 66.447ZM24.073 62.0479C24.2155 62.5856 24.4651 63.1436 24.8784 63.3418C25.3598 63.5551 25.8357 63.1878 26.156 62.751C26.9346 61.6882 27.2681 60.1148 27.0352 58.6007C26.7742 56.9302 25.5447 56.2577 24.7401 57.5399C23.9751 58.754 23.6557 60.4056 24.073 62.0479Z" fill="white"/>
<path id="Vector_23" d="M52.003 69.5796C53.247 68.9689 53.7603 67.4655 53.1497 66.2216C52.539 64.9776 51.0355 64.4643 49.7916 65.075C48.5477 65.6856 48.0344 67.1891 48.645 68.433C49.2557 69.6769 50.7591 70.1903 52.003 69.5796Z" fill="#606C9C"/>
<path id="Vector_24" d="M54.2875 57.3741C60.2854 54.4296 62.7606 47.1804 59.8161 41.1825C56.8717 35.1847 49.6225 32.7094 43.6246 35.6539C37.6267 38.5984 35.1515 45.8476 38.0959 51.8454C41.0404 57.8433 48.2896 60.3186 54.2875 57.3741Z" fill="black"/>
<path id="Vector_25" d="M59.6048 42.7325C61.3932 49.049 57.7301 55.6234 51.4136 57.4118C48.3433 58.2871 45.2191 57.8643 42.6044 56.4742C39.8341 55.0148 37.6572 52.4619 36.7296 49.2108C35.1885 43.7694 37.6934 38.1282 42.4692 35.5285C43.2236 35.1095 44.0555 34.7741 44.9208 34.5315C51.2421 32.7529 57.8164 36.4161 59.6048 42.7325Z" fill="#FF4A60"/>
<path id="Vector_26" d="M59.6048 42.7329C61.3932 49.0494 57.7301 55.6237 51.4136 57.4121C48.3433 58.2875 45.2191 57.8646 42.6044 56.4746C45.6975 55.819 49.1294 56.8686 52.1906 55.9005C54.6405 55.1231 56.5975 53.0443 57.4494 50.6209C58.3111 48.1926 58.1261 45.464 57.1874 43.0568C56.2535 40.6594 55.1706 38.6268 53.2019 36.9683C52.1594 36.0825 50.0586 35.1451 48.7038 34.9352C47.193 34.7046 43.2487 35.6809 42.4642 35.5434C43.2186 35.1245 44.0505 34.789 44.9158 34.5465C51.2421 32.7533 57.8164 36.4164 59.6048 42.7329Z" fill="#EF2043"/>
<path id="Vector_27" d="M52.5733 46.9019L49.5561 50.5341C49.0688 51.1258 48.4081 51.4137 47.7443 51.4479C46.6413 51.5033 45.524 50.8365 45.1768 49.6094L43.7214 44.4662C43.455 43.5276 43.7495 42.6174 44.3393 42.0118C44.9784 41.3578 45.9564 41.0478 46.959 41.382L51.4366 42.8783C53.1156 43.4516 53.7103 45.5295 52.5733 46.9019Z" fill="white"/>
<path id="Vector_28" d="M52.5733 46.9017L49.5561 50.534C49.0688 51.1256 48.408 51.4136 47.7443 51.4478C47.9886 50.7323 48.5345 50.1362 49.1186 49.6428C49.7715 49.0914 50.5117 48.6187 51.0725 47.9788C51.6432 47.334 52.0399 46.4588 51.841 45.6328C51.6471 44.7922 50.8855 44.1817 50.0729 43.8879C49.2603 43.5941 48.3823 43.5633 47.5193 43.4888C46.6563 43.4142 45.7694 43.2662 45.0508 42.7926C44.7449 42.5903 44.5078 42.33 44.3392 42.0361C44.9782 41.3821 45.9562 41.0721 46.9588 41.4063L51.4364 42.9026C53.1156 43.4515 53.7103 45.5293 52.5733 46.9017Z" fill="#D6E0FD"/>
<path id="Vector_29" d="M75.6783 26.3107C75.8843 26.1609 76.1862 26.2314 76.3016 26.4665L78.6092 31.167L78.5994 31.1718C78.7324 31.6655 78.3523 32.2775 77.6864 32.6044C76.9617 32.9601 76.1722 32.8373 75.9222 32.328C75.6723 31.8188 76.0579 31.1191 76.7826 30.7633C77.0078 30.6528 77.2327 30.591 77.4524 30.5682L76.1832 27.9829L73.2848 30.0499L75.1116 33.7712L75.1018 33.776C75.2348 34.2697 74.8547 34.8817 74.1888 35.2086C73.4641 35.5643 72.6747 35.4415 72.4247 34.9322C72.1747 34.423 72.5603 33.7233 73.285 33.3675C73.5102 33.257 73.7351 33.1952 73.9548 33.1724L72.0607 29.3141C71.9693 29.128 72.0295 28.904 72.1914 28.7881L75.6783 26.3107Z" fill="#FFCD3B"/>
<path id="Vector_30" d="M22.4041 51.3949C22.6425 51.4845 22.7477 51.7731 22.6241 51.9917L20.0198 56.5393L20.0052 56.5343C19.6755 56.9271 18.9581 56.9512 18.3168 56.5854C17.622 56.1852 17.2761 55.4557 17.5578 54.965C17.8394 54.4743 18.6303 54.402 19.3349 54.7975C19.5535 54.921 19.7378 55.0736 19.8731 55.2502L21.3062 52.7481L17.9733 51.5041L15.9126 55.1043L15.898 55.0993C15.5634 55.4823 14.8411 55.5209 14.1997 55.1552C13.505 54.755 13.159 54.0255 13.4407 53.5348C13.7224 53.0441 14.5133 52.9718 15.2178 53.3672C15.4365 53.4908 15.6207 53.6434 15.7561 53.82L17.886 50.0886C17.9342 50.0027 18.0113 49.9368 18.1036 49.9026C18.196 49.8684 18.2974 49.8682 18.3899 49.902L22.4041 51.3949Z" fill="#DAACDA"/>
<path id="Vector_31" d="M22.9391 30.205C23.1978 30.1874 23.4109 30.3987 23.3895 30.6523L22.971 35.8647L22.9564 35.8597C22.8211 36.3515 22.1844 36.6884 21.4383 36.6293C20.6289 36.5648 20.0131 36.0529 20.0659 35.4923C20.1042 34.9266 20.8048 34.5219 21.6044 34.5911C21.858 34.6125 22.082 34.6727 22.2862 34.7669L22.5169 31.8949L18.9679 32.191L18.6401 36.3259L18.6255 36.3209C18.4902 36.8127 17.8535 37.1496 17.1075 37.0905C16.2981 37.026 15.6822 36.5141 15.7351 35.9534C15.7879 35.3928 16.4739 34.9831 17.2736 35.0523C17.5271 35.0737 17.7511 35.1339 17.9553 35.228L18.2939 30.942C18.3149 30.7373 18.4673 30.5774 18.6773 30.5594L22.9391 30.205Z" fill="#86BB6B"/>
<path id="Vector_32" d="M46.5199 21.9705C46.6921 21.7766 46.9946 21.7739 47.1639 21.9703L50.5451 25.9615L50.5353 25.9663C50.7906 26.4121 50.5709 27.1033 50.0015 27.5773C49.3732 28.1045 48.5823 28.1768 48.2146 27.7496C47.8469 27.3225 48.0478 26.5434 48.6663 26.021C48.8529 25.8564 49.0636 25.7409 49.269 25.6643L47.4116 23.4651L45.1085 26.1755L47.7932 29.3419L47.7834 29.3468C48.0387 29.7926 47.819 30.4838 47.2496 30.9578C46.6311 31.4802 45.8402 31.5525 45.4677 31.1155C45.1 30.6884 45.3009 29.9092 45.9194 29.3868C46.106 29.2223 46.3166 29.1068 46.5221 29.0302L43.7456 25.7509C43.6101 25.5987 43.6166 25.3645 43.7447 25.2045L46.5199 21.9705Z" fill="#D6E0FD"/>
</g>
</g>
<defs>
<clipPath id="clip0_683_15131">
<rect width="72" height="72" fill="white" transform="translate(0.5 31.7295) rotate(-26.1474)"/>
</clipPath>
</defs>
</svg>
