<svg width="67" height="72" viewBox="0 0 67 72" fill="none" xmlns="http://www.w3.org/2000/svg">
<g id="Frame">
<g id="Group">
<path id="Vector" d="M53.1935 12.11C51.439 11.6249 49.4898 12.7831 49.0775 14.556L48.5361 16.6834C48.4902 16.8641 48.5179 17.0556 48.6132 17.216C48.7084 17.3763 48.8634 17.4922 49.0441 17.5384L54.2432 18.8615C54.4239 18.9074 54.6155 18.8797 54.7758 18.7846C54.9361 18.6893 55.052 18.5343 55.0981 18.3536L55.6395 16.2263C56.0999 14.4172 55.0026 12.5708 53.1935 12.1102V12.11Z" fill="#E8996D"/>
<path id="Vector_2" d="M60.0354 20.1995C59.4416 19.2003 58.4978 18.493 57.3782 18.2081L46.6031 15.4659C45.4831 15.1809 44.3162 15.351 43.3172 15.9449C42.1822 16.6037 41.4705 17.7362 41.2235 19.0049C40.6333 21.3245 42.0399 23.6919 44.3597 24.2821C44.8409 24.359 56.047 27.387 56.2055 27.159C58.1271 27.184 59.9692 25.7687 60.4119 23.8881C60.8006 22.6554 60.7183 21.3207 60.0354 20.1995Z" fill="#F9BD46"/>
<path id="Vector_3" d="M56.2152 24.3465C54.9925 24.1271 49.9698 22.8209 47.7676 22.2483C45.8869 21.7592 45.2927 21.6063 45.0043 21.5434C44.2168 21.3154 43.7453 20.4989 43.949 19.6986L43.9687 19.6211L43.9839 19.5426C44.0441 19.2341 44.2207 18.6723 44.7289 18.3773L44.7543 18.3625C44.9987 18.2172 45.2604 18.1436 45.5321 18.1436C45.6574 18.1436 45.7842 18.1597 45.9092 18.1915L56.6845 20.9337C57.0819 21.0348 57.4046 21.2778 57.6177 21.6364L57.6333 21.6624C57.9379 22.1626 57.8242 22.7417 57.7294 23.0425L57.6979 23.1421L57.674 23.2436C57.5381 23.821 56.8621 24.3471 56.2557 24.3471L56.2152 24.3465Z" fill="#FCDC45"/>
<path id="Vector_4" d="M61.3571 28.4719C60.7633 27.4727 59.8196 26.7655 58.6999 26.4805L41.4878 22.1003C39.2482 21.4796 36.7358 22.972 36.2106 25.2365C35.3976 27.6411 36.7561 30.2961 39.2443 30.9165L56.4564 35.2967C58.7154 35.89 61.1521 34.4979 61.7336 32.1606C62.1219 30.9278 62.0402 29.5934 61.3571 28.4719Z" fill="#DA387D"/>
<path id="Vector_5" d="M57.5174 32.6209C57.4004 32.621 57.2839 32.6061 57.1707 32.5765L39.938 28.1909C39.4122 28.0597 39.1332 27.7193 38.9893 27.4562C38.8804 27.2561 38.8141 27.0357 38.7944 26.8087C38.7747 26.5818 38.8022 26.3532 38.875 26.1374L38.9193 26.0065L38.9505 25.8719C39.0865 25.2857 39.7822 24.7715 40.4392 24.7715C40.543 24.7715 40.6431 24.7847 40.7369 24.8106L40.7944 24.8259L58.0065 29.2061C58.4039 29.3072 58.7266 29.5502 58.9397 29.9088L58.9553 29.9348C59.2597 30.4346 59.146 31.0145 59.0512 31.3156L59.0253 31.3977L59.0045 31.4814C58.8203 32.2214 58.101 32.6208 57.5175 32.6208L57.5174 32.6209Z" fill="#E26187"/>
<path id="Vector_6" d="M43.4299 31.9819C42.8825 30.9193 42.1707 29.7912 41.2461 28.7031C39.8058 27.0081 38.1297 25.7577 36.2805 24.9805C36.2546 25.0648 36.2307 25.1499 36.2106 25.2367C35.3976 27.6412 36.7561 30.2962 39.2443 30.9167L43.4299 31.9818V31.9819Z" fill="#BC2A70"/>
<path id="Vector_7" d="M62.6789 36.7442C62.085 35.745 61.1415 35.0377 60.0217 34.7528L36.3725 28.7345C35.253 28.4494 34.0858 28.6196 33.0866 29.2134C31.9518 29.8723 31.2399 31.0047 30.9929 32.2734C30.7078 33.3931 30.878 34.5601 31.4718 35.5593C32.0657 36.5584 33.0094 37.2656 34.1291 37.5507L57.7783 43.569C58.8931 43.8533 60.064 43.685 61.0641 43.09C62.1991 42.4312 62.9109 41.2987 63.1579 40.03C63.4429 38.9104 63.2728 37.7433 62.6789 36.7442Z" fill="#33A6FB"/>
<path id="Vector_8" d="M58.848 40.8915C58.723 40.8915 58.5967 40.8755 58.4729 40.844L34.8225 34.8252C34.4251 34.7241 34.1023 34.4811 33.8893 34.1225C33.6762 33.7641 33.617 33.3645 33.7183 32.9673L33.738 32.8898L33.7532 32.8113C33.8134 32.5028 33.9901 31.9411 34.4985 31.6458L34.5232 31.6312C34.7679 31.4858 35.0298 31.4121 35.3016 31.4121C35.4267 31.4121 35.5535 31.4281 35.6782 31.4599L59.3278 37.4784C59.7252 37.5795 60.0479 37.8225 60.261 38.1811C60.474 38.5395 60.5332 38.9389 60.432 39.3362L60.4122 39.4138L60.3968 39.4926C60.3368 39.801 60.1602 40.3625 59.6518 40.6575L59.6258 40.6727C59.3822 40.8175 59.1204 40.8911 58.8476 40.8911L58.848 40.8915Z" fill="#85D1FF"/>
<path id="Vector_9" d="M65.5887 71.0339C65.9529 71.0339 66.2483 70.719 66.2483 70.3308V37.8145C66.2483 37.4262 65.9529 37.1113 65.5887 37.1113H50.5258L50.5276 71.0339H65.5887Z" fill="#A5523C"/>
<path id="Vector_10" d="M66.2482 37.8145C66.2482 37.4262 65.9529 37.1113 65.5887 37.1113H51.1871C50.8229 37.1113 50.5276 37.4262 50.5276 37.8145V44.3815L53.7737 51.4618C54.3229 52.6595 55.4856 53.4334 56.7359 53.4334L66.2481 53.4335V37.8145H66.2482Z" fill="#843E30"/>
<path id="Vector_11" d="M18.0214 29.4432C8.91893 30.6086 8.04663 39.5239 8.94944 43.9384C8.98154 44.0946 9.0658 44.2353 9.18839 44.3373C9.31097 44.4392 9.46459 44.4965 9.62402 44.4997L13.3016 44.5731C13.394 44.5749 13.4859 44.5585 13.5719 44.5248C13.658 44.4911 13.7365 44.4408 13.8031 44.3767C13.8697 44.3126 13.923 44.2361 13.96 44.1514C13.997 44.0667 14.0169 43.9756 14.0187 43.8832C14.0717 41.0011 14.2333 32.2306 18.3526 30.8035C19.1439 30.5156 18.866 29.3373 18.0214 29.4432Z" fill="#F7BFA9"/>
<path id="Vector_12" d="M33.0866 29.2136C31.9518 29.8724 31.2399 31.0049 30.9929 32.2736C30.9304 32.52 30.8897 32.7715 30.8712 33.0251C31.2247 33.4215 31.6058 33.9062 32.0087 34.4933C32.6595 35.4416 33.2457 36.4762 33.7419 37.4324C33.8685 37.4774 33.9974 37.5172 34.1291 37.5507L43.7609 40.0018C44.8122 39.1965 45.3352 37.8577 45.0569 36.5054C44.8291 35.4078 44.1538 32.8702 42.4286 30.2756L36.3726 28.7345C35.2531 28.4494 34.0859 28.6196 33.0868 29.2134L33.0866 29.2136Z" fill="#2084CE"/>
<path id="Vector_13" d="M42.303 37.077C41.3831 32.6438 37.0591 24.8212 28.2459 27.3401C28.0769 27.3854 27.9308 27.492 27.8363 27.6392C27.7417 27.7864 27.7054 27.9635 27.7344 28.1361C27.7632 28.3088 27.8555 28.4645 27.9932 28.5726C28.1309 28.6808 28.304 28.7335 28.4786 28.7205C32.8282 28.4075 36.4372 36.4 37.6236 39.0272C37.7327 39.2755 37.9937 39.4434 38.2644 39.4409C38.3637 39.4409 38.4627 39.4199 38.5548 39.3782L41.9048 37.8591C42.05 37.7933 42.1686 37.68 42.241 37.5379C42.3134 37.3958 42.3353 37.2333 42.3032 37.0771L42.303 37.077Z" fill="#F7BFA9"/>
<path id="Vector_14" d="M28.2457 27.3398C28.0767 27.3851 27.9307 27.4917 27.8361 27.6389C27.7415 27.7861 27.7052 27.9632 27.7343 28.1358C27.763 28.3085 27.8553 28.4642 27.993 28.5723C28.1307 28.6805 28.3039 28.7332 28.4785 28.7202C29.7565 28.6282 30.9705 29.2539 32.078 30.2494C33.4984 29.5312 34.7176 28.721 35.7291 27.8223C33.7263 26.8242 31.2465 26.4823 28.2457 27.3398Z" fill="#DD9B90"/>
<path id="Vector_15" d="M38.9051 38.4483C36.6724 33.5046 33.1531 26.9705 28.3769 27.318C28.2729 27.2969 18.085 29.453 17.9807 29.4504C13.3596 30.9527 12.7206 38.4068 12.6127 43.8572C12.6101 44.0015 12.6519 44.1431 12.7325 44.2628C12.8131 44.3826 12.9286 44.4746 13.0633 44.5264C15.4577 45.4821 21.8905 45.2443 26.3867 44.2042C35.5076 42.328 38.6269 39.3662 38.7553 39.2409C38.8587 39.1401 38.9285 39.01 38.9552 38.8681C38.982 38.7263 38.9645 38.5797 38.9051 38.4482V38.4483Z" fill="#DD9B90"/>
<g id="Group_2">
<path id="Vector_16" d="M7.86762 5.51175C5.65671 5.54818 3.70062 7.03121 3.00002 9.20175C1.82763 12.9566 2.79302 16.6668 6.82713 16.7478C7.5228 16.7478 8.33716 16.6259 9.28793 16.3271C9.41406 16.2875 9.52647 16.2131 9.61226 16.1125C9.69805 16.0119 9.75374 15.8892 9.77295 15.7584C10.14 13.2557 11.0203 11.1691 12.3896 9.55683C12.4709 9.46095 12.5251 9.34504 12.5464 9.22114C12.5678 9.09724 12.5556 8.96988 12.5111 8.8523C11.7529 6.75685 9.98037 5.48138 7.86762 5.51175ZM34.0573 2.81274C30.9123 -0.812574 24.8458 1.23099 25.1804 6.24216C25.1852 6.36845 25.224 6.49112 25.2926 6.59725C25.3612 6.70339 25.4571 6.78907 25.5703 6.8453C27.465 7.78622 29.0975 9.35588 30.4226 11.5104C30.4855 11.6127 30.5736 11.6972 30.6784 11.7558C30.7832 11.8144 30.9013 11.8452 31.0214 11.8452C37.0271 11.2303 37.3163 6.65025 34.0573 2.81274Z" fill="#DD9B90"/>
</g>
<path id="Vector_17" d="M5.42694 16.5446C5.84488 16.6665 6.31049 16.7372 6.82714 16.7476C7.52282 16.7476 8.33718 16.6257 9.28794 16.3269C9.41407 16.2873 9.52648 16.2129 9.61227 16.1123C9.69806 16.0117 9.75375 15.889 9.77296 15.7582C10.14 13.2555 11.0203 11.1689 12.3896 9.55662C12.4709 9.46074 12.5251 9.34483 12.5464 9.22093C12.5678 9.09703 12.5556 8.96967 12.5111 8.85209C12.027 7.51432 11.1284 6.51293 9.99289 5.96998C7.17716 8.78838 5.72732 12.6452 5.42694 16.5446ZM30.4226 11.51C30.4855 11.6123 30.5736 11.6968 30.6784 11.7554C30.7832 11.814 30.9013 11.8448 31.0214 11.8449C32.6746 11.6756 33.8937 11.2054 34.7257 10.5335C33.7626 8.70021 32.5323 7.0362 31.1232 5.68985C29.6925 4.32284 28.0891 3.28629 26.3635 2.59863C25.5591 3.49554 25.0798 4.73402 25.1805 6.2418C25.1854 6.3681 25.2241 6.49076 25.2927 6.5969C25.3614 6.70303 25.4573 6.78872 25.5705 6.84495C27.4651 7.78587 29.0975 9.35552 30.4226 11.51Z" fill="#C16A73"/>
<path id="Vector_18" d="M11.3259 32.8528C12.6209 33.2983 14.0668 33.5685 15.637 33.6538C16.2625 32.2898 17.1344 31.2254 18.3525 30.8035C19.1438 30.5156 18.8659 29.3373 18.0213 29.4432C14.9179 29.8405 12.7716 31.1392 11.3259 32.8528Z" fill="#DD9B90"/>
<path id="Vector_19" d="M33.3745 29.5345C31.8996 28.0879 30.2332 27.183 28.3768 27.318C28.2727 27.2969 18.0849 29.4529 17.9805 29.4504C16.1589 30.0426 14.9564 31.5601 14.161 33.5146C14.9789 33.6267 15.8366 33.6845 16.7308 33.6845H16.7322C16.8351 33.6845 16.9375 33.6838 17.0379 33.6824C20.3485 33.6395 24.1448 33.047 27.4536 32.0572C29.751 31.3698 31.7266 30.5255 33.3745 29.5345Z" fill="#C16A73"/>
<path id="Vector_20" d="M36.2982 19.3035C35.7472 16.6249 33.9142 14.8785 33.322 14.3735C31.6221 9.31874 26.7287 2.91834 18.2657 4.7286C9.78307 6.39768 7.79955 14.2313 8.23915 19.5336C5.45885 25.6941 8.75088 30.9883 17.0016 30.8697C24.2741 30.7754 37.8394 27.5522 36.2982 19.3035Z" fill="#F7BFA9"/>
<path id="Vector_21" d="M32.4262 20.4544C31.0314 17.5622 27.292 16.0038 22.9006 16.4847C22.7645 16.4994 22.6356 16.5537 22.53 16.6408C21.8545 16.8327 19.7462 17.2664 19.0497 17.3567C18.9183 17.3183 18.7785 17.3193 18.6477 17.3595C14.4229 18.6514 11.6025 21.559 11.4626 24.7669C11.3291 27.389 13.1638 29.8739 16.154 30.8526C18.5049 30.9335 20.7099 30.6836 23.4904 30.1257C26.3505 29.4966 28.7575 28.8435 30.7136 27.7586C32.9188 25.5339 33.5591 22.8035 32.4262 20.4544Z" fill="#F3E1C1"/>
<g id="Group_3">
<path id="Vector_22" d="M27.1582 21.3043C27.0748 21.2644 26.9845 21.2414 26.8923 21.2365C26.8001 21.2315 26.7078 21.2448 26.6207 21.2756C26.5337 21.3063 26.4535 21.3539 26.3848 21.4156C26.3161 21.4773 26.2603 21.552 26.2205 21.6353C26.212 21.6529 25.4155 23.2591 22.9476 23.9981L22.3448 21.0683C22.3262 20.9778 22.29 20.892 22.2382 20.8155C22.1864 20.7391 22.12 20.6736 22.0429 20.6228C21.9658 20.572 21.8795 20.5369 21.7888 20.5195C21.6981 20.502 21.6049 20.5027 21.5145 20.5213C21.424 20.5399 21.3381 20.5761 21.2617 20.6279C21.1852 20.6797 21.1198 20.7461 21.069 20.8232C21.0182 20.9003 20.983 20.9866 20.9656 21.0773C20.9482 21.168 20.9488 21.2612 20.9674 21.3516L21.5701 24.2816C19.049 24.5727 17.688 23.4512 17.6304 23.4024C17.4896 23.283 17.3075 23.2237 17.1233 23.2374C16.9392 23.2511 16.7679 23.3366 16.6463 23.4756C16.5247 23.6145 16.4626 23.7957 16.4734 23.98C16.4843 24.1643 16.5672 24.337 16.7042 24.4607C16.7755 24.523 18.1971 25.7363 20.758 25.7363C21.3037 25.7363 21.9016 25.6812 22.5486 25.548C26.2323 24.7902 27.4395 22.3457 27.4892 22.2421C27.529 22.1588 27.5521 22.0684 27.557 21.9762C27.5619 21.884 27.5486 21.7918 27.5179 21.7047C27.4871 21.6176 27.4396 21.5374 27.3778 21.4688C27.3161 21.4001 27.2415 21.3441 27.1582 21.3043Z" fill="#843E30"/>
<path id="Vector_23" d="M24.9551 17.6583C24.4676 16.2159 22.2187 16.3417 20.7361 16.738C20.5495 16.7664 19.8412 16.8855 19.1313 17.1465C16.6087 18.0309 16.8447 19.9763 18.3033 21.152C19.0058 21.6938 19.947 21.9892 20.898 21.9892C23.1111 22.0598 25.7139 19.9323 24.9553 17.6584L24.9551 17.6583Z" fill="#843E30"/>
</g>
<g id="Group_4">
<path id="Vector_24" d="M16.6768 13.5921C16.4615 12.6882 15.1402 12.9592 15.2994 13.8756L15.6066 15.369C15.6393 15.5275 15.7255 15.6698 15.8508 15.7721C15.9761 15.8744 16.1328 15.9303 16.2946 15.9306C16.7335 15.9351 17.078 15.5157 16.9841 15.0855L16.6768 13.5921ZM24.9087 13.4554L24.6014 11.9618C24.5828 11.8714 24.5466 11.7855 24.4948 11.7091C24.443 11.6326 24.3766 11.5671 24.2995 11.5163C24.2224 11.4656 24.1361 11.4304 24.0454 11.413C23.9547 11.3956 23.8615 11.3962 23.771 11.4148C23.6806 11.4334 23.5947 11.4697 23.5183 11.5215C23.4418 11.5733 23.3763 11.6396 23.3256 11.7167C23.2748 11.7938 23.2396 11.8802 23.2222 11.9709C23.2048 12.0615 23.2054 12.1548 23.224 12.2452L23.5313 13.7388C23.749 14.646 25.0685 14.3684 24.9087 13.4554Z" fill="#843E30"/>
</g>
<path id="Vector_25" d="M7.82236 37.1113C7.63588 37.1113 7.45703 37.1854 7.32517 37.3173C7.19331 37.4491 7.11923 37.628 7.11923 37.8145V70.3308C7.11923 70.5172 7.19331 70.6961 7.32517 70.8279C7.45703 70.9598 7.63588 71.0339 7.82236 71.0339H50.5257V37.1113H7.82236Z" fill="#E8996D"/>
<path id="Vector_26" d="M34.6824 56.0818C32.7051 55.1295 31.0923 56.1757 30.13 57.3284C29.0303 55.3311 27.0911 53.7327 24.968 54.6203C24.0568 55.0201 23.3471 55.8669 23.0212 56.9438C22.685 58.0543 22.7844 59.3163 23.3011 60.4973C25.4006 65.2039 28.5824 65.5068 28.8226 65.525C32.7248 65.525 35.804 62.6161 36.4191 59.9209C36.8057 58.2267 36.1566 56.7915 34.6826 56.0819L34.6824 56.0818Z" fill="#E54545"/>
<path id="Vector_27" d="M50.5258 37.8145C50.5258 37.628 50.4517 37.4491 50.3199 37.3173C50.188 37.1854 50.0092 37.1113 49.8227 37.1113H7.82236C7.63588 37.1113 7.45703 37.1854 7.32517 37.3173C7.19331 37.4491 7.11923 37.628 7.11923 37.8145V53.4337L43.9064 53.4334C45.2396 53.4334 46.4793 52.6595 47.0649 51.4617L50.5257 44.3816V37.8146L50.5258 37.8145Z" fill="#A5523C"/>
<path id="Vector_28" d="M71.7301 49.6092L66.1813 37.5059C66.0706 37.2646 65.8407 37.1116 65.5888 37.1116H51.1873C50.7163 37.0975 50.3735 37.6768 50.5948 38.1235L56.1438 50.2268C56.2544 50.4681 56.4843 50.6211 56.7362 50.6211H71.1378C71.6087 50.6352 71.9517 50.056 71.7302 49.6092H71.7301Z" fill="#E8996D"/>
<path id="Vector_29" d="M71.7301 49.609L66.1813 37.5056C66.0706 37.2643 65.8407 37.1113 65.5889 37.1113H64.419L68.2145 45.3902C68.4358 45.837 68.093 46.4162 67.622 46.4021H54.3903L56.1436 50.2266C56.2543 50.4679 56.4842 50.6209 56.7361 50.6209H71.1376C71.6086 50.635 71.9516 50.0557 71.7301 49.609Z" fill="#D57B5C"/>
<path id="Vector_30" d="M50.4191 37.4421C50.3559 37.3409 50.268 37.2574 50.1637 37.1995C50.0593 37.1417 49.942 37.1113 49.8227 37.1113H7.82235C7.6907 37.1113 7.56169 37.1483 7.45002 37.218C7.33834 37.2877 7.24848 37.3874 7.19066 37.5056L1.27457 49.609C1.0438 50.054 1.39958 50.6366 1.90625 50.6209H43.9064C44.0381 50.6209 44.1671 50.5839 44.2788 50.5142C44.3904 50.4445 44.4803 50.3449 44.5381 50.2266L50.4542 38.1233C50.5066 38.0161 50.5309 37.8973 50.5247 37.7781C50.5185 37.6589 50.4821 37.5433 50.4189 37.4421H50.4191Z" fill="#E8996D"/>
<path id="Vector_31" d="M50.4191 37.4421C50.3559 37.3409 50.268 37.2574 50.1637 37.1995C50.0593 37.1417 49.942 37.1113 49.8227 37.1113H45.3712L41.0225 46.0078C40.9647 46.1261 40.8748 46.2258 40.7631 46.2955C40.6515 46.3652 40.5225 46.4021 40.3908 46.4021H2.84211L1.27457 49.609C1.0438 50.054 1.39958 50.6366 1.90625 50.6209H43.9064C44.0381 50.6209 44.1671 50.5839 44.2788 50.5142C44.3904 50.4445 44.4803 50.3449 44.5381 50.2266L50.4542 38.1233C50.5066 38.0161 50.5309 37.8973 50.5247 37.7781C50.5185 37.6589 50.4821 37.5433 50.4189 37.4421H50.4191Z" fill="#D57B5C"/>
</g>
</g>
</svg>
