<svg width="68" height="72" viewBox="0 0 68 72" fill="none" xmlns="http://www.w3.org/2000/svg">
<g id="Frame" clip-path="url(#clip0_683_15281)">
<g id="Group">
<path id="Vector" fill-rule="evenodd" clip-rule="evenodd" d="M70.8322 18.7858V43.6184L57.0715 49.5932L42.3774 43.6184V35.8269C38.8361 35.8269 35.9658 32.964 35.9658 29.4277C35.9658 25.8955 38.8361 23.0327 42.3774 23.0327V15.6759C42.3774 15.5606 42.4232 15.45 42.5047 15.3685C42.5862 15.287 42.6968 15.2412 42.8121 15.2412H67.2744C69.2292 15.2412 70.8322 16.8359 70.8322 18.7858Z" fill="#CB97E7"/>
<path id="Vector_2" fill-rule="evenodd" clip-rule="evenodd" d="M66.1311 18.7858V43.6184L68.6127 45.3195L70.8322 43.6184V18.7858C70.8322 16.8359 69.2294 15.2412 67.2742 15.2412H62.5815C64.5323 15.2454 66.1311 16.8401 66.1311 18.7858Z" fill="#BD80E1"/>
<path id="Vector_3" fill-rule="evenodd" clip-rule="evenodd" d="M70.8322 43.6187V68.4512C70.8322 70.4052 69.2294 71.9999 67.2742 71.9999H42.3773L33.2403 57.8093L42.3773 43.6187H50.1931C50.1931 40.0865 53.0634 37.2236 56.6047 37.2236C60.1461 37.2236 63.0164 40.0865 63.0164 43.6187H70.8322Z" fill="#9BE69D"/>
<path id="Vector_4" fill-rule="evenodd" clip-rule="evenodd" d="M48.7889 57.8099C48.7889 61.3421 45.9186 64.205 42.3773 64.205V72.0005H17.4805C15.5237 72.0005 13.9225 70.3995 13.9225 68.4425V44.0538C13.9225 43.9385 13.9683 43.828 14.0498 43.7465C14.1313 43.6649 14.2419 43.6191 14.3572 43.6191H21.3187C21.4293 43.6193 21.5356 43.6617 21.616 43.7376C21.6963 43.8136 21.7447 43.9173 21.7512 44.0277C21.9625 47.3695 24.7463 50.0142 28.15 50.0142C31.5537 50.0142 34.3376 47.3695 34.5487 44.0277C34.5552 43.9173 34.6036 43.8136 34.684 43.7376C34.7644 43.6617 34.8707 43.6193 34.9813 43.6191H42.3774V51.4147C45.9186 51.4148 48.7889 54.2777 48.7889 57.8099Z" fill="#FE646F"/>
<path id="Vector_5" fill-rule="evenodd" clip-rule="evenodd" d="M66.1311 43.6191V68.4517C66.1311 70.4057 64.5283 72.0004 62.5732 72.0004H67.2742C69.2292 72.0004 70.8322 70.4057 70.8322 68.4517V43.6191H66.1311Z" fill="#6FD7A3"/>
<path id="Vector_6" fill-rule="evenodd" clip-rule="evenodd" d="M26.7997 17.993C26.0513 21.3046 28.0234 24.5972 31.245 25.5375C31.3514 25.5681 31.4421 25.6381 31.4985 25.7334C31.555 25.8286 31.5729 25.9418 31.5486 26.0498L30.0145 32.8178C29.9891 32.9301 29.92 33.0278 29.8226 33.0893C29.7252 33.1508 29.6074 33.1711 29.4951 33.1457L22.2974 31.5227C21.5188 34.9681 18.0852 37.1327 14.6308 36.352C11.1765 35.5753 9.00613 32.1505 9.78899 28.7052L2.16782 26.9865L7.65585 2.76541C8.08658 0.860921 10.0002 -0.34536 11.9054 0.0883275L35.7689 5.46653C35.8246 5.47909 35.8773 5.50251 35.924 5.53545C35.9706 5.56839 36.0104 5.6102 36.0409 5.65849C36.0713 5.70679 36.092 5.76062 36.1017 5.81691C36.1114 5.87321 36.1099 5.93085 36.0973 5.98656L34.5632 12.7544C34.5385 12.8622 34.4737 12.9565 34.382 13.0181C34.2902 13.0797 34.1784 13.104 34.0693 13.086C30.7542 12.5523 27.5522 14.681 26.7997 17.993Z" fill="#FFE177"/>
<path id="Vector_7" fill-rule="evenodd" clip-rule="evenodd" d="M31.306 10.1353C21.2122 10.9367 19.7915 23.0081 27.4582 26.974L26.2281 32.4107L29.4952 33.1459C29.6075 33.1712 29.7253 33.1508 29.8227 33.0893C29.9201 33.0279 29.9891 32.9302 30.0145 32.8179L31.5487 26.0498C31.5731 25.9418 31.5552 25.8286 31.4987 25.7333C31.4423 25.6381 31.3516 25.568 31.2451 25.5375C28.0236 24.5971 26.0514 21.3046 26.7998 17.993C27.5523 14.681 30.7544 12.5525 34.0694 13.086C34.1785 13.104 34.2903 13.0797 34.3821 13.0181C34.4739 12.9565 34.5387 12.8622 34.5633 12.7544L36.0975 5.98627C36.1102 5.93058 36.1117 5.87295 36.1021 5.81667C36.0924 5.76038 36.0718 5.70655 36.0413 5.65826C36.0108 5.60996 35.9711 5.56814 35.9245 5.53519C35.8778 5.50225 35.8252 5.47882 35.7695 5.46624L32.4991 4.72754L31.306 10.1353Z" fill="#FFD15B"/>
</g>
</g>
<defs>
<clipPath id="clip0_683_15281">
<rect width="72" height="72" fill="white" transform="translate(0.5)"/>
</clipPath>
</defs>
</svg>
