<svg width="73" height="70" viewBox="0 0 73 70" fill="none" xmlns="http://www.w3.org/2000/svg">
<g id="Frame" clip-path="url(#clip0_683_15167)">
<g id="Group">
<g id="29-tree">
<path id="Vector" d="M1.625 64.125H71.375V70.875H1.625V64.125Z" fill="#A8834C"/>
<g id="Group_2">
<path id="Vector_2" d="M71.0702 49.2091C72.2323 48.047 71.2906 45.2213 68.9669 42.8976C66.6433 40.574 63.8175 39.6323 62.6555 40.7944C61.4934 41.9564 62.4351 44.7821 64.7588 47.1058C67.0824 49.4295 69.9082 50.3712 71.0702 49.2091Z" fill="#F56A1B"/>
<path id="Vector_3" d="M68.8192 70.5812C69.9813 69.4191 69.0396 66.5934 66.716 64.2697C64.3923 61.946 61.5666 61.0044 60.4045 62.1664C59.2424 63.3285 60.1841 66.1542 62.5078 68.4779C64.8315 70.8016 67.6572 71.7432 68.8192 70.5812Z" fill="#F56A1B"/>
<path id="Vector_4" d="M57.7179 57.2283C60.0416 54.9047 60.9832 52.0789 59.8212 50.9169C58.6591 49.7548 55.8334 50.6965 53.5097 53.0202C51.186 55.3438 50.2444 58.1696 51.4064 59.3316C52.5685 60.4937 55.3942 59.552 57.7179 57.2283Z" fill="#F56A1B"/>
<path id="Vector_5" d="M10.4718 68.4725C12.7955 66.1488 13.7372 63.3231 12.5751 62.161C11.4131 60.999 8.58732 61.9406 6.26365 64.2643C3.93998 66.588 2.99831 69.4137 4.16036 70.5758C5.32241 71.7378 8.14815 70.7961 10.4718 68.4725Z" fill="#F56A1B"/>
<path id="Vector_6" d="M21.575 59.3273C22.737 58.1652 21.7953 55.3395 19.4717 53.0158C17.148 50.6921 14.3223 49.7505 13.1602 50.9125C11.9982 52.0746 12.9398 54.9003 15.2635 57.224C17.5872 59.5476 20.4129 60.4893 21.575 59.3273Z" fill="#F56A1B"/>
<path id="Vector_7" d="M8.22359 47.0994C10.5473 44.7758 11.4889 41.95 10.3269 40.788C9.16482 39.6259 6.33909 40.5676 4.01542 42.8913C1.69175 45.2149 0.750076 48.0407 1.91213 49.2027C3.07418 50.3648 5.89992 49.4231 8.22359 47.0994Z" fill="#F56A1B"/>
</g>
<path id="Vector_8" d="M46.355 25.8745C46.6125 25.8673 46.8667 25.9339 47.0876 26.0665C47.3085 26.1991 47.4868 26.3921 47.6016 26.6227C47.7163 26.8534 47.7626 27.1121 47.7351 27.3682C47.7076 27.6243 47.6074 27.8673 47.4463 28.0683L39.875 37.1245L40.4038 49.7808L41 64.1245H32L32.81 49.5783L33.125 43.8745H30.7738L23.3038 34.8183C23.1426 34.6173 23.0424 34.3743 23.0149 34.1182C22.9874 33.8621 23.0337 33.6034 23.1485 33.3727C23.2632 33.1421 23.4415 32.9491 23.6624 32.8165C23.8833 32.6839 24.1375 32.6173 24.395 32.6245C24.7631 32.6248 25.1172 32.7657 25.385 33.0183L31.9325 39.3745H33.3725L34.1263 25.8745C34.1587 25.2669 34.4229 24.6948 34.8645 24.2761C35.3061 23.8574 35.8915 23.624 36.5 23.624C37.1085 23.624 37.6939 23.8574 38.1355 24.2761C38.5771 24.6948 38.8413 25.2669 38.8738 25.8745L39.2225 32.2308L45.365 26.2683C45.6328 26.0157 45.9869 25.8748 46.355 25.8745Z" fill="#624729"/>
<path id="Vector_9" d="M66.875 21.3748C66.8916 23.1769 66.5239 24.9619 65.7964 26.6108C65.069 28.2597 63.9985 29.7346 62.6563 30.9373C62.6675 31.1285 62.69 31.3085 62.69 31.4998C62.69 37.091 58.46 41.6248 53.2625 41.6248C52.5108 41.619 51.7627 41.5208 51.035 41.3323C51.1162 41.8004 51.1576 42.2746 51.1588 42.7498C51.2518 44.0567 50.994 45.3648 50.4119 46.5387C49.8298 47.7126 48.9446 48.7096 47.8479 49.4266C46.7512 50.1435 45.4828 50.5545 44.1741 50.6168C42.8653 50.6791 41.5636 50.3906 40.4038 49.781L39.875 37.1248L47.4463 28.0685C47.6074 27.8675 47.7076 27.6246 47.7351 27.3685C47.7626 27.1123 47.7163 26.8536 47.6016 26.623C47.4868 26.3923 47.3085 26.1993 47.0876 26.0668C46.8667 25.9342 46.6125 25.8676 46.355 25.8748C45.9869 25.8751 45.6328 26.0159 45.365 26.2685L39.2225 32.231L38.8738 25.8748C38.8413 25.2671 38.5771 24.695 38.1355 24.2763C37.6939 23.8577 37.1085 23.6243 36.5 23.6243C35.8915 23.6243 35.3061 23.8577 34.8645 24.2763C34.4229 24.695 34.1587 25.2671 34.1263 25.8748L33.3725 39.3748H31.9325L25.385 33.0185C25.1172 32.7659 24.7631 32.6251 24.395 32.6248C24.1375 32.6176 23.8833 32.6842 23.6624 32.8168C23.4415 32.9493 23.2632 33.1423 23.1485 33.373C23.0337 33.6036 22.9874 33.8623 23.0149 34.1185C23.0424 34.3746 23.1426 34.6175 23.3038 34.8185L30.7738 43.8748H33.125L32.81 49.5785C31.7162 50.2599 30.4537 50.6223 29.165 50.6248C27.1499 50.5506 25.2466 49.6796 23.8734 48.203C22.5001 46.7263 21.7692 44.765 21.8413 42.7498C21.8424 42.2746 21.8838 41.8004 21.965 41.3323C21.2373 41.5208 20.4892 41.619 19.7375 41.6248C14.54 41.6248 10.31 37.091 10.31 31.4998C10.31 31.3085 10.3325 31.1285 10.3438 30.9373C9.00153 29.7346 7.93104 28.2597 7.20359 26.6108C6.47614 24.9619 6.10844 23.1769 6.125 21.3748C6.05698 18.5999 6.93732 15.8849 8.62066 13.6779C10.304 11.471 12.6897 9.90409 15.3838 9.23603C16.0804 7.5306 17.2615 6.06663 18.781 5.02498C20.3005 3.98333 22.0918 3.40964 23.9338 3.37478C25.7761 3.3775 27.5723 3.95135 29.075 5.01728V5.03978C29.9015 3.83324 31.0096 2.84628 32.3033 2.16433C33.5971 1.48238 35.0375 1.12598 36.5 1.12598C37.9625 1.12598 39.4029 1.48238 40.6967 2.16433C41.9904 2.84628 43.0985 3.83324 43.925 5.03978V5.01728C45.4277 3.95135 47.2239 3.3775 49.0662 3.37478C50.9082 3.40964 52.6995 3.98333 54.219 5.02498C55.7385 6.06663 56.9196 7.5306 57.6163 9.23603C60.3103 9.90409 62.696 11.471 64.3793 13.6779C66.0627 15.8849 66.943 18.5999 66.875 21.3748Z" fill="#F56A1B"/>
<path id="Vector_10" d="M66.875 21.3748C66.943 18.5999 66.0627 15.8849 64.3793 13.6779C62.696 11.471 60.3103 9.90409 57.6163 9.23603C56.9196 7.5306 55.7385 6.06663 54.219 5.02498C52.6995 3.98333 50.9082 3.40964 49.0662 3.37478C47.2239 3.3775 45.4277 3.95135 43.925 5.01728V5.03978C43.0985 3.83324 41.9904 2.84628 40.6967 2.16433C39.4029 1.48238 37.9625 1.12598 36.5 1.12598C35.0375 1.12598 33.5971 1.48238 32.3033 2.16433C31.0096 2.84628 29.9015 3.83324 29.075 5.03978V5.01728C27.5723 3.95135 25.7761 3.3775 23.9338 3.37478C22.0918 3.40964 20.3005 3.98333 18.781 5.02498C17.2615 6.06663 16.0804 7.5306 15.3838 9.23603C12.6897 9.90409 10.304 11.471 8.62066 13.6779C6.93732 15.8849 6.05698 18.5999 6.125 21.3748C6.10844 23.1769 6.47614 24.9619 7.20359 26.6108C7.93104 28.2597 9.00153 29.7346 10.3438 30.9373C10.3325 31.1285 10.31 31.3085 10.31 31.4998C10.277 33.4866 10.8287 35.4394 11.8966 37.1152C12.9645 38.7909 14.5015 40.1158 16.3164 40.925C16.1938 40.3051 16.1313 39.6748 16.1296 39.0429C16.1296 38.882 16.1476 38.7302 16.1566 38.5693C15.0956 37.5195 14.2579 36.2659 13.694 34.8839C13.13 33.502 12.8514 32.0202 12.875 30.5278C12.875 25.4765 15.9721 21.2758 20.075 20.3207C20.562 18.9274 21.4564 17.7127 22.6421 16.8339C23.8278 15.9551 25.2502 15.4527 26.7249 15.392C28.1738 15.3996 29.5796 15.8852 30.7243 16.7735V16.7915C31.318 15.7886 32.1628 14.9575 33.1753 14.3803C34.1879 13.803 35.3333 13.4994 36.4989 13.4994C37.6644 13.4994 38.8099 13.803 39.8224 14.3803C40.835 14.9575 41.6798 15.7886 42.2735 16.7915V16.7735C43.4181 15.8852 44.824 15.3996 46.2729 15.392C47.7479 15.4523 49.1708 15.9544 50.357 16.8332C51.5431 17.7121 52.4378 18.9271 52.925 20.3207C57.029 21.2758 60.125 25.4765 60.125 30.5278C60.1486 32.0202 59.87 33.502 59.306 34.8839C58.7421 36.2659 57.9044 37.5195 56.8434 38.5693C56.8524 38.7302 56.8704 38.882 56.8704 39.0429C56.8688 39.6748 56.8062 40.3051 56.6836 40.925C58.4985 40.1158 60.0355 38.7909 61.1034 37.1152C62.1713 35.4394 62.7231 33.4866 62.69 31.4998C62.69 31.3085 62.6675 31.1285 62.6563 30.9373C63.9985 29.7346 65.069 28.2597 65.7964 26.6108C66.5239 24.9619 66.8916 23.1769 66.875 21.3748Z" fill="#FF9100"/>
<path id="Vector_11" d="M46.355 25.875C45.9869 25.8753 45.6328 26.0161 45.365 26.2688L39.2225 32.2312L38.8738 25.875C38.8404 25.2677 38.5759 24.6962 38.1345 24.2778C37.693 23.8594 37.1082 23.6258 36.5 23.625V64.125H41L40.4038 49.7812L39.875 37.125L47.4462 28.0688C47.6074 27.8677 47.7076 27.6248 47.7351 27.3687C47.7626 27.1125 47.7163 26.8539 47.6015 26.6232C47.4868 26.3926 47.3085 26.1995 47.0876 26.067C46.8667 25.9344 46.6125 25.8678 46.355 25.875Z" fill="#7D5A34"/>
<path id="Vector_12" d="M55.4101 27.4259C55.974 27.0007 56.3897 26.4088 56.5985 25.7341C56.8073 25.0595 56.7985 24.3362 56.5734 23.6668C56.3482 22.9974 55.9182 22.4158 55.3442 22.0044C54.7702 21.593 54.0812 21.3727 53.375 21.3746C53.3064 21.3746 53.2422 21.3903 53.1747 21.3948C52.9146 20.6416 52.3957 20.0051 51.7104 19.5984C51.0252 19.1918 50.2179 19.0413 49.4321 19.1739C48.6463 19.3064 47.933 19.7133 47.419 20.3223C46.9051 20.9312 46.6237 21.7027 46.625 22.4996C46.625 22.5198 46.6306 22.5378 46.6306 22.5569C46.4436 22.5189 46.2533 22.4997 46.0625 22.4996C45.3534 22.4984 44.6702 22.7657 44.1501 23.2477C43.63 23.7297 43.3116 24.3906 43.2589 25.0978C43.2062 25.8049 43.4231 26.5057 43.8659 27.0595C44.3088 27.6133 44.9448 27.9789 45.6462 28.0829C45.7908 28.6955 46.0642 29.2704 46.4481 29.7692C46.8319 30.268 47.3176 30.6795 47.8727 30.9761C48.4279 31.2728 49.0398 31.4479 49.6679 31.4899C50.2959 31.5318 50.9257 31.4396 51.5154 31.2194C51.7289 31.5893 52.0241 31.9054 52.3784 32.1438C52.7328 32.3822 53.1368 32.5366 53.5599 32.5951C53.9829 32.6536 54.4137 32.6147 54.8194 32.4815C55.2252 32.3482 55.5951 32.124 55.901 31.826C56.2069 31.5281 56.4408 31.1642 56.5847 30.7621C56.7286 30.36 56.7788 29.9304 56.7315 29.506C56.6841 29.0815 56.5405 28.6735 56.3115 28.3131C56.0825 27.9526 55.7742 27.6492 55.4101 27.4259Z" fill="#BF4500"/>
<path id="Vector_13" d="M39.461 21.2387C39.5424 20.6558 39.4917 20.062 39.3125 19.5014C39.1334 18.9407 38.8304 18.4275 38.426 17.9999C38.0895 17.6443 37.6841 17.361 37.2345 17.1674C36.7848 16.9739 36.3005 16.874 35.8109 16.874C35.3214 16.874 34.837 16.9739 34.3874 17.1674C33.9377 17.361 33.5323 17.6443 33.1959 17.9999C33.143 18.055 33.1059 18.1191 33.0564 18.1776C32.3687 17.8282 31.5866 17.7104 30.8265 17.8418C30.0664 17.9732 29.3692 18.3467 28.8387 18.9066C28.1431 19.6413 27.7554 20.6146 27.7554 21.6263C27.7554 22.6381 28.1431 23.6113 28.8387 24.346C28.8534 24.3617 28.8725 24.373 28.8871 24.3876C28.7122 24.5084 28.5498 24.6464 28.4022 24.7994C27.823 25.412 27.5003 26.2231 27.5003 27.0662C27.5003 27.9094 27.823 28.7205 28.4022 29.3331C28.9124 29.8722 29.605 30.2019 30.3451 30.2579C31.0852 30.3138 31.8196 30.092 32.405 29.6357C33.341 30.2262 34.4528 30.4735 35.5508 30.3357C36.6489 30.1978 37.665 29.6832 38.426 28.8797C38.825 28.4556 39.1484 27.9663 39.3822 27.433C39.9044 27.5781 40.4563 27.5784 40.9787 27.434C41.501 27.2895 41.9743 27.0057 42.3477 26.6129C42.927 26.0002 43.2497 25.1891 43.2497 24.346C43.2497 23.5029 42.927 22.6918 42.3477 22.0791C41.9835 21.6968 41.5246 21.4177 41.0176 21.2701C40.5106 21.1225 39.9735 21.1117 39.461 21.2387Z" fill="#BF4500"/>
<path id="Vector_14" d="M62.0094 26.5213C62.3369 26.1048 62.525 25.5958 62.547 25.0664C62.5689 24.537 62.4236 24.0141 62.1316 23.572C61.8396 23.1299 61.4158 22.7909 60.9204 22.6032C60.4249 22.4155 59.8829 22.3887 59.3712 22.5264C59.3217 22.5388 59.2779 22.5635 59.2295 22.5793C58.8967 22.0826 58.3984 21.7201 57.8234 21.5564C57.2483 21.3927 56.6338 21.4385 56.0893 21.6854C55.5449 21.9324 55.1057 22.3647 54.8501 22.9051C54.5945 23.4456 54.539 24.0593 54.6935 24.6369C54.6935 24.6504 54.7047 24.6628 54.7092 24.6774C54.5663 24.685 54.4245 24.7076 54.2862 24.7449C53.7715 24.8798 53.3269 25.2046 53.0419 25.6541C52.757 26.1035 52.6529 26.6442 52.7506 27.1673C52.8482 27.6905 53.1404 28.1572 53.5683 28.4735C53.9962 28.7899 54.5281 28.9325 55.0569 28.8725C55.4188 29.5315 55.9905 30.0508 56.6812 30.348C57.3719 30.6451 58.1421 30.7031 58.8695 30.5128C59.2442 30.4102 59.5979 30.2427 59.9146 30.0178C60.1405 30.245 60.4153 30.4176 60.718 30.5224C61.0208 30.6273 61.3435 30.6616 61.6615 30.6228C61.9795 30.5839 62.2845 30.473 62.5531 30.2984C62.8217 30.1238 63.0469 29.8901 63.2115 29.6152C63.3761 29.3403 63.4757 29.0315 63.5028 28.7122C63.5298 28.393 63.4836 28.0718 63.3677 27.7731C63.2517 27.4744 63.069 27.2062 62.8336 26.9889C62.5982 26.7715 62.3163 26.6108 62.0094 26.519V26.5213ZM47.3844 38.8963C47.7119 38.4798 47.9 37.9708 47.922 37.4414C47.9439 36.912 47.7986 36.3891 47.5066 35.947C47.2146 35.5049 46.7908 35.1659 46.2954 34.9782C45.7999 34.7905 45.2579 34.7637 44.7462 34.9014C44.6967 34.9138 44.6529 34.9385 44.6045 34.9543C44.2717 34.4576 43.7734 34.0951 43.1984 33.9314C42.6233 33.7677 42.0088 33.8135 41.4643 34.0604C40.9199 34.3074 40.4807 34.7397 40.2251 35.2801C39.9695 35.8206 39.914 36.4343 40.0685 37.0119C40.0685 37.0254 40.0797 37.0378 40.0842 37.0524C39.9413 37.06 39.7995 37.0826 39.6612 37.1199C39.1465 37.2548 38.7019 37.5796 38.4169 38.0291C38.132 38.4785 38.0279 39.0192 38.1256 39.5423C38.2232 40.0655 38.5154 40.5322 38.9433 40.8485C39.3712 41.1649 39.9031 41.3075 40.4319 41.2475C40.7938 41.9065 41.3655 42.4258 42.0562 42.723C42.7469 43.0201 43.5171 43.0781 44.2445 42.8878C44.6192 42.7852 44.9729 42.6177 45.2896 42.3928C45.5155 42.62 45.7903 42.7926 46.093 42.8974C46.3958 43.0023 46.7185 43.0366 47.0365 42.9978C47.3545 42.9589 47.6595 42.848 47.9281 42.6734C48.1967 42.4988 48.4219 42.2651 48.5865 41.9902C48.7511 41.7153 48.8507 41.4065 48.8778 41.0872C48.9048 40.768 48.8586 40.4468 48.7427 40.1481C48.6267 39.8494 48.444 39.5812 48.2086 39.3639C47.9732 39.1465 47.6913 38.9858 47.3844 38.894V38.8963ZM44.0094 11.8963C44.3369 11.4798 44.525 10.9708 44.547 10.4414C44.5689 9.912 44.4236 9.38915 44.1316 8.94701C43.8396 8.50488 43.4158 8.16592 42.9204 7.97823C42.4249 7.79054 41.8829 7.76366 41.3712 7.90139C41.3217 7.91376 41.2779 7.93851 41.2295 7.95426C40.8967 7.45756 40.3984 7.09509 39.8234 6.93141C39.2483 6.76773 38.6338 6.81345 38.0893 7.06044C37.5449 7.30743 37.1057 7.73966 36.8501 8.28015C36.5945 8.82064 36.539 9.43431 36.6935 10.0119C36.6935 10.0254 36.7047 10.0378 36.7092 10.0524C36.5661 10.0615 36.4243 10.0856 36.2862 10.1244C35.7715 10.2593 35.3269 10.5841 35.0419 11.0336C34.757 11.483 34.6529 12.0237 34.7506 12.5468C34.8482 13.07 35.1404 13.5367 35.5683 13.853C35.9962 14.1694 36.5281 14.312 37.0569 14.252C37.4188 14.911 37.9905 15.4303 38.6812 15.7275C39.3719 16.0246 40.1421 16.0826 40.8695 15.8923C41.2442 15.7897 41.5979 15.6222 41.9146 15.3973C42.1405 15.6245 42.4153 15.7971 42.718 15.9019C43.0208 16.0068 43.3435 16.0411 43.6615 16.0023C43.9795 15.9634 44.2845 15.8525 44.5531 15.6779C44.8217 15.5033 45.0469 15.2696 45.2115 14.9947C45.3761 14.7198 45.4757 14.411 45.5028 14.0917C45.5298 13.7725 45.4836 13.4513 45.3677 13.1526C45.2517 12.8539 45.069 12.5857 44.8336 12.3684C44.5982 12.151 44.3163 11.9903 44.0094 11.8985V11.8963Z" fill="#FFBA26"/>
<path id="Vector_15" d="M45.3447 20.9057C45.1389 20.4174 45.092 19.8767 45.2107 19.3603C45.3294 18.8439 45.6076 18.3779 46.006 18.0285C46.4043 17.6791 46.9025 17.4639 47.43 17.4136C47.9575 17.3632 48.4874 17.4801 48.9447 17.7478C48.9897 17.7737 49.0246 17.8085 49.0674 17.8367C49.5195 17.4447 50.0962 17.2261 50.6946 17.2199C51.2929 17.2136 51.874 17.4201 52.3343 17.8025C52.7945 18.1849 53.104 18.7184 53.2074 19.3078C53.3109 19.8972 53.2016 20.5041 52.8991 21.0204L52.8732 21.0553C53.0089 21.1011 53.1397 21.1602 53.2636 21.2319C53.7243 21.498 54.0671 21.9287 54.2231 22.4373C54.3791 22.9458 54.3368 23.4946 54.1046 23.9733C53.8724 24.4519 53.4676 24.8249 52.9716 25.0172C52.4755 25.2094 51.9251 25.2068 51.431 25.0097C51.1066 25.3528 50.7128 25.6229 50.2759 25.802C49.8389 25.981 49.3689 26.065 48.897 26.0483C48.4251 26.0316 47.9621 25.9146 47.5389 25.705C47.1158 25.4955 46.7421 25.1982 46.4427 24.833C46.1649 24.9927 45.8543 25.0867 45.5345 25.108C45.2148 25.1292 44.8945 25.0772 44.5979 24.9558C44.3014 24.8344 44.0365 24.6469 43.8234 24.4076C43.6104 24.1682 43.4548 23.8834 43.3686 23.5748C43.2824 23.2661 43.2679 22.9419 43.3261 22.6268C43.3843 22.3117 43.5137 22.0141 43.7044 21.7566C43.8951 21.4991 44.1422 21.2886 44.4266 21.1411C44.7111 20.9937 45.0244 20.9131 45.3447 20.9057ZM32.2655 15.95C32.0796 15.4911 31.9983 14.9964 32.0277 14.5021C32.0571 14.0078 32.1964 13.5262 32.4354 13.0925C32.6296 12.7302 32.8954 12.411 33.2167 12.1544C33.5379 11.8978 33.9079 11.7091 34.3043 11.5997C34.7006 11.4903 35.115 11.4625 35.5224 11.518C35.9298 11.5735 36.3217 11.7111 36.6744 11.9225C36.7284 11.9552 36.7722 11.999 36.824 12.035C37.3012 11.5989 37.9068 11.3289 38.5503 11.2654C39.1937 11.202 39.8403 11.3484 40.3936 11.6829C41.1119 12.1334 41.6294 12.843 41.8388 13.6646C42.0483 14.4862 41.9336 15.3569 41.5186 16.0963C41.5096 16.1132 41.4972 16.1255 41.4882 16.1413C41.6548 16.1999 41.815 16.2753 41.9664 16.3663C42.5644 16.7422 42.9951 17.3335 43.1693 18.0181C43.3435 18.7026 43.248 19.4279 42.9024 20.0439C42.6067 20.5936 42.118 21.0143 41.5306 21.2249C40.9431 21.4355 40.2984 21.4212 39.7209 21.1847C39.0966 21.8715 38.2532 22.3202 37.3347 22.4542C36.4163 22.5882 35.4799 22.3991 34.6854 21.9193C34.274 21.6641 33.9104 21.3389 33.611 20.9585C33.223 21.1934 32.7781 21.3176 32.3246 21.3176C31.871 21.3176 31.4261 21.1934 31.0381 20.9585C30.4401 20.5827 30.0094 19.9913 29.8352 19.3068C29.661 18.6223 29.7565 17.897 30.1021 17.2809C30.3157 16.89 30.6276 16.5616 31.0071 16.3282C31.3865 16.0948 31.8203 15.9644 32.2655 15.95Z" fill="#FFA226"/>
<path id="Vector_16" d="M15.7235 32.3426C15.2687 31.7637 15.0077 31.0563 14.9774 30.3207C14.9471 29.5851 15.1491 28.8587 15.5547 28.2443C15.9603 27.6299 16.549 27.1588 17.2374 26.8977C17.9257 26.6366 18.6788 26.5988 19.3899 26.7896C19.4596 26.8087 19.5192 26.8413 19.5867 26.8638C20.0507 26.1766 20.7431 25.6759 21.5411 25.4505C22.3391 25.2251 23.1912 25.2896 23.9462 25.6326C24.7011 25.9755 25.3103 26.5748 25.6655 27.3241C26.0207 28.0734 26.0991 28.9243 25.8867 29.7258C25.8867 29.745 25.871 29.763 25.8654 29.7821C26.0641 29.7936 26.2612 29.8248 26.4537 29.8755C27.1721 30.0603 27.7934 30.5113 28.1919 31.1369C28.5903 31.7626 28.7362 32.5163 28.5999 33.2454C28.4637 33.9746 28.0555 34.6247 27.458 35.0643C26.8605 35.5039 26.1183 35.7 25.3816 35.613C25.0725 36.1916 24.6437 36.6978 24.1237 37.0979C23.6038 37.498 23.0047 37.7828 22.3661 37.9334C21.7276 38.084 21.0643 38.0969 20.4204 37.9713C19.7765 37.8457 19.1667 37.5844 18.6316 37.2048C18.3179 37.522 17.9359 37.7632 17.5147 37.91C17.0935 38.0568 16.6443 38.1053 16.2014 38.0518C15.7586 37.9984 15.3339 37.8443 14.9597 37.6015C14.5855 37.3587 14.2719 37.0335 14.0427 36.6509C13.8135 36.2682 13.6748 35.8382 13.6374 35.3937C13.5999 34.9492 13.6645 34.5021 13.8264 34.0864C13.9883 33.6708 14.2431 33.2977 14.5713 32.9956C14.8995 32.6936 15.2925 32.4706 15.7201 32.3437L15.7235 32.3426Z" fill="#BF4500"/>
<path id="Vector_17" d="M20.4676 28.7713C20.14 28.3548 19.9519 27.8458 19.93 27.3164C19.9081 26.787 20.0534 26.2641 20.3454 25.822C20.6373 25.3799 21.0611 25.0409 21.5566 24.8532C22.0521 24.6655 22.5941 24.6387 23.1057 24.7764C23.1552 24.7888 23.1991 24.8135 23.2464 24.8293C23.5792 24.3326 24.0774 23.9701 24.6525 23.8064C25.2275 23.6427 25.842 23.6885 26.3865 23.9354C26.931 24.1824 27.3701 24.6147 27.6258 25.1551C27.8814 25.6956 27.9369 26.3093 27.7824 26.8869C27.7824 26.9004 27.7711 26.9128 27.7677 26.9274C27.9107 26.9352 28.0524 26.9578 28.1907 26.9949C28.7055 27.1298 29.1501 27.4546 29.435 27.9041C29.72 28.3535 29.8241 28.8942 29.7264 29.4173C29.6287 29.9405 29.3365 30.4072 28.9086 30.7235C28.4807 31.0399 27.9489 31.1825 27.4201 31.1225C27.1975 31.539 26.8888 31.9033 26.5146 32.1913C26.1403 32.4792 25.709 32.6842 25.2493 32.7925C24.7897 32.9009 24.3123 32.9101 23.8488 32.8196C23.3853 32.7291 22.9464 32.541 22.5612 32.2678C22.3353 32.4951 22.0605 32.6679 21.7577 32.7728C21.4549 32.8777 21.1321 32.9121 20.8139 32.8733C20.4958 32.8344 20.1908 32.7234 19.9221 32.5487C19.6534 32.374 19.4282 32.1403 19.2636 31.8653C19.099 31.5902 18.9995 31.2813 18.9725 30.9619C18.9456 30.6426 18.992 30.3213 19.1081 30.0226C19.2243 29.7239 19.4071 29.4557 19.6427 29.2384C19.8783 29.0212 20.1605 28.8606 20.4676 28.769V28.7713Z" fill="#FFA226"/>
<path id="Vector_18" d="M12.6882 29.5948C12.5351 29.3584 12.431 29.0938 12.3819 28.8165C12.3328 28.5392 12.3398 28.2549 12.4025 27.9804C12.4321 27.7616 12.5074 27.5515 12.6235 27.3637C12.7396 27.1758 12.8939 27.0145 13.0763 26.8902C13.2588 26.7659 13.4654 26.6813 13.6826 26.642C13.8999 26.6026 14.123 26.6094 14.3375 26.6619C14.3679 26.672 14.396 26.6889 14.4252 26.7013C14.5782 26.3956 14.8325 26.1525 15.1448 26.0135C15.4572 25.8746 15.808 25.8485 16.1375 25.9396C16.5707 26.1157 16.9243 26.4444 17.1316 26.8635C17.3389 27.2827 17.3855 27.7632 17.2625 28.2144C17.2625 28.2245 17.2557 28.2335 17.2524 28.2448C17.3425 28.2504 17.4317 28.267 17.5179 28.2943C17.8789 28.4409 18.1736 28.7148 18.3463 29.0642C18.519 29.4135 18.5577 29.814 18.455 30.1899C18.4036 30.5221 18.2295 30.8229 17.967 31.0329C17.7046 31.2429 17.3728 31.3467 17.0375 31.3239C16.8584 31.7835 16.5159 32.1607 16.0758 32.3833C15.6356 32.6059 15.1288 32.6581 14.6525 32.5299C14.4139 32.4512 14.1925 32.3279 14 32.1665C13.8535 32.3532 13.6544 32.4917 13.4283 32.5641C13.2023 32.6365 12.9598 32.6395 12.7321 32.5726C12.3711 32.426 12.0763 32.1521 11.9037 31.8027C11.731 31.4534 11.6923 31.0529 11.795 30.677C11.8406 30.436 11.9464 30.2104 12.1026 30.0211C12.2588 29.8319 12.4602 29.6853 12.6882 29.5948ZM24.9676 14.1463C24.64 13.7298 24.4519 13.2208 24.43 12.6914C24.4081 12.162 24.5534 11.6391 24.8454 11.197C25.1373 10.7549 25.5611 10.4159 26.0566 10.2282C26.5521 10.0405 27.0941 10.0137 27.6057 10.1514C27.6552 10.1638 27.6991 10.1885 27.7464 10.2043C28.0792 9.70756 28.5774 9.34509 29.1525 9.18141C29.7275 9.01773 30.342 9.06345 30.8865 9.31044C31.431 9.55743 31.8701 9.98966 32.1258 10.5301C32.3814 11.0706 32.4369 11.6843 32.2824 12.2619C32.2824 12.2754 32.2711 12.2878 32.2677 12.3024C32.4107 12.3102 32.5524 12.3328 32.6907 12.3699C33.2055 12.5048 33.6501 12.8296 33.935 13.2791C34.22 13.7285 34.3241 14.2692 34.2264 14.7923C34.1287 15.3155 33.8365 15.7822 33.4086 16.0985C32.9807 16.4149 32.4489 16.5575 31.9201 16.4975C31.6975 16.914 31.3888 17.2783 31.0146 17.5663C30.6403 17.8542 30.209 18.0592 29.7493 18.1675C29.2897 18.2759 28.8122 18.2851 28.3488 18.1946C27.8853 18.1041 27.4464 17.916 27.0612 17.6428C26.8353 17.8701 26.5605 18.0429 26.2577 18.1478C25.9549 18.2527 25.6321 18.2871 25.3139 18.2483C24.9958 18.2094 24.6908 18.0984 24.4221 17.9237C24.1534 17.749 23.9282 17.5153 23.7636 17.2403C23.599 16.9652 23.4995 16.6563 23.4725 16.3369C23.4456 16.0176 23.492 15.6963 23.6081 15.3976C23.7243 15.0989 23.9071 14.8307 24.1427 14.6134C24.3783 14.3962 24.6605 14.2356 24.9676 14.144V14.1463ZM14.8426 19.7713C14.515 19.3548 14.3269 18.8458 14.305 18.3164C14.2831 17.787 14.4284 17.2641 14.7204 16.822C15.0123 16.3799 15.4361 16.0409 15.9316 15.8532C16.4271 15.6655 16.9691 15.6387 17.4807 15.7764C17.5302 15.7888 17.5741 15.8135 17.6214 15.8293C17.9542 15.3326 18.4524 14.9701 19.0275 14.8064C19.6025 14.6427 20.217 14.6885 20.7615 14.9354C21.306 15.1824 21.7451 15.6147 22.0008 16.1551C22.2564 16.6956 22.3119 17.3093 22.1574 17.8869C22.1574 17.9004 22.1461 17.9128 22.1427 17.9274C22.2857 17.9352 22.4274 17.9578 22.5657 17.9949C23.0805 18.1298 23.5251 18.4546 23.81 18.9041C24.095 19.3535 24.1991 19.8942 24.1014 20.4173C24.0037 20.9405 23.7115 21.4072 23.2836 21.7235C22.8557 22.0399 22.3239 22.1825 21.7951 22.1225C21.5725 22.539 21.2638 22.9033 20.8896 23.1913C20.5153 23.4792 20.084 23.6842 19.6243 23.7925C19.1647 23.9009 18.6873 23.9101 18.2238 23.8196C17.7603 23.7291 17.3214 23.541 16.9362 23.2678C16.7103 23.4951 16.4355 23.6679 16.1327 23.7728C15.8299 23.8777 15.5071 23.9121 15.1889 23.8733C14.8708 23.8344 14.5658 23.7234 14.2971 23.5487C14.0284 23.374 13.8032 23.1403 13.6386 22.8653C13.474 22.5902 13.3745 22.2813 13.3475 21.9619C13.3206 21.6426 13.367 21.3213 13.4831 21.0226C13.5993 20.7239 13.7821 20.4557 14.0177 20.2384C14.2533 20.0212 14.5355 19.8606 14.8426 19.769V19.7713Z" fill="#FFBA26"/>
<path id="Vector_19" d="M39.3125 66.375L41 64.125H32L29.75 66.375H16.8125C16.4474 66.375 16.0921 66.4934 15.8 66.7125C15.5167 66.925 15.3074 67.2213 15.2018 67.5593C15.0962 67.8974 15.0996 68.2601 15.2116 68.5961C15.3236 68.9321 15.5385 69.2244 15.8258 69.4315C16.1131 69.6386 16.4583 69.75 16.8125 69.75H50.225C50.5028 69.75 50.7763 69.6814 51.0212 69.5503C51.2661 69.4192 51.4749 69.2297 51.629 68.9985C51.7984 68.7444 51.8957 68.449 51.9104 68.144C51.9252 67.8389 51.8568 67.5355 51.7127 67.2663C51.5686 66.997 51.3541 66.7719 51.0921 66.6149C50.8301 66.4579 50.5304 66.375 50.225 66.375H39.3125Z" fill="#87693D"/>
<path id="Vector_20" d="M64.7712 47.1032C67.1 49.4207 70.3737 49.9045 71.0825 49.207L62.6675 40.792C61.97 41.5007 62.4537 44.7745 64.7712 47.1032ZM15.2712 57.2282C17.6 59.5457 20.8737 60.0295 21.5825 59.332L13.1675 50.917C12.47 51.6257 12.9537 54.8995 15.2712 57.2282ZM62.5212 68.4782C64.85 70.7957 68.1237 71.2795 68.8325 70.582L60.4175 62.167C59.72 62.8757 60.2037 66.1495 62.5212 68.4782ZM57.7287 57.2282C60.0462 54.8995 60.53 51.6257 59.8325 50.917L51.4175 59.332C52.1262 60.0295 55.4 59.5457 57.7287 57.2282ZM8.22873 47.1032C10.5462 44.7745 11.03 41.5007 10.3325 40.792L1.91748 49.207C2.62623 49.9045 5.89998 49.4207 8.22873 47.1032ZM10.4787 68.4782C12.7962 66.1495 13.28 62.8757 12.5825 62.167L4.16748 70.582C4.87623 71.2795 8.14998 70.7957 10.4787 68.4782Z" fill="#BF4500"/>
</g>
</g>
</g>
<defs>
<clipPath id="clip0_683_15167">
<rect width="72" height="72" fill="white" transform="translate(0.5)"/>
</clipPath>
</defs>
</svg>
