<svg width="24" height="25" viewBox="0 0 24 25" fill="none" xmlns="http://www.w3.org/2000/svg">
<g id="quiz-02-stroke-standard 1">
<path id="Vector" d="M11.9922 15H12.0012" stroke="#777980" stroke-width="1.5" stroke-linecap="round" stroke-linejoin="round"/>
<path id="Vector_2" d="M10 8.5C10 7.39543 10.8954 6.5 12 6.5C13.1046 6.5 14 7.39543 14 8.5C14 8.89815 13.8837 9.26913 13.6831 9.58079C13.0854 10.5097 12 11.3954 12 12.5" stroke="#777980" stroke-width="1.5" stroke-linecap="round"/>
<path id="Vector_3" d="M15.3689 16.9879C15.4201 16.6804 15.6137 16.4174 15.8811 16.2573C18.0454 14.9615 19.5 12.8813 19.5 10.1207C19.5 5.9119 16.1421 2.5 12 2.5C7.85786 2.5 4.5 5.9119 4.5 10.1207C4.5 12.881 5.86649 14.961 8.01956 16.2568C8.28663 16.4175 8.48026 16.6804 8.53151 16.9879L8.81093 18.6644C8.89129 19.1466 9.30848 19.5 9.79732 19.5H14.1031C14.5919 19.5 15.0091 19.1466 15.0895 18.6644L15.3689 16.9879Z" stroke="#777980" stroke-width="1.5" stroke-linejoin="round"/>
<path id="Vector_4" d="M14 19.5V21.5C14 22.0523 13.5523 22.5 13 22.5H11C10.4477 22.5 10 22.0523 10 21.5V19.5" stroke="#777980" stroke-width="1.5" stroke-linejoin="round"/>
</g>
</svg>
