<svg width="24" height="25" viewBox="0 0 24 25" fill="none" xmlns="http://www.w3.org/2000/svg">
<g id="stars-stroke-standard 1">
<path id="Vector" d="M3 12.5C7.5 12.5 12 8 12 3.5C12 8 16.5 12.5 21 12.5C16.5 12.5 12 17 12 21.5C12 17 7.5 12.5 3 12.5Z" stroke="#777980" stroke-width="1.5" stroke-linecap="round" stroke-linejoin="round"/>
<path id="Vector_2" d="M16 5.5C17.6569 5.5 19 4.15685 19 2.5C19 4.15685 20.3431 5.5 22 5.5C20.3431 5.5 19 6.84315 19 8.5C19 6.84315 17.6569 5.5 16 5.5Z" stroke="#777980" stroke-width="1.5" stroke-linecap="round" stroke-linejoin="round"/>
<path id="Vector_3" d="M2 20C3.38071 20 4.5 18.8807 4.5 17.5C4.5 18.8807 5.61929 20 7 20C5.61929 20 4.5 21.1193 4.5 22.5C4.5 21.1193 3.38071 20 2 20Z" stroke="#777980" stroke-width="1.5" stroke-linecap="round" stroke-linejoin="round"/>
</g>
</svg>
