<svg width="20" height="20" viewBox="0 0 20 20" fill="none" xmlns="http://www.w3.org/2000/svg">
<path fill-rule="evenodd" clip-rule="evenodd" d="M10 2C9.1716 2 8.5 2.67157 8.5 3.5C8.5 4.32843 9.1716 5 10 5C10.8284 5 11.5 4.32843 11.5 3.5C11.5 2.67157 10.8284 2 10 2ZM13.5 3.5C13.5 5.08551 12.4457 6.42479 11 6.85506V17.9381C14.3787 17.5168 17.1031 14.9885 17.8169 11.7096L17.4472 11.8944C16.9532 12.1414 16.3526 11.9412 16.1056 11.4472C15.8586 10.9532 16.0588 10.3526 16.5528 10.1056L18.5528 9.1056C18.8628 8.9506 19.2309 8.9671 19.5257 9.1494C19.8205 9.3316 20 9.6534 20 10C20 15.5228 15.5228 20 10 20C4.47715 20 0 15.5228 0 10C0 9.6534 0.17945 9.3316 0.47427 9.1494C0.76909 8.9671 1.13723 8.9506 1.44721 9.1056L3.44721 10.1056C3.94119 10.3526 4.14142 10.9532 3.89443 11.4472C3.64744 11.9412 3.04676 12.1414 2.55279 11.8944L2.18307 11.7096C2.89686 14.9885 5.62127 17.5168 9 17.9381V6.85506C7.55426 6.42479 6.5 5.08551 6.5 3.5C6.5 1.567 8.067 0 10 0C11.933 0 13.5 1.567 13.5 3.5Z" fill="#4ED5BD"/>
</svg>
