<svg width="24" height="25" viewBox="0 0 24 25" fill="none" xmlns="http://www.w3.org/2000/svg">
<g id="anchor-solid-standard 1">
<path id="Vector" fill-rule="evenodd" clip-rule="evenodd" d="M12 4.5C11.1716 4.5 10.5 5.17157 10.5 6C10.5 6.82843 11.1716 7.5 12 7.5C12.8284 7.5 13.5 6.82843 13.5 6C13.5 5.17157 12.8284 4.5 12 4.5ZM15.5 6C15.5 7.58551 14.4457 8.92479 13 9.35506V20.4381C16.3787 20.0168 19.1031 17.4885 19.8169 14.2096L19.4472 14.3944C18.9532 14.6414 18.3526 14.4412 18.1056 13.9472C17.8586 13.4532 18.0588 12.8526 18.5528 12.6056L20.5528 11.6056C20.8628 11.4506 21.2309 11.4671 21.5257 11.6494C21.8205 11.8316 22 12.1534 22 12.5C22 18.0228 17.5228 22.5 12 22.5C6.47715 22.5 2 18.0228 2 12.5C2 12.1534 2.17945 11.8316 2.47427 11.6494C2.76909 11.4671 3.13723 11.4506 3.44721 11.6056L5.44721 12.6056C5.94119 12.8526 6.14142 13.4532 5.89443 13.9472C5.64744 14.4412 5.04676 14.6414 4.55279 14.3944L4.18307 14.2096C4.89686 17.4885 7.62127 20.0168 11 20.4381V9.35506C9.55426 8.92479 8.5 7.58551 8.5 6C8.5 4.067 10.067 2.5 12 2.5C13.933 2.5 15.5 4.067 15.5 6Z" fill="#777980"/>
</g>
</svg>
