<svg width="20" height="20" viewBox="0 0 20 20" fill="none" xmlns="http://www.w3.org/2000/svg">
<g id="license-draft-solid-rounded 2">
<path id="Vector" fill-rule="evenodd" clip-rule="evenodd" d="M8.91121 1.0415H9.83846C11.37 1.04149 12.583 1.04148 13.5323 1.16911C14.5093 1.30047 15.3001 1.57724 15.9237 2.20087C16.5474 2.82451 16.8241 3.6153 16.9555 4.59232C17.0831 5.54165 17.0831 6.75471 17.0831 8.28616V10.0991C16.4865 9.92577 15.8408 9.97935 15.2747 10.2599C14.897 10.447 14.6034 10.7436 14.445 10.9035L10.2792 15.0696C10.1005 15.2463 9.76063 15.5824 9.56579 16.0526C9.37105 16.5228 9.37371 17.0008 9.37513 17.2521L9.37538 18.3333C9.37546 18.5543 9.41846 18.7652 9.49654 18.9582H8.91113C7.37966 18.9582 6.16664 18.9582 5.21729 18.8305C4.24026 18.6992 3.44947 18.4224 2.82583 17.7988C2.2022 17.1751 1.92544 16.3844 1.79409 15.4074C1.66646 14.458 1.66648 13.2449 1.6665 11.7134L1.66654 8.28609C1.66654 6.75464 1.66654 5.54162 1.79418 4.59229C1.92555 3.61527 2.20231 2.82449 2.82595 2.20086C3.44958 1.57723 4.24036 1.30047 5.21738 1.16911C6.16671 1.04148 7.37974 1.04149 8.91121 1.0415ZM6.0415 4.99984C5.58126 4.99984 5.20817 5.37293 5.20817 5.83317C5.20817 6.2934 5.58126 6.6665 6.0415 6.6665H12.7081C13.1684 6.6665 13.5415 6.2934 13.5415 5.83317C13.5415 5.37293 13.1684 4.99984 12.7081 4.99984H6.0415ZM6.0415 9.16652C5.58126 9.16652 5.20817 9.5396 5.20817 9.99985C5.20817 10.4601 5.58126 10.8332 6.0415 10.8332H11.0415C11.5017 10.8332 11.8748 10.4601 11.8748 9.99985C11.8748 9.5396 11.5017 9.16652 11.0415 9.16652H6.0415Z" fill="#1D1F2C"/>
<path id="Vector_2" d="M15.7369 11.1933C16.1452 10.9909 16.6246 10.9909 17.033 11.1933C17.2515 11.3015 17.531 11.5819 17.7085 11.7603C17.8869 11.9378 18.0734 12.1233 18.1816 12.3418C18.384 12.7501 18.384 13.2296 18.1816 13.6379C18.0734 13.8564 17.8869 14.0419 17.7085 14.2194L13.5946 18.3336C13.403 18.5263 13.1963 18.7343 12.9238 18.8471C12.6514 18.9599 12.3582 18.9591 12.0864 18.9583L11.0418 18.9582C10.6965 18.9582 10.4168 18.6783 10.4168 18.3332L10.4166 17.2887C10.4159 17.0168 10.415 16.7237 10.5279 16.4513C10.6407 16.1788 10.8486 15.9721 11.0415 15.7804L15.1553 11.6663C15.3328 11.4879 15.5184 11.3015 15.7369 11.1933Z" fill="#1D1F2C"/>
</g>
</svg>
