<svg width="20" height="20" viewBox="0 0 20 20" fill="none" xmlns="http://www.w3.org/2000/svg">
<g id="ai-editing-solid-standard 1">
<path id="Vector" d="M4.77511 1.7601C4.92392 1.35796 5.4927 1.35796 5.64151 1.7601L6.30847 3.56253C6.40204 3.81539 6.60141 4.01476 6.85428 4.10834L8.65673 4.77529C9.05881 4.9241 9.05881 5.49289 8.65673 5.64169L6.85428 6.30865C6.60141 6.40223 6.40204 6.60159 6.30847 6.85446L5.64151 8.65691C5.4927 9.05899 4.92392 9.05899 4.77511 8.65691L4.10815 6.85446C4.01458 6.60159 3.81521 6.40223 3.56234 6.30865L1.75992 5.64169C1.35778 5.49289 1.35778 4.9241 1.75992 4.77529L3.56234 4.10834C3.81521 4.01476 4.01458 3.81539 4.10815 3.56253L4.77511 1.7601Z" fill="#4A4C56"/>
<path id="Vector_2" fill-rule="evenodd" clip-rule="evenodd" d="M15.9729 4.80079C15.4052 4.23307 14.4847 4.23307 13.917 4.80079L12.0445 6.67331L14.1919 8.82075C14.436 9.06484 14.436 9.46059 14.1919 9.70467C13.9478 9.94875 13.5522 9.94875 13.3081 9.70467L11.1606 7.55719L4.55806 14.1598C4.44085 14.2769 4.375 14.4359 4.375 14.6017V17.9167C4.375 18.2618 4.65483 18.5417 5 18.5417H8.31498C8.48075 18.5417 8.63975 18.4758 8.75692 18.3586L18.1158 8.99967C18.6836 8.43192 18.6836 7.51148 18.1158 6.94376L15.9729 4.80079Z" fill="#4A4C56"/>
</g>
</svg>
