<svg width="25" height="24" viewBox="0 0 25 24" fill="none" xmlns="http://www.w3.org/2000/svg">
<g id="alert-02-solid-rounded 1">
<path id="Vector" fill-rule="evenodd" clip-rule="evenodd" d="M10.862 2.015C11.9264 1.66167 13.0736 1.66167 14.138 2.015C15.1981 2.36687 16.0304 3.20141 16.8665 4.37395C17.6999 5.5426 18.6208 7.17206 19.8078 9.2725L19.8544 9.35496C21.0417 11.4557 21.9625 13.0851 22.5364 14.4065C23.113 15.7343 23.4002 16.8807 23.1711 17.9821C22.9403 19.0911 22.3714 20.0995 21.5428 20.8617C20.7162 21.622 19.5907 21.9428 18.1736 22.0968C16.7645 22.25 14.9212 22.25 12.5488 22.25H12.4513C10.0788 22.25 8.23554 22.25 6.82642 22.0968C5.40927 21.9428 4.28379 21.622 3.45722 20.8617C2.62862 20.0995 2.05968 19.0911 1.82895 17.9821C1.5998 16.8807 1.887 15.7343 2.46365 14.4065C3.03752 13.0851 3.95835 11.4557 5.14558 9.35495L5.19218 9.2725C6.37921 7.17207 7.30008 5.5426 8.13347 4.37395C8.96963 3.20141 9.80194 2.36687 10.862 2.015ZM11.5 17C11.5 16.4477 11.9457 16 12.4955 16H12.5045C13.0543 16 13.5 16.4477 13.5 17C13.5 17.5523 13.0543 18 12.5045 18H12.4955C11.9457 18 11.5 17.5523 11.5 17ZM11.5 13C11.5 13.5523 11.9477 14 12.5 14C13.0523 14 13.5 13.5523 13.5 13V9C13.5 8.44772 13.0523 8 12.5 8C11.9477 8 11.5 8.44772 11.5 9V13Z" fill="#ED544E"/>
</g>
</svg>
