<svg width="266" height="166" viewBox="0 0 266 166" fill="none" xmlns="http://www.w3.org/2000/svg">
<path d="M92.0681 9.64897C92.0681 13.8265 98.7639 17.213 94.1045 17.213C89.4451 17.213 85.668 13.8265 85.668 9.64897C85.668 5.47148 89.4451 2.08496 94.1045 2.08496C98.7639 2.08496 92.0681 5.47148 92.0681 9.64897Z" fill="#FE964A"/>
<path d="M158.23 6L159.362 9.4844H163.026L160.062 11.6379L161.194 15.1223L158.23 12.9688L155.266 15.1223L156.398 11.6379L153.434 9.4844H157.098L158.23 6Z" fill="#FE964A"/>
<path d="M34.378 79.6555C34.378 79.6555 45.126 74.3022 47.5643 77.1081C48.9038 78.6496 49.9154 80.5166 48.7157 82.0335C47.7909 83.2028 46.4558 83.3519 44.8914 83.0771C41.5786 82.4954 41.6288 77.8949 42.9586 75.0457C44.7947 71.1119 54.5412 73.4338 54.5412 73.4338" stroke="#0BA259" stroke-width="2.01707"/>
<circle cx="229.215" cy="74.2923" r="5.88312" fill="#FFEDEC"/>
<path d="M56.0469 135.99L56.884 128.771L62.7194 132.47L63.3846 126.413L68.7074 130.08L70.3651 123.532" stroke="#E8D7FF" stroke-width="1.68089"/>
<path d="M193.302 21.9252C193.302 21.9252 192.484 17.0644 194.832 16.0956C196.805 15.2817 198.515 18.8811 200.136 17.5761C201.778 16.2543 197.679 14.1603 199.014 12.5794C200.419 10.9155 204.93 12.5794 204.93 12.5794" stroke="#2F78EE" stroke-width="2.01707"/>
<path d="M32.9533 14.64L54.5596 25.3963L49.1594 32.7605L32.9533 14.64Z" fill="#6A42C2"/>
<circle cx="224.346" cy="94.3124" r="2.52134" fill="#FFEDEC"/>
<path d="M200.116 127.502C202.887 127.781 205.581 123.565 205.27 126.656C204.959 129.747 202.46 132.026 199.689 131.747C196.918 131.468 194.924 128.737 195.235 125.646C195.546 122.555 197.345 127.223 200.116 127.502Z" fill="#6A42C2"/>
<path d="M209.111 38.9932L210.998 44.8005H217.105L212.165 48.3896L214.052 54.197L209.111 50.6078L204.171 54.197L206.058 48.3896L201.118 44.8005H207.225L209.111 38.9932Z" fill="#0BA259"/>
<rect x="82.8008" y="25.8232" width="100" height="100" rx="50" fill="#F7F5FC"/>
<g filter="url(#filter0_d_170_13358)">
<rect x="102.801" y="45.8232" width="60" height="60" rx="30" fill="white" shape-rendering="crispEdges"/>
<path fill-rule="evenodd" clip-rule="evenodd" d="M143.685 68.6894C144.173 69.1775 144.173 69.969 143.685 70.4571L131.185 82.9571C130.697 83.4453 129.905 83.4453 129.417 82.9571L123.167 76.7071C122.679 76.219 122.679 75.4275 123.167 74.9394C123.655 74.4512 124.447 74.4512 124.935 74.9394L130.301 80.3055L141.917 68.6894C142.405 68.2012 143.197 68.2012 143.685 68.6894Z" fill="#6A42C2"/>
</g>
<defs>
<filter id="filter0_d_170_13358" x="62.8008" y="25.8232" width="140" height="140" filterUnits="userSpaceOnUse" color-interpolation-filters="sRGB">
<feFlood flood-opacity="0" result="BackgroundImageFix"/>
<feColorMatrix in="SourceAlpha" type="matrix" values="0 0 0 0 0 0 0 0 0 0 0 0 0 0 0 0 0 0 127 0" result="hardAlpha"/>
<feOffset dy="20"/>
<feGaussianBlur stdDeviation="20"/>
<feComposite in2="hardAlpha" operator="out"/>
<feColorMatrix type="matrix" values="0 0 0 0 0.415686 0 0 0 0 0.258824 0 0 0 0 0.760784 0 0 0 0.3 0"/>
<feBlend mode="normal" in2="BackgroundImageFix" result="effect1_dropShadow_170_13358"/>
<feBlend mode="normal" in="SourceGraphic" in2="effect1_dropShadow_170_13358" result="shape"/>
</filter>
</defs>
</svg>
