<svg width="25" height="24" viewBox="0 0 25 24" fill="none" xmlns="http://www.w3.org/2000/svg">
<path fill-rule="evenodd" clip-rule="evenodd" d="M12.0412 2.0015C14.6631 1.93735 16.6543 3.94579 16.7492 6.3353C16.7712 6.88715 16.3416 7.35229 15.7897 7.37423C15.2379 7.39616 14.7727 6.96658 14.7508 6.41473C14.6986 5.10037 13.6031 3.96388 12.0901 4.0009C11.7681 4.00878 11.3273 4.12457 10.0726 4.47848C7.29407 5.26221 5.32159 6.4599 4.84088 8.91093C4.75456 9.35105 4.75002 9.86248 4.75002 11.1628V12.8373C4.75002 14.1375 4.75456 14.649 4.84088 15.0891C5.32159 17.5401 7.29407 18.7378 10.0726 19.5215C11.3273 19.8754 11.7681 19.9912 12.0901 19.9991C13.6031 20.0361 14.6986 18.8996 14.7508 17.5853C14.7727 17.0334 15.2379 16.6038 15.7897 16.6258C16.3416 16.6477 16.7712 17.1129 16.7492 17.6647C16.6543 20.0542 14.6631 22.0627 12.0412 21.9985C11.4317 21.9836 10.724 21.7837 9.68755 21.491C9.63575 21.4764 9.58313 21.4615 9.52967 21.4464C6.58519 20.6159 3.58955 19.1006 2.87827 15.474C2.74978 14.8189 2.74987 14.0995 2.75001 12.9538C2.75001 12.9154 2.75002 12.8766 2.75002 12.8373L2.75002 11.1628C2.75002 11.1234 2.75001 11.0846 2.75001 11.0463C2.74987 9.90053 2.74978 9.18113 2.87827 8.526C3.58955 4.89942 6.5852 3.38413 9.52967 2.55359C9.58314 2.53851 9.63576 2.52365 9.68756 2.50902C10.724 2.21629 11.4317 2.01641 12.0412 2.0015Z" fill="#1D1F2C"/>
<path d="M21.25 13.0059C21.8023 13.0059 22.25 12.5581 22.25 12.0059C22.25 11.4536 21.8023 11.0059 21.25 11.0059L13.75 11.0059L13.75 10.4116C13.7501 10.236 13.7503 10.0203 13.7282 9.84387L13.7278 9.84053C13.712 9.71408 13.6402 9.13804 13.0746 8.86368C12.5077 8.58872 12.0076 8.89065 11.8994 8.95597L11.4309 9.29511C11.0551 9.58975 10.5406 9.99545 10.1496 10.3759C9.95451 10.5657 9.75328 10.783 9.59443 11.0139C9.45323 11.2191 9.24996 11.5693 9.24996 12C9.24996 12.4307 9.45323 12.7809 9.59443 12.9861C9.75328 13.217 9.95451 13.4343 10.1496 13.6241C10.5406 14.0046 11.0551 14.4102 11.4309 14.7049L11.8994 15.044C12.0076 15.1093 12.5078 15.4113 13.0746 15.1363C13.6402 14.862 13.712 14.2859 13.7278 14.1595L13.7282 14.1561C13.7503 13.9797 13.7501 13.764 13.75 13.5884L13.75 13.0059L21.25 13.0059Z" fill="#1D1F2C"/>
</svg>
