<svg width="368" height="76" viewBox="0 0 368 76" fill="none" xmlns="http://www.w3.org/2000/svg">
<g clip-path="url(#clip0_1004_6712)">
<g opacity="0.5" clip-path="url(#clip1_1004_6712)">
<path d="M39.6634 66.8951C38.0709 66.8592 36.4947 67.2209 35.0772 67.9475C33.9121 68.5609 32.6085 68.8636 31.2924 68.8261C29.9805 68.8628 28.681 68.5636 27.5172 67.9571C24.3434 66.5621 22.5077 63.204 23.0469 59.7793C23.1718 58.8991 23.5434 58.0723 24.1186 57.3945C22.1611 56.7924 20.0668 56.7991 18.1132 57.4138C17.4272 57.6892 16.8075 58.1069 16.2949 58.6395C15.7822 59.1721 15.3885 59.8074 15.1395 60.5034C14.7024 61.4481 14.4947 62.4828 14.5333 63.523C14.5719 64.5633 14.8557 65.5797 15.3615 66.4895C16.8291 69.0963 20.1602 71.1143 24.0511 71.7322C24.2912 71.7708 24.5079 71.8985 24.6581 72.0897C24.8083 72.281 24.8808 72.5218 24.8614 72.7642C24.8419 73.0066 24.7318 73.2328 24.553 73.3976C24.3742 73.5624 24.1398 73.6538 23.8966 73.6536C23.845 73.6549 23.7933 73.6517 23.7422 73.6439C19.2815 72.9295 15.4292 70.5446 13.6817 67.4357C13.0335 66.272 12.6656 64.9733 12.6069 63.6426C12.5482 62.3119 12.8005 60.9858 13.3437 59.7696C13.6956 58.8347 14.2377 57.983 14.9357 57.2684C15.6337 56.5537 16.4725 55.9917 17.3989 55.6179C21.454 54.0056 26.156 55.8207 27.1311 56.3711C27.7826 56.7444 28.3722 57.2167 28.8787 57.771C28.965 57.9006 29.0809 58.0076 29.217 58.0832C29.3531 58.1588 29.5052 58.2007 29.6608 58.2055C29.8149 58.206 29.9671 58.1714 30.1059 58.1045C30.2447 58.0377 30.3665 57.9401 30.4622 57.8193C31.05 57.0828 31.4097 56.1905 31.4972 55.2522C31.5847 54.3139 31.3961 53.3705 30.9545 52.538C29.4677 49.5739 25.4704 47.585 21.0001 47.585C17.505 47.585 11.0167 48.3863 6.72989 53.7449C4.67919 56.1942 3.61541 59.32 3.74643 62.5117C3.78115 63.3373 3.65041 64.1616 3.3619 64.9359C3.07338 65.7102 2.63293 66.419 2.06644 67.0206C1.53681 67.5844 0.898443 68.0351 0.18987 68.3454C-0.518704 68.6557 -1.2828 68.8192 -2.05631 68.8261H-2.17217C-3.36957 68.8617 -4.5581 68.6101 -5.63836 68.0923C-6.12359 67.8743 -6.69381 68.0903 -6.91279 68.575C-6.98997 68.7372 -7.01688 68.9188 -6.99006 69.0964C-6.99809 69.141 -7.00133 69.1863 -6.99971 69.2316C-7.00054 70.6339 -6.69106 72.0191 -6.09346 73.2877C-5.49586 74.5564 -4.62494 75.677 -3.54317 76.5694C-2.40646 77.4968 -1.0782 78.1606 0.345931 78.5129C1.77006 78.8652 3.25459 78.8972 4.69258 78.6066C4.81809 78.5777 4.94359 78.5584 5.07875 78.539C4.04054 77.7281 3.19723 76.6949 2.61077 75.5153C2.02432 74.3357 1.70963 73.0397 1.68983 71.7225C1.68983 71.1892 2.1221 70.7569 2.65538 70.7569C3.18865 70.7569 3.62092 71.1892 3.62092 71.7225C3.62092 76.1832 7.88847 78.3169 9.94497 79.3404C9.95462 79.35 9.96427 79.3597 9.97391 79.3597C11.3914 80.0863 12.9676 80.448 14.5601 80.412C16.1523 80.4453 17.7279 80.0837 19.1463 79.3597C20.3078 78.746 21.6083 78.4434 22.9215 78.481C24.2376 78.4436 25.5412 78.7462 26.7063 79.3597C28.1242 80.085 29.7001 80.4466 31.2925 80.412C32.8848 80.4466 34.4607 80.085 35.8786 79.3597C37.0566 78.7816 38.3513 78.481 39.6634 78.481C40.9755 78.481 42.2702 78.7816 43.4482 79.3597C44.8661 80.085 46.4421 80.4466 48.0344 80.412C48.1621 80.4115 48.2885 80.3857 48.4062 80.3359C48.5239 80.2862 48.6305 80.2136 48.7199 80.1223C48.8105 80.033 48.8821 79.9261 48.9302 79.8083C48.9783 79.6905 49.002 79.5641 48.9998 79.4368C48.9709 75.1019 46.9916 66.8951 39.6634 66.8951ZM15.2071 50.4815C15.7404 50.4815 16.1727 50.9138 16.1727 51.4471C16.1727 51.9803 15.7404 52.4126 15.2071 52.4126C14.6738 52.4126 14.2416 51.9803 14.2416 51.4471C14.2431 50.9145 14.6745 50.483 15.2071 50.4815ZM11.9148 54.0828C11.102 54.672 10.3715 55.3668 9.74239 56.149C8.73598 57.3491 8.04857 58.7837 7.74377 60.32C7.70206 60.5402 7.58465 60.739 7.41186 60.8818C7.23907 61.0246 7.02178 61.1025 6.79761 61.102C6.73604 61.1004 6.6747 61.0939 6.61413 61.0827C6.08905 60.9839 5.74331 60.4783 5.84171 59.9531C6.21206 58.1101 7.0349 56.3881 8.23614 54.9421C8.97297 54.0267 9.8267 53.2119 10.7755 52.5186C11.2079 52.2048 11.813 52.3011 12.1268 52.7335C12.4397 53.1651 12.3449 53.7683 11.9148 54.0828Z" fill="white"/>
<path d="M29.6897 62.0678C30.223 62.0678 30.6553 61.6355 30.6553 61.1023C30.6553 60.569 30.223 60.1367 29.6897 60.1367C29.1565 60.1367 28.7242 60.569 28.7242 61.1023C28.7242 61.6355 29.1565 62.0678 29.6897 62.0678Z" fill="white"/>
<path d="M33.5517 65.9301C34.085 65.9301 34.5173 65.4978 34.5173 64.9646C34.5173 64.4313 34.085 63.999 33.5517 63.999C33.0185 63.999 32.5862 64.4313 32.5862 64.9646C32.5862 65.4978 33.0185 65.9301 33.5517 65.9301Z" fill="white"/>
</g>
<g opacity="0.5" clip-path="url(#clip2_1004_6712)">
<path d="M95.6634 68.8951C94.0709 68.8592 92.4947 69.2209 91.0772 69.9475C89.9121 70.5609 88.6085 70.8636 87.2924 70.8261C85.9805 70.8628 84.681 70.5636 83.5172 69.9571C80.3434 68.5621 78.5077 65.204 79.0469 61.7793C79.1718 60.8991 79.5434 60.0723 80.1186 59.3945C78.1611 58.7924 76.0668 58.7991 74.1132 59.4138C73.4272 59.6892 72.8075 60.1069 72.2949 60.6395C71.7822 61.1721 71.3885 61.8074 71.1395 62.5034C70.7024 63.4481 70.4947 64.4828 70.5333 65.523C70.5719 66.5633 70.8557 67.5797 71.3615 68.4895C72.8291 71.0963 76.1602 73.1143 80.0511 73.7322C80.2912 73.7708 80.5079 73.8985 80.6581 74.0897C80.8083 74.281 80.8808 74.5218 80.8614 74.7642C80.8419 75.0066 80.7318 75.2328 80.553 75.3976C80.3742 75.5624 80.1398 75.6538 79.8966 75.6536C79.845 75.6549 79.7933 75.6517 79.7422 75.6439C75.2815 74.9295 71.4292 72.5446 69.6817 69.4357C69.0335 68.272 68.6656 66.9733 68.6069 65.6426C68.5482 64.3119 68.8005 62.9858 69.3437 61.7696C69.6956 60.8347 70.2377 59.983 70.9357 59.2684C71.6337 58.5537 72.4725 57.9917 73.3989 57.6179C77.454 56.0056 82.156 57.8207 83.1311 58.3711C83.7826 58.7444 84.3722 59.2167 84.8787 59.771C84.965 59.9006 85.0809 60.0076 85.217 60.0832C85.3531 60.1588 85.5052 60.2007 85.6608 60.2055C85.8149 60.206 85.9671 60.1714 86.1059 60.1045C86.2447 60.0377 86.3665 59.9401 86.4622 59.8193C87.05 59.0828 87.4097 58.1905 87.4972 57.2522C87.5847 56.3139 87.3961 55.3705 86.9545 54.538C85.4677 51.5739 81.4704 49.585 77.0001 49.585C73.505 49.585 67.0167 50.3863 62.7299 55.7449C60.6792 58.1942 59.6154 61.32 59.7464 64.5117C59.7811 65.3373 59.6504 66.1616 59.3619 66.9359C59.0734 67.7102 58.6329 68.419 58.0664 69.0206C57.5368 69.5844 56.8984 70.0351 56.1899 70.3454C55.4813 70.6557 54.7172 70.8192 53.9437 70.8261H53.8278C52.6304 70.8617 51.4419 70.6101 50.3616 70.0923C49.8764 69.8743 49.3062 70.0903 49.0872 70.575C49.01 70.7372 48.9831 70.9188 49.0099 71.0964C49.0019 71.141 48.9987 71.1863 49.0003 71.2316C48.9995 72.6339 49.3089 74.0191 49.9065 75.2877C50.5041 76.5564 51.3751 77.677 52.4568 78.5694C53.5935 79.4968 54.9218 80.1606 56.3459 80.5129C57.7701 80.8652 59.2546 80.8972 60.6926 80.6066C60.8181 80.5777 60.9436 80.5584 61.0787 80.539C60.0405 79.7281 59.1972 78.6949 58.6108 77.5153C58.0243 76.3357 57.7096 75.0397 57.6898 73.7225C57.6898 73.1892 58.1221 72.7569 58.6554 72.7569C59.1886 72.7569 59.6209 73.1892 59.6209 73.7225C59.6209 78.1832 63.8885 80.3169 65.945 81.3404C65.9546 81.35 65.9643 81.3597 65.9739 81.3597C67.3914 82.0863 68.9676 82.448 70.5601 82.412C72.1523 82.4453 73.7279 82.0837 75.1463 81.3597C76.3078 80.746 77.6083 80.4434 78.9215 80.481C80.2376 80.4436 81.5412 80.7462 82.7063 81.3597C84.1242 82.085 85.7001 82.4466 87.2925 82.412C88.8848 82.4466 90.4607 82.085 91.8786 81.3597C93.0566 80.7816 94.3513 80.481 95.6634 80.481C96.9755 80.481 98.2702 80.7816 99.4482 81.3597C100.866 82.085 102.442 82.4466 104.034 82.412C104.162 82.4115 104.288 82.3857 104.406 82.3359C104.524 82.2862 104.63 82.2136 104.72 82.1223C104.811 82.033 104.882 81.9261 104.93 81.8083C104.978 81.6905 105.002 81.5641 105 81.4368C104.971 77.1019 102.992 68.8951 95.6634 68.8951ZM71.2071 52.4815C71.7404 52.4815 72.1727 52.9138 72.1727 53.4471C72.1727 53.9803 71.7404 54.4126 71.2071 54.4126C70.6738 54.4126 70.2416 53.9803 70.2416 53.4471C70.2431 52.9145 70.6745 52.483 71.2071 52.4815ZM67.9148 56.0828C67.102 56.672 66.3715 57.3668 65.7424 58.149C64.736 59.3491 64.0486 60.7837 63.7438 62.32C63.7021 62.5402 63.5847 62.739 63.4119 62.8818C63.2391 63.0246 63.0218 63.1025 62.7976 63.102C62.736 63.1004 62.6747 63.0939 62.6141 63.0827C62.0891 62.9839 61.7433 62.4783 61.8417 61.9531C62.2121 60.1101 63.0349 58.3881 64.2361 56.9421C64.973 56.0267 65.8267 55.2119 66.7755 54.5186C67.2079 54.2048 67.813 54.3011 68.1268 54.7335C68.4397 55.1651 68.3449 55.7683 67.9148 56.0828Z" fill="white"/>
<path d="M51.8969 68.895C52.4302 68.895 52.8625 68.4627 52.8625 67.9294C52.8625 67.3962 52.4302 66.9639 51.8969 66.9639C51.3637 66.9639 50.9314 67.3962 50.9314 67.9294C50.9314 68.4627 51.3637 68.895 51.8969 68.895Z" fill="white"/>
<path d="M85.6897 64.0678C86.223 64.0678 86.6553 63.6355 86.6553 63.1023C86.6553 62.569 86.223 62.1367 85.6897 62.1367C85.1565 62.1367 84.7242 62.569 84.7242 63.1023C84.7242 63.6355 85.1565 64.0678 85.6897 64.0678Z" fill="white"/>
<path d="M89.5517 67.9301C90.085 67.9301 90.5173 67.4978 90.5173 66.9646C90.5173 66.4313 90.085 65.999 89.5517 65.999C89.0185 65.999 88.5862 66.4313 88.5862 66.9646C88.5862 67.4978 89.0185 67.9301 89.5517 67.9301Z" fill="white"/>
</g>
<path d="M321.337 67.3102C322.929 67.2743 324.505 67.636 325.923 68.3625C327.088 68.976 328.391 69.2786 329.708 69.2412C331.019 69.2778 332.319 68.9787 333.483 68.3722C336.657 66.9772 338.492 63.619 337.953 60.1943C337.828 59.3142 337.457 58.4873 336.881 57.8095C338.839 57.2074 340.933 57.2141 342.887 57.8288C343.573 58.1042 344.193 58.522 344.705 59.0546C345.218 59.5871 345.612 60.2224 345.86 60.9184C346.298 61.8632 346.505 62.8978 346.467 63.9381C346.428 64.9783 346.144 65.9947 345.638 66.9045C344.171 69.5114 340.84 71.5293 336.949 72.1473C336.709 72.1859 336.492 72.3135 336.342 72.5048C336.192 72.696 336.119 72.9369 336.139 73.1793C336.158 73.4217 336.268 73.6478 336.447 73.8127C336.626 73.9775 336.86 74.0689 337.103 74.0686C337.155 74.0699 337.207 74.0667 337.258 74.059C341.718 73.3445 345.571 70.9596 347.318 67.8508C347.966 66.6871 348.334 65.3884 348.393 64.0576C348.452 62.7269 348.199 61.4009 347.656 60.1847C347.304 59.2497 346.762 58.398 346.064 57.6834C345.366 56.9688 344.527 56.4068 343.601 56.033C339.546 54.4206 334.844 56.2358 333.869 56.7861C333.217 57.1594 332.628 57.6317 332.121 58.186C332.035 58.3156 331.919 58.4227 331.783 58.4983C331.647 58.5738 331.495 58.6158 331.339 58.6205C331.185 58.621 331.033 58.5865 330.894 58.5196C330.755 58.4527 330.633 58.3552 330.538 58.2344C329.95 57.4978 329.59 56.6055 329.503 55.6673C329.415 54.729 329.604 53.7856 330.045 52.953C331.532 49.989 335.53 48 340 48C343.495 48 349.983 48.8014 354.27 54.16C356.321 56.6092 357.385 59.7351 357.254 62.9268C357.219 63.7524 357.35 64.5766 357.638 65.3509C357.927 66.1253 358.367 66.8341 358.934 67.4357C359.463 67.9995 360.102 68.4501 360.81 68.7604C361.519 69.0707 362.283 69.2343 363.056 69.2412H363.172C364.37 69.2767 365.558 69.0251 366.638 68.5073C367.124 68.2893 367.694 68.5053 367.913 68.9901C367.99 69.1523 368.017 69.3339 367.99 69.5115C367.998 69.5561 368.001 69.6014 368 69.6466C368.001 71.049 367.691 72.4341 367.093 73.7028C366.496 74.9714 365.625 76.0921 364.543 76.9845C363.406 77.9119 362.078 78.5756 360.654 78.9279C359.23 79.2802 357.745 79.3122 356.307 79.0217C356.182 78.9927 356.056 78.9734 355.921 78.954C356.959 78.1432 357.803 77.1099 358.389 75.9303C358.976 74.7507 359.29 73.4547 359.31 72.1375C359.31 71.6042 358.878 71.172 358.345 71.172C357.811 71.172 357.379 71.6042 357.379 72.1375C357.379 76.5982 353.111 78.732 351.055 79.7554C351.045 79.765 351.036 79.7747 351.026 79.7747C349.609 80.5013 348.032 80.863 346.44 80.8271C344.848 80.8603 343.272 80.4988 341.854 79.7747C340.692 79.1611 339.392 78.8584 338.079 78.8961C336.762 78.8586 335.459 79.1613 334.294 79.7747C332.876 80.5001 331.3 80.8617 329.708 80.8271C328.115 80.8617 326.539 80.5 325.121 79.7747C323.943 79.1966 322.649 78.8961 321.337 78.8961C320.024 78.8961 318.73 79.1966 317.552 79.7747C316.134 80.5001 314.558 80.8617 312.966 80.8271C312.838 80.8266 312.711 80.8007 312.594 80.751C312.476 80.7013 312.369 80.6286 312.28 80.5374C312.189 80.448 312.118 80.3412 312.07 80.2234C312.022 80.1055 311.998 79.9791 312 79.8519C312.029 75.517 314.008 67.3102 321.337 67.3102ZM345.793 50.8965C345.26 50.8965 344.827 51.3288 344.827 51.8621C344.827 52.3954 345.26 52.8276 345.793 52.8276C346.326 52.8276 346.758 52.3954 346.758 51.8621C346.757 51.3295 346.325 50.8981 345.793 50.8965ZM349.085 54.4979C349.898 55.087 350.628 55.7818 351.258 56.564C352.264 57.7641 352.951 59.1987 353.256 60.735C353.298 60.9553 353.415 61.154 353.588 61.2968C353.761 61.4397 353.978 61.5176 354.202 61.5171C354.264 61.5154 354.325 61.509 354.386 61.4978C354.911 61.3989 355.257 60.8933 355.158 60.3681C354.788 58.5251 353.965 56.8031 352.764 55.3571C352.027 54.4417 351.173 53.627 350.224 52.9337C349.792 52.6198 349.187 52.7161 348.873 53.1486C348.56 53.5801 348.655 54.1833 349.085 54.4979Z" fill="#EBE6FF"/>
<rect x="156" width="64" height="64" rx="32" fill="white" fill-opacity="0.5"/>
<path d="M199.244 21.9991C197.634 18.2951 193.352 16.0003 188.059 16.0003C188.04 16.0003 188.021 15.9997 188 16.0003C187.981 15.9997 187.961 16.0003 187.941 16.0003C182.649 16.0003 178.366 18.2957 176.756 21.9991C174.605 26.9479 177.287 33.8054 184.305 41.3169C184.338 41.434 184.393 41.544 184.466 41.6411L185.592 44.2667H185.334C185.192 44.2668 185.057 44.323 184.957 44.423C184.857 44.523 184.801 44.6586 184.801 44.8C184.801 44.9415 184.857 45.0771 184.957 45.1771C185.057 45.2771 185.192 45.3333 185.334 45.3333V47.4667C185.334 47.6081 185.39 47.7437 185.49 47.8437C185.59 47.9437 185.726 48 185.867 48H190.134C190.275 48 190.411 47.9437 190.511 47.8437C190.611 47.7437 190.667 47.6081 190.667 47.4667V45.3333C190.809 45.3333 190.944 45.2771 191.044 45.1771C191.144 45.0771 191.2 44.9415 191.201 44.8C191.2 44.6586 191.144 44.523 191.044 44.423C190.944 44.323 190.809 44.2668 190.667 44.2667H190.41L191.535 41.6411C191.608 41.5439 191.663 41.434 191.696 41.3169C198.713 33.8049 201.395 26.9479 199.244 21.9991ZM189.248 44.2667H186.751L185.97 42.4433C186.579 42.5942 187.29 42.6667 188 42.6667C188.709 42.6667 189.42 42.5941 190.029 42.4433L189.248 44.2667Z" fill="#C5B3FF"/>
<path d="M192.223 21.8653C191.817 21.2318 190.768 21.3552 190.6 22.123L189.784 26.0592C189.763 26.1731 189.702 26.2758 189.612 26.3491C189.523 26.4223 189.41 26.4615 189.294 26.4595C189.178 26.4603 189.064 26.4206 188.974 26.3472C188.884 26.2737 188.822 26.1711 188.799 26.057L187.909 21.6481C187.855 21.4326 187.72 21.2464 187.531 21.129C187.343 21.0117 187.116 20.9723 186.899 21.0194C186.682 21.0665 186.492 21.1962 186.369 21.3812C186.246 21.5661 186.2 21.7916 186.241 22.0099C186.433 22.9783 187.136 26.5506 187.314 27.4512C188.593 27.257 191.088 28.4772 191.4 28.631C191.477 26.7074 192.265 22.6378 192.336 22.5067C192.36 22.3976 192.363 22.2848 192.343 22.1747C192.324 22.0646 192.283 21.9594 192.223 21.8653ZM186.844 30.9156C187.05 31.0032 187.281 31.0084 187.491 30.9302C187.7 30.852 187.872 30.6963 187.97 30.4953C187.545 30.2935 187.185 29.9768 186.931 29.5809C186.677 29.1851 186.539 28.726 186.532 28.2557C186.533 28.1266 186.565 27.9996 186.627 27.886C186.688 27.7725 186.777 27.676 186.885 27.605L186.639 26.3667C186.34 26.3239 186.036 26.3777 185.771 26.5203C185.596 26.652 185.465 26.8342 185.397 27.0422C185.329 27.2503 185.326 27.4743 185.389 27.6841C185.827 29.4671 186.399 30.7347 186.844 30.9156ZM184.334 29.8964C184.702 30.8283 185.358 31.7782 186.365 31.1258C185.701 30.4953 185.204 28.8206 184.951 27.7924C184.91 27.6322 184.893 27.4672 184.899 27.3021C184.682 27.306 184.474 27.3861 184.311 27.5282C183.806 28.0186 183.992 29.0978 184.334 29.8964H184.334Z" fill="white"/>
<path d="M191.51 29.5038C191.435 29.3227 191.322 29.1599 191.178 29.027C189.949 28.4168 187.786 27.599 187.151 27.9717C186.76 28.0928 186.947 30.2098 189.246 30.3421C189.279 30.3451 189.311 30.3551 189.34 30.3715C189.369 30.3879 189.394 30.4103 189.413 30.4372C189.433 30.4646 189.446 30.496 189.452 30.5293C189.458 30.5625 189.456 30.5966 189.447 30.6291C189.357 30.9003 189.327 31.7586 189.935 32.0166C189.987 32.0441 190.027 32.091 190.045 32.1473C190.064 32.2036 190.059 32.2649 190.033 32.318C190.007 32.3711 189.961 32.4119 189.905 32.4316C189.849 32.4512 189.788 32.4483 189.734 32.4234C189.486 32.3053 189.281 32.1125 189.149 31.872C188.69 31.873 187.725 31.9383 187.223 32.8642C187.194 32.9157 187.147 32.9541 187.09 32.9709C187.033 32.9878 186.972 32.982 186.92 32.9546C186.868 32.9272 186.828 32.8805 186.81 32.8244C186.791 32.7682 186.795 32.7071 186.821 32.654C187.366 31.6168 188.439 31.4407 188.984 31.4224C188.942 31.2073 188.934 30.9869 188.961 30.7694C188.769 30.7452 188.58 30.7067 188.394 30.6541C188.258 30.9594 188.014 31.2034 187.709 31.3388C187.419 31.4525 187.099 31.466 186.801 31.3771C185.862 32.1229 184.857 31.8067 184.297 30.8325C184.289 33.0863 185.445 35.0319 188.224 34.9836C189.064 35.069 189.905 34.8341 190.579 34.3262C191.37 33.6932 191.824 32.645 191.93 31.2123C191.876 30.625 191.734 30.0492 191.51 29.5038Z" fill="white"/>
</g>
<defs>
<clipPath id="clip0_1004_6712">
<rect width="368" height="76" fill="white"/>
</clipPath>
<clipPath id="clip1_1004_6712">
<rect width="56" height="56" fill="white" transform="translate(-7 36)"/>
</clipPath>
<clipPath id="clip2_1004_6712">
<rect width="56" height="56" fill="white" transform="translate(49 38)"/>
</clipPath>
</defs>
</svg>
