<svg width="18" height="21" viewBox="0 0 18 21" fill="none" xmlns="http://www.w3.org/2000/svg">
<path d="M10.5 12.4862L12.2781 10.7081C12.4977 10.4885 12.6075 10.3787 12.6662 10.2602C12.7779 10.0348 12.7779 9.77022 12.6662 9.54483C12.6075 9.42637 12.4977 9.31655 12.2781 9.09692C12.0584 8.87728 11.9486 8.76747 11.8302 8.70877C11.6047 8.59708 11.3401 8.59708 11.1148 8.70877C10.9963 8.76747 10.8865 8.87728 10.6669 9.09692L8.88877 10.875M10.5 12.4862L4.33315 18.6531C4.11353 18.8727 4.0037 18.9825 3.88524 19.0412C3.65985 19.1529 3.39522 19.1529 3.16983 19.0412C3.05137 18.9825 2.94155 18.8727 2.72192 18.6531C2.50229 18.4334 2.39247 18.3236 2.33377 18.2052C2.22208 17.9797 2.22208 17.7151 2.33377 17.4898C2.39247 17.3713 2.50229 17.2615 2.72192 17.0419L8.88877 10.875M10.5 12.4862L8.88877 10.875" stroke="#5C59F3" stroke-width="1.5" stroke-linecap="round" stroke-linejoin="round"/>
<path d="M14.625 4.875L14.5421 5.09905C14.4334 5.39283 14.379 5.53972 14.2719 5.64688C14.1647 5.75403 14.0178 5.80839 13.724 5.9171L13.5 6L13.724 6.0829C14.0178 6.19161 14.1647 6.24597 14.2719 6.35312C14.379 6.46028 14.4334 6.60717 14.5421 6.90095L14.625 7.125L14.7079 6.90095C14.8166 6.60717 14.871 6.46028 14.9781 6.35312C15.0853 6.24597 15.2322 6.19161 15.526 6.0829L15.75 6L15.526 5.9171C15.2322 5.80839 15.0853 5.75403 14.9781 5.64688C14.871 5.53972 14.8166 5.39283 14.7079 5.09905L14.625 4.875Z" stroke="#5C59F3" stroke-width="1.5" stroke-linejoin="round"/>
<path d="M14.625 12.375L14.5421 12.599C14.4334 12.8928 14.379 13.0397 14.2719 13.1469C14.1647 13.254 14.0178 13.3084 13.724 13.4171L13.5 13.5L13.724 13.5829C14.0178 13.6916 14.1647 13.746 14.2719 13.8531C14.379 13.9603 14.4334 14.1072 14.5421 14.401L14.625 14.625L14.7079 14.401C14.8166 14.1072 14.871 13.9603 14.9781 13.8531C15.0853 13.746 15.2322 13.6916 15.526 13.5829L15.75 13.5L15.526 13.4171C15.2322 13.3084 15.0853 13.254 14.9781 13.1469C14.871 13.0397 14.8166 12.8928 14.7079 12.599L14.625 12.375Z" stroke="#5C59F3" stroke-width="1.5" stroke-linejoin="round"/>
<path d="M7.875 4.875L7.79212 5.09905C7.68337 5.39283 7.629 5.53972 7.5219 5.64688C7.41472 5.75403 7.26783 5.80839 6.97405 5.9171L6.75 6L6.97405 6.0829C7.26783 6.19161 7.41472 6.24597 7.5219 6.35312C7.629 6.46028 7.68337 6.60717 7.79212 6.90095L7.875 7.125L7.95788 6.90095C8.06663 6.60717 8.121 6.46028 8.2281 6.35312C8.33528 6.24597 8.4822 6.19161 8.77597 6.0829L9 6L8.77597 5.9171C8.4822 5.80839 8.33528 5.75403 8.2281 5.64688C8.121 5.53972 8.06663 5.39283 7.95788 5.09905L7.875 4.875Z" stroke="#5C59F3" stroke-width="1.5" stroke-linejoin="round"/>
</svg>
