<svg width="54" height="72" viewBox="0 0 54 72" fill="none" xmlns="http://www.w3.org/2000/svg">
<g id="Group">
<path id="Vector" fill-rule="evenodd" clip-rule="evenodd" d="M53.4899 46.5685C52.8977 60.7128 41.2483 71.9991 26.9584 71.9991C12.2897 71.9991 0.398395 59.7081 0.398395 45.4392C0.398395 43.5319 0.364206 39.7203 3.22393 33.2894C4.93536 29.4407 6.00878 27.0229 6.61457 24.8128C6.94742 23.5981 7.59475 21.6683 9.44011 24.8128C10.5282 26.6669 10.5703 29.3336 10.5703 29.3336C10.5703 29.3336 14.6187 26.227 17.3516 20.292C21.3579 11.5913 18.1614 6.39037 17.0691 2.77369C16.691 1.52255 16.4537 -0.726004 19.0469 0.23072C21.6894 1.20581 28.6752 6.09595 32.3269 11.2503C37.5386 18.6065 39.3908 25.6605 39.3908 25.6605C39.3908 25.6605 41.0595 23.5894 41.6512 21.4222C42.3194 18.975 42.3293 16.5512 44.4765 19.162C46.5185 21.6448 49.5511 26.3106 51.258 30.7464C54.3574 38.8017 53.4899 46.5685 53.4899 46.5685Z" fill="url(#paint0_linear_683_19758)"/>
<path id="Vector_2" fill-rule="evenodd" clip-rule="evenodd" d="M26.9628 71.9996C16.8194 71.9996 8.59682 63.777 8.59682 53.6336C8.59682 47.5133 11.0632 43.7974 16.1964 38.7584C19.483 35.5319 22.5592 31.5691 23.8666 28.8707C24.124 28.3395 24.7097 25.5713 26.9682 28.8125C28.1529 30.5123 30.0101 33.5354 31.2011 36.1154C33.2541 40.5636 33.7441 44.8745 33.7441 44.8745C33.7441 44.8745 35.7561 43.6889 37.1347 40.6362C37.5792 39.6524 38.4777 35.9278 40.9896 39.6518C42.8327 42.3846 45.3647 47.2982 45.3288 53.6336C45.3288 63.777 37.1059 71.9996 26.9628 71.9996Z" fill="#FC9502"/>
<path id="Vector_3" fill-rule="evenodd" clip-rule="evenodd" d="M27.2354 51.9395C29.849 51.9395 29.849 56.7793 33.169 63.2416C35.3797 67.5446 32.073 72.0007 27.2354 72.0007C22.3978 72.0007 19.889 68.0791 19.889 63.2416C19.889 58.4043 24.6218 51.9395 27.2354 51.9395Z" fill="#FCE202"/>
</g>
<defs>
<linearGradient id="paint0_linear_683_19758" x1="26.9983" y1="72.0522" x2="26.9983" y2="0.0544064" gradientUnits="userSpaceOnUse">
<stop stop-color="#FF4C0D"/>
<stop offset="1" stop-color="#FC9502"/>
</linearGradient>
</defs>
</svg>
