<svg width="24" height="25" viewBox="0 0 24 25" fill="none" xmlns="http://www.w3.org/2000/svg">
<path fill-rule="evenodd" clip-rule="evenodd" d="M11 21.25C11 20.6977 11.4477 20.25 12 20.25H18C18.5523 20.25 19 20.6977 19 21.25C19 21.8023 18.5523 22.25 18 22.25H12C11.4477 22.25 11 21.8023 11 21.25Z" fill="#6949FF"/>
<path d="M18.6517 3.26256C17.9682 2.57915 16.8602 2.57914 16.1768 3.26256L14.5 4.93933L19.5607 9.99999L21.2374 8.32323C21.9209 7.63981 21.9209 6.53177 21.2374 5.84835L18.6517 3.26256Z" fill="#6949FF"/>
<path d="M18.5 11.0606L13.4394 6L2.76256 16.6768C2.43437 17.005 2.25 17.4501 2.25 17.9142V21.5C2.25 21.9142 2.58579 22.25 3 22.25H6.58579C7.04992 22.25 7.49503 22.0656 7.82322 21.7374L18.5 11.0606Z" fill="#6949FF"/>
</svg>
