<svg width="16" height="15" viewBox="0 0 16 15" fill="none" xmlns="http://www.w3.org/2000/svg">
<g clip-path="url(#clip0_683_19949)">
<ellipse cx="8.9375" cy="9.375" rx="2.34375" ry="3.28125" fill="#FFCE51"/>
<path d="M12.6751 7.71933C11.6938 5.16933 8.20006 5.03183 9.04381 1.32558C9.10631 1.05058 8.81256 0.838076 8.57506 0.981826C6.30631 2.31933 4.67506 5.00058 6.04381 8.51308C6.15631 8.80058 5.81881 9.06933 5.57506 8.88183C4.44381 8.02558 4.32506 6.79433 4.42506 5.91308C4.46256 5.58808 4.03756 5.43183 3.85631 5.70058C3.43131 6.35058 3.00006 7.40058 3.00006 8.98183C3.23756 12.4818 6.19381 13.5568 7.25631 13.6943C8.77506 13.8881 10.4188 13.6068 11.6001 12.5256C12.9001 11.3193 13.3751 9.39433 12.6751 7.71933ZM6.87506 10.8631C7.77506 10.6443 8.23756 9.99433 8.36256 9.41933C8.56881 8.52558 7.76256 7.65058 8.30631 6.23808C8.51256 7.40683 10.3501 8.13808 10.3501 9.41308C10.4001 10.9943 8.68756 12.3506 6.87506 10.8631Z" fill="#FF7324"/>
</g>
<defs>
<clipPath id="clip0_683_19949">
<rect width="15" height="15" fill="white" transform="translate(0.5)"/>
</clipPath>
</defs>
</svg>
