<svg width="15" height="15" viewBox="0 0 15 15" fill="none" xmlns="http://www.w3.org/2000/svg">
<g clip-path="url(#clip0_717_6680)">
<ellipse cx="8.4375" cy="9.375" rx="2.34375" ry="3.28125" fill="#FFCE51"/>
<path d="M12.175 7.71835C11.1938 5.16835 7.70003 5.03085 8.54378 1.3246C8.60628 1.0496 8.31253 0.837099 8.07503 0.980849C5.80628 2.31835 4.17503 4.9996 5.54378 8.5121C5.65628 8.7996 5.31878 9.06835 5.07503 8.88085C3.94378 8.0246 3.82503 6.79335 3.92503 5.9121C3.96253 5.5871 3.53753 5.43085 3.35628 5.6996C2.93128 6.3496 2.50003 7.3996 2.50003 8.98085C2.73753 12.4808 5.69378 13.5559 6.75628 13.6934C8.27503 13.8871 9.91878 13.6059 11.1 12.5246C12.4 11.3184 12.875 9.39335 12.175 7.71835ZM6.37503 10.8621C7.27503 10.6433 7.73753 9.99335 7.86253 9.41835C8.06878 8.5246 7.26253 7.6496 7.80628 6.2371C8.01253 7.40585 9.85003 8.1371 9.85003 9.4121C9.90003 10.9933 8.18753 12.3496 6.37503 10.8621Z" fill="#FF7324"/>
</g>
<defs>
<clipPath id="clip0_717_6680">
<rect width="15" height="15" fill="white"/>
</clipPath>
</defs>
</svg>
