<svg width="29" height="30" viewBox="0 0 29 30" fill="none" xmlns="http://www.w3.org/2000/svg">
<path d="M28.6978 23.9107L23.4404 14.1882C23.9767 12.9709 24.2768 11.6255 24.2768 10.2101C24.2768 4.75495 19.8544 0.333008 14.3998 0.333008C8.94376 0.333008 4.52181 4.7554 4.52181 10.2101C4.52181 11.6596 4.83671 13.0351 5.39731 14.2749L0.116491 23.9062C-0.0537842 24.2157 -0.0254845 24.5975 0.187437 24.8801C0.400808 25.1618 0.761068 25.2943 1.10513 25.2134L5.61467 24.1789L7.15812 28.4778C7.27851 28.812 7.58352 29.0438 7.93704 29.0698C7.95998 29.0716 7.98196 29.0725 8.00352 29.0725C8.16597 29.0725 8.32536 29.0284 8.46474 28.9449C8.60411 28.8615 8.71825 28.7418 8.79502 28.5986L13.3908 20.0364C13.7259 20.0703 14.0625 20.0873 14.3993 20.0872C14.7115 20.0872 15.0196 20.071 15.3241 20.0422L20.0196 28.6054C20.1027 28.7572 20.2279 28.8817 20.3801 28.964C20.5324 29.0463 20.7051 29.0829 20.8776 29.0694C21.2302 29.0411 21.5339 28.8097 21.6534 28.4773L23.1968 24.1785L27.7064 25.213C28.0522 25.2965 28.4089 25.1622 28.6223 24.8814C28.8366 24.6011 28.8654 24.2211 28.6978 23.9107ZM8.16698 25.9708L7.03673 22.8218C6.8822 22.3937 6.43393 22.1444 5.99009 22.25L2.65476 23.015L6.45641 16.0811C7.70834 17.7723 9.48718 19.0481 11.5504 19.6689L8.16698 25.9708ZM22.8213 22.25C22.3757 22.1448 21.9291 22.3937 21.7746 22.8218L20.6368 25.9936L17.1793 19.689C19.2972 19.0687 21.1192 17.7593 22.3873 16.0186L26.1732 23.0185L22.8213 22.25Z" fill="#FCC417"/>
<path d="M12.5673 13.333C12.394 13.333 12.2573 13.2863 12.1573 13.193C12.064 13.093 12.0173 12.9597 12.0173 12.793C12.0173 12.6197 12.064 12.4897 12.1573 12.403C12.2573 12.3163 12.394 12.273 12.5673 12.273H13.6873V7.36301H14.3073L12.8373 8.25301C12.7107 8.32634 12.5907 8.35634 12.4773 8.34301C12.3707 8.32301 12.2773 8.27634 12.1973 8.20301C12.124 8.12301 12.074 8.02967 12.0473 7.92301C12.0207 7.81634 12.0273 7.70967 12.0673 7.60301C12.114 7.48967 12.2007 7.39634 12.3273 7.32301L13.7073 6.49301C13.8407 6.41301 13.974 6.34634 14.1073 6.29301C14.2407 6.23301 14.364 6.20301 14.4773 6.20301C14.6173 6.20301 14.734 6.24301 14.8273 6.32301C14.9207 6.39634 14.9673 6.51967 14.9673 6.69301V12.273H15.9873C16.1607 12.273 16.294 12.3163 16.3873 12.403C16.4873 12.4897 16.5373 12.6197 16.5373 12.793C16.5373 12.9663 16.4873 13.0997 16.3873 13.193C16.294 13.2863 16.1607 13.333 15.9873 13.333H12.5673Z" fill="white"/>
</svg>
