<svg width="16" height="16" viewBox="0 0 16 16" fill="none" xmlns="http://www.w3.org/2000/svg">
<ellipse cx="8" cy="11.0007" rx="4" ry="1.66667" stroke="#389EA2" stroke-width="1.5" stroke-linejoin="round"/>
<circle cx="8" cy="5.33398" r="2" stroke="#389EA2" stroke-width="1.5" stroke-linejoin="round"/>
<path d="M3.58398 12.6846C3.0068 12.6127 2.47592 12.4844 2.03125 12.3066C1.67757 12.1652 1.34051 11.9776 1.08008 11.7314C0.85081 11.5146 0.642306 11.212 0.59375 10.834L0.583008 10.667L0.59375 10.501C0.642117 10.1229 0.85082 9.82044 1.08008 9.60352C1.34047 9.35732 1.67759 9.16983 2.03125 9.02832C2.74301 8.74368 3.67496 8.58405 4.66602 8.58398C4.72146 8.58398 4.77699 8.5869 4.83203 8.58789C3.81684 9.01028 3.07826 9.62986 2.79492 10.3467C2.72217 10.3704 2.65268 10.395 2.58789 10.4209C2.36849 10.5087 2.22517 10.5976 2.1416 10.667C2.22516 10.7364 2.36805 10.8261 2.58789 10.9141C2.6141 10.9245 2.64141 10.9342 2.66895 10.9443C2.66834 10.9629 2.66699 10.9814 2.66699 11C2.66699 11.6239 3.00448 12.2046 3.58398 12.6846Z" fill="#389EA2"/>
<path d="M12.4169 12.6846C12.9961 12.2047 13.3329 11.6238 13.3329 11C13.3329 10.9814 13.3315 10.9629 13.3309 10.9443C13.3585 10.9342 13.3857 10.9246 13.412 10.9141C13.6312 10.8263 13.7737 10.7363 13.8573 10.667C13.7737 10.5977 13.6311 10.5086 13.412 10.4209C13.3473 10.395 13.2785 10.3704 13.2059 10.3467C12.9227 9.62972 12.1832 9.01034 11.1678 8.58789C11.2227 8.5869 11.2777 8.58399 11.3329 8.58398C12.3243 8.58398 13.2567 8.74355 13.9686 9.02832C14.3225 9.16988 14.6593 9.35715 14.9198 9.60352C15.1818 9.85133 15.4168 10.2105 15.4169 10.667C15.4167 11.1236 15.1818 11.4836 14.9198 11.7314C14.6593 11.9776 14.3223 12.1652 13.9686 12.3066C13.5242 12.4843 12.9938 12.6128 12.4169 12.6846Z" fill="#389EA2"/>
<path d="M11.3327 3.91797C12.4832 3.91797 13.4165 4.85053 13.4167 6.00098C13.4165 7.15142 12.4832 8.08496 11.3327 8.08496C10.9398 8.08484 10.574 7.97252 10.2604 7.7832C10.6305 7.44143 10.9227 7.01705 11.1081 6.53906C11.1773 6.56812 11.253 6.58488 11.3327 6.58496C11.6548 6.58496 11.9165 6.32299 11.9167 6.00098C11.9165 5.67896 11.6548 5.41797 11.3327 5.41797L11.3317 5.41895C11.3324 5.39081 11.3337 5.36228 11.3337 5.33398C11.3336 4.83745 11.2237 4.36672 11.029 3.94336C11.1283 3.9288 11.2294 3.918 11.3327 3.91797Z" fill="#389EA2"/>
<path d="M4.66602 3.91797C4.76958 3.91797 4.87118 3.92877 4.9707 3.94336C4.776 4.36669 4.66704 4.8375 4.66699 5.33398C4.66699 5.36228 4.66727 5.39082 4.66797 5.41895L4.66602 5.41797C4.34426 5.41832 4.08318 5.67918 4.08301 6.00098C4.08318 6.32278 4.34426 6.58461 4.66602 6.58496C4.74589 6.58496 4.82222 6.56818 4.8916 6.53906C5.07698 7.01702 5.36922 7.44143 5.73926 7.7832C5.4254 7.97258 5.05916 8.08496 4.66602 8.08496C3.51583 8.08461 2.58318 7.1512 2.58301 6.00098C2.58318 4.85075 3.51583 3.91832 4.66602 3.91797Z" fill="#389EA2"/>
</svg>
