<svg width="24" height="24" viewBox="0 0 24 24" fill="none" xmlns="http://www.w3.org/2000/svg">
<path d="M12 20.75H4C3.27082 20.7495 2.57165 20.4596 2.05604 19.944C1.54043 19.4284 1.25053 18.7292 1.25 18C1.25185 16.4756 1.85825 15.0141 2.93618 13.9362C4.01411 12.8583 5.47557 12.2519 7 12.25H9C10.5244 12.2519 11.9859 12.8583 13.0638 13.9362C14.1418 15.0141 14.7481 16.4756 14.75 18C14.7495 18.7292 14.4596 19.4284 13.944 19.944C13.4283 20.4596 12.7292 20.7495 12 20.75ZM7 13.75C5.87324 13.7513 4.793 14.1995 3.99626 14.9963C3.19951 15.793 2.75132 16.8732 2.75 18C2.75053 18.3314 2.88239 18.649 3.1167 18.8833C3.35101 19.1176 3.66864 19.2495 4 19.25H12C12.3314 19.2495 12.649 19.1176 12.8833 18.8833C13.1176 18.649 13.2495 18.3314 13.25 18C13.2487 16.8732 12.8005 15.793 12.0037 14.9963C11.207 14.1995 10.1268 13.7513 9 13.75H7ZM8 11.75C7.06054 11.75 6.14218 11.4714 5.36104 10.9495C4.57991 10.4275 3.97109 9.6857 3.61157 8.81775C3.25206 7.9498 3.15799 6.99473 3.34127 6.07332C3.52455 5.15191 3.97694 4.30554 4.64124 3.64124C5.30554 2.97695 6.15191 2.52455 7.07332 2.34127C7.99473 2.15799 8.9498 2.25206 9.81775 2.61157C10.6857 2.97109 11.4275 3.57991 11.9495 4.36104C12.4714 5.14218 12.75 6.06054 12.75 7C12.7484 8.25929 12.2475 9.46655 11.357 10.357C10.4665 11.2475 9.25929 11.7484 8 11.75ZM8 3.75C7.35721 3.75 6.72886 3.94061 6.1944 4.29773C5.65994 4.65484 5.24338 5.16242 4.99739 5.75628C4.75141 6.35014 4.68705 7.00361 4.81245 7.63405C4.93785 8.26448 5.24738 8.84358 5.7019 9.2981C6.15642 9.75262 6.73552 10.0622 7.36596 10.1876C7.99639 10.313 8.64986 10.2486 9.24372 10.0026C9.83758 9.75663 10.3452 9.34006 10.7023 8.8056C11.0594 8.27115 11.25 7.64279 11.25 7C11.2489 6.13837 10.9062 5.31234 10.2969 4.70307C9.68766 4.09381 8.86163 3.75106 8 3.75Z" fill="#777980"/>
<path d="M20.0001 18.75H14.0001C13.8012 18.75 13.6104 18.671 13.4697 18.5303C13.3291 18.3897 13.2501 18.1989 13.2501 18C13.2501 17.8011 13.3291 17.6103 13.4697 17.4697C13.6104 17.329 13.8012 17.25 14.0001 17.25H20.0001C20.1625 17.2514 20.3236 17.2199 20.4736 17.1575C20.6236 17.0952 20.7595 17.0031 20.8731 16.887C20.9929 16.7725 21.0881 16.6348 21.1529 16.4823C21.2177 16.3298 21.2508 16.1657 21.2501 16C21.249 15.1384 20.9063 14.3123 20.297 13.7031C19.6877 13.0938 18.8617 12.7511 18.0001 12.75H16.0001C15.1376 12.7521 14.3109 13.095 13.7001 13.704C13.4353 13.9696 13.2215 14.2814 13.0691 14.624C12.9862 14.8023 12.8366 14.941 12.6526 15.0101C12.4685 15.0792 12.2646 15.0733 12.0849 14.9936C11.9051 14.9138 11.7639 14.7667 11.6915 14.5839C11.6192 14.4011 11.6215 14.1971 11.6981 14.016C11.9254 13.5027 12.2462 13.0361 12.6441 12.64C13.535 11.7513 14.7416 11.2515 16.0001 11.25H18.0001C19.2594 11.2516 20.4666 11.7525 21.3571 12.643C22.2475 13.5335 22.7485 14.7407 22.7501 16C22.7469 16.7284 22.4562 17.426 21.9411 17.9411C21.4261 18.4561 20.7284 18.7468 20.0001 18.75ZM17.0001 10.75C16.2584 10.75 15.5334 10.5301 14.9167 10.118C14.3 9.70596 13.8194 9.12029 13.5355 8.43506C13.2517 7.74984 13.1774 6.99584 13.3221 6.26841C13.4668 5.54098 13.824 4.8728 14.3484 4.34835C14.8729 3.8239 15.5411 3.46675 16.2685 3.32206C16.9959 3.17736 17.7499 3.25162 18.4351 3.53545C19.1204 3.81928 19.706 4.29993 20.1181 4.91661C20.5301 5.5333 20.7501 6.25832 20.7501 7C20.7487 7.99416 20.3532 8.94722 19.6503 9.65019C18.9473 10.3532 17.9942 10.7487 17.0001 10.75ZM17.0001 4.75C16.5551 4.75 16.12 4.88196 15.75 5.1292C15.38 5.37643 15.0916 5.72783 14.9213 6.13896C14.751 6.5501 14.7065 7.0025 14.7933 7.43896C14.8801 7.87541 15.0944 8.27632 15.4091 8.59099C15.7238 8.90566 16.1247 9.11995 16.5611 9.20677C16.9976 9.29359 17.45 9.24903 17.8611 9.07873C18.2722 8.90843 18.6236 8.62005 18.8709 8.25004C19.1181 7.88002 19.2501 7.44501 19.2501 7C19.2493 6.40351 19.012 5.83167 18.5902 5.40989C18.1684 4.9881 17.5966 4.7508 17.0001 4.75Z" fill="#777980"/>
</svg>
