<svg width="20" height="20" viewBox="0 0 20 20" fill="none" xmlns="http://www.w3.org/2000/svg">
<path d="M3.26445 10.9042C3.57701 10.5916 3.7526 10.1677 3.7526 9.72568V7.91602C3.7526 4.46423 6.55082 1.66602 10.0026 1.66602C13.4544 1.66602 16.2526 4.46423 16.2526 7.91602V9.72568C16.2526 10.1677 16.4282 10.5916 16.7408 10.9042L17.9193 12.0827V13.2343C17.9193 13.5499 17.7424 13.8403 17.4546 13.9698C16.1545 14.555 13.6705 15.416 10.0026 15.416C6.3347 15.416 3.8507 14.555 2.55062 13.9698C2.26279 13.8403 2.08594 13.5499 2.08594 13.2343V12.0827L3.26445 10.9042Z" stroke="#1D1F2C" stroke-width="1.5" stroke-linecap="round" stroke-linejoin="round"/>
<path d="M7.5 17.5C8.16344 18.0177 9.03958 18.3324 10 18.3324C10.9604 18.3324 11.8366 18.0177 12.5 17.5" stroke="#1D1F2C" stroke-width="1.5" stroke-linecap="round" stroke-linejoin="round"/>
</svg>
