<svg width="48" height="48" viewBox="0 0 48 48" fill="none" xmlns="http://www.w3.org/2000/svg">
<circle cx="24" cy="24" r="24" fill="#FDDD6F"/>
<mask id="mask0_54678_21679" style="mask-type:alpha" maskUnits="userSpaceOnUse" x="0" y="0" width="48" height="48">
<circle cx="24" cy="24" r="24" fill="#C4C4C4"/>
</mask>
<g mask="url(#mask0_54678_21679)">
<path d="M23.999 12.4253C28.8188 12.4254 32.7256 16.333 32.7256 21.1528V22.0425C33.6096 22.1913 34.2832 22.959 34.2832 23.8853V26.0229C34.283 26.9684 33.5809 27.7473 32.6699 27.8726C32.33 30.9341 30.4079 33.5164 27.7383 34.7847V37.6548C34.3396 38.0099 39.583 43.4757 39.583 50.1655H8.41406C8.41406 43.476 13.6569 38.0103 20.2578 37.6548V34.7837C17.5889 33.5152 15.666 30.9336 15.3262 27.8726C14.415 27.7473 13.7129 26.9676 13.7129 26.022V23.8853C13.7129 22.9586 14.387 22.1909 15.2715 22.0425V21.1528C15.2715 16.3329 19.1791 12.4253 23.999 12.4253Z" fill="#D0C6AC"/>
<mask id="mask1_54678_21679" style="mask-type:luminance" maskUnits="userSpaceOnUse" x="8" y="12" width="32" height="39">
<path d="M23.999 12.4253C28.8188 12.4254 32.7256 16.333 32.7256 21.1528V22.0425C33.6096 22.1913 34.2832 22.959 34.2832 23.8853V26.0229C34.283 26.9684 33.5809 27.7473 32.6699 27.8726C32.33 30.9341 30.4079 33.5164 27.7383 34.7847V37.6548C34.3396 38.0099 39.583 43.4757 39.583 50.1655H8.41406C8.41406 43.476 13.6569 38.0103 20.2578 37.6548V34.7837C17.5889 33.5152 15.666 30.9336 15.3262 27.8726C14.415 27.7473 13.7129 26.9676 13.7129 26.022V23.8853C13.7129 22.9586 14.387 22.1909 15.2715 22.0425V21.1528C15.2715 16.3329 19.1791 12.4253 23.999 12.4253Z" fill="white"/>
</mask>
<g mask="url(#mask1_54678_21679)">
<rect x="3.42773" y="12.4253" width="41.1429" height="37.7401" fill="#D2B5A1"/>
<path d="M32.7256 28.1362C32.7256 32.9561 28.8188 36.8636 23.999 36.8638C19.1791 36.8638 15.2715 32.9562 15.2715 28.1362V26.8989C15.2715 31.7189 19.1791 35.6265 23.999 35.6265C28.8188 35.6263 32.7256 31.7188 32.7256 26.8989V28.1362Z" fill="black" fill-opacity="0.1"/>
</g>
<path d="M18.8555 37.845C18.8555 39.6798 21.1929 41.1672 24.0762 41.1672C26.9595 41.1672 29.2969 39.6799 29.2969 37.845L29.2959 37.843C35.1451 38.8962 39.583 44.0127 39.583 50.1653H8.41406C8.41409 43.9584 12.9306 38.8065 18.8564 37.8167C18.8563 37.8261 18.8555 37.8355 18.8555 37.845Z" fill="#E6E6E6"/>
<mask id="mask2_54678_21679" style="mask-type:luminance" maskUnits="userSpaceOnUse" x="8" y="37" width="32" height="14">
<path d="M18.8555 37.845C18.8555 39.6798 21.1929 41.1672 24.0762 41.1672C26.9595 41.1672 29.2969 39.6799 29.2969 37.845L29.2959 37.843C35.1451 38.8962 39.583 44.0127 39.583 50.1653H8.41406C8.41409 43.9584 12.9306 38.8065 18.8564 37.8167C18.8563 37.8261 18.8555 37.8355 18.8555 37.845Z" fill="white"/>
</mask>
<g mask="url(#mask2_54678_21679)">
<rect x="3.42773" y="33.1511" width="41.1429" height="17.014" fill="#A1A6CF"/>
<g opacity="0.6">
<ellipse cx="24.077" cy="38.0771" rx="6.1769" ry="4.16283" fill="black" fill-opacity="0.16"/>
</g>
</g>
<path d="M21.8184 30.0579C21.8184 30.8887 22.7781 31.4499 24.0002 31.4499C25.2223 31.4499 26.182 30.8887 26.182 30.0579C26.182 29.887 26.034 29.7485 25.8703 29.7485C25.6688 29.7485 25.5789 29.8885 25.5586 30.0579C25.365 30.5123 24.8859 30.7874 24.0002 30.8312C23.1145 30.7874 22.6354 30.5123 22.4417 30.0579C22.4214 29.8885 22.3315 29.7485 22.13 29.7485C21.9664 29.7485 21.8184 29.887 21.8184 30.0579Z" fill="black" fill-opacity="0.6"/>
<path fill-rule="evenodd" clip-rule="evenodd" d="M22.1289 26.9644C22.1289 27.6477 22.9662 28.2017 23.999 28.2017C25.0319 28.2017 25.8692 27.6477 25.8692 26.9644" fill="black" fill-opacity="0.16"/>
<ellipse cx="19.9468" cy="24.1802" rx="0.935065" ry="0.928034" fill="black" fill-opacity="0.6"/>
<ellipse cx="28.0503" cy="24.18" rx="0.935065" ry="0.928034" fill="black" fill-opacity="0.6"/>
<path d="M17.7064 22.1938C18.3165 21.3418 19.9892 20.864 21.43 21.2151C21.5971 21.2559 21.7659 21.1544 21.807 20.9885C21.848 20.8226 21.7458 20.655 21.5786 20.6143C19.9054 20.2065 17.9685 20.7597 17.1983 21.8354C17.0986 21.9747 17.1315 22.1678 17.2718 22.2668C17.4121 22.3657 17.6067 22.3331 17.7064 22.1938Z" fill="black" fill-opacity="0.6"/>
<path d="M30.2897 22.1938C29.6796 21.3418 28.0069 20.864 26.5661 21.2151C26.399 21.2559 26.2302 21.1544 26.1891 20.9885C26.1481 20.8226 26.2503 20.655 26.4175 20.6143C28.0907 20.2065 30.0276 20.7597 30.7978 21.8354C30.8975 21.9747 30.8646 22.1678 30.7243 22.2668C30.584 22.3657 30.3894 22.3331 30.2897 22.1938Z" fill="black" fill-opacity="0.6"/>
<mask id="mask3_54678_21679" style="mask-type:luminance" maskUnits="userSpaceOnUse" x="3" y="6" width="42" height="45">
<rect x="3.42773" y="6.85693" width="41.1429" height="43.3083" fill="white"/>
</mask>
<g mask="url(#mask3_54678_21679)">
<path d="M23.999 12.2707C32.8814 12.1584 32.9949 20.421 32.8828 22.0148C32.8288 22.245 32.6213 22.2039 32.5703 22.0148C32.642 21.7721 32.0566 17.5685 30.5449 16.4474C30.2706 16.2581 29.4147 16.0773 28.2617 15.9425L28.8301 14.591L27.7383 15.8898C26.6432 15.7827 25.3468 15.713 24.0479 15.7121C21.0395 15.71 18.018 16.0582 17.4541 16.4474C15.9427 17.568 15.3564 21.7702 15.4277 22.0148C15.3767 22.2039 15.1703 22.245 15.1162 22.0148C15.0042 20.4211 15.1169 12.3831 23.999 12.2707Z" fill="#28354B"/>
<mask id="mask4_54678_21679" style="mask-type:luminance" maskUnits="userSpaceOnUse" x="15" y="12" width="18" height="11">
<path d="M23.999 12.2707C32.8814 12.1584 32.9949 20.421 32.8828 22.0148C32.8288 22.245 32.6213 22.2039 32.5703 22.0148C32.642 21.7721 32.0566 17.5685 30.5449 16.4474C30.2706 16.2581 29.4147 16.0773 28.2617 15.9425L28.8301 14.591L27.7383 15.8898C26.6432 15.7827 25.3468 15.713 24.0479 15.7121C21.0395 15.71 18.018 16.0582 17.4541 16.4474C15.9427 17.568 15.3564 21.7702 15.4277 22.0148C15.3767 22.2039 15.1703 22.245 15.1162 22.0148C15.0042 20.4211 15.1169 12.3831 23.999 12.2707Z" fill="white"/>
</mask>
<g mask="url(#mask4_54678_21679)">
<rect x="3.42773" y="6.85693" width="41.1429" height="43.3083" fill="#2C1B18"/>
</g>
<g filter="url(#filter0_d_54678_21679)">
<path fill-rule="evenodd" clip-rule="evenodd" d="M21.3867 22.3668C21.7563 22.3702 21.931 22.4312 21.994 22.8138C22.0578 23.2013 21.9957 23.6369 21.9222 24.0186C21.8099 24.6014 21.6232 25.1724 21.1885 25.5984C20.9595 25.8227 20.6803 26.0015 20.3833 26.1236C20.2255 26.1885 20.059 26.2353 19.8924 26.2708C19.8438 26.2812 19.4282 26.338 19.6831 26.3091C19.0882 26.3765 18.4429 26.3738 17.9461 25.998C17.3956 25.5816 17.0185 24.9227 16.8527 24.2663C16.7557 23.8822 16.5519 22.9637 16.9243 22.6566C17.3509 22.3048 21.3867 22.3668 21.3867 22.3668ZM17.642 21.3174C16.7942 21.3464 16.2283 21.4943 15.8102 22.335C15.0438 23.8757 16.3555 26.1863 17.8188 26.8159C19.5295 27.5521 21.4406 26.7374 22.3451 25.2639C22.824 24.4838 23.0661 23.3023 23.0505 22.4022C23.0307 21.2534 22.2222 21.2215 21.2718 21.2468L17.642 21.3174Z" fill="#44509F"/>
<path fill-rule="evenodd" clip-rule="evenodd" d="M26.5989 22.3663C26.2293 22.3698 26.0546 22.4307 25.9916 22.8133C25.9278 23.2008 25.9899 23.6364 26.0634 24.0181C26.1757 24.6009 26.3624 25.1719 26.7971 25.5979C27.0261 25.8222 27.3053 26.001 27.6023 26.1232C27.7601 26.188 27.9266 26.2348 28.0931 26.2703C28.1418 26.2807 28.5574 26.3375 28.3025 26.3086C28.8974 26.376 29.5427 26.3733 30.0395 25.9976C30.59 25.5811 30.9671 24.9222 31.1329 24.2658C31.2299 23.8817 31.4336 22.9633 31.0613 22.6561C30.6347 22.3043 26.5989 22.3663 26.5989 22.3663ZM30.3431 21.3169C31.191 21.3459 31.7568 21.4938 32.175 22.3344C32.9413 23.8751 31.6296 26.1857 30.1663 26.8154C28.4556 27.5515 26.5445 26.7368 25.64 25.2635C25.1611 24.4833 24.919 23.3018 24.9345 22.4017C24.9544 21.2529 25.763 21.221 26.7133 21.2463L30.3431 21.3169Z" fill="#44509F"/>
<path fill-rule="evenodd" clip-rule="evenodd" d="M16.2366 22.0035C15.7049 22.0331 15.0972 22.0402 14.5992 22.2684C14.0717 22.51 13.9902 23.0571 14.6551 23.1325C14.9546 23.1664 15.2545 23.1103 15.5494 23.0581C15.7909 23.0153 16.1189 23.0291 16.3472 22.9375C16.7725 22.7669 16.7452 21.9746 16.2366 22.0035Z" fill="#44509F"/>
<path fill-rule="evenodd" clip-rule="evenodd" d="M31.7495 22.0035C32.2812 22.0331 32.8888 22.0402 33.3869 22.2684C33.9144 22.51 33.9959 23.0571 33.3309 23.1325C33.0314 23.1664 32.7316 23.1103 32.4367 23.0581C32.1952 23.0153 31.8671 23.0291 31.6389 22.9375C31.2135 22.7669 31.2409 21.9746 31.7495 22.0035Z" fill="#44509F"/>
<path fill-rule="evenodd" clip-rule="evenodd" d="M25.5742 22.326C25.2709 21.9703 24.4804 21.7649 23.9818 21.7649C23.4831 21.7649 22.7158 21.9703 22.4125 22.326C22.2596 22.5054 22.2544 22.7454 22.5195 22.8579C22.8495 22.9979 23.1443 22.7439 23.4084 22.6111C23.7464 22.4411 24.2655 22.4598 24.5783 22.6111C24.8445 22.7398 25.1371 22.9979 25.4673 22.8579C25.7323 22.7454 25.7271 22.5054 25.5742 22.326Z" fill="#44509F"/>
</g>
</g>
</g>
<defs>
<filter id="filter0_d_54678_21679" x="14.1799" y="21.2415" width="19.6262" height="7.84985" filterUnits="userSpaceOnUse" color-interpolation-filters="sRGB">
<feFlood flood-opacity="0" result="BackgroundImageFix"/>
<feColorMatrix in="SourceAlpha" type="matrix" values="0 0 0 0 0 0 0 0 0 0 0 0 0 0 0 0 0 0 127 0" result="hardAlpha"/>
<feOffset dy="2"/>
<feColorMatrix type="matrix" values="0 0 0 0 0 0 0 0 0 0 0 0 0 0 0 0 0 0 0.1 0"/>
<feBlend mode="normal" in2="BackgroundImageFix" result="effect1_dropShadow_54678_21679"/>
<feBlend mode="normal" in="SourceGraphic" in2="effect1_dropShadow_54678_21679" result="shape"/>
</filter>
</defs>
</svg>
