<svg width="16" height="16" viewBox="0 0 16 16" fill="none" xmlns="http://www.w3.org/2000/svg">
<g clip-path="url(#clip0_683_17703)">
<path d="M12 11.9997C13.4728 11.9997 14.6667 9.61186 14.6667 6.66634C14.6667 3.72082 13.4728 1.33301 12 1.33301C10.5272 1.33301 9.33333 3.72082 9.33333 6.66634C9.33333 9.61186 10.5272 11.9997 12 11.9997Z" stroke="#389EA2" stroke-width="1.5"/>
<path d="M12 1.33301C9.93127 1.33301 5.64341 2.91808 3.1807 3.90215C2.05295 4.35279 1.33333 5.45189 1.33333 6.66634C1.33333 7.88081 2.05295 8.97987 3.1807 9.43054C5.64341 10.4146 9.93127 11.9997 12 11.9997" stroke="#389EA2" stroke-width="1.5"/>
<path d="M7.33333 14.6667L6.03783 13.9535C4.62731 13.1771 3.83103 11.6089 4.03031 10" stroke="#389EA2" stroke-width="1.5" stroke-linecap="round" stroke-linejoin="round"/>
</g>
<defs>
<clipPath id="clip0_683_17703">
<rect width="16" height="16" fill="white"/>
</clipPath>
</defs>
</svg>
