<svg width="20" height="20" viewBox="0 0 20 20" fill="none" xmlns="http://www.w3.org/2000/svg">
<g id="shield-user-stroke-rounded 1">
<path id="Vector" d="M11.6673 7.08335C11.6673 8.0038 10.9212 8.75002 10.0007 8.75002C9.08015 8.75002 8.33398 8.0038 8.33398 7.08335C8.33398 6.16288 9.08015 5.41669 10.0007 5.41669C10.9212 5.41669 11.6673 6.16288 11.6673 7.08335Z" stroke="#1D1F2C" stroke-width="1.5" stroke-linecap="round" stroke-linejoin="round"/>
<path id="Vector_2" d="M7.99104 11.3735C7.46705 11.6806 6.09319 12.3078 6.92996 13.0925C7.33872 13.4758 7.79397 13.75 8.36635 13.75H11.6323C12.2047 13.75 12.66 13.4758 13.0688 13.0925C13.9055 12.3078 12.5317 11.6806 12.0077 11.3735C10.7789 10.6533 9.21976 10.6533 7.99104 11.3735Z" stroke="#1D1F2C" stroke-width="1.5" stroke-linejoin="round"/>
<path id="Vector_3" d="M17.5 9.31944V6.90026C17.5 5.53359 17.5 4.85025 17.1632 4.40443C16.8265 3.95859 16.0651 3.74215 14.5423 3.30927C13.5018 3.01352 12.5847 2.65721 11.8519 2.33193C10.8528 1.88844 10.3533 1.66669 10 1.66669C9.64667 1.66669 9.14717 1.88844 8.14809 2.33193C7.41532 2.65721 6.4982 3.01351 5.45778 3.30927C3.93494 3.74215 3.17352 3.95859 2.83676 4.40443C2.5 4.85025 2.5 5.53359 2.5 6.90026V9.31944C2.5 14.0071 6.71897 16.8196 8.82833 17.9329C9.33425 18.1999 9.58717 18.3334 10 18.3334C10.4128 18.3334 10.6657 18.1999 11.1717 17.9329C13.281 16.8196 17.5 14.0071 17.5 9.31944Z" stroke="#1D1F2C" stroke-width="1.5" stroke-linecap="round" stroke-linejoin="round"/>
</g>
</svg>
