<svg width="48" height="48" viewBox="0 0 48 48" fill="none" xmlns="http://www.w3.org/2000/svg">
<circle cx="24" cy="24" r="24" fill="#FE763C"/>
<mask id="mask0_54678_21508" style="mask-type:alpha" maskUnits="userSpaceOnUse" x="0" y="0" width="48" height="48">
<circle cx="24" cy="24" r="24" fill="#C4C4C4"/>
</mask>
<g mask="url(#mask0_54678_21508)">
<path d="M23.9996 12.4253C28.8196 12.4253 32.7272 16.3329 32.7272 21.1528V22.0425C33.6116 22.1909 34.2858 22.9586 34.2858 23.8853V26.022C34.2858 26.9679 33.5831 27.7477 32.6715 27.8726C32.3316 30.934 30.4094 33.5164 27.7399 34.7847V37.6548C34.3411 38.0099 39.5846 43.4757 39.5846 50.1655H8.41565C8.41565 43.476 13.6585 38.0103 20.2594 37.6548V34.7837C17.5904 33.5152 15.6676 30.9336 15.3278 27.8726C14.4165 27.7473 13.7145 26.9676 13.7145 26.022V23.8853C13.7145 22.9586 14.3886 22.1909 15.2731 22.0425V21.1528C15.2731 16.333 19.1799 12.4255 23.9996 12.4253Z" fill="#D0C6AC"/>
<mask id="mask1_54678_21508" style="mask-type:luminance" maskUnits="userSpaceOnUse" x="8" y="12" width="32" height="39">
<path d="M23.9996 12.4253C28.8196 12.4253 32.7272 16.3329 32.7272 21.1528V22.0425C33.6116 22.1909 34.2858 22.9586 34.2858 23.8853V26.022C34.2858 26.9679 33.5831 27.7477 32.6715 27.8726C32.3316 30.934 30.4094 33.5164 27.7399 34.7847V37.6548C34.3411 38.0099 39.5846 43.4757 39.5846 50.1655H8.41565C8.41565 43.476 13.6585 38.0103 20.2594 37.6548V34.7837C17.5904 33.5152 15.6676 30.9336 15.3278 27.8726C14.4165 27.7473 13.7145 26.9676 13.7145 26.022V23.8853C13.7145 22.9586 14.3886 22.1909 15.2731 22.0425V21.1528C15.2731 16.333 19.1799 12.4255 23.9996 12.4253Z" fill="white"/>
</mask>
<g mask="url(#mask1_54678_21508)">
<rect width="41.1429" height="37.7401" transform="translate(3.42859 12.4253)" fill="#FFCCD7"/>
<rect x="3.42859" y="12.4253" width="41.1429" height="37.7401" fill="#FFCCD7"/>
<path d="M32.7269 28.1362C32.7269 32.9561 28.8202 36.8636 24.0004 36.8638C19.1804 36.8638 15.2728 32.9562 15.2728 28.1362V26.8989C15.2728 31.7189 19.1804 35.6265 24.0004 35.6265C28.8202 35.6263 32.7269 31.7188 32.7269 26.8989V28.1362Z" fill="black" fill-opacity="0.1"/>
</g>
<path d="M16.3785 38.5007C16.3695 38.5909 16.3639 38.6817 16.3639 38.7732C16.3639 41.2914 19.8174 43.3327 24.0778 43.3328C28.3382 43.3328 31.7926 41.2915 31.7926 38.7732C31.7926 38.7034 31.7881 38.6342 31.7828 38.5652C36.3587 40.4285 39.5846 44.9204 39.5846 50.1658H8.41565C8.41565 44.859 11.7174 40.3233 16.3785 38.5007Z" fill="#6223A9"/>
<mask id="mask2_54678_21508" style="mask-type:luminance" maskUnits="userSpaceOnUse" x="8" y="38" width="32" height="13">
<path d="M16.3785 38.5007C16.3695 38.5909 16.3639 38.6817 16.3639 38.7732C16.3639 41.2914 19.8174 43.3327 24.0778 43.3328C28.3382 43.3328 31.7926 41.2915 31.7926 38.7732C31.7926 38.7034 31.7881 38.6342 31.7828 38.5652C36.3587 40.4285 39.5846 44.9204 39.5846 50.1658H8.41565C8.41565 44.859 11.7174 40.3233 16.3785 38.5007Z" fill="white"/>
</mask>
<g mask="url(#mask2_54678_21508)">
<rect x="3.42859" y="33.1514" width="41.1429" height="17.014" fill="#6223A9"/>
</g>
<path fill-rule="evenodd" clip-rule="evenodd" d="M21.8182 29.9033C21.8182 31.0992 22.7951 32.0687 24.0001 32.0687C25.205 32.0687 26.1819 31.0992 26.1819 29.9033" fill="#0C092A"/>
<g opacity="0.3">
<path fill-rule="evenodd" clip-rule="evenodd" d="M22.13 26.9644C22.13 27.6477 22.9673 28.2017 24.0001 28.2017C25.033 28.2017 25.8703 27.6477 25.8703 26.9644" fill="#0C092A"/>
</g>
<ellipse cx="19.9481" cy="24.1805" rx="0.935065" ry="0.928034" fill="#0C092A"/>
<ellipse cx="28.052" cy="24.1805" rx="0.935065" ry="0.928034" fill="#0C092A"/>
<path d="M17.7087 22.1943C18.3188 21.3422 19.9915 20.8645 21.4323 21.2156C21.5994 21.2564 21.7682 21.1549 21.8093 20.989C21.8504 20.8231 21.7481 20.6555 21.5809 20.6148C19.9077 20.207 17.9708 20.7602 17.2006 21.8359C17.1009 21.9752 17.1338 22.1683 17.2741 22.2672C17.4144 22.3662 17.609 22.3336 17.7087 22.1943Z" fill="#0C092A"/>
<path d="M30.2915 22.1943C29.6814 21.3422 28.0088 20.8645 26.568 21.2156C26.4008 21.2564 26.232 21.1549 26.1909 20.989C26.1499 20.8231 26.2521 20.6555 26.4193 20.6148C28.0925 20.207 30.0294 20.7602 30.7997 21.8359C30.8994 21.9752 30.8665 22.1683 30.7261 22.2672C30.5858 22.3662 30.3912 22.3336 30.2915 22.1943Z" fill="#0C092A"/>
<mask id="mask3_54678_21508" style="mask-type:luminance" maskUnits="userSpaceOnUse" x="3" y="6" width="42" height="45">
<rect x="3.42859" y="6.85718" width="41.1429" height="43.3083" fill="white"/>
</mask>
<g mask="url(#mask3_54678_21508)">
<path d="M24.0002 9.94982C27.7877 10.0194 31.3031 10.8497 32.5714 12.4254C34.492 14.8116 38.4734 23.8824 38.4943 29.2838C38.5088 33.1194 37.0072 36.9648 34.9093 37.1725C33.1827 37.343 30.7754 36.9426 27.7404 36.7086V34.7848C30.6885 33.384 32.7277 30.3792 32.7277 26.8981V22.5631C31.0895 21.6672 29.6941 20.5878 28.5324 19.4889C29.0557 20.4551 29.6542 21.3327 30.3293 21.9957C25.5615 20.668 22.2664 17.9483 20.2921 15.817C19.3849 17.5301 17.7604 20.0348 15.2736 21.944V26.8981C15.2736 30.3791 17.312 33.3829 20.2599 34.7838V36.8258C17.1999 37.2416 14.7494 37.9714 12.9953 37.7916C10.7788 37.5642 9.58432 33.119 9.50699 29.2838C9.41141 24.514 13.9206 14.5586 15.5851 12.5797C16.8202 11.112 20.213 9.88039 24.0002 9.94982Z" fill="#E6E6E6"/>
<mask id="mask4_54678_21508" style="mask-type:luminance" maskUnits="userSpaceOnUse" x="9" y="9" width="30" height="29">
<path d="M24.0002 9.94982C27.7877 10.0194 31.3031 10.8497 32.5714 12.4254C34.492 14.8116 38.4734 23.8824 38.4943 29.2838C38.5088 33.1194 37.0072 36.9648 34.9093 37.1725C33.1827 37.343 30.7754 36.9426 27.7404 36.7086V34.7848C30.6885 33.384 32.7277 30.3792 32.7277 26.8981V22.5631C31.0895 21.6672 29.6941 20.5878 28.5324 19.4889C29.0557 20.4551 29.6542 21.3327 30.3293 21.9957C25.5615 20.668 22.2664 17.9483 20.2921 15.817C19.3849 17.5301 17.7604 20.0348 15.2736 21.944V26.8981C15.2736 30.3791 17.312 33.3829 20.2599 34.7838V36.8258C17.1999 37.2416 14.7494 37.9714 12.9953 37.7916C10.7788 37.5642 9.58432 33.119 9.50699 29.2838C9.41141 24.514 13.9206 14.5586 15.5851 12.5797C16.8202 11.112 20.213 9.88039 24.0002 9.94982Z" fill="white"/>
</mask>
<g mask="url(#mask4_54678_21508)">
<rect x="3.27271" y="6.85718" width="41.4546" height="43.3083" fill="#0C092A"/>
</g>
</g>
</g>
</svg>
