<svg width="326" height="200" viewBox="0 0 326 200" fill="none" xmlns="http://www.w3.org/2000/svg">
<rect x="107.076" y="12" width="112.542" height="187.786" fill="url(#paint0_linear_853_8507)"/>
<path d="M123.438 0H203.24L219.61 12.2137H107.068L123.438 0Z" fill="#C3B6FF"/>
<path d="M169.954 12.6379C168.838 13.6879 160.155 31.9207 160.155 31.9207L153.695 59.4941L178.833 57.055C178.833 57.055 199.743 15.9082 200.167 14.9566C200.922 13.2285 201.325 12.5175 198.441 12.5175C195.557 12.5066 170.998 11.6535 169.954 12.6379V12.6379Z" fill="#543ACC"/>
<path d="M182.968 55.3488C181.717 54.6379 144.878 54.0254 144.01 55.3488C143.224 56.5519 143.338 62.0535 143.721 62.7644C144.103 63.4754 156.486 69.5676 156.486 69.5676L156.476 71.7879C156.476 71.7879 157.158 73.5269 164.063 73.5269C170.967 73.5269 171.681 72.0504 171.681 72.0504L171.743 69.8082C171.743 69.8082 182.585 64.0769 183.154 63.5738C183.733 63.0597 184.219 56.0597 182.968 55.3488V55.3488ZM171.619 64.4597C171.619 64.4597 171.588 62.9285 170.874 62.5457C170.161 62.1629 158.677 62.2285 157.706 62.2832C156.734 62.3379 156.734 64.1754 156.734 64.1754L148.878 60.1285V59.3191L178.13 59.5379L178.182 60.4566L171.619 64.4597V64.4597Z" fill="#FCC417"/>
<path d="M159.793 63.9668C158.822 63.9668 158.264 65.0387 158.264 66.8871C158.264 68.6152 158.822 70.0699 160.052 69.9606C161.065 69.8731 161.416 68.2324 161.323 66.7777C161.23 65.0496 161.023 63.9668 159.793 63.9668V63.9668Z" fill="#FDFFFF"/>
<path d="M128.495 107.225C128.495 133.431 150.884 145.101 165.768 144.544C182.182 143.92 201.842 130.379 200.653 105.376C199.527 81.6857 180.694 70.4529 164.383 70.5732C145.426 70.7154 128.495 84.3326 128.495 107.225V107.225Z" fill="#FCC417"/>
<path d="M165.241 139.983C164.982 139.983 164.714 139.983 164.455 139.972C156.703 139.698 149.044 136.242 143.441 130.5C137.446 124.353 134.159 116.04 134.201 107.104C134.294 85.2842 152.32 75.167 164.548 75.167H164.652C181.221 75.2436 194.823 88.8717 195.206 107.345C195.371 115.57 192.188 124.2 185.945 130.697C180.115 136.745 172.383 139.983 165.241 139.983ZM164.528 78.7982C153.561 78.7982 137.343 88.292 137.301 107.104C137.27 121.17 147.566 135.629 164.714 136.242C171.246 136.461 177.975 133.814 183.412 128.159C189.056 122.286 192.229 114.717 192.115 107.389C191.867 91.4967 179.588 78.8529 164.683 78.7873C164.641 78.7873 164.559 78.7982 164.528 78.7982Z" fill="#FA912C"/>
<path d="M158.305 74.2923C157.592 73.2533 149.509 73.4501 141.87 81.347C134.5 88.9705 133.704 96.1564 135.12 96.572C136.723 97.0423 138.676 89.4298 145.426 83.0314C151.628 77.1689 159.731 76.3595 158.305 74.2923V74.2923ZM189.573 102.588C187.081 102.96 189.666 110.856 183.888 119.694C178.874 127.361 173.189 130.139 173.851 131.824C174.74 134.077 183.846 128.466 188.063 119.322C191.888 111.042 191.433 102.303 189.573 102.588V102.588Z" fill="#FEFFFA"/>
<path d="M156.268 92.241C155.731 93.0832 156.217 100.466 156.537 100.794C157.157 101.45 161.871 99.0988 161.871 99.0988L161.695 118.841C161.695 118.841 158.232 118.797 157.871 118.939C157.157 119.224 157.25 126.836 157.778 127.208C158.305 127.58 172.435 127.777 172.972 127.022C173.51 126.268 173.375 119.607 173.127 119.3C172.683 118.732 169.303 118.961 169.303 118.961C169.303 118.961 169.592 89.8895 169.499 88.9598C169.406 88.0301 168.434 87.4504 167.277 87.7348C166.119 88.0192 156.61 91.6942 156.268 92.241V92.241Z" fill="white"/>
<path d="M124.909 12.069C124.257 12.7033 149.158 59.6252 149.158 59.6252C149.158 59.6252 153.334 60.194 162.657 60.2815C171.98 60.369 176.601 59.7127 176.601 59.7127C176.601 59.7127 157.241 12.5393 156.083 12.069C155.515 11.8283 147.845 11.7408 140.351 11.6533C132.847 11.5549 125.529 11.4565 124.909 12.069Z" fill="#6949FF"/>
<rect y="47" width="108.016" height="153" fill="#876DFF"/>
<path d="M15.2893 32H107.109V46.9333H0.791504L15.2893 32Z" fill="#C3B6FF"/>
<path d="M66.3124 47.3062C65.2759 48.2812 57.2136 65.2116 57.2136 65.2116L51.2148 90.8155L74.5571 88.5507C74.5571 88.5507 93.9738 50.3429 94.3673 49.4593C95.068 47.8546 95.4423 47.1944 92.7645 47.1944C90.0866 47.1843 67.2818 46.3921 66.3124 47.3062V47.3062Z" fill="#543ACC"/>
<path d="M78.3963 86.966C77.2349 86.3058 43.0278 85.7371 42.2215 86.966C41.4921 88.0832 41.9048 93.9433 42.1831 94.6441C42.6822 95.8628 53.7295 101.175 53.7295 101.175L53.5183 103.592C53.5183 103.592 54.4205 103.836 60.8416 103.836C67.2626 103.836 68.5296 103.49 68.5296 103.49L68.5488 101.307C68.5488 101.307 78.4923 96.1878 78.9914 95.4769C79.4137 94.8878 79.5576 87.6261 78.3963 86.966ZM68.2128 96.2285C68.2128 96.2285 68.5296 94.7355 67.8673 94.3902C67.205 94.0347 55.8411 94.1972 54.9388 94.248C54.0366 94.2988 54.0366 96.005 54.0366 96.005L46.7422 91.4043V90.6527L73.9044 90.8558L73.9524 91.7089L68.2128 96.2285Z" fill="#CECDD2"/>
<path d="M56.8775 94.9697C55.9753 94.9697 55.457 95.965 55.457 97.6814C55.457 99.2861 55.9753 100.637 57.1175 100.535C58.0581 100.454 58.3844 98.9307 58.298 97.5799C58.2117 95.9752 58.0197 94.9697 56.8775 94.9697V94.9697Z" fill="#FDFFFF"/>
<path d="M27.8054 136.325C27.8054 160.66 48.9689 170.989 62.7996 170.552C78.9146 170.044 95.9222 157.105 94.8185 133.888C93.7723 111.889 76.1408 102.109 60.9952 102.221C43.3925 102.363 27.8054 115.068 27.8054 136.325Z" fill="#CECDD2"/>
<path d="M61.9356 166.023C61.6957 166.023 61.4461 166.023 61.2062 166.013C54.0077 165.759 46.8956 162.549 41.6935 157.217C36.1267 151.51 33.0745 143.791 33.1129 135.493C33.1993 115.231 49.9381 105.837 61.2925 105.837H61.3885C76.7741 105.908 89.405 118.563 89.7601 135.717C89.9137 143.354 86.9575 151.367 81.1603 157.4C75.7471 163.017 68.5678 166.023 61.9356 166.023V166.023ZM61.2734 109.209C51.0899 109.209 36.0307 118.024 35.9923 135.493C35.9635 148.554 45.5231 161.981 61.4461 162.549C67.512 162.753 73.7603 160.295 78.8088 155.044C84.0493 149.59 86.9959 142.562 86.8903 135.757C86.6408 121 75.2384 109.26 61.3981 109.188C61.3789 109.188 61.3021 109.209 61.2734 109.209V109.209Z" fill="#9B9B9D"/>
<path d="M55.7547 105.431C55.0925 104.466 48.3067 104.74 41.0027 111.392C33.7466 118.004 32.662 125.317 33.9673 125.703C35.455 126.139 37.269 119.071 43.5365 113.129C49.2953 107.696 57.0697 107.35 55.7547 105.431V105.431ZM84.3471 132.091C82.034 132.436 84.4335 139.769 79.0682 147.975C74.4132 155.095 69.1343 157.674 69.7486 159.239C70.574 161.331 79.0298 156.121 82.9458 147.63C86.4874 139.952 86.0651 131.837 84.3471 132.091V132.091Z" fill="#FEFFFA"/>
<path d="M24.4843 46.7782C23.8796 47.3672 47.0012 90.9376 47.0012 90.9376C47.0012 90.9376 50.8787 91.4657 59.5361 91.5469C68.1935 91.6282 72.4838 91.0188 72.4838 91.0188C72.4838 91.0188 54.5068 47.2149 53.4318 46.7782C52.9039 46.5547 45.7822 46.4735 38.8237 46.3922C31.8556 46.3008 25.0602 46.2094 24.4843 46.7782V46.7782Z" fill="#6949FF"/>
<path d="M54.5645 130.699C55.5627 130.709 56.4553 129.277 57.2808 128.404C59.0372 126.535 60.88 125.052 62.9819 127.063C68.1457 132.029 57.7798 137.067 53.8447 143.953C50.9077 149.092 50.3126 153.043 51.1285 154.099C51.9443 155.155 71.8025 155.104 72.0712 154.576C72.34 154.048 72.6183 147.01 72.1576 146.675C71.6969 146.34 61.9358 146.533 61.9358 146.533C61.9358 146.533 62.7516 144.522 66.1013 141.454C69.7773 138.093 72.7239 133.472 71.9368 128.008C70.3052 116.714 59.5555 116.297 54.9005 120.228C50.3606 124.057 51.3396 130.658 54.5645 130.699V130.699Z" fill="white"/>
<rect x="219.574" y="76" width="106.368" height="124" fill="#876DFF"/>
<path d="M219.435 64H310.499L326 76.0889H219.435L219.435 64Z" fill="#C3B6FF"/>
<path d="M277.99 76.9754C277.111 77.8754 270.271 93.5036 270.271 93.5036L265.182 117.138L284.984 115.047C284.984 115.047 301.457 79.7786 301.791 78.9629C302.385 77.4817 302.703 76.8723 300.431 76.8723C298.159 76.8629 278.812 76.1317 277.99 76.9754V76.9754Z" fill="#543ACC"/>
<path d="M288.241 113.584C287.256 112.975 258.236 112.45 257.552 113.584C256.933 114.615 257.283 120.025 257.519 120.672C257.943 121.797 267.315 126.7 267.315 126.7L267.136 128.931C267.136 128.931 267.901 129.156 273.348 129.156C278.796 129.156 279.871 128.837 279.871 128.837L279.887 126.822C279.887 126.822 288.323 122.097 288.746 121.44C289.104 120.897 289.227 114.194 288.241 113.584ZM279.602 122.134C279.602 122.134 279.871 120.756 279.309 120.437C278.747 120.109 269.106 120.259 268.341 120.306C267.575 120.353 267.575 121.928 267.575 121.928L261.501 118.328L261.387 116.987L284.431 117.175L284.349 118.44L279.602 122.134V122.134Z" fill="#F79429"/>
<path d="M269.985 121.646C269.22 121.646 268.78 122.565 268.78 124.15C268.78 125.631 269.22 126.878 270.189 126.784C270.987 126.709 271.264 125.303 271.19 124.056C271.117 122.565 270.954 121.646 269.985 121.646V121.646Z" fill="#FDFFFF"/>
<path d="M245.599 159.335C245.599 181.797 263.276 191.144 275.01 190.741C288.681 190.272 303.387 178.328 302.174 156.897C301.034 136.788 286.328 127.563 273.479 127.666C258.545 127.797 245.599 139.713 245.599 159.335Z" fill="#F79429"/>
<path d="M274.391 187.347C274.187 187.347 273.975 187.347 273.772 187.338C267.665 187.104 261.631 184.141 257.218 179.219C252.495 173.95 249.906 166.825 249.938 159.166C250.012 140.463 264.212 131.791 273.845 131.791H273.926C286.979 131.857 297.695 143.538 297.996 159.372C298.126 166.422 296.172 173.435 291.254 179.004C286.661 184.179 280.017 187.347 274.391 187.347V187.347ZM273.829 134.904C265.189 134.904 252.414 143.041 252.381 159.166C252.357 171.222 260.467 183.616 273.975 184.141C279.121 184.329 284.927 182.135 289.202 177.297C293.648 172.263 295.643 165.7 295.553 159.419C295.358 145.797 285.684 134.96 273.943 134.904C273.918 134.885 273.853 134.904 273.829 134.904Z" fill="#D25116"/>
<path d="M269.033 130.629C268.471 129.738 262.714 129.991 256.518 136.132C250.362 142.235 249.442 148.985 250.549 149.341C251.811 149.744 253.35 143.219 258.667 137.735C263.553 132.719 270.149 132.4 269.033 130.629V130.629ZM293.778 155.163C291.816 155.482 293.852 162.25 289.3 169.825C285.351 176.397 280.872 178.779 281.394 180.222C282.094 182.154 289.267 177.344 292.59 169.507C295.594 162.41 295.236 154.919 293.778 155.163Z" fill="#FEFFFA"/>
<path d="M242.504 76.4874C241.991 77.0312 261.607 117.25 261.607 117.25C261.607 117.25 264.896 117.737 272.241 117.812C279.586 117.887 283.225 117.325 283.225 117.325C283.225 117.325 267.974 76.8905 267.062 76.4874C266.614 76.2812 260.572 76.2062 254.669 76.1312C248.758 76.0468 242.993 75.9624 242.504 76.4874V76.4874Z" fill="#6949FF"/>
<path d="M282.761 151.478C281.817 142.057 272.29 141.269 268.341 144.888C264.498 148.413 264.864 153.325 267.559 153.897C269.684 154.347 270.238 152.407 270.857 151.516C272.257 149.519 274.489 149.332 275.946 150.935C277.599 152.763 276.581 157.132 274.098 157.31C272.249 157.441 271.313 157.328 271.077 157.694C270.743 158.21 270.792 162.269 271.134 162.719C271.525 163.235 273.088 162.916 274.432 162.972C276.28 163.057 278.242 166.207 276.948 168.569C275.604 171.016 272.029 169.919 270.743 168.438C269.041 166.478 267.339 167.603 266.769 168.372C265.874 169.591 264.921 172.366 268.227 175.066C271.525 177.766 281.532 178.282 283.551 169.919C285.31 162.616 281.206 159.616 281.206 159.616C281.206 159.616 283.299 156.85 282.761 151.478V151.478Z" fill="white"/>
<defs>
<linearGradient id="paint0_linear_853_8507" x1="163.347" y1="12" x2="163.347" y2="144.061" gradientUnits="userSpaceOnUse">
<stop stop-color="#876DFF"/>
<stop offset="1" stop-color="#A592FF"/>
</linearGradient>
</defs>
</svg>
