<svg width="16" height="16" viewBox="0 0 16 16" fill="none" xmlns="http://www.w3.org/2000/svg">
<g id="Frame" clip-path="url(#clip0_148_15927)">
<g id="Group">
<path id="Vector" d="M4.16636 11.6978C3.09908 11.6978 2.14975 11.0145 1.80499 9.99712L1.78167 9.92046C1.70036 9.65105 1.6663 9.42448 1.6663 9.19779V4.65226L0.0489424 10.0511C-0.159063 10.8452 0.314949 11.6684 1.11025 11.8878L11.4193 14.6486C11.5447 14.6813 11.6737 14.6978 11.8033 14.6979C12.4672 14.6979 13.0739 14.2573 13.244 13.6078L13.8446 11.6978H4.16636ZM5.99978 4.69767C6.73518 4.69767 7.33306 4.09962 7.33306 3.36426C7.33306 2.6289 6.73518 2.03085 5.99978 2.03085C5.26439 2.03085 4.66637 2.62893 4.66637 3.36426C4.66637 4.09959 5.26442 4.69767 5.99978 4.69767Z" fill="#8D58FA"/>
<path id="Vector_2" d="M14.3349 0.0307922H4.33464C3.41605 0.0307922 2.66797 0.778874 2.66797 1.69758V9.03102C2.66797 9.94976 3.41605 10.6978 4.33464 10.6978H14.3349C15.2536 10.6978 16.0017 9.94976 16.0017 9.03102V1.69758C16.0017 0.778874 15.2536 0.0307922 14.3349 0.0307922ZM4.33464 1.3642H14.3349C14.519 1.3642 14.6683 1.51352 14.6683 1.69758V6.43036L12.5623 3.97292C12.3389 3.71095 12.0155 3.57091 11.6682 3.56301C11.3229 3.56494 10.9989 3.71826 10.7775 3.98364L8.30142 6.95566L7.49475 6.15095C7.0388 5.695 6.29675 5.695 5.84139 6.15095L4.00138 7.99037V1.69755C4.00138 1.51349 4.15069 1.3642 4.33464 1.3642Z" fill="#8D58FA"/>
</g>
</g>
<defs>
<clipPath id="clip0_148_15927">
<rect width="16" height="16" fill="white"/>
</clipPath>
</defs>
</svg>
