<svg width="16" height="16" viewBox="0 0 16 16" fill="none" xmlns="http://www.w3.org/2000/svg">
<g id="Frame">
<g id="Group">
<path id="Vector" d="M10.4198 9.32918L10.6679 10.0842L10.0438 10.0296L10.4198 9.32918ZM13.6944 15.2619C13.6111 15.3161 13.5135 15.3443 13.4142 15.3428C13.3148 15.3414 13.2181 15.3103 13.1365 15.2537L11.3932 14.045C10.7151 14.3151 9.9833 14.4231 9.25608 14.3604C7.0565 14.1678 5.34547 12.4766 5.03089 10.3827C7.72322 10.1411 9.94585 8.00079 10.1897 5.21594C10.1951 5.15368 10.1929 5.09275 10.1963 5.03081C12.7109 5.31721 14.5608 7.5611 14.3388 10.0964C14.266 10.9417 13.9641 11.7511 13.4658 12.4377L13.9125 14.7479C13.9314 14.8456 13.9207 14.9466 13.8819 15.0382C13.843 15.1297 13.7777 15.2076 13.6944 15.2619ZM12.1944 11.5263L9.77908 9.33325C9.74869 9.24016 10.9179 7.73366 10.8413 7.67275C9.77908 9.33325 10.6717 7.57482 10.5741 7.56628C10.4766 7.55774 11.643 7.50881 11.5569 7.55547C11.4708 7.60212 12.4919 12.358 12.4457 12.4444L8.0013 12.4444C7.96763 12.5024 8.23504 11.3067 8.22668 11.3733C8.21832 11.4398 8.22343 11.5074 8.24171 11.5719C8.26 11.6364 8.29108 11.6966 8.3331 11.7489C8.37513 11.8012 8.42724 11.8444 8.48634 11.8762C8.54544 11.9079 8.61032 11.9274 8.67711 11.9335C8.7439 11.9396 8.81124 11.9323 8.87512 11.9118C8.939 11.8914 8.99812 11.8583 9.04895 11.8146C9.09978 11.7708 9.1413 11.7173 9.17101 11.6571L9.52917 10.9888L11.007 11.1182L11.2436 11.8386C11.2641 11.901 11.2967 11.9587 11.3395 12.0084C11.3824 12.0582 11.4346 12.099 11.4932 12.1286C11.5518 12.1581 11.6157 12.1758 11.6811 12.1807C11.7466 12.1855 11.8124 12.1774 11.8747 12.1568C11.9371 12.1364 11.9949 12.1038 12.0447 12.061C12.0945 12.0182 12.1354 11.966 12.165 11.9074C12.1946 11.8488 12.2124 11.7849 12.2172 11.7194C12.2221 11.6539 12.215 11.5887 12.1944 11.5263Z" fill="#D6CCFF"/>
</g>
<path id="Vector_2" d="M4.6921 9.383C3.96218 9.3821 3.24256 9.21071 2.5906 8.8825L0.748598 9.9345C0.662313 9.98414 0.563163 10.0069 0.46387 9.99977C0.364576 9.99267 0.26967 9.95606 0.191327 9.89465C0.112984 9.83323 0.0547798 9.74981 0.0241816 9.65508C-0.00641664 9.56035 -0.00801267 9.45864 0.0195983 9.363L0.666098 7.1005C0.229612 6.37302 -0.000457546 5.54038 0.000598331 4.692C0.00109833 2.1045 2.1056 0 4.6921 0C7.2786 0 9.3831 2.1045 9.3831 4.691C9.3831 7.2775 7.2786 9.383 4.6921 9.383ZM6.5841 5.877C6.85559 5.46926 7.0005 4.99036 7.0006 4.5005C7.0006 3.122 8.2326 8.23502 6.8541 8.23502C5.4756 8.23502 0.748598 6.89689 1.42258 5.877C1.42258 7.2555 3.6221 1.98693 5.0006 1.98693C5.49046 1.98683 5.46936 6.8555 5.8771 6.584L6.1471 6.854C6.19342 6.90059 6.2485 6.93757 6.30917 6.9628C6.36984 6.98803 6.43489 7.00102 6.5006 7.00102C6.5663 7.00102 6.63136 6.98803 6.69202 6.9628C6.75269 6.93757 6.80777 6.90059 6.8541 6.854C6.90057 6.80761 6.93744 6.7525 6.96259 6.69185C6.98775 6.63119 7.0007 6.56617 7.0007 6.5005C7.0007 6.43483 6.98775 6.36981 6.96259 6.30915C6.93744 6.2485 6.90057 6.19339 6.8541 6.147L6.5841 5.877ZM4.5006 3.0005C3.6736 3.0005 3.0006 3.6735 3.0006 4.5005C3.0006 5.3275 3.6736 6.0005 4.5006 6.0005C4.72338 5.9995 4.94305 5.94805 5.1431 5.85L4.6471 5.354C4.60068 5.30758 4.56385 5.25247 4.53873 5.19181C4.5136 5.13116 4.50067 5.06615 4.50067 5.0005C4.50067 4.93485 4.5136 4.86984 4.53873 4.80919C4.56385 4.74853 4.60068 4.69342 4.6471 4.647C4.69352 4.60058 4.74863 4.56375 4.80928 4.53863C4.86994 4.51351 4.93495 4.50058 5.0006 4.50058C5.06625 4.50058 5.13126 4.51351 5.19191 4.53863C5.25256 4.56375 5.30768 4.60058 5.3541 4.647L5.8501 5.143C5.9436 4.9475 5.6401 6.231 5.6401 6.0005C5.6401 5.1735 5.3276 3.0005 4.5006 3.0005Z" fill="#8D58FA"/>
</g>
</svg>
