<svg width="33" height="32" viewBox="0 0 33 32" fill="none" xmlns="http://www.w3.org/2000/svg">
<path d="M30.7994 24.9107L25.542 15.1882C26.0783 13.9709 26.3784 12.6255 26.3784 11.2101C26.3784 5.75495 21.956 1.33301 16.5013 1.33301C11.0453 1.33301 6.62338 5.7554 6.62338 11.2101C6.62338 12.6596 6.93827 14.0351 7.49887 15.2749L2.21805 24.9062C2.04778 25.2157 2.07608 25.5975 2.289 25.8801C2.50237 26.1618 2.86263 26.2943 3.20669 26.2134L7.71623 25.1789L9.25969 29.4778C9.38007 29.812 9.68508 30.0438 10.0386 30.0698C10.0615 30.0716 10.0835 30.0725 10.1051 30.0725C10.2675 30.0725 10.4269 30.0284 10.5663 29.9449C10.7057 29.8615 10.8198 29.7418 10.8966 29.5986L15.4924 21.0364C15.8274 21.0703 16.164 21.0873 16.5008 21.0872C16.813 21.0872 17.1211 21.071 17.4257 21.0422L22.1212 29.6054C22.2043 29.7572 22.3295 29.8817 22.4817 29.964C22.6339 30.0463 22.8067 30.0829 22.9792 30.0694C23.3318 30.0411 23.6355 29.8097 23.7549 29.4773L25.2984 25.1785L29.8079 26.213C30.1538 26.2965 30.5105 26.1622 30.7238 25.8814C30.9381 25.6011 30.9669 25.2211 30.7994 24.9107ZM10.2685 26.9708L9.13829 23.8218C8.98376 23.3937 8.53549 23.1444 8.09165 23.25L4.75633 24.015L8.55798 17.0811C9.8099 18.7723 11.5887 20.0481 13.6519 20.6689L10.2685 26.9708ZM24.9228 23.25C24.4772 23.1448 24.0307 23.3937 23.8762 23.8218L22.7383 26.9936L19.2808 20.689C21.3988 20.0687 23.2208 18.7593 24.4889 17.0186L28.2748 24.0185L24.9228 23.25Z" fill="#F79429"/>
<path d="M15.9689 14.433C15.6089 14.433 15.2356 14.3863 14.8489 14.293C14.4622 14.1997 14.1256 14.0597 13.8389 13.873C13.7056 13.7863 13.6156 13.6863 13.5689 13.573C13.5222 13.4597 13.5089 13.353 13.5289 13.253C13.5556 13.1463 13.6056 13.0563 13.6789 12.983C13.7589 12.9097 13.8556 12.8663 13.9689 12.853C14.0889 12.8397 14.2189 12.8697 14.3589 12.943C14.6322 13.0897 14.8956 13.1963 15.1489 13.263C15.4022 13.323 15.6622 13.353 15.9289 13.353C16.2222 13.353 16.4689 13.313 16.6689 13.233C16.8689 13.153 17.0189 13.033 17.1189 12.873C17.2256 12.713 17.2789 12.5197 17.2789 12.293C17.2789 11.9597 17.1656 11.713 16.9389 11.553C16.7189 11.3863 16.3956 11.303 15.9689 11.303H15.3289C15.1422 11.303 14.9989 11.2563 14.8989 11.163C14.8056 11.0697 14.7589 10.9397 14.7589 10.773C14.7589 10.6063 14.8056 10.4763 14.8989 10.383C14.9989 10.2897 15.1422 10.243 15.3289 10.243H15.8489C16.1022 10.243 16.3189 10.203 16.4989 10.123C16.6789 10.0363 16.8189 9.91634 16.9189 9.76301C17.0189 9.60967 17.0689 9.42301 17.0689 9.20301C17.0689 8.89634 16.9656 8.66301 16.7589 8.50301C16.5589 8.34301 16.2656 8.26301 15.8789 8.26301C15.6322 8.26301 15.3989 8.29301 15.1789 8.35301C14.9656 8.40634 14.7289 8.50967 14.4689 8.66301C14.3489 8.73634 14.2322 8.76634 14.1189 8.75301C14.0122 8.73967 13.9222 8.69634 13.8489 8.62301C13.7756 8.54967 13.7256 8.46301 13.6989 8.36301C13.6722 8.25634 13.6789 8.14967 13.7189 8.04301C13.7589 7.92967 13.8422 7.83301 13.9689 7.75301C14.2556 7.56634 14.5722 7.42634 14.9189 7.33301C15.2656 7.23301 15.6222 7.18301 15.9889 7.18301C16.4756 7.18301 16.8922 7.25967 17.2389 7.41301C17.5856 7.55967 17.8489 7.77301 18.0289 8.05301C18.2156 8.32634 18.3089 8.65967 18.3089 9.05301C18.3089 9.33301 18.2556 9.58967 18.1489 9.82301C18.0422 10.0497 17.8922 10.243 17.6989 10.403C17.5056 10.563 17.2722 10.6763 16.9989 10.743V10.623C17.4789 10.703 17.8522 10.903 18.1189 11.223C18.3856 11.5363 18.5189 11.9297 18.5189 12.403C18.5189 12.8163 18.4156 13.1763 18.2089 13.483C18.0022 13.7897 17.7089 14.0263 17.3289 14.193C16.9489 14.353 16.4956 14.433 15.9689 14.433Z" fill="white"/>
</svg>
