<svg width="25" height="24" viewBox="0 0 25 24" fill="none" xmlns="http://www.w3.org/2000/svg">
<path fill-rule="evenodd" clip-rule="evenodd" d="M22.5 5.5C22.5 7.433 20.933 9 19 9C17.8988 9 16.9163 8.49142 16.2747 7.69632C16.2522 7.71078 16.2287 7.72417 16.2042 7.73641L9.46659 11.1052C9.44233 11.1174 9.41773 11.128 9.39289 11.1373C9.46283 11.4133 9.5 11.7023 9.5 12C9.5 12.2977 9.46283 12.5867 9.39288 12.8627C9.41773 12.872 9.44233 12.8826 9.46659 12.8948L16.2042 16.2636C16.2287 16.2758 16.2522 16.2892 16.2747 16.3037C16.9163 15.5086 17.8988 15 19 15C20.933 15 22.5 16.567 22.5 18.5C22.5 20.433 20.933 22 19 22C17.067 22 15.5 20.433 15.5 18.5C15.5 18.2023 15.5372 17.9133 15.6071 17.6373C15.5823 17.6281 15.5577 17.6174 15.5334 17.6052L8.79577 14.2364C8.77129 14.2242 8.74777 14.2108 8.72525 14.1963C8.08366 14.9914 7.10122 15.5 6 15.5C4.067 15.5 2.5 13.933 2.5 12C2.5 10.067 4.067 8.5 6 8.5C7.10123 8.5 8.08367 9.00858 8.72526 9.80368C8.74778 9.78923 8.77129 9.77583 8.79577 9.76359L15.5334 6.39477C15.5577 6.38264 15.5823 6.37196 15.6071 6.36267C15.5372 6.08672 15.5 5.7977 15.5 5.5C15.5 3.567 17.067 2 19 2C20.933 2 22.5 3.567 22.5 5.5Z" fill="#6A42C2"/>
</svg>
