<svg width="71" height="67" viewBox="0 0 71 67" fill="none" xmlns="http://www.w3.org/2000/svg">
<g id="Frame">
<g id="Group">
<path id="Vector" d="M57.875 46.125V11.25C57.875 10.0565 57.4009 8.91193 56.557 8.06802C55.7131 7.22411 54.5685 6.75 53.375 6.75H60.125C61.3185 6.75 62.4631 7.22411 63.307 8.06802C64.1509 8.91193 64.625 10.0565 64.625 11.25V46.125C64.625 47.0201 64.2694 47.8785 63.6365 48.5115C63.0035 49.1444 62.1451 49.5 61.25 49.5C60.3549 49.5 59.4965 49.1444 58.8635 48.5115C58.2306 47.8785 57.875 47.0201 57.875 46.125Z" fill="#353744"/>
<path id="Vector_2" d="M60.125 4.5C58.3348 4.5 56.6179 5.21116 55.352 6.47703C54.0862 7.7429 53.375 9.45979 53.375 11.25V27H55.625V11.25C55.625 10.0565 56.0991 8.91193 56.943 8.06802C57.7869 7.22411 58.9315 6.75 60.125 6.75C61.3185 6.75 62.4631 7.22411 63.307 8.06802C64.1509 8.91193 64.625 10.0565 64.625 11.25V46.125C64.625 47.0201 64.2694 47.8785 63.6365 48.5115C63.0035 49.1444 62.1451 49.5 61.25 49.5H63.5C64.3951 49.5 65.2535 49.1444 65.8865 48.5115C66.5194 47.8785 66.875 47.0201 66.875 46.125V11.25C66.875 9.45979 66.1638 7.7429 64.898 6.47703C63.6321 5.21116 61.9152 4.5 60.125 4.5ZM39.875 27V11.25C39.875 10.0565 39.4009 8.91193 38.557 8.06802C37.7131 7.22411 36.5685 6.75 35.375 6.75H42.125C43.3185 6.75 44.4631 7.22411 45.307 8.06802C46.1509 8.91193 46.625 10.0565 46.625 11.25V27H39.875Z" fill="#353744"/>
<path id="Vector_3" d="M42.125 4.5H35.375C33.5848 4.5 31.8679 5.21116 30.602 6.47703C29.3362 7.7429 28.625 9.45979 28.625 11.25V27H35.375V11.25C35.375 9.45979 36.0862 7.7429 37.352 6.47703C38.6179 5.21116 40.3348 4.5 42.125 4.5Z" fill="#55525B"/>
<path id="Vector_4" d="M42.125 4.5C40.3348 4.5 38.6179 5.21116 37.352 6.47703C36.0862 7.7429 35.375 9.45979 35.375 11.25V27H37.625V11.25C37.625 10.0565 38.0991 8.91193 38.943 8.06802C39.7869 7.22411 40.9315 6.75 42.125 6.75C43.3185 6.75 44.4631 7.22411 45.307 8.06802C46.1509 8.91193 46.625 10.0565 46.625 11.25V27H48.875V11.25C48.875 9.45979 48.1638 7.7429 46.898 6.47703C45.6321 5.21116 43.9152 4.5 42.125 4.5ZM57.875 46.125V11.25C57.875 10.0565 57.4009 8.91193 56.557 8.06802C55.7131 7.22411 54.5685 6.75 53.375 6.75H60.125C61.3185 6.75 62.4631 7.22411 63.307 8.06802C64.1509 8.91193 64.625 10.0565 64.625 11.25V46.125C64.625 47.0201 64.2694 47.8785 63.6365 48.5115C63.0035 49.1444 62.1451 49.5 61.25 49.5C60.3549 49.5 59.4965 49.1444 58.8635 48.5115C58.2306 47.8785 57.875 47.0201 57.875 46.125Z" fill="#353744"/>
<path id="Vector_5" d="M60.125 4.5H53.375C51.5848 4.5 49.8679 5.21116 48.602 6.47703C47.3362 7.7429 46.625 9.45979 46.625 11.25V27H53.375V11.25C53.375 9.45979 54.0862 7.7429 55.352 6.47703C56.6179 5.21116 58.3348 4.5 60.125 4.5Z" fill="#55525B"/>
<path id="Vector_6" d="M37.625 9H26.375C16.4334 9 8.375 17.0584 8.375 27V63C8.375 64.1935 8.84911 65.3381 9.69302 66.182C10.5369 67.0259 11.6815 67.5 12.875 67.5H51.125C52.3185 67.5 53.4631 67.0259 54.307 66.182C55.1509 65.3381 55.625 64.1935 55.625 63V27C55.625 17.0584 47.5666 9 37.625 9Z" fill="#5C76B2"/>
<path id="Vector_7" d="M26.375 9C16.4334 9 8.375 17.0584 8.375 27V63C8.375 64.1935 8.84911 65.3381 9.69302 66.182C10.5369 67.0259 11.6815 67.5 12.875 67.5H39.875C41.0685 67.5 42.2131 67.0259 43.057 66.182C43.9009 65.3381 44.375 64.1935 44.375 63V27C44.375 17.0584 36.3166 9 26.375 9Z" fill="#6FA4D8"/>
<path id="Vector_8" d="M35.375 33.75H10.625C9.43153 33.75 8.28693 34.2241 7.44302 35.068C6.59911 35.9119 6.125 37.0565 6.125 38.25V58.5C6.125 59.6935 6.59911 60.8381 7.44302 61.682C8.28693 62.5259 9.43153 63 10.625 63H35.375C36.5685 63 37.7131 62.5259 38.557 61.682C39.4009 60.8381 39.875 59.6935 39.875 58.5V38.25C39.875 37.0565 39.4009 35.9119 38.557 35.068C37.7131 34.2241 36.5685 33.75 35.375 33.75Z" fill="#F68820"/>
<path id="Vector_9" d="M28.625 33.75H10.625C9.43153 33.75 8.28693 34.2241 7.44302 35.068C6.59911 35.9119 6.125 37.0565 6.125 38.25V58.5C6.125 59.6935 6.59911 60.8381 7.44302 61.682C8.28693 62.5259 9.43153 63 10.625 63H28.625C29.8185 63 30.9631 62.5259 31.807 61.682C32.6509 60.8381 33.125 59.6935 33.125 58.5V38.25C33.125 37.0565 32.6509 35.9119 31.807 35.068C30.9631 34.2241 29.8185 33.75 28.625 33.75Z" fill="#FBBE18"/>
<path id="Vector_10" d="M6.125 40.5H33.125V42.75H6.125V40.5Z" fill="#F68820"/>
<path id="Vector_11" d="M33.6875 22.5H18.5C18.2016 22.5 17.9155 22.3815 17.7045 22.1705C17.4935 21.9595 17.375 21.6734 17.375 21.375C17.375 21.0766 17.4935 20.7905 17.7045 20.5795C17.9155 20.3685 18.2016 20.25 18.5 20.25H33.6875C33.9859 20.25 34.272 20.3685 34.483 20.5795C34.694 20.7905 34.8125 21.0766 34.8125 21.375C34.8125 21.6734 34.694 21.9595 34.483 22.1705C34.272 22.3815 33.9859 22.5 33.6875 22.5Z" fill="#DBDEE3"/>
<path id="Vector_12" d="M48.875 27V30.375C48.875 30.6734 48.9935 30.9595 49.2045 31.1705C49.4155 31.3815 49.7016 31.5 50 31.5C50.2984 31.5 50.5845 31.3815 50.7955 31.1705C51.0065 30.9595 51.125 30.6734 51.125 30.375V27C51.125 17.0584 43.0666 9 33.125 9H30.875C40.8166 9 48.875 17.0584 48.875 27Z" fill="#55525B"/>
</g>
</g>
</svg>
