<svg width="73" height="69" viewBox="0 0 73 69" fill="none" xmlns="http://www.w3.org/2000/svg">
<g id="Frame">
<g id="Group">
<path id="Vector" d="M19.8066 20.8566C23.8959 20.8566 27.2109 17.5415 27.2109 13.4522C27.2109 9.36289 23.8959 6.04785 19.8066 6.04785C15.7173 6.04785 12.4022 9.36289 12.4022 13.4522C12.4022 17.5415 15.7173 20.8566 19.8066 20.8566Z" fill="#FBAD3E"/>
<path id="Vector_2" d="M19.8066 8.2452C18.4619 8.93767 17.5449 9.55391 16.7328 10.3766C15.9122 11.1919 15.2971 12.1057 14.6014 13.4514C14.2435 12.7674 14.1991 11.9585 14.3791 11.2025C14.5485 10.4359 14.9699 9.7339 15.5194 9.16426C16.6312 8.04932 18.4227 7.54426 19.8066 8.2452ZM19.8066 2.86426C20.4842 3.15861 20.6356 3.45402 20.6642 3.74838C20.6388 4.04273 20.4874 4.33814 19.8066 4.63143C19.1258 4.33814 18.9743 4.04273 18.9489 3.74838C18.9786 3.45402 19.1289 3.15861 19.8066 2.86426ZM19.8066 22.2068C20.4842 22.5023 20.6356 22.7956 20.6642 23.091C20.6388 23.3853 20.4874 23.6797 19.8066 23.974C19.1258 23.6797 18.9743 23.3853 18.9489 23.091C18.9786 22.7956 19.1289 22.5023 19.8066 22.2068ZM12.3429 5.95602C13.0301 5.68496 13.3456 5.78661 13.5744 5.97402C13.7649 6.20061 13.8655 6.51614 13.5934 7.20543C12.9041 7.47861 12.5875 7.37802 12.362 7.18743C12.1735 6.95767 12.0729 6.64214 12.3429 5.95602ZM26.0198 19.6307C26.7069 19.3618 27.0225 19.4624 27.2512 19.6498C27.4418 19.8764 27.5423 20.1919 27.2692 20.8823C26.5809 21.1544 26.2643 21.0538 26.0378 20.8621C25.8503 20.6345 25.7498 20.3179 26.0198 19.6307ZM9.25117 13.4197C9.54659 12.742 9.84094 12.5906 10.1353 12.562C10.4296 12.5864 10.724 12.7388 11.0194 13.4197C10.7251 14.0994 10.4296 14.2519 10.1353 14.2773C9.84094 14.2477 9.54659 14.0973 9.25117 13.4197ZM28.5916 13.4176C28.886 12.7399 29.1814 12.5885 29.4758 12.5599C29.7701 12.5843 30.0645 12.7367 30.3599 13.4176C30.0645 14.0973 29.7701 14.2498 29.4758 14.2752C29.1814 14.2456 28.8871 14.0941 28.5916 13.4176ZM12.3429 20.8823C12.0729 20.1951 12.1735 19.8806 12.362 19.6519C12.5875 19.4613 12.9031 19.3597 13.5924 19.6328C13.8655 20.3221 13.7649 20.6387 13.5744 20.8643C13.3456 21.0517 13.0301 21.1523 12.3429 20.8823ZM26.0166 7.20438C25.7466 6.5172 25.8472 6.20273 26.0346 5.97296C26.2612 5.78238 26.5767 5.68179 27.266 5.95391C27.5392 6.64426 27.4386 6.95979 27.248 7.18638C27.0193 7.37379 26.7038 7.47438 26.0166 7.20438Z" fill="#FA990E"/>
<path id="Vector_3" d="M68.0709 48.0467C52.2754 49.4804 37.1152 49.6085 22.7321 48.0891C21.1979 47.9281 20.1962 46.8216 20.5594 45.7162C22.154 40.8594 26.5386 28.3748 32.2827 19.0656C36.1898 12.7233 40.7268 7.85059 45.4439 7.85059C51.477 7.85059 57.2138 15.8341 61.7159 24.6552C65.8908 32.8155 69.0038 41.7001 70.3072 45.6601C70.6778 46.7846 69.6359 47.9048 68.0709 48.0467Z" fill="#4269C4"/>
<path id="Vector_4" d="M61.7159 24.6552C61.7042 24.6552 61.6915 24.6658 61.6799 24.6658C60.0768 25.102 58.2832 25.4175 56.7987 24.7092C56.264 24.4593 55.8002 24.0898 55.2422 23.8939C52.7836 22.9907 49.6834 25.6664 47.5573 24.2094C46.8203 23.7086 46.4402 22.8065 45.5858 22.4909C44.6709 22.1542 43.6735 22.6318 42.8296 23.0998L39.1958 25.1221C38.6611 25.4281 38.0543 25.7436 37.4254 25.6452C36.2374 25.4599 35.9293 24.0781 35.5841 23.0235C35.0621 21.3813 33.8498 19.9561 32.2827 19.0646C36.1898 12.7233 40.7268 7.85059 45.4439 7.85059C51.4771 7.85059 57.2138 15.8341 61.7159 24.6552Z" fill="#D1DAFE"/>
<path id="Vector_5" d="M44.0229 48.7603C30.4065 49.9779 17.3289 50.0859 4.90788 48.8026C3.37047 48.6438 2.36988 47.532 2.73623 46.4245C4.2027 41.9891 8.00176 31.2886 12.9486 23.2702C16.3813 17.7007 20.3667 13.4199 24.5088 13.4199C29.8093 13.4199 34.8482 20.4325 38.8029 28.181C42.3839 35.1798 45.0754 42.7843 46.2666 46.3769C46.6393 47.5035 45.5889 48.6216 44.0229 48.7603Z" fill="#8A9BEA"/>
<path id="Vector_6" d="M38.8029 28.181C38.7924 28.181 38.7818 28.1905 38.7712 28.1905C37.3629 28.5727 35.7874 28.8502 34.4829 28.2286C34.0139 28.0084 33.6073 27.6844 33.1171 27.5118C30.9571 26.7187 28.2338 29.0683 26.366 27.7892C25.7201 27.3498 25.3855 26.5567 24.6338 26.2793C23.8312 25.9829 22.9545 26.4032 22.2133 26.8151L19.0209 28.5918C18.5519 28.8597 18.0193 29.136 17.4666 29.0503C16.4237 28.8883 16.1515 27.6738 15.8487 26.7484C15.3902 25.3052 14.3261 24.0537 12.9486 23.2702C16.3813 17.7007 20.3667 13.4199 24.5088 13.4199C29.8093 13.4199 34.8482 20.4325 38.8029 28.181Z" fill="#D1DAFE"/>
<path id="Vector_7" d="M68.7232 9.84119H60.3924C60.1821 9.84177 59.98 9.75958 59.8298 9.61237C59.6796 9.46515 59.5934 9.26475 59.5898 9.05448C59.5898 8.92107 59.5972 8.77283 59.6205 8.63095C59.7899 7.31801 60.8011 6.20307 62.1002 5.92883C62.6954 5.80124 63.3146 5.84592 63.8852 6.05764C64.4559 6.26936 64.9543 6.63935 65.3222 7.12425C65.7532 6.83413 66.2646 6.67107 66.8226 6.66366C67.4092 6.65625 67.9661 6.93048 68.3812 7.33919C68.9678 7.92578 69.2949 8.37154 69.4654 8.73472C69.7037 9.2546 69.2949 9.84119 68.7232 9.84119ZM40.6612 6.62342H32.3304C32.1199 6.62401 31.9176 6.54166 31.7674 6.39422C31.6172 6.24678 31.5311 6.04611 31.5278 5.83566C31.5278 5.70225 31.5352 5.55401 31.5574 5.41213C31.7279 4.09919 32.738 2.9853 34.0372 2.71001C34.6325 2.5822 35.2519 2.62678 35.8227 2.83851C36.3936 3.05023 36.8923 3.42034 37.2602 3.90542C37.6912 3.61636 38.2026 3.45225 38.7595 3.44483C39.3461 3.43742 39.9031 3.71272 40.3192 4.12036C40.9058 4.70695 41.2329 5.15272 41.4034 5.51695C41.6406 6.03577 41.2329 6.62342 40.6612 6.62342Z" fill="#8A9BEA"/>
<path id="Vector_8" d="M9.86318 56.578C9.86318 59.3193 8.24423 61.5407 6.24729 61.5407C4.25035 61.5407 2.63247 59.3193 2.63247 56.578C2.63247 53.8367 4.25035 49.4395 6.24729 49.4395C8.24423 49.4395 9.86318 53.8367 9.86318 56.578Z" fill="#AEC46E"/>
<path id="Vector_9" d="M7.55176 59.0232C7.49564 59.1936 7.39823 59.3154 7.29235 59.4372C7.13737 59.5774 6.94697 59.6726 6.74176 59.7124C6.76505 60.2567 6.77353 60.7924 6.77353 61.3346C6.77216 62.4952 6.73437 63.6556 6.66023 64.8139C6.5787 65.9817 6.46541 67.1422 6.24729 68.3016C6.02705 67.1422 5.91376 65.9828 5.83223 64.8139C5.75176 63.6544 5.72635 62.495 5.71894 61.3346C5.72741 59.9401 5.76764 58.5372 5.88941 57.1416C5.77681 57.1186 5.66784 57.0805 5.56541 57.0283C5.39098 56.9448 5.2359 56.8258 5.11011 56.6789C4.87611 56.3877 4.69717 56.0468 4.76176 55.4877C5.00301 55.4816 5.242 55.5355 5.45729 55.6446C5.67258 55.7536 5.85744 55.9144 5.99529 56.1124C6.05988 55.528 6.14141 54.952 6.24623 54.376C6.49823 55.78 6.62741 57.1744 6.70153 58.5774C6.78304 58.5114 6.87651 58.4618 6.97682 58.4313C7.17915 58.3688 7.3939 58.3579 7.60152 58.3995C7.64176 58.6663 7.60894 58.8601 7.55176 59.0232Z" fill="#617F4D"/>
<path id="Vector_10" d="M70.3675 56.578C70.3675 59.3193 68.7496 61.5407 66.7527 61.5407C64.7558 61.5407 63.1368 59.3193 63.1368 56.578C63.1368 53.8367 64.7558 49.4395 66.7527 49.4395C68.7496 49.4395 70.3675 53.8367 70.3675 56.578Z" fill="#AEC46E"/>
<path id="Vector_11" d="M68.0561 59.0232C68 59.1936 67.9026 59.3154 67.7967 59.4372C67.6417 59.5774 67.4513 59.6726 67.2461 59.7124C67.2705 60.2567 67.2779 60.7924 67.2779 61.3346C67.2765 62.4952 67.2387 63.6556 67.1646 64.8139C67.083 65.9817 66.9698 67.1422 66.7516 68.3016C66.5325 67.1422 66.4181 65.9828 66.3376 64.8139C66.2561 63.6544 66.2318 62.495 66.2243 61.3346C66.2318 59.9401 66.272 58.5372 66.3938 57.1416C66.2812 57.1186 66.1722 57.0805 66.0698 57.0283C65.8957 56.9447 65.741 56.8257 65.6155 56.6789C65.3805 56.3877 65.2026 56.0468 65.2661 55.4877C65.5074 55.4816 65.7463 55.5355 65.9616 55.6446C66.1769 55.7536 66.3618 55.9144 66.4996 56.1124C66.5642 55.528 66.6458 54.952 66.7506 54.376C67.0026 55.78 67.1318 57.1744 67.2059 58.5774C67.2874 58.5114 67.3809 58.4618 67.4812 58.4313C67.6835 58.3688 67.8982 58.3579 68.1059 58.3995C68.1461 58.6663 68.1133 58.8601 68.0561 59.0232Z" fill="#617F4D"/>
<path id="Vector_12" d="M34.6238 61.5509H31.5214V59.3242H34.6238" fill="#3A3A3A"/>
<path id="Vector_13" d="M39.6818 59.6016C39.83 60.2528 39.4658 61.0342 38.7818 61.3963C38.4514 61.5901 38.0046 61.6166 37.7145 61.6441C37.3915 61.678 37.0686 61.6939 36.7456 61.7203C35.4539 61.8167 34.1611 61.8421 32.8682 61.8548C31.5746 61.8534 30.2814 61.8089 28.9908 61.7214L28.022 61.6452C27.7319 61.6219 27.2851 61.5869 26.9547 61.3963C26.2707 61.0363 25.9043 60.2528 26.0526 59.6006C26.1849 60.2496 26.6582 60.7229 27.1834 60.8458C27.4523 60.9199 27.6683 60.8881 28.022 60.8489L28.9908 60.7727C30.2815 60.6857 31.5747 60.6416 32.8682 60.6403C34.16 60.652 35.4528 60.6785 36.7456 60.7748C37.0686 60.8013 37.3915 60.8172 37.7145 60.8511C38.0671 60.8871 38.2862 60.9252 38.5541 60.8479C39.0772 60.7261 39.5515 60.2507 39.6818 59.6016Z" fill="#3A3A3A"/>
<path id="Vector_14" d="M57.9158 40.4557V56.2957L56.084 56.4334L53.0981 59.271L41.8111 59.9063H23.5464L16.4416 61.1452H11.6769V50.4404C11.6769 50.3769 11.6769 50.3134 11.6875 50.2499C11.7722 49.3181 12.524 48.5663 13.4769 48.4922L24.9228 47.4757L28.1734 47.1899L29.6769 40.0534C29.8675 39.1428 30.6616 38.4863 31.5934 38.4863H55.9464C57.0369 38.4863 57.9158 39.3757 57.9158 40.4557Z" fill="#B53016"/>
<path id="Vector_15" d="M64.2369 42.8013V52.3148C64.2369 53.0931 63.6048 53.7167 62.8351 53.7167H59.3261C58.5479 53.7167 57.9158 53.092 57.9158 52.3148V42.8013C57.9158 42.0315 58.5479 41.3994 59.3261 41.3994H62.8351C63.2064 41.4011 63.562 41.5493 63.8245 41.8119C64.087 42.0744 64.2353 42.43 64.2369 42.8013Z" fill="#2D2D2D"/>
<path id="Vector_16" d="M57.8776 40.0644C57.7862 39.6208 57.5446 39.2224 57.1935 38.9363C56.8425 38.6503 56.4035 38.4941 55.9506 38.4941H31.5977C30.6659 38.4941 29.8633 39.1453 29.6717 40.0559L29.6706 40.0644H57.8776Z" fill="#912010"/>
<path id="Vector_17" d="M39.2265 46.4341V42.3111C39.2265 42.0877 39.1378 41.8735 38.98 41.7155C38.8222 41.5575 38.608 41.4685 38.3847 41.4683L31.496 41.4619C31.3024 41.4617 31.1147 41.528 30.9643 41.6499C30.8139 41.7718 30.71 41.9417 30.6701 42.1311L29.7998 46.2605C29.7739 46.3832 29.7758 46.5102 29.8053 46.6321C29.8347 46.754 29.891 46.8678 29.97 46.9652C30.0491 47.0626 30.1488 47.1411 30.2621 47.1951C30.3753 47.249 30.4992 47.277 30.6246 47.277H38.3836C38.8495 47.277 39.2265 46.9 39.2265 46.4341ZM53.5238 46.4341V42.3111C53.5238 42.0876 53.435 41.8732 53.2769 41.7151C53.1188 41.5571 52.9045 41.4683 52.6809 41.4683L43.3093 41.4619C43.1985 41.4618 43.0888 41.4835 42.9864 41.5258C42.8841 41.5681 42.791 41.6301 42.7126 41.7084C42.6343 41.7867 42.5721 41.8796 42.5297 41.982C42.4872 42.0843 42.4654 42.194 42.4654 42.3047V46.4341C42.4654 46.9 42.8423 47.277 43.3082 47.277H52.6809C53.1468 47.277 53.5238 46.9 53.5238 46.4341ZM57.9168 41.4619H56.2735C56.1628 41.4618 56.053 41.4835 55.9507 41.5258C55.8483 41.5681 55.7552 41.6301 55.6769 41.7084C55.5985 41.7867 55.5363 41.8796 55.4939 41.982C55.4515 42.0843 55.4296 42.194 55.4296 42.3047V46.4341C55.4296 46.9 55.8076 47.277 56.2735 47.277H57.9168V41.4619Z" fill="#D1DAFE"/>
<path id="Vector_18" d="M59.18 56.0517V57.8306C59.18 58.0942 58.9651 58.307 58.7014 58.307H56.5128C56.4501 58.3072 56.388 58.295 56.33 58.2711C56.272 58.2472 56.2193 58.2122 56.1749 58.1679C56.1304 58.1237 56.0951 58.0711 56.071 58.0132C56.0469 57.9553 56.0344 57.8933 56.0342 57.8306V56.0517C56.0342 55.7881 56.2481 55.5742 56.5128 55.5742H58.7014C58.9661 55.5742 59.18 55.7881 59.18 56.0517Z" fill="#FBAD3E"/>
<path id="Vector_19" d="M24.926 47.4805C24.926 48.2154 24.6341 48.9202 24.1144 49.4398C23.5948 49.9595 22.89 50.2514 22.1551 50.2514H11.6865C11.7315 49.7948 11.9349 49.3684 12.2613 49.046C12.5877 48.7237 13.0167 48.5257 13.4738 48.4864L24.926 47.4805Z" fill="#912010"/>
<path id="Vector_20" d="M33.5787 49.5489C33.7333 49.2207 33.8879 49.0492 34.0414 48.9316C34.1704 48.8208 34.3341 48.7586 34.5041 48.7559C34.6587 48.7559 34.8122 48.8035 34.9668 48.9295C35.1204 49.046 35.2739 49.2186 35.4295 49.5489C35.2749 49.8803 35.1204 50.0529 34.9668 50.1694C34.838 50.2803 34.6741 50.3418 34.5041 50.343C34.3339 50.3401 34.1702 50.2775 34.0414 50.1662C33.8879 50.0497 33.7333 49.8782 33.5787 49.5489ZM46.8945 49.5489C47.0491 49.2207 47.2026 49.0492 47.3572 48.9316C47.4862 48.8209 47.6499 48.7587 47.8199 48.7559C47.9734 48.7559 48.128 48.8035 48.2826 48.9295C48.4361 49.046 48.5896 49.2186 48.7453 49.5489C48.5907 49.8803 48.4361 50.0529 48.2826 50.1694C48.1538 50.2802 47.9898 50.3417 47.8199 50.343C47.6497 50.34 47.486 50.2775 47.3572 50.1662C47.2026 50.0497 47.0491 49.8782 46.8945 49.5489Z" fill="#2D2D2D"/>
<path id="Vector_21" d="M24.3235 61.9674C24.3235 65.7156 21.2836 68.7651 17.5375 68.7651C15.7357 68.7628 14.0083 68.0458 12.7345 66.7714C11.4607 65.497 10.7445 63.7693 10.7431 61.9674C10.7447 60.1658 11.4611 58.4385 12.7349 57.1645C14.0087 55.8905 15.7359 55.1738 17.5375 55.1719C21.2836 55.1719 24.3235 58.2213 24.3235 61.9674Z" fill="#3A3A3A"/>
<path id="Vector_22" d="M21.0655 61.968C21.0655 62.9049 20.6938 63.8034 20.032 64.4664C19.3701 65.1295 18.4722 65.5028 17.5354 65.5045C16.598 65.5034 15.6994 65.1304 15.0367 64.4673C14.3741 63.8043 14.0016 62.9054 14.0011 61.968C14.0019 61.0308 14.3745 60.1322 15.0371 59.4694C15.6997 58.8066 16.5982 58.4337 17.5354 58.4326C18.4721 58.434 19.37 58.8071 20.0319 59.47C20.6938 60.1329 21.0655 61.0313 21.0655 61.968Z" fill="#D1DAFE"/>
<path id="Vector_23" d="M18.2279 60.1876C18.2186 60.3476 18.1485 60.4979 18.032 60.6079C17.9154 60.7178 17.7613 60.7791 17.601 60.7791C17.4408 60.7791 17.2867 60.7178 17.1702 60.6079C17.0536 60.4979 16.9835 60.3476 16.9742 60.1876C16.9742 59.8393 17.2559 59.5576 17.5989 59.5576C17.9462 59.5576 18.2279 59.8393 18.2279 60.1876ZM18.2279 63.7559C18.2186 63.9158 18.1485 64.0661 18.032 64.1761C17.9154 64.286 17.7613 64.3473 17.601 64.3473C17.4408 64.3473 17.2867 64.286 17.1702 64.1761C17.0536 64.0661 16.9835 63.9158 16.9742 63.7559C16.9742 63.4075 17.2559 63.1259 17.5989 63.1259C17.9462 63.1259 18.2279 63.4075 18.2279 63.7559ZM15.8191 61.3417C15.981 61.3484 16.1341 61.4174 16.2463 61.5343C16.3585 61.6512 16.4212 61.807 16.4212 61.9691C16.4212 62.1311 16.3585 62.2869 16.2463 62.4039C16.1341 62.5208 15.981 62.5898 15.8191 62.5964C15.653 62.5964 15.4936 62.5308 15.3758 62.4137C15.258 62.2967 15.1912 62.1378 15.1901 61.9717C15.1901 61.6234 15.4718 61.3417 15.8191 61.3417ZM19.3873 61.3417C19.5492 61.3484 19.7023 61.4174 19.8145 61.5343C19.9267 61.6512 19.9894 61.807 19.9894 61.9691C19.9894 62.1311 19.9267 62.2869 19.8145 62.4039C19.7023 62.5208 19.5492 62.5898 19.3873 62.5964C19.2212 62.5964 19.0619 62.5308 18.944 62.4137C18.8262 62.2967 18.7595 62.1378 18.7583 61.9717C18.7583 61.6234 19.04 61.3417 19.3873 61.3417Z" fill="#2D2D2D"/>
<path id="Vector_24" d="M54.7753 61.9674C54.7753 65.7156 51.7343 68.7651 47.9882 68.7651C46.1864 68.7628 44.459 68.0458 43.1852 66.7714C41.9113 65.497 41.1952 63.7693 41.1938 61.9674C41.1954 60.1658 41.9118 58.4385 43.1856 57.1645C44.4594 55.8905 46.1866 55.1738 47.9882 55.1719C51.7343 55.1719 54.7753 58.2213 54.7753 61.9674Z" fill="#3A3A3A"/>
<path id="Vector_25" d="M51.5162 61.968C51.5162 62.9049 51.1445 63.8034 50.4827 64.4664C49.8208 65.1295 48.923 65.5028 47.9861 65.5045C47.0487 65.5034 46.1501 65.1304 45.4874 64.4673C44.8248 63.8043 44.4523 62.9054 44.4518 61.968C44.4526 61.0308 44.8252 60.1322 45.4878 59.4694C46.1504 58.8066 47.0489 58.4337 47.9861 58.4326C48.9229 58.434 49.8207 58.8071 50.4826 59.47C51.1445 60.1329 51.5162 61.0313 51.5162 61.968Z" fill="#D1DAFE"/>
<path id="Vector_26" d="M48.6786 60.1876C48.6656 60.345 48.594 60.4917 48.4779 60.5986C48.3617 60.7056 48.2096 60.765 48.0518 60.765C47.8939 60.765 47.7418 60.7056 47.6257 60.5986C47.5095 60.4917 47.4379 60.345 47.4249 60.1876C47.4249 59.8393 47.7066 59.5576 48.0496 59.5576C48.3969 59.5576 48.6786 59.8393 48.6786 60.1876ZM48.6786 63.7559C48.6693 63.9158 48.5992 64.0661 48.4827 64.1761C48.3661 64.286 48.212 64.3473 48.0518 64.3473C47.8915 64.3473 47.7374 64.286 47.6209 64.1761C47.5043 64.0661 47.4342 63.9158 47.4249 63.7559C47.4249 63.4075 47.7066 63.1259 48.0496 63.1259C48.3969 63.1259 48.6786 63.4075 48.6786 63.7559ZM46.2698 61.3417C46.4317 61.3484 46.5848 61.4174 46.697 61.5343C46.8092 61.6512 46.8719 61.807 46.8719 61.9691C46.8719 62.1311 46.8092 62.2869 46.697 62.4039C46.5848 62.5208 46.4317 62.5898 46.2698 62.5964C46.1037 62.5964 45.9444 62.5308 45.8265 62.4137C45.7087 62.2967 45.6419 62.1378 45.6408 61.9717C45.6408 61.6234 45.9225 61.3417 46.2698 61.3417ZM49.838 61.3417C49.9999 61.3484 50.153 61.4174 50.2652 61.5343C50.3774 61.6512 50.4401 61.807 50.4401 61.9691C50.4401 62.1311 50.3774 62.2869 50.2652 62.4039C50.153 62.5208 49.9999 62.5898 49.838 62.5964C49.6719 62.5964 49.5126 62.5308 49.3948 62.4137C49.2769 62.2967 49.2102 62.1378 49.2091 61.9717C49.2091 61.6234 49.4907 61.3417 49.838 61.3417Z" fill="#2D2D2D"/>
<path id="Vector_27" d="M34.6036 37.0762H37.5038V38.4728H34.6036V37.0762ZM50.0434 37.0762H52.9435V38.4728H50.0434V37.0762Z" fill="#3A3A3A"/>
<path id="Vector_28" d="M55.3238 35.5522C55.3541 35.8271 55.311 36.1051 55.1991 36.3581C55.0871 36.611 54.9102 36.8298 54.6864 36.9922C54.4485 37.1683 54.1676 37.2773 53.8732 37.3077L53.0875 37.3712C52.0531 37.4422 51.0175 37.5078 49.982 37.5481C47.912 37.6444 45.842 37.6709 43.7709 37.6825C41.7009 37.6719 39.6309 37.6465 37.5599 37.5502C36.5244 37.5089 35.4899 37.4443 34.4544 37.3733L33.6677 37.3077C33.3712 37.2749 33.0853 37.1658 32.8555 36.9901C32.6319 36.827 32.4555 36.6074 32.3445 36.3539C32.2334 36.1003 32.1916 35.8218 32.2234 35.5469C32.2869 36.0668 32.6152 36.5051 33.0334 36.7031C33.2431 36.8026 33.4675 36.8503 33.6878 36.8365L34.4544 36.7772C35.4899 36.7073 36.5244 36.6417 37.5599 36.6015C39.6299 36.5041 41.6999 36.4786 43.7709 36.4681C45.842 36.4797 47.912 36.5062 49.982 36.6025C51.0175 36.6438 52.0531 36.7084 53.0875 36.7783L53.8552 36.8397C54.0754 36.8524 54.2999 36.8048 54.5117 36.7073C54.7324 36.5975 54.9223 36.4344 55.0641 36.2327C55.2059 36.031 55.2952 35.7971 55.3238 35.5522Z" fill="#2D2D2D"/>
<path id="Vector_29" d="M14.1715 53.2273C14.171 53.6498 14.0029 54.0548 13.7042 54.3535C13.4054 54.6522 13.0005 54.8203 12.578 54.8208H11.6865V51.6338H12.578C13.4568 51.6338 14.1715 52.3474 14.1715 53.2273Z" fill="#FBAD3E"/>
<path id="Vector_30" d="M2.61765 68.3009C8.26435 67.8636 13.9121 67.6339 19.5588 67.4782C25.2055 67.3099 30.8533 67.2643 36.5 67.2432C42.1467 67.2622 47.7945 67.3067 53.4412 67.4761C59.0879 67.6307 64.7356 67.8605 70.3824 68.302C64.7356 68.7425 59.0879 68.9722 53.4412 69.1279C47.7945 69.2962 42.1467 69.3407 36.5 69.3597C30.8533 69.3386 25.2055 69.293 19.5588 69.1247C13.9121 68.969 8.26435 68.7403 2.61765 68.3009Z" fill="#4269C4"/>
</g>
</g>
</svg>
