<svg width="75" height="82" viewBox="0 0 75 82" fill="none" xmlns="http://www.w3.org/2000/svg">
<g id="Frame" clip-path="url(#clip0_683_15086)">
<g id="Group">
<g id="Group_2">
<path id="Vector" d="M69.6804 14.7833C69.6433 14.8033 59.7461 18.7565 53.9862 25.8447C53.1302 26.8341 51.4616 26.5845 51.0431 25.2766C50.7507 24.3799 48.3651 16.3208 56.313 11.5984C64.6493 6.61852 70.1772 11.9745 70.1973 12.0117C71.1295 12.8505 70.8168 14.3135 69.6804 14.7833Z" fill="#21BE49"/>
<path id="Vector_2" d="M51.907 26.3448C44.0014 22.7997 34.132 23.4304 33.0208 23.503C31.6298 23.6788 30.777 22.3657 31.1757 21.2397C31.1757 21.2397 33.7588 13.9493 43.3868 14.6472C53.2033 15.3392 54.2847 24.5338 54.2676 24.591C54.4575 25.8306 53.1132 26.8919 51.907 26.3448Z" fill="#21BE49"/>
<path id="Vector_3" d="M50.1273 31.5716C49.8736 29.5036 52.727 29.0177 53.3659 30.7339C53.5886 30.6136 53.8284 30.4362 54.0711 30.3531C54.1091 28.5591 56.8853 28.0189 57.3817 30.0038C60.047 40.3566 67.2702 54.6238 74.4388 65.9486C75.6292 67.7985 72.8173 69.6042 71.6098 67.8115L63.7506 67.5487C63.2205 68.6977 61.344 69.0397 60.6568 67.5892C55.0582 55.1771 51.4846 42.3429 50.1273 31.5716Z" fill="#AD5817"/>
<path id="Vector_4" d="M56.6501 27.1392C57.7221 25.2183 60.6406 26.8063 59.5886 28.7643C57.3391 32.8548 52.1757 34.3002 48.1365 31.8793C46.2326 30.7501 49.1498 31.0926 49.8388 28.995C51.026 25.3342 54.2423 24.9878 56.6501 27.1392Z" fill="#382C2C"/>
<path id="Vector_5" d="M38.1953 94.5274C37.4983 94.5682 36.9579 94.1888 36.6403 93.6892C36.3828 93.301 36.3108 92.8126 36.4103 92.3754C36.5128 92.0325 36.6924 91.7437 37.0235 91.4691C44.1982 84.9593 44.6397 78.5854 53.7572 69.6367C61.6305 61.9348 73.5118 64.6757 82.0195 67.5602C82.2281 67.5914 82.4196 67.6797 82.6311 67.8052C83.1314 68.1103 83.3718 68.5557 83.4067 69.0642C83.4616 69.6097 83.2908 70.1813 82.757 70.6132C82.6086 70.6934 82.4801 70.8107 82.3116 70.8537L38.9235 94.2781C38.6637 94.4183 38.4209 94.5015 38.1953 94.5274Z" fill="#FFBB16"/>
<path id="Vector_6" d="M28.9844 54.8255C34.5146 51.8399 40.9252 57.055 39.152 63.0932C37.3589 69.0943 29.1381 69.9375 26.1525 64.4073C24.309 60.9927 25.5697 56.669 28.9844 54.8255Z" fill="#F8A805"/>
<g id="Group_3">
<path id="Vector_7" d="M28.6255 50.6091C29.6875 52.5762 26.7183 54.1792 25.6563 52.2121L24.4139 49.9109C23.3519 47.9438 26.3211 46.3408 27.3832 48.3079L28.6255 50.6091ZM37.1305 51.0025C36.4815 53.1744 33.2609 52.1809 33.8927 50.0662L34.6442 47.5515C35.276 45.4368 38.5137 46.3731 37.9019 48.5249L37.1305 51.0025ZM42.8394 57.3154C40.8723 58.3774 39.2693 55.4081 41.2364 54.3461L43.5376 53.1038C45.4676 52.0618 47.0706 55.031 45.1406 56.073L42.8394 57.3154ZM42.3888 65.8032C40.2742 65.1714 41.2305 61.9708 43.3823 62.5826L45.8971 63.334C48.0117 63.9659 47.0383 67.2237 44.9036 66.5547L42.3888 65.8032ZM36.076 71.5122C35.034 69.5822 38.0033 67.9792 39.0452 69.9092L40.3076 72.2475C41.3496 74.1775 38.3804 75.7805 37.3384 73.8505L36.076 71.5122ZM27.6082 71.0987C28.24 68.9841 31.4778 69.9204 30.8459 72.0351L30.0945 74.5498C29.4455 76.7216 26.2249 75.7282 26.8567 73.6135L27.6082 71.0987ZM21.8992 64.7859C23.8663 63.7239 25.4693 66.6931 23.5022 67.7552L21.201 68.9975C19.2339 70.0595 17.6309 67.0903 19.598 66.0283L21.8992 64.7859ZM22.3498 56.298C24.4645 56.9299 23.491 60.1877 21.3563 59.5187L18.8616 58.8044C16.7269 58.1354 17.6832 54.9348 19.835 55.5466L22.3498 56.298Z" fill="#F5C525"/>
</g>
<path id="Vector_8" d="M66.7298 38.6181C66.6727 38.6011 60.327 30.0435 51.9812 26.3046C50.7751 25.7575 50.6105 24.1207 51.7752 23.3481C52.3289 22.9533 59.6 18.3088 66.3548 24.8719C73.267 31.6376 69.5349 38.3979 69.5349 38.3979C68.9477 39.5299 67.4394 39.5772 66.7298 38.6181Z" fill="#2BCE59"/>
<path id="Vector_9" d="M53.8919 25.848C48.1319 32.9362 46.2923 43.4681 46.2552 43.4882C46.0851 44.6825 44.6688 45.2554 43.6653 44.5509C43.6653 44.5509 37.2814 40.1842 40.4481 31.0449C43.441 22.3828 51.6319 22.9937 52.6919 23.0925C54.0547 23.2196 54.782 24.7443 53.8919 25.848Z" fill="#2BCE59"/>
</g>
</g>
</g>
<defs>
<clipPath id="clip0_683_15086">
<rect width="72" height="72" fill="white" transform="translate(0.5 34.2051) rotate(-28.3637)"/>
</clipPath>
</defs>
</svg>
