<svg width="20" height="20" viewBox="0 0 20 20" fill="none" xmlns="http://www.w3.org/2000/svg">
<path d="M15 1.66675V3.33341M5 1.66675V3.33341" stroke="#777980" stroke-width="1.5" stroke-linecap="round" stroke-linejoin="round"/>
<path d="M9.99659 10.8335H10.0041M9.99659 14.1668H10.0041M13.3262 10.8335H13.3337M6.66699 10.8335H6.67447M6.66699 14.1668H6.67447" stroke="#777980" stroke-width="2" stroke-linecap="round" stroke-linejoin="round"/>
<path d="M2.91699 6.66675H17.0837" stroke="#777980" stroke-width="1.5" stroke-linecap="round" stroke-linejoin="round"/>
<path d="M2.0835 10.2027C2.0835 6.57161 2.0835 4.75607 3.12693 3.62803C4.17036 2.5 5.84974 2.5 9.2085 2.5H10.7918C14.1506 2.5 15.83 2.5 16.8734 3.62803C17.9168 4.75607 17.9168 6.57161 17.9168 10.2027V10.6306C17.9168 14.2617 17.9168 16.0773 16.8734 17.2053C15.83 18.3333 14.1506 18.3333 10.7918 18.3333H9.2085C5.84974 18.3333 4.17036 18.3333 3.12693 17.2053C2.0835 16.0773 2.0835 14.2617 2.0835 10.6306V10.2027Z" stroke="#777980" stroke-width="1.5" stroke-linecap="round" stroke-linejoin="round"/>
<path d="M2.5 6.66675H17.5" stroke="#777980" stroke-width="1.5" stroke-linecap="round" stroke-linejoin="round"/>
</svg>
