<svg width="20" height="20" viewBox="0 0 20 20" fill="none" xmlns="http://www.w3.org/2000/svg">
<g id="mic-02-solid-standard 1">
<path id="Vector" fill-rule="evenodd" clip-rule="evenodd" d="M5.20831 5.83317C5.20831 3.1868 7.35361 1.0415 9.99998 1.0415C12.6463 1.0415 14.7916 3.1868 14.7916 5.83317V9.1665C14.7916 11.8128 12.6463 13.9582 9.99998 13.9582C7.35361 13.9582 5.20831 11.8128 5.20831 9.1665V5.83317Z" fill="#4A4C56"/>
<path id="Vector_2" fill-rule="evenodd" clip-rule="evenodd" d="M3.33333 8.3335C3.79357 8.3335 4.16667 8.70658 4.16667 9.16683C4.16667 12.3885 6.77834 15.0002 10 15.0002C13.2217 15.0002 15.8333 12.3885 15.8333 9.16683C15.8333 8.70658 16.2064 8.3335 16.6667 8.3335C17.1269 8.3335 17.5 8.70658 17.5 9.16683C17.5 13.0273 14.5833 16.2065 10.8333 16.6211V17.5002H12.0833C12.5436 17.5002 12.9167 17.8732 12.9167 18.3335C12.9167 18.7937 12.5436 19.1668 12.0833 19.1668H7.91667C7.45643 19.1668 7.08333 18.7937 7.08333 18.3335C7.08333 17.8732 7.45643 17.5002 7.91667 17.5002H9.16667V16.6211C5.41671 16.2065 2.5 13.0273 2.5 9.16683C2.5 8.70658 2.8731 8.3335 3.33333 8.3335Z" fill="#4A4C56"/>
</g>
</svg>
