<svg width="18" height="18" viewBox="0 0 18 18" fill="none" xmlns="http://www.w3.org/2000/svg">
<g id="arrow-move-down-right-solid-rounded 1">
<path id="Vector" d="M3 1.5C2.58579 1.5 2.25 1.83579 2.25 2.25V3.90321C2.24994 5.31334 2.24991 6.12281 2.37005 6.81487C3.03207 10.6283 6.29091 13.5547 10.3607 14.1428C10.7418 14.1979 11.3172 14.2247 12 14.2377C12.0003 14.6228 12.0035 14.9776 12.0329 15.254C12.0596 15.5026 12.1412 16.1253 12.6568 16.3967C13.1686 16.6663 13.6273 16.339 13.8106 16.1985C14.0337 16.0275 14.2981 15.7649 14.5805 15.4843L14.6149 15.4502C14.862 15.2048 15.1182 14.9291 15.3181 14.6505C15.4184 14.5106 15.5187 14.3505 15.5968 14.1759C15.6723 14.0067 15.75 13.7729 15.75 13.5C15.75 13.2271 15.6723 12.9933 15.5968 12.8241C15.5187 12.6495 15.4184 12.4894 15.3181 12.3496C15.1182 12.0709 14.862 11.7952 14.6149 11.5498L14.5805 11.5157C14.2981 11.2351 14.0337 10.9725 13.8106 10.8015C13.6273 10.661 13.1686 10.3337 12.6568 10.6033C12.1412 10.8747 12.0596 11.4973 12.0329 11.746C12.0041 12.0165 12.0005 12.3619 12.0001 12.7374C11.3758 12.7256 10.8827 12.7027 10.5753 12.6583C7.06893 12.1516 4.38587 9.65693 3.84795 6.55831C3.75279 6.01015 3.75 5.33971 3.75 3.80769V2.25C3.75 1.83579 3.41421 1.5 3 1.5Z" fill="#1D1F2C"/>
</g>
</svg>
