<svg width="17" height="19" viewBox="0 0 17 19" fill="none" xmlns="http://www.w3.org/2000/svg">
<path d="M16.1651 14.811C15.8882 15.4565 15.5461 16.072 15.1441 16.648C14.6071 17.415 14.1661 17.945 13.8281 18.24C13.3031 18.722 12.7391 18.97 12.1361 18.984C11.7041 18.984 11.1821 18.861 10.5741 18.611C9.96414 18.362 9.40414 18.24 8.89114 18.24C8.35414 18.24 7.77814 18.362 7.16114 18.611C6.54514 18.861 6.04714 18.992 5.66614 19.004C5.08914 19.029 4.51214 18.775 3.93714 18.24C3.57014 17.92 3.11114 17.37 2.56014 16.592C1.97014 15.763 1.48514 14.798 1.10514 13.701C0.698141 12.514 0.494141 11.366 0.494141 10.254C0.494141 8.98102 0.769141 7.88202 1.32014 6.96202C1.73689 6.23949 2.33269 5.63646 3.05014 5.21102C3.75761 4.78669 4.56523 4.55821 5.39014 4.54902C5.85014 4.54902 6.45314 4.69102 7.20014 4.97102C7.94714 5.25102 8.42714 5.39302 8.63614 5.39302C8.79414 5.39302 9.32514 5.22602 10.2291 4.89502C11.0821 4.58802 11.8021 4.46102 12.3921 4.51102C13.9921 4.64002 15.1931 5.27002 15.9921 6.40602C14.5621 7.27302 13.8551 8.48602 13.8691 10.043C13.8811 11.256 14.3221 12.265 15.1861 13.066C15.5681 13.4316 16.0138 13.7241 16.5011 13.929C16.3951 14.236 16.2831 14.529 16.1651 14.811ZM12.4981 0.380024C12.4981 1.33002 12.1501 2.21802 11.4591 3.03902C10.6231 4.01502 9.61314 4.58002 8.51814 4.49102C8.50382 4.37156 8.49681 4.25134 8.49714 4.13102C8.49714 3.21802 8.89314 2.24202 9.60014 1.44302C9.95214 1.03902 10.4001 0.702024 10.9431 0.434023C11.4851 0.170024 11.9971 0.0240234 12.4791 -0.000976562C12.4921 0.127023 12.4981 0.254024 12.4981 0.380024Z" fill="#101520"/>
</svg>
