<svg width="20" height="20" viewBox="0 0 20 20" fill="none" xmlns="http://www.w3.org/2000/svg">
<g id="link-06-solid-rounded 1">
<path id="Vector" fill-rule="evenodd" clip-rule="evenodd" d="M8.75365 5.83925C9.19915 5.84119 9.5994 5.84917 9.94315 5.89667C10.3003 5.94603 10.6492 6.04405 10.9722 6.25982C11.2452 6.44214 11.4796 6.67642 11.662 6.94928C11.9091 7.31906 12.0021 7.72329 12.0439 8.13415C12.0834 8.52159 12.0833 8.99625 12.0833 9.54667V10.4201C12.0833 10.8802 11.7102 11.2531 11.25 11.2531C10.7897 11.2531 10.4166 10.8802 10.4166 10.4201V9.58709C10.4166 8.98484 10.4156 8.59584 10.3858 8.30275C10.3431 7.88225 10.1317 7.60455 9.71498 7.54696C9.49565 7.51665 9.19982 7.50718 8.74632 7.5052C8.6184 7.50465 8.48173 7.50465 8.33332 7.50465C7.73078 7.50465 7.34161 7.50565 7.04842 7.53546C6.56607 7.58451 6.32778 7.84127 6.28082 8.30275C6.25099 8.59584 6.24998 8.98484 6.24998 9.58709V14.5851C6.24998 15.1873 6.25099 15.5763 6.28082 15.8694C6.30918 16.1482 6.38018 16.3668 6.62034 16.5272C6.67078 16.5608 6.76917 16.6083 7.04842 16.6367C7.34161 16.6665 7.73078 16.6675 8.33332 16.6675C8.93582 16.6675 9.32507 16.6665 9.61823 16.6367C9.89748 16.6083 9.99582 16.5608 10.0463 16.5272C10.2091 16.4184 10.3151 16.2725 10.3546 16.082C10.4481 15.6315 10.8891 15.342 11.3397 15.4353C11.7904 15.5288 12.0801 15.9696 11.9866 16.4201C11.9286 16.7 11.8311 16.9699 11.662 17.2229C11.4796 17.4958 11.2452 17.73 10.9722 17.9123C10.6023 18.1594 10.1979 18.2523 9.7869 18.2941C9.39923 18.3335 8.9244 18.3335 8.37382 18.3335H8.29284C7.74222 18.3335 7.26739 18.3335 6.87975 18.2941C6.46872 18.2523 6.06432 18.1594 5.69439 17.9123C5.42142 17.73 5.18704 17.4958 5.00464 17.2229C4.75747 16.8531 4.66452 16.4488 4.62271 16.038C4.58327 15.6505 4.58329 15.1759 4.58332 14.6255V9.58709C4.58332 9.0195 4.58231 8.53109 4.62271 8.13415C4.66452 7.72329 4.75747 7.31906 5.00464 6.94928C5.18704 6.67642 5.42142 6.44214 5.69439 6.25982C6.06432 6.01274 6.46872 5.91984 6.87975 5.87804C7.50048 5.81492 8.13024 5.83652 8.75365 5.83925Z" fill="#4A4C56"/>
<path id="Vector_2" fill-rule="evenodd" clip-rule="evenodd" d="M11.2464 14.1608C10.8009 14.1588 10.4006 14.1508 10.0569 14.1033C9.69969 14.054 9.35077 13.9559 9.02777 13.7402C8.75477 13.5579 8.52044 13.3237 8.33802 13.0508C8.09083 12.6811 7.99789 12.2768 7.95607 11.866C7.91664 11.4786 7.91666 11.004 7.91669 10.4537V9.58026C7.91669 9.12026 8.28978 8.74735 8.75002 8.74735C9.21027 8.74735 9.58335 9.12026 9.58335 9.58026V10.4132C9.58335 11.0154 9.58435 11.4044 9.61419 11.6974C9.65694 12.1179 9.86827 12.3956 10.285 12.4532C10.5044 12.4835 10.8002 12.4929 11.2537 12.4949C11.3816 12.4955 11.5183 12.4955 11.6667 12.4955C12.2692 12.4955 12.6584 12.4945 12.9516 12.4647C13.2309 12.4363 13.3292 12.3888 13.3797 12.3551C13.6199 12.1948 13.6909 11.9762 13.7192 11.6974C13.749 11.4044 13.75 11.0154 13.75 10.4132V5.41567C13.75 4.81343 13.749 4.42445 13.7192 4.13141C13.6701 3.64929 13.4133 3.41112 12.9516 3.36418C12.6584 3.33437 12.2692 3.33337 11.6667 3.33337C11.0642 3.33337 10.6749 3.33437 10.3818 3.36418C10.0322 3.39973 9.72427 3.53807 9.64535 3.91885C9.55194 4.36928 9.11094 4.65876 8.66027 4.56542C8.20959 4.47207 7.91996 4.03126 8.01336 3.58081C8.07139 3.3009 8.1689 3.03102 8.33802 2.77806C8.52044 2.50521 8.75477 2.27095 9.02777 2.08865C9.39769 1.84159 9.8021 1.74869 10.2131 1.7069C10.6008 1.66748 11.0756 1.66751 11.6262 1.66752C12.1236 1.66752 12.6248 1.65651 13.1203 1.7069C13.5313 1.74869 13.9357 1.84159 14.3056 2.08865C14.5786 2.27095 14.8129 2.50521 14.9954 2.77806C15.2425 3.14781 15.3355 3.55199 15.3773 3.96282C15.4168 4.35027 15.4167 4.82487 15.4167 5.37522V10.4132C15.4167 10.4267 15.4167 10.4402 15.4167 10.4537C15.4167 11.004 15.4168 11.4786 15.3773 11.866C15.3355 12.2768 15.2425 12.6811 14.9954 13.0508C14.8129 13.3237 14.5786 13.5579 14.3056 13.7402C13.9357 13.9873 13.5313 14.0802 13.1203 14.1219C12.4995 14.1851 11.8698 14.1635 11.2464 14.1608Z" fill="#4A4C56"/>
</g>
</svg>
