<svg width="48" height="48" viewBox="0 0 48 48" fill="none" xmlns="http://www.w3.org/2000/svg">
<rect x="0.5" y="0.5" width="47" height="47" rx="5.5" stroke="#F6F8FA"/>
<rect x="6.5" y="6.5" width="35" height="35" rx="6" fill="url(#paint0_radial_170_13604)"/>
<rect x="6.5" y="6.5" width="35" height="35" rx="6" fill="url(#paint1_radial_170_13604)"/>
<rect x="6.5" y="6.5" width="35" height="35" rx="6" fill="url(#paint2_radial_170_13604)"/>
<path d="M32.75 17.125C32.75 18.1605 31.9105 19 30.875 19C29.8395 19 29 18.1605 29 17.125C29 16.0895 29.8395 15.25 30.875 15.25C31.9105 15.25 32.75 16.0895 32.75 17.125Z" fill="white"/>
<path fill-rule="evenodd" clip-rule="evenodd" d="M24 30.25C27.4518 30.25 30.25 27.4518 30.25 24C30.25 20.5482 27.4518 17.75 24 17.75C20.5482 17.75 17.75 20.5482 17.75 24C17.75 27.4518 20.5482 30.25 24 30.25ZM24 27.75C26.0711 27.75 27.75 26.0711 27.75 24C27.75 21.9289 26.0711 20.25 24 20.25C21.9289 20.25 20.25 21.9289 20.25 24C20.25 26.0711 21.9289 27.75 24 27.75Z" fill="white"/>
<path fill-rule="evenodd" clip-rule="evenodd" d="M11.5 23.5C11.5 19.2996 11.5 17.1994 12.3175 15.5951C13.0365 14.1839 14.1839 13.0365 15.5951 12.3175C17.1994 11.5 19.2996 11.5 23.5 11.5H24.5C28.7004 11.5 30.8006 11.5 32.4049 12.3175C33.8161 13.0365 34.9635 14.1839 35.6825 15.5951C36.5 17.1994 36.5 19.2996 36.5 23.5V24.5C36.5 28.7004 36.5 30.8006 35.6825 32.4049C34.9635 33.8161 33.8161 34.9635 32.4049 35.6825C30.8006 36.5 28.7004 36.5 24.5 36.5H23.5C19.2996 36.5 17.1994 36.5 15.5951 35.6825C14.1839 34.9635 13.0365 33.8161 12.3175 32.4049C11.5 30.8006 11.5 28.7004 11.5 24.5V23.5ZM23.5 14H24.5C26.6414 14 28.0972 14.0019 29.2224 14.0939C30.3184 14.1834 30.879 14.3457 31.27 14.545C32.2108 15.0243 32.9757 15.7892 33.455 16.73C33.6543 17.121 33.8166 17.6816 33.9061 18.7776C33.9981 19.9028 34 21.3586 34 23.5V24.5C34 26.6414 33.9981 28.0972 33.9061 29.2224C33.8166 30.3184 33.6543 30.879 33.455 31.27C32.9757 32.2108 32.2108 32.9757 31.27 33.455C30.879 33.6543 30.3184 33.8166 29.2224 33.9061C28.0972 33.9981 26.6414 34 24.5 34H23.5C21.3586 34 19.9028 33.9981 18.7776 33.9061C17.6816 33.8166 17.121 33.6543 16.73 33.455C15.7892 32.9757 15.0243 32.2108 14.545 31.27C14.3457 30.879 14.1834 30.3184 14.0939 29.2224C14.0019 28.0972 14 26.6414 14 24.5V23.5C14 21.3586 14.0019 19.9028 14.0939 18.7776C14.1834 17.6816 14.3457 17.121 14.545 16.73C15.0243 15.7892 15.7892 15.0243 16.73 14.545C17.121 14.3457 17.6816 14.1834 18.7776 14.0939C19.9028 14.0019 21.3586 14 23.5 14Z" fill="white"/>
<defs>
<radialGradient id="paint0_radial_170_13604" cx="0" cy="0" r="1" gradientUnits="userSpaceOnUse" gradientTransform="translate(19 32.75) rotate(-55.3758) scale(31.8995)">
<stop stop-color="#B13589"/>
<stop offset="0.79309" stop-color="#C62F94"/>
<stop offset="1" stop-color="#8A3AC8"/>
</radialGradient>
<radialGradient id="paint1_radial_170_13604" cx="0" cy="0" r="1" gradientUnits="userSpaceOnUse" gradientTransform="translate(17.75 42.75) rotate(-65.1363) scale(28.2428)">
<stop stop-color="#E0E8B7"/>
<stop offset="0.444662" stop-color="#FB8A2E"/>
<stop offset="0.71474" stop-color="#E2425C"/>
<stop offset="1" stop-color="#E2425C" stop-opacity="0"/>
</radialGradient>
<radialGradient id="paint2_radial_170_13604" cx="0" cy="0" r="1" gradientUnits="userSpaceOnUse" gradientTransform="translate(4.625 7.75) rotate(-8.1301) scale(48.6136 10.3979)">
<stop offset="0.156701" stop-color="#406ADC"/>
<stop offset="0.467799" stop-color="#6A45BE"/>
<stop offset="1" stop-color="#6A45BE" stop-opacity="0"/>
</radialGradient>
</defs>
</svg>
