<svg width="48" height="48" viewBox="0 0 48 48" fill="none" xmlns="http://www.w3.org/2000/svg">
<rect x="0.5" y="0.5" width="47" height="47" rx="5.5" stroke="#F6F8FA"/>
<rect x="6.5" y="6.5" width="35" height="35" rx="17.5" fill="#1275B1"/>
<path d="M19.7732 16.1152C19.7732 17.2834 18.7606 18.2304 17.5116 18.2304C16.2626 18.2304 15.25 17.2834 15.25 16.1152C15.25 14.947 16.2626 14 17.5116 14C18.7606 14 19.7732 14.947 19.7732 16.1152Z" fill="white"/>
<path d="M15.5593 19.7851H19.4253V31.5H15.5593V19.7851Z" fill="white"/>
<path d="M25.6495 19.7851H21.7835V31.5H25.6495C25.6495 31.5 25.6495 27.812 25.6495 25.5061C25.6495 24.122 26.1221 22.7319 28.0077 22.7319C30.1388 22.7319 30.1259 24.5432 30.116 25.9464C30.103 27.7806 30.134 29.6523 30.134 31.5H34V25.3171C33.9673 21.3692 32.9385 19.5501 29.5541 19.5501C27.5442 19.5501 26.2984 20.4626 25.6495 21.2881V19.7851Z" fill="white"/>
</svg>
