<svg width="48" height="48" viewBox="0 0 48 48" fill="none" xmlns="http://www.w3.org/2000/svg">
<rect x="0.5" y="0.5" width="47" height="47" rx="5.5" stroke="#F6F8FA"/>
<path d="M18.7359 39C14.6922 39 10.9227 37.8239 7.75 35.7945C10.4437 35.9688 15.1976 35.5514 18.1545 32.731C13.7063 32.5269 11.7003 29.1154 11.4387 27.6575C11.8166 27.8032 13.6191 27.9782 14.6367 27.57C9.51987 26.287 8.73491 21.7967 8.90935 20.4262C9.86875 21.0969 11.4968 21.3301 12.1364 21.2718C7.36849 17.8603 9.08378 12.7284 9.92689 11.6204C13.3485 16.3608 18.4765 19.0232 24.8205 19.1713C24.7009 18.6467 24.6377 18.1005 24.6377 17.5396C24.6377 13.5136 27.8918 10.25 31.9059 10.25C34.0032 10.25 35.893 11.1409 37.2196 12.566C38.6211 12.2376 40.7304 11.4688 41.7615 10.804C41.2418 12.6701 39.6237 14.2269 38.6449 14.8038C38.6369 14.7841 38.653 14.8235 38.6449 14.8038C39.5047 14.6738 41.831 14.2267 42.75 13.6032C42.2955 14.6516 40.58 16.3947 39.1721 17.3705C39.4341 28.9226 30.5956 39 18.7359 39Z" fill="#47ACDF"/>
</svg>
