<svg width="16" height="16" viewBox="0 0 16 16" fill="none" xmlns="http://www.w3.org/2000/svg">
<path d="M4.38505 10.321C3.44187 10.8826 0.96891 12.0294 2.47511 13.4644C3.21087 14.1653 4.03033 14.6666 5.06058 14.6666H10.9394C11.9697 14.6666 12.7891 14.1653 13.5249 13.4644C15.0311 12.0294 12.5581 10.8826 11.615 10.321C9.40321 9.00407 6.59679 9.00407 4.38505 10.321Z" stroke="#389EA2" stroke-width="1.5" stroke-linecap="round" stroke-linejoin="round"/>
<path d="M11 4.33331C11 5.99017 9.65685 7.33331 8 7.33331C6.34315 7.33331 5 5.99017 5 4.33331C5 2.67646 6.34315 1.33331 8 1.33331C9.65685 1.33331 11 2.67646 11 4.33331Z" stroke="#389EA2" stroke-width="1.5"/>
</svg>
