<svg width="80" height="80" viewBox="0 0 80 80" fill="none" xmlns="http://www.w3.org/2000/svg">
<g id="Frame" clip-path="url(#clip0_683_15100)">
<g id="Group">
<path id="Vector" d="M51.7948 27.1137C51.6515 27.0825 51.5033 27.0805 51.3592 27.1079C51.2151 27.1353 51.078 27.1915 50.9561 27.2731L28.2886 42.444C28.1659 42.5261 28.0612 42.6323 27.9807 42.756C27.9003 42.8798 27.8458 43.0186 27.8205 43.164C27.7953 43.3094 27.7998 43.4585 27.8338 43.6021C27.8678 43.7458 27.9307 43.881 28.0185 43.9996L37.0982 56.2651C37.2143 56.4219 37.3703 56.5447 37.55 56.6207C37.7297 56.6967 37.9265 56.7232 38.1199 56.6973L66.3024 52.9238C66.4677 52.9018 66.6257 52.842 66.7642 52.7492C66.999 52.5923 67.1637 52.3505 67.2237 52.0746C67.2837 51.7987 67.2344 51.5103 67.086 51.27L52.4914 27.6071C52.4144 27.4822 52.313 27.3742 52.1934 27.2894C52.0737 27.2046 51.9381 27.1449 51.7948 27.1137Z" fill="#EB5764"/>
<path id="Vector_2" d="M51.7948 27.1137C51.6515 27.0825 51.5033 27.0805 51.3592 27.1079C51.2151 27.1353 51.078 27.1915 50.9561 27.2731L28.2886 42.444C28.1659 42.5261 28.0612 42.6323 27.9807 42.756C27.9003 42.8798 27.8458 43.0186 27.8205 43.164C27.7953 43.3094 27.7998 43.4585 27.8338 43.6021C27.8678 43.7458 27.9307 43.881 28.0185 43.9996L29.7746 46.372C29.7746 46.372 44.1087 34.7583 48.2796 40.9274L57.3037 54.1287L66.3023 52.9239C66.4675 52.9018 66.6256 52.8421 66.7641 52.7493C66.9989 52.5924 67.1636 52.3506 67.2236 52.0747C67.2836 51.7988 67.2342 51.5103 67.0859 51.2701L52.4913 27.6071C52.4143 27.4823 52.313 27.3742 52.1933 27.2894C52.0737 27.2046 51.9381 27.1448 51.7948 27.1137Z" fill="black" fill-opacity="0.0627451"/>
<path id="Vector_3" d="M37.7947 32.1066L31.243 26.3697C29.6693 24.9919 27.5894 24.3975 25.5367 24.7391C23.527 25.0737 21.7936 26.2757 20.7806 28.0372C19.1242 30.9183 15.6907 37.9373 15.5452 38.2347C14.7529 39.856 15.427 41.8196 17.048 42.6122C18.6691 43.4046 20.6329 42.7301 21.4262 41.1082C21.4603 41.0384 24.9037 33.9976 26.4552 31.2994C26.4713 31.2716 26.7025 31.0759 26.9309 31.2941L32.5797 36.2404L37.7947 32.1066Z" fill="#E2F2F6"/>
<path id="Vector_4" d="M25.933 30.433C25.2418 29.952 24.5395 30.8135 24.525 30.8422C23.1353 33.5772 19.9452 39.7562 19.9111 39.8261C19.1473 41.3876 17.2992 42.0669 15.7159 41.4082C16.029 41.91 16.4786 42.3347 17.048 42.6131C18.6691 43.4055 20.6329 42.731 21.4262 41.1091C21.4603 41.0393 24.9037 33.9985 26.4552 31.3003C26.4676 31.2786 26.6103 31.1581 26.7804 31.2067L25.933 30.433ZM23.0991 26.3978C25.2261 26.0439 27.3814 26.6597 29.0122 28.0875L35.5948 33.8514L37.7949 32.1075L31.2432 26.3707C29.6695 24.9928 27.5896 24.3984 25.5369 24.7401C24.053 24.9871 22.7208 25.7082 21.7169 26.777C22.1636 26.604 22.6267 26.477 23.0991 26.3978Z" fill="black" fill-opacity="0.0627451"/>
<path id="Vector_5" d="M49.8416 23.158L24.9091 39.8448C23.7844 40.5975 23.4817 42.125 24.2345 43.2497L25.7476 45.5106C25.8273 45.6297 25.9297 45.7319 26.0489 45.8114C26.168 45.8909 26.3017 45.9462 26.4423 45.974C26.5828 46.0018 26.7274 46.0017 26.8679 45.9737C27.0084 45.9456 27.142 45.8902 27.2611 45.8105L54.4601 27.6067C54.7006 27.4458 54.8673 27.1959 54.9235 26.9121C54.9797 26.6283 54.9209 26.3337 54.76 26.0933L53.2468 23.8324C52.4939 22.7078 50.9664 22.4051 49.8416 23.158Z" fill="#FFCD58"/>
<path id="Vector_6" d="M49.8416 23.158L40.7757 29.2256C41.9006 28.4728 43.4279 28.7755 44.1807 29.9002L45.6938 32.1611C45.8548 32.4015 45.9136 32.6961 45.8574 32.9799C45.8011 33.2637 45.6345 33.5136 45.394 33.6745L54.4599 27.6069C54.7003 27.446 54.867 27.1961 54.9232 26.9123C54.9795 26.6285 54.9207 26.3339 54.7597 26.0935L53.2466 23.8326C52.4939 22.7078 50.9664 22.4052 49.8416 23.158ZM58.5045 29.9158C58.3702 29.8629 58.2268 29.8371 58.0825 29.8399C57.9381 29.8428 57.7958 29.8742 57.6638 29.9324L54.0554 31.5234C53.7907 31.6402 53.5833 31.8574 53.4787 32.1271C53.374 32.3968 53.3808 32.697 53.4975 32.9618L58.4725 44.2385C58.5312 44.3715 58.6158 44.4914 58.7215 44.5912L65.6428 51.1296C65.8225 51.2993 66.0545 51.403 66.3007 51.4236C66.547 51.4443 66.793 51.3807 66.9985 51.2433C67.0042 51.2395 67.0099 51.2356 67.0159 51.2313C67.2216 51.088 67.3716 50.8781 67.4407 50.6371C67.5098 50.3961 67.4937 50.1386 67.3951 49.9081L59.1072 30.5021C59.0505 30.3694 58.968 30.2493 58.8646 30.1486C58.7611 30.048 58.6387 29.9688 58.5045 29.9158Z" fill="#F2B841"/>
<path id="Vector_7" d="M58.5045 29.9159C58.3294 29.8469 58.1418 29.83 57.9585 29.8547L61.8368 40.964L54.1197 34.3726L58.4724 44.2386C58.5311 44.3716 58.6157 44.4915 58.7214 44.5913L65.2595 50.7677L65.6427 51.1297C65.8224 51.2994 66.0544 51.4031 66.3006 51.4238C66.5469 51.4444 66.793 51.3808 66.9984 51.2434C67.0041 51.2396 67.0098 51.2358 67.0158 51.2315C67.2215 51.0881 67.3715 50.8783 67.4406 50.6372C67.5097 50.3962 67.4936 50.1387 67.395 49.9082L64.5734 43.3013L59.1072 30.5022C59.0505 30.3695 58.968 30.2493 58.8646 30.1487C58.7611 30.048 58.6387 29.9689 58.5045 29.9159Z" fill="black" fill-opacity="0.0627451"/>
<path id="Vector_8" d="M69.7152 51.5657L51.8136 32.6145C51.7147 32.5099 51.5961 32.426 51.4647 32.3674C51.3332 32.3089 51.1915 32.2769 51.0476 32.2733C50.9037 32.2697 50.7606 32.2947 50.6264 32.3466C50.4922 32.3986 50.3696 32.4766 50.2657 32.5762L47.4188 35.3054C47.3151 35.4047 47.2321 35.5235 47.1745 35.6549C47.1168 35.7863 47.0857 35.9278 47.0828 36.0713C47.08 36.2148 47.1055 36.3574 47.1579 36.491C47.2102 36.6246 47.2885 36.7466 47.3881 36.8499L64.5465 54.6617C64.6984 54.8193 64.8941 54.9276 65.1083 54.9725C65.3225 55.0174 65.5452 54.9969 65.7476 54.9136L69.4134 53.4036C69.4804 53.376 69.5445 53.3418 69.6047 53.3015L69.6099 53.298C69.8501 53.137 70.0166 52.8872 70.0726 52.6035C70.1287 52.3198 70.0698 52.0255 69.9089 51.7852C69.8546 51.7036 69.7894 51.6297 69.7152 51.5657ZM59.7487 25.209L56.4711 27.4026C56.2307 27.5635 56.064 27.8134 56.0078 28.0972C55.9515 28.381 56.0104 28.6756 56.1713 28.916L70.992 51.0603C71.0961 51.2158 71.2385 51.342 71.4055 51.4266C71.5725 51.5112 71.7584 51.5515 71.9454 51.5435C72.1324 51.5355 72.3142 51.4794 72.4733 51.3808C72.6324 51.2822 72.7634 51.1443 72.8538 50.9804L74.9977 47.093C75.0943 46.9177 75.1408 46.7193 75.1322 46.5193C75.1236 46.3194 75.0602 46.1257 74.9489 45.9594L61.2619 25.509C61.1822 25.39 61.0799 25.2877 60.9607 25.2082C60.8416 25.1287 60.7079 25.0734 60.5674 25.0456C60.4269 25.0177 60.2823 25.0178 60.1418 25.0459C60.0013 25.0739 59.8677 25.1294 59.7487 25.209Z" fill="#E08726"/>
<path id="Vector_9" d="M60.6617 49.132L47.9343 38.1272C47.7164 37.9386 47.4327 37.844 47.1452 37.8639C46.8577 37.8839 46.5898 38.0169 46.4001 38.2339L43.8019 41.2009C43.7068 41.3094 43.6342 41.4357 43.5883 41.5725C43.5425 41.7093 43.5242 41.8538 43.5345 41.9976C43.5448 42.1415 43.5835 42.2819 43.6484 42.4107C43.7133 42.5395 43.8031 42.6542 43.9127 42.748L53.9122 51.3174C54.0222 51.4116 54.1498 51.483 54.2876 51.5274C54.4253 51.5718 54.5706 51.5884 54.7148 51.5761L60.1229 51.1154C60.3067 51.0999 60.4836 51.0379 60.6368 50.9352C60.6386 50.934 60.6409 50.9327 60.6415 50.932C60.7606 50.8524 60.8628 50.75 60.9423 50.6308C61.0218 50.5116 61.0771 50.378 61.1049 50.2374C61.1328 50.0969 61.1326 49.9522 61.1046 49.8117C61.0765 49.6712 61.021 49.5376 60.9413 49.4186C60.8641 49.3032 60.7688 49.2073 60.6617 49.132Z" fill="#F2B841"/>
<path id="Vector_10" d="M54.138 49.3577L43.9933 44.3353C43.8648 44.2717 43.7249 44.2341 43.5817 44.2246C43.4386 44.2152 43.295 44.234 43.1591 44.2801C43.0233 44.3261 42.8978 44.3985 42.79 44.4931C42.6822 44.5877 42.594 44.7027 42.5306 44.8314L40.789 48.3699C40.6616 48.6286 40.6419 48.9273 40.7341 49.2006C40.8264 49.4738 41.0231 49.6994 41.2813 49.828L47.0662 52.71C47.2888 52.8209 47.5427 52.8523 47.7857 52.7992L53.9764 51.4453C54.1098 51.4164 54.2365 51.3625 54.3498 51.2865L54.3604 51.2794C54.5988 51.1175 54.7634 50.868 54.8185 50.5852C54.8735 50.3025 54.8145 50.0094 54.6542 49.77C54.5292 49.5822 54.3488 49.4381 54.138 49.3577Z" fill="#E08726"/>
<path id="Vector_11" d="M59.7487 25.2086L58.9208 25.7627C58.9652 25.8086 59.0091 25.8557 59.0476 25.9097L74.5686 47.6865C74.5885 47.7145 74.6049 47.7441 74.6224 47.7732L74.9978 47.0925C75.0944 46.9172 75.1409 46.7188 75.1323 46.5189C75.1237 46.3189 75.0603 46.1252 74.949 45.9589L61.262 25.5085C61.1823 25.3895 61.08 25.2873 60.9608 25.2077C60.8416 25.1282 60.708 25.073 60.5674 25.0451C60.4269 25.0173 60.2823 25.0174 60.1418 25.0454C60.0013 25.0735 59.8677 25.1289 59.7487 25.2086Z" fill="black" fill-opacity="0.0627451"/>
<path id="Vector_12" d="M67.9833 24.51L64.3747 26.1012C64.1103 26.2179 63.9029 26.4347 63.7982 26.7041C63.6934 26.9735 63.6999 27.2734 63.816 27.5381L73.2681 49.061C73.3652 49.2819 73.5327 49.4643 73.7445 49.5798C73.9563 49.6954 74.2005 49.7374 74.4387 49.6994C74.677 49.6614 74.8959 49.5455 75.0613 49.3698C75.2266 49.1941 75.3291 48.9686 75.3526 48.7285L76.1445 40.6326C76.1628 40.4457 76.1325 40.2572 76.0566 40.0855L69.4212 25.0673C69.3043 24.8028 69.0872 24.5954 68.8176 24.4909C68.548 24.3864 68.2479 24.3932 67.9833 24.51Z" fill="#F2B841"/>
<path id="Vector_13" d="M74.7542 24.0739L70.9243 25.014C70.7821 25.049 70.6485 25.1122 70.5312 25.1998C70.414 25.2875 70.3156 25.3978 70.2419 25.5243C70.1682 25.6508 70.1207 25.7908 70.1022 25.936C70.0837 26.0812 70.0946 26.2286 70.1343 26.3695L73.4717 38.205C73.5184 38.3708 73.6037 38.5231 73.7207 38.6496C73.8376 38.7761 73.9828 38.873 74.1444 38.9326C74.306 38.9921 74.4794 39.0126 74.6505 38.9923C74.8215 38.9719 74.9853 38.9114 75.1284 38.8156L78.6698 36.4454C78.8627 36.3163 79.0094 36.129 79.0885 35.9108C79.1677 35.6926 79.1752 35.4548 79.1099 35.232L76.061 24.8266C75.9821 24.5569 75.8021 24.3282 75.5586 24.1879C75.3152 24.0477 75.027 24.0069 74.7542 24.0739Z" fill="#E08726"/>
<path id="Vector_14" d="M74.8236 24.0641L77.4035 37.2932L78.67 36.4456C78.8629 36.3165 79.0096 36.1292 79.0887 35.911C79.1679 35.6928 79.1754 35.455 79.1101 35.2322L76.0612 24.8267C75.9038 24.2894 75.3672 23.9671 74.8236 24.0641ZM67.9833 24.51L67.8512 24.5683L75.6497 45.6929L76.1446 40.6326C76.1628 40.4457 76.1325 40.2573 76.0566 40.0855L69.4212 25.0673C69.3044 24.8028 69.0873 24.5955 68.8176 24.4909C68.548 24.3864 68.2479 24.3933 67.9833 24.51ZM69.7153 51.5658L51.8136 32.6146C51.7147 32.51 51.5962 32.426 51.4647 32.3674C51.3333 32.3088 51.1915 32.2768 51.0477 32.2732C50.8524 32.2684 50.6631 32.3203 50.4951 32.4131L68.8761 53.625L69.4134 53.4036C69.4803 53.3759 69.5444 53.3417 69.6046 53.3015L69.6099 53.298C69.8501 53.1369 70.0165 52.8871 70.0725 52.6034C70.1286 52.3197 70.0697 52.0254 69.9088 51.7851C69.8545 51.7036 69.7894 51.6298 69.7153 51.5658ZM60.6617 49.1321L47.9343 38.1273C47.6312 37.8653 47.2264 37.8036 46.8719 37.9236C46.8919 37.9419 46.9136 37.9564 46.9328 37.9762L59.6164 51.1585L60.1228 51.1154C60.3066 51.0999 60.4835 51.0379 60.6367 50.9352C60.6385 50.934 60.6409 50.9328 60.6414 50.9321C60.7605 50.8524 60.8627 50.75 60.9422 50.6308C61.0217 50.5117 61.077 50.378 61.1048 50.2374C61.1327 50.0969 61.1326 49.9522 61.1045 49.8117C61.0764 49.6713 61.021 49.5377 60.9413 49.4186C60.8641 49.3034 60.7688 49.2074 60.6617 49.1321ZM54.138 49.3582L44.2062 44.4412L53.4266 51.5659L53.9764 51.4457C54.1097 51.4168 54.2364 51.3629 54.3498 51.2869L54.3604 51.2798C54.5987 51.1179 54.7634 50.8684 54.8184 50.5856C54.8734 50.3028 54.8144 50.0098 54.6542 49.7704C54.5292 49.5827 54.3487 49.4386 54.138 49.3582Z" fill="black" fill-opacity="0.0627451"/>
<path id="Vector_15" d="M79.7951 30.6382C79.6443 30.597 79.4864 30.5887 79.3322 30.6138C79.1779 30.639 79.0309 30.697 78.901 30.7839L72.5486 35.0354C72.3396 35.1754 72.1853 35.3833 72.1119 35.6239C72.0386 35.8646 72.0506 36.1232 72.1461 36.356C74.1618 41.2697 72.4157 46.9841 67.9943 49.9432C67.3066 50.4039 66.5703 50.7877 65.7988 51.0878C65.5699 51.177 65.3778 51.3408 65.2534 51.5527C65.129 51.7645 65.0796 52.0121 65.1132 52.2555L68.9431 79.7125C68.9687 79.8955 69.0403 80.069 69.1513 80.2167C69.2623 80.3644 69.409 80.4816 69.5776 80.5571C69.7462 80.6327 69.9313 80.6642 70.1154 80.6486C70.2995 80.6331 70.4767 80.5711 70.6303 80.4683L95.2087 64.0185C95.4269 63.8724 95.5851 63.6526 95.6543 63.3993C95.7234 63.146 95.699 62.8763 95.5854 62.6396L80.4913 31.2183C80.4236 31.0773 80.3264 30.9526 80.2063 30.8525C80.0861 30.7524 79.9459 30.6793 79.7951 30.6382Z" fill="#EB5764"/>
<path id="Vector_16" d="M78.5354 52.3989L66.6808 60.333L73.3781 70.3398L85.2328 62.4056C86.8623 61.3151 87.3007 59.1022 86.2103 57.473L83.4683 53.376C82.3776 51.7467 80.165 51.3083 78.5354 52.3989Z" fill="#8C9B9A"/>
<path id="Vector_17" d="M77.1012 62.4342C76.8731 62.4564 76.646 62.4876 76.4204 62.5278C76.5629 61.7882 76.4518 61.0558 76.0408 60.4416C75.784 60.0581 75.4397 59.7653 75.0382 59.5616C75.8 58.7204 76.003 57.6271 75.4664 56.8253L74.1769 54.8987C69.7894 48.3431 57.8614 45.9649 47.4041 50.0811L68.6351 81.8033L95.2086 64.0181C95.4268 63.8721 95.585 63.6522 95.6542 63.3989C95.7234 63.1457 95.6989 62.8759 95.5853 62.6392L86.6235 43.9835C86.2102 50.8847 82.8959 57.6579 77.1012 62.4342Z" fill="black" fill-opacity="0.0627451"/>
<path id="Vector_18" opacity="0.5" d="M69.8147 52.6631C69.5743 52.8241 69.4076 53.0739 69.3514 53.3577C69.2951 53.6416 69.354 53.9361 69.5149 54.1766C69.6758 54.417 69.9257 54.5837 70.2095 54.6399C70.4933 54.6962 70.7879 54.6373 71.0283 54.4764C76.6629 50.7053 79.4887 43.715 78.0599 37.082C78.0298 36.9419 77.9723 36.8092 77.8909 36.6914C77.8094 36.5735 77.7056 36.4729 77.5852 36.3952C77.4649 36.3175 77.3304 36.2643 77.1895 36.2386C77.0485 36.2129 76.9039 36.2152 76.7639 36.2454C76.1757 36.3715 75.8004 36.9523 75.9273 37.5414C77.1691 43.3078 74.7129 49.3849 69.8147 52.6631Z" fill="white"/>
<path id="Vector_19" d="M71.9244 63.1173L36.2276 87.0084C35.9871 87.1694 35.8204 87.4192 35.7642 87.7031C35.708 87.9869 35.7668 88.2814 35.9277 88.5219L39.6467 94.0785C41.1699 96.3545 45.5642 97.2441 48.9468 94.9803L74.4445 77.9152C77.8269 75.6514 78.68 71.2497 77.1568 68.9738L73.4378 63.4171C73.2769 63.1767 73.027 63.0101 72.7432 62.9538C72.4594 62.8976 72.1649 62.9564 71.9244 63.1173Z" fill="#9B5E26"/>
<path id="Vector_20" d="M65.5796 59.1539L34.9823 79.632C33.0442 80.9291 32.3442 83.168 33.389 84.7291C34.4338 86.2902 36.7704 86.4969 38.7087 85.1997L69.3059 64.7216C71.2442 63.4244 71.9439 61.1854 70.8991 59.6243C69.8543 58.0632 67.5178 57.8567 65.5796 59.1539Z" fill="#FFCD58"/>
<path id="Vector_21" opacity="0.1" d="M77.4897 69.5937C77.4479 69.497 77.4023 69.4018 77.3532 69.3086C77.3399 69.2835 77.3272 69.2579 77.3134 69.2332C77.2639 69.1444 77.2124 69.0576 77.1567 68.9743L73.4377 63.4176C73.405 63.3688 73.3676 63.3255 73.328 63.2848C73.2971 63.2521 73.2643 63.2214 73.2297 63.1927C72.8674 62.8886 72.3372 62.8416 71.9245 63.1178L60.5354 70.7403L60.6216 70.8691L40.7186 84.1897C38.6756 85.5571 37.2109 87.6388 36.771 89.7823L39.6466 94.0789C39.9216 94.4897 40.2911 94.8544 40.7303 95.1646C40.9811 95.0822 41.2282 94.9639 41.4661 94.8046L41.491 94.788C43.0201 93.7444 43.4436 92.3611 43.7839 91.2497C44.0622 90.3407 44.2371 89.8286 44.7514 89.516C45.3239 89.1687 46.0281 89.189 46.9196 89.2147C48.0825 89.2481 49.5298 89.29 50.941 88.3455C52.4173 87.3575 52.8492 85.9983 53.1961 84.9063C53.4765 84.0235 53.658 83.5084 54.135 83.1823C54.4892 82.9452 55.0875 82.9797 55.845 83.0236C57.0229 83.0919 58.6361 83.1855 60.2469 82.1075C60.2936 82.0762 60.3404 82.0435 60.3745 82.0195C60.4185 81.9916 60.4671 81.962 60.5048 81.9349C62.115 80.8568 62.6437 79.33 63.0299 78.2153C63.2781 77.4982 63.4742 76.9317 63.8354 76.69L63.8355 76.69C63.9034 76.6455 63.9733 76.6097 64.0448 76.5783C64.5929 78.8388 63.8821 81.7032 61.6752 83.1802L42.5142 96.0043C44.4483 96.5673 46.885 96.3606 48.9468 94.9807L74.4445 77.9156C77.4186 75.9251 78.4363 72.2824 77.6034 69.8845C77.6002 69.8751 77.5963 69.866 77.5931 69.8567C77.5615 69.7679 77.527 69.6802 77.4897 69.5937ZM65.5796 59.1539L34.9823 79.632C33.0711 80.9111 32.3673 83.1047 33.3502 84.6625L58.334 67.9413C60.2722 66.6441 61.9287 67.3058 62.9735 68.8669C62.9881 68.8886 62.9988 68.9117 63.0126 68.9336L69.3059 64.7216C71.2442 63.4244 71.9439 61.1854 70.8991 59.6243C69.8543 58.0632 67.5178 57.8567 65.5796 59.1539Z" fill="black"/>
<path id="Vector_22" d="M39.2455 52.9039C28.201 60.2958 23.5239 72.7469 28.8195 80.6594L30.1731 82.6818C30.8737 83.7287 32.4208 83.8806 33.6951 83.0277L69.21 59.2584C70.4842 58.4056 70.9336 56.9174 70.233 55.8705L68.8794 53.8482C63.5838 45.9356 50.29 45.512 39.2455 52.9039Z" fill="#E08726"/>
<path id="Vector_23" d="M45.653 61.3747C45.8355 61.2526 45.9769 61.0782 46.0587 60.8744C46.1405 60.6705 46.1589 60.4468 46.1115 60.2323C46.064 60.0179 45.953 59.8228 45.7928 59.6725C45.6326 59.5222 45.4309 59.4237 45.2138 59.39L43.5657 59.1339C43.2801 59.0902 42.9889 59.1616 42.7559 59.3324C42.5228 59.5032 42.3671 59.7594 42.3227 60.0449C42.2784 60.3304 42.3491 60.6218 42.5193 60.8552C42.6896 61.0886 42.9454 61.245 43.2308 61.29L44.8789 61.5461C45.1493 61.5883 45.4257 61.5272 45.653 61.3747ZM36.9403 64.588L36.5487 66.2093C36.4859 66.4886 36.5355 66.7814 36.6868 67.0246C36.838 67.2677 37.0787 67.4416 37.357 67.5089C37.6353 67.5761 37.9289 67.5313 38.1744 67.384C38.42 67.2368 38.5978 66.9989 38.6696 66.7217L39.0612 65.1004C39.1239 64.8211 39.0743 64.5283 38.9231 64.2851C38.7719 64.042 38.5312 63.8681 38.2529 63.8008C37.9746 63.7336 37.681 63.7784 37.4354 63.9257C37.1899 64.073 37.0121 64.3108 36.9403 64.588ZM44.1426 64.1802L42.7001 65.1457C42.4597 65.3066 42.293 65.5565 42.2368 65.8403C42.1805 66.1241 42.2394 66.4187 42.4003 66.6591C42.5612 66.8996 42.8111 67.0663 43.0949 67.1225C43.3787 67.1787 43.6733 67.1199 43.9137 66.959L45.3562 65.9935C45.5967 65.8326 45.7634 65.5827 45.8196 65.2989C45.8758 65.0151 45.817 64.7206 45.6561 64.4801C45.4951 64.2396 45.2453 64.073 44.9614 64.0167C44.6776 63.9605 44.3831 64.0193 44.1426 64.1802ZM51.7813 62.0259L52.1731 60.4049C52.2068 60.2656 52.2127 60.1211 52.1905 59.9796C52.1683 59.8381 52.1184 59.7023 52.0437 59.5801C51.9691 59.4578 51.8711 59.3515 51.7553 59.2671C51.6395 59.1828 51.5083 59.122 51.369 59.0884C51.2298 59.0547 51.0853 59.0488 50.9437 59.071C50.8022 59.0932 50.6664 59.143 50.5442 59.2177C50.4219 59.2924 50.3155 59.3904 50.2312 59.5062C50.1468 59.6219 50.086 59.7532 50.0524 59.8925L49.6606 61.5135C49.6269 61.6527 49.621 61.7972 49.6432 61.9387C49.6654 62.0802 49.7153 62.216 49.79 62.3382C49.8646 62.4605 49.9626 62.5668 50.0784 62.6512C50.1942 62.7355 50.3254 62.7963 50.4647 62.8299C50.6113 62.8656 50.7639 62.8704 50.9125 62.8439C51.0611 62.8174 51.2026 62.7603 51.328 62.6762C51.5556 62.5242 51.7175 62.292 51.7813 62.0259ZM52.9492 55.8118C53.1896 55.6508 53.3563 55.401 53.4126 55.1172C53.4688 54.8333 53.41 54.5388 53.249 54.2983C53.0881 54.0579 52.8382 53.8912 52.5544 53.835C52.2706 53.7787 51.976 53.8375 51.7356 53.9985L50.2932 54.9638C50.0528 55.1248 49.8861 55.3746 49.8299 55.6584C49.7736 55.9423 49.8325 56.2368 49.9934 56.4773C50.1543 56.7177 50.4042 56.8844 50.688 56.9406C50.9718 56.9969 51.2664 56.9381 51.5068 56.7771L52.9492 55.8118ZM59.6438 56.431C59.8843 56.27 60.051 56.0202 60.1072 55.7364C60.1634 55.4525 60.1046 55.158 59.9437 54.9175C59.7827 54.6771 59.5329 54.5104 59.2491 54.4542C58.9652 54.3979 58.6707 54.4568 58.4302 54.6177L56.9878 55.5831C56.7473 55.744 56.5806 55.9939 56.5244 56.2777C56.4682 56.5616 56.527 56.8561 56.6879 57.0966C56.8488 57.337 57.0987 57.5037 57.3825 57.5599C57.6664 57.6162 57.9609 57.5573 58.2014 57.3964L59.6438 56.431ZM33.1964 71.251C33.152 71.5369 33.223 71.8286 33.3937 72.0622C33.5644 72.2957 33.8209 72.4518 34.1068 72.4963L35.7548 72.7521C36.0251 72.7944 36.3014 72.7333 36.5287 72.5808C36.6543 72.4971 36.761 72.388 36.8422 72.2607C36.9233 72.1334 36.9771 71.9906 37 71.8414C37.0444 71.5555 36.9734 71.2637 36.8027 71.0302C36.6319 70.7967 36.3754 70.6405 36.0896 70.5961L34.4416 70.3403C34.3 70.3183 34.1555 70.3244 34.0163 70.3583C33.8771 70.3922 33.746 70.4532 33.6304 70.5377C33.5147 70.6223 33.4169 70.7288 33.3424 70.8512C33.268 70.9736 33.2183 71.1094 33.1964 71.251Z" fill="#F2B841"/>
<path id="Vector_24" opacity="0.5" d="M41.0659 55.6239C33.6924 60.5589 29.146 68.4153 30.0102 74.7292C30.0296 74.8711 30.0768 75.0079 30.1491 75.1316C30.2213 75.2553 30.3172 75.3635 30.4314 75.4501C30.5455 75.5368 30.6755 75.6001 30.8141 75.6364C30.9527 75.6728 31.097 75.6815 31.239 75.6621C31.403 75.6399 31.5598 75.5806 31.6974 75.4886C31.8674 75.3749 32.0021 75.2157 32.0861 75.0292C32.17 74.8426 32.1998 74.6362 32.172 74.4335C31.4166 68.9147 35.5731 61.9256 42.2795 57.4372C42.52 57.2763 42.6866 57.0264 42.7429 56.7426C42.7991 56.4588 42.7403 56.1642 42.5793 55.9238C42.4184 55.6833 42.1685 55.5166 41.8847 55.4604C41.6009 55.4042 41.3064 55.463 41.0659 55.6239Z" fill="white"/>
<path id="Vector_25" opacity="0.1" d="M39.2455 52.9036C38.3224 53.5214 37.4448 54.1753 36.6128 54.8582C43.8096 53.3006 51.1389 55.6579 55.032 61.4748L56.3855 63.4972C57.0862 64.5441 56.8189 65.9103 55.7772 66.6075L30.8402 83.2973C31.6306 83.7415 32.7395 83.667 33.6951 83.0274L69.21 59.2581C70.4842 58.4053 70.9336 56.9171 70.233 55.8702L68.8794 53.8479C63.5838 45.9354 50.29 45.5117 39.2455 52.9036Z" fill="black"/>
<path id="Vector_26" d="M67.377 63.3935L38.2201 82.9076C36.1308 84.306 34.6436 86.451 34.2414 88.6455C33.9632 90.1649 34.2371 91.6018 35.0129 92.6918C36 94.0787 37.6263 94.4202 38.9677 93.5225L38.9926 93.5058C40.5217 92.4623 40.9452 91.079 41.2855 89.9676C41.5638 89.0586 41.7387 88.5464 42.2531 88.2339C42.8256 87.8866 43.5298 87.9069 44.4213 87.9326C45.5842 87.9661 47.0314 88.008 48.4427 87.0634C49.919 86.0754 50.3508 84.7163 50.6977 83.6243C50.9782 82.7415 51.1597 82.2264 51.6367 81.9002C51.9909 81.6632 52.5892 81.6977 53.3467 81.7416C54.5246 81.8098 56.1378 81.9035 57.7485 80.8254C57.7953 80.7942 57.8421 80.7615 57.8762 80.7375C57.9202 80.7095 57.9688 80.68 58.0065 80.6528C59.6167 79.5748 60.1454 78.048 60.5315 76.9333C60.7798 76.2162 60.9759 75.6497 61.337 75.408L61.3372 75.4079C61.8136 75.0961 62.3591 75.1245 63.2822 75.2018C64.424 75.2974 65.845 75.4165 67.3214 74.4284C68.7326 73.4838 69.2458 72.1298 69.6583 71.0421C69.9742 70.2082 70.2239 69.5495 70.7634 69.1526C71.2066 68.8233 71.7282 68.8646 72.6296 68.9717C73.7746 69.1077 75.1999 69.2774 76.7427 68.2449C76.8029 68.2046 76.8636 68.1621 76.9244 68.1179C78.2861 67.1248 78.5266 65.528 77.5376 64.0502C75.6048 61.1625 71.1416 60.874 67.377 63.3935Z" fill="#88BE4D"/>
<path id="Vector_27" opacity="0.1" d="M67.377 63.3939L61.3122 67.453C63.2518 67.5077 64.9616 68.3058 65.9751 69.8202C66.9642 71.298 66.7237 72.8948 65.3619 73.8878C65.3011 73.932 65.2404 73.9745 65.1802 74.0148C63.6375 75.0473 62.2123 74.8776 61.0671 74.7416C60.1657 74.6344 59.6441 74.5931 59.2009 74.9225C58.6615 75.3195 58.4117 75.9781 58.0958 76.812C57.6833 77.8997 57.17 79.2538 55.7589 80.1983C54.2826 81.1863 52.8615 81.0673 51.7198 80.9717C50.7966 80.8944 50.2512 80.8659 49.7747 81.1778L49.7746 81.1779C49.4133 81.4197 49.2173 81.9861 48.9691 82.7032C48.583 83.818 48.0542 85.3447 46.444 86.4227C46.4063 86.4498 46.3577 86.4794 46.3137 86.5074C46.2797 86.5315 46.2327 86.5642 46.1861 86.5954C44.5753 87.6734 42.9621 87.5798 41.7842 87.5115C41.0267 87.4676 40.4284 87.4331 40.0742 87.6702C39.5973 87.9964 39.4156 88.5115 39.1353 89.3942C38.7884 90.4862 38.3566 91.8453 36.8802 92.8334C36.4869 93.0966 36.0908 93.2813 35.6987 93.4128C36.6603 94.1646 37.9032 94.2353 38.9678 93.5228L38.9927 93.5061C40.5218 92.4626 40.9453 91.0793 41.2856 89.9679C41.5639 89.0589 41.7388 88.5467 42.2532 88.2342C42.8257 87.8869 43.5299 87.9072 44.4214 87.9329C45.5843 87.9664 47.0315 88.0083 48.4428 87.0638C49.9191 86.0757 50.3509 84.7166 50.6978 83.6246C50.9783 82.7418 51.1598 82.2267 51.6368 81.9005C51.991 81.6635 52.5893 81.698 53.3468 81.7419C54.5247 81.8101 56.1379 81.9038 57.7486 80.8257C57.7954 80.7945 57.8422 80.7618 57.8763 80.7378C57.9203 80.7098 57.9689 80.6803 58.0066 80.6531C59.6168 79.5751 60.1455 78.0483 60.5316 76.9336C60.7799 76.2165 60.976 75.65 61.3371 75.4083L61.3373 75.4082C61.8137 75.0964 62.3592 75.1248 63.2823 75.2021C64.4241 75.2977 65.8451 75.4168 67.3215 74.4287C68.7327 73.4841 69.2459 72.1301 69.6584 71.0424C69.9743 70.2085 70.224 69.5498 70.7635 69.1529C71.2067 68.8236 71.7283 68.8649 72.6297 68.972C73.7747 69.108 75.2 69.2777 76.7428 68.2452C76.803 68.2049 76.8637 68.1624 76.9245 68.1182C78.2862 67.1251 78.5267 65.5283 77.5377 64.0506C75.6048 61.1629 71.1416 60.8744 67.377 63.3939Z" fill="black"/>
</g>
</g>
<defs>
<clipPath id="clip0_683_15100">
<rect width="72" height="72" fill="white" transform="translate(0.332855 40.8789) rotate(-33.7936)"/>
</clipPath>
</defs>
</svg>
