<svg width="675" height="603" viewBox="0 0 675 603" fill="none" xmlns="http://www.w3.org/2000/svg">
<path opacity="0.2" fill-rule="evenodd" clip-rule="evenodd" d="M210 602C325.428 602 419 508.428 419 393C419 277.572 325.428 184 210 184C94.5725 184 1 277.572 1 393C1 508.428 94.5725 602 210 602Z" stroke="white" stroke-opacity="0.3"/>
<path opacity="0.1" fill-rule="evenodd" clip-rule="evenodd" d="M610.5 312C646.122 312 675 283.122 675 247.5C675 211.878 646.122 183 610.5 183C574.878 183 546 211.878 546 247.5C546 283.122 574.878 312 610.5 312Z" fill="#C4D0FB"/>
<path opacity="0.05" fill-rule="evenodd" clip-rule="evenodd" d="M217 502C283.274 502 337 448.274 337 382C337 315.726 283.274 262 217 262C150.726 262 97 315.726 97 382C97 448.274 150.726 502 217 502Z" fill="white"/>
<path fill-rule="evenodd" clip-rule="evenodd" d="M317 268C320.866 268 324 264.866 324 261C324 257.134 320.866 254 317 254C313.134 254 310 257.134 310 261C310 264.866 313.134 268 317 268Z" fill="white" fill-opacity="0.1"/>
<path opacity="0.2" fill-rule="evenodd" clip-rule="evenodd" d="M258.5 49C272.031 49 283 38.031 283 24.5C283 10.969 272.031 0 258.5 0C244.969 0 234 10.969 234 24.5C234 38.031 244.969 49 258.5 49Z" fill="white" fill-opacity="0.3"/>
<path opacity="0.2" fill-rule="evenodd" clip-rule="evenodd" d="M532 84C537.523 84 542 79.5228 542 74C542 68.4772 537.523 64 532 64C526.477 64 522 68.4772 522 74C522 79.5228 526.477 84 532 84Z" fill="#C4D0FB"/>
</svg>
