<svg width="32" height="32" viewBox="0 0 32 32" fill="none" xmlns="http://www.w3.org/2000/svg">
<g clip-path="url(#clip0_683_19712)">
<path d="M16 0C7.1776 0 0 7.1776 0 16C0 24.8224 7.1776 32 16 32C24.8224 32 32 24.8224 32 16C32 7.1776 24.8225 0 16 0ZM16 29.0909C8.78167 29.0909 2.90909 23.2184 2.90909 16C2.90909 8.78158 8.78167 2.90909 16 2.90909C23.2183 2.90909 29.0909 8.78167 29.0909 16C29.0909 23.2183 23.2183 29.0909 16 29.0909Z" fill="#4A4C56"/>
<path d="M15.9999 17.4368C15.9998 17.4368 16 17.4368 15.9999 17.4368C13.7465 17.4368 11.6278 18.3144 10.0345 19.9078C9.46648 20.4758 9.46648 21.3968 10.0345 21.9648C10.3186 22.2489 10.6908 22.3909 11.0631 22.3909C11.4354 22.3909 11.8076 22.2489 12.0915 21.9648C13.1355 20.9209 14.5235 20.346 15.9999 20.346C17.4763 20.346 18.8643 20.921 19.9083 21.9648C20.4762 22.5328 21.3972 22.5328 21.9653 21.9648C22.5333 21.3969 22.5333 20.4759 21.9653 19.9078C20.3719 18.3144 18.2534 17.4368 15.9999 17.4368ZM11.1651 14.2676C11.5268 13.9068 11.7333 13.4065 11.7333 12.8964C11.7333 12.3864 11.5268 11.886 11.1651 11.5252C10.8044 11.1645 10.304 10.957 9.79395 10.957C9.28292 10.957 8.78352 11.1645 8.4228 11.5252C8.06207 11.886 7.85455 12.3864 7.85455 12.8964C7.85455 13.4065 8.06207 13.9068 8.4228 14.2676C8.78352 14.6283 9.28389 14.8358 9.79395 14.8358C10.304 14.8358 10.8044 14.6283 11.1651 14.2676ZM22.2061 10.957C21.695 10.957 21.1956 11.1645 20.8349 11.5252C20.4732 11.886 20.2667 12.3864 20.2667 12.8964C20.2667 13.4065 20.4732 13.9068 20.8349 14.2676C21.1956 14.6283 21.696 14.8358 22.2061 14.8358C22.7161 14.8358 23.2165 14.6282 23.5772 14.2676C23.9389 13.9068 24.1455 13.4065 24.1455 12.8964C24.1455 12.3864 23.9389 11.886 23.5772 11.5252C23.2165 11.1645 22.7161 10.957 22.2061 10.957Z" fill="#4A4C56"/>
</g>
<defs>
<clipPath id="clip0_683_19712">
<rect width="32" height="32" fill="white"/>
</clipPath>
</defs>
</svg>
