<svg width="72" height="72" viewBox="0 0 72 72" fill="none" xmlns="http://www.w3.org/2000/svg">
<rect x="0.5" y="0.5" width="71" height="71" rx="35.5" fill="#ED544E"/>
<rect x="0.5" y="0.5" width="71" height="71" rx="35.5" fill="white" fill-opacity="0.94"/>
<rect x="0.5" y="0.5" width="71" height="71" rx="35.5" stroke="#ED544E"/>
<rect x="0.5" y="0.5" width="71" height="71" rx="35.5" stroke="white" stroke-opacity="0.8"/>
<path d="M47.9167 26.2503H42.5V25.167C42.5 24.305 42.1576 23.4784 41.5481 22.8689C40.9386 22.2594 40.112 21.917 39.25 21.917H32.75C31.888 21.917 31.0614 22.2594 30.4519 22.8689C29.8424 23.4784 29.5 24.305 29.5 25.167V26.2503H24.0833C23.796 26.2503 23.5205 26.3645 23.3173 26.5676C23.1141 26.7708 23 27.0463 23 27.3337C23 27.621 23.1141 27.8965 23.3173 28.0997C23.5205 28.3029 23.796 28.417 24.0833 28.417H25.1667V47.917C25.1667 48.4916 25.3949 49.0427 25.8013 49.4491C26.2076 49.8554 26.7587 50.0837 27.3333 50.0837H44.6667C45.2413 50.0837 45.7924 49.8554 46.1987 49.4491C46.6051 49.0427 46.8333 48.4916 46.8333 47.917V28.417H47.9167C48.204 28.417 48.4795 28.3029 48.6827 28.0997C48.8859 27.8965 49 27.621 49 27.3337C49 27.0463 48.8859 26.7708 48.6827 26.5676C48.4795 26.3645 48.204 26.2503 47.9167 26.2503ZM31.6667 25.167C31.6667 24.8797 31.7808 24.6041 31.984 24.401C32.1871 24.1978 32.4627 24.0837 32.75 24.0837H39.25C39.5373 24.0837 39.8129 24.1978 40.016 24.401C40.2192 24.6041 40.3333 24.8797 40.3333 25.167V26.2503H31.6667V25.167ZM44.6667 47.917H27.3333V28.417H44.6667V47.917ZM33.8333 33.8337V42.5003C33.8333 42.7876 33.7192 43.0632 33.516 43.2664C33.3129 43.4695 33.0373 43.5837 32.75 43.5837C32.4627 43.5837 32.1871 43.4695 31.984 43.2664C31.7808 43.0632 31.6667 42.7876 31.6667 42.5003V33.8337C31.6667 33.5463 31.7808 33.2708 31.984 33.0676C32.1871 32.8645 32.4627 32.7503 32.75 32.7503C33.0373 32.7503 33.3129 32.8645 33.516 33.0676C33.7192 33.2708 33.8333 33.5463 33.8333 33.8337ZM40.3333 33.8337V42.5003C40.3333 42.7876 40.2192 43.0632 40.016 43.2664C39.8129 43.4695 39.5373 43.5837 39.25 43.5837C38.9627 43.5837 38.6871 43.4695 38.484 43.2664C38.2808 43.0632 38.1667 42.7876 38.1667 42.5003V33.8337C38.1667 33.5463 38.2808 33.2708 38.484 33.0676C38.6871 32.8645 38.9627 32.7503 39.25 32.7503C39.5373 32.7503 39.8129 32.8645 40.016 33.0676C40.2192 33.2708 40.3333 33.5463 40.3333 33.8337Z" fill="#ED544E"/>
</svg>
