<svg width="22" height="21" viewBox="0 0 22 21" fill="none" xmlns="http://www.w3.org/2000/svg">
<path fill-rule="evenodd" clip-rule="evenodd" d="M16.312 0.43059C14.9686 0.24998 13.2479 0.24999 11.0572 0.25H10.9428C8.75212 0.24999 7.03144 0.24998 5.68802 0.43059C4.31137 0.61568 3.21911 1.00272 2.36091 1.86091C1.50272 2.71911 1.11568 3.81137 0.93059 5.18802C0.74998 6.53144 0.74999 8.25212 0.75 10.4428V10.5572C0.74999 12.7479 0.74998 14.4686 0.93059 15.812C1.11568 17.1886 1.50272 18.2809 2.36091 19.1391C3.21911 19.9973 4.31137 20.3843 5.68802 20.5694C7.03144 20.75 8.7521 20.75 10.9428 20.75H11.0572C13.2479 20.75 14.9686 20.75 16.312 20.5694C17.6886 20.3843 18.7809 19.9973 19.6391 19.1391C20.4973 18.2809 20.8843 17.1886 21.0694 15.812C21.25 14.4686 21.25 12.7479 21.25 10.5572V10.4428C21.25 8.2521 21.25 6.53144 21.0694 5.18802C20.8843 3.81137 20.4973 2.71911 19.6391 1.86091C18.7809 1.00272 17.6886 0.61568 16.312 0.43059ZM12 6.5C12 5.94772 11.5523 5.5 11 5.5C10.4477 5.5 10 5.94772 10 6.5V9.5H7C6.44772 9.5 6 9.9477 6 10.5C6 11.0523 6.44772 11.5 7 11.5H10V14.5C10 15.0523 10.4477 15.5 11 15.5C11.5523 15.5 12 15.0523 12 14.5V11.5H15C15.5523 11.5 16 11.0523 16 10.5C16 9.9477 15.5523 9.5 15 9.5H12V6.5Z" fill="#6949FF"/>
</svg>
