<svg width="16" height="16" viewBox="0 0 16 16" fill="none" xmlns="http://www.w3.org/2000/svg">
<g id="time-04-solid-rounded 1" clip-path="url(#clip0_683_15966)">
<path id="Vector" fill-rule="evenodd" clip-rule="evenodd" d="M7.99998 0.833008C4.04194 0.833008 0.833313 4.04163 0.833313 7.99967C0.833313 11.9577 4.04194 15.1663 7.99998 15.1663C11.958 15.1663 15.1666 11.9577 15.1666 7.99967C15.1666 4.04163 11.958 0.833008 7.99998 0.833008ZM11.138 5.80441C11.3984 5.54406 11.3984 5.12195 11.138 4.8616C10.8777 4.60125 10.4556 4.60125 10.1952 4.8616L8.00005 7.05681L6.80471 5.86159C6.54434 5.60125 6.12223 5.60126 5.86189 5.86162C5.60155 6.12198 5.60157 6.54409 5.86193 6.80441L7.05718 7.99961L6.86191 8.19494C6.60156 8.45527 6.60156 8.87741 6.86191 9.13774C7.12225 9.39807 7.54438 9.39807 7.80471 9.13774L8.00005 8.94241L8.19518 9.13754C8.45551 9.39787 8.87765 9.39787 9.13798 9.13747C9.39831 8.87714 9.39831 8.45501 9.13798 8.19467L8.94285 7.99961L11.138 5.80441Z" fill="#1A9882"/>
</g>
<defs>
<clipPath id="clip0_683_15966">
<rect width="16" height="16" fill="white"/>
</clipPath>
</defs>
</svg>
