<svg width="16" height="16" viewBox="0 0 16 16" fill="none" xmlns="http://www.w3.org/2000/svg">
<path d="M11.1335 12.6535H4.8668C4.5868 12.6535 4.27347 12.4335 4.18013 12.1669L1.42013 4.44688C1.0268 3.34021 1.4868 3.00021 2.43347 3.68021L5.03347 5.54021C5.4668 5.84021 5.96013 5.68688 6.1468 5.20021L7.32013 2.07355C7.69347 1.07355 8.31347 1.07355 8.6868 2.07355L9.86013 5.20021C10.0468 5.68688 10.5401 5.84021 10.9668 5.54021L13.4068 3.80021C14.4468 3.05355 14.9468 3.43355 14.5201 4.64021L11.8268 12.1802C11.7268 12.4335 11.4135 12.6535 11.1335 12.6535Z" stroke="#6A42C2" stroke-linecap="round" stroke-linejoin="round"/>
<path d="M4.33398 14.6667H11.6673" stroke="#6A42C2" stroke-linecap="round" stroke-linejoin="round"/>
<path d="M6.33398 9.33331H9.66732" stroke="#6A42C2" stroke-linecap="round" stroke-linejoin="round"/>
</svg>
