<svg width="26" height="26" viewBox="0 0 26 26" fill="none" xmlns="http://www.w3.org/2000/svg">
<path d="M18.8322 0.512908C20.6303 0.400651 22.4034 1.0256 23.7395 2.24924C24.963 3.58532 25.5874 5.35867 25.4875 7.16916V18.8313C25.5999 20.6417 24.9632 22.4151 23.7522 23.7512C22.4161 24.9748 20.6303 25.5998 18.8322 25.4875H7.16916C5.35852 25.5999 3.58536 24.9749 2.24924 23.7512C1.02551 22.4151 0.400525 20.6419 0.512909 18.8313V7.16916C0.400525 5.35854 1.02551 3.58535 2.24924 2.24924C3.58536 1.02551 5.35852 0.400525 7.16916 0.512908H18.8322ZM18.507 6.21994C17.7328 5.44574 16.4844 5.44574 15.7102 6.21994L14.8733 7.06857C14.7485 7.19336 14.7486 7.40558 14.8733 7.53049C14.8733 7.53049 16.8592 9.50398 16.8967 9.55392C17.0339 9.70373 17.1213 9.90353 17.1213 10.1281C17.1213 10.5776 16.759 10.9523 16.2971 10.9524C16.0848 10.9524 15.8846 10.8651 15.7473 10.7278L13.6623 8.65451C13.5624 8.55462 13.3872 8.55462 13.2873 8.65451L7.33127 14.6106C6.9192 15.0226 6.68166 15.5725 6.66916 16.1594L6.59396 19.1194C6.59406 19.2815 6.64477 19.4309 6.75705 19.5432C6.86934 19.6555 7.01872 19.7179 7.18088 19.718H10.1154C10.7148 19.718 11.2897 19.4813 11.7268 19.0569L20.1301 10.6281C20.8918 9.85394 20.8918 8.6047 20.1301 7.84299L18.507 6.21994Z" fill="white"/>
</svg>
