<svg width="16" height="16" viewBox="0 0 16 16" fill="none" xmlns="http://www.w3.org/2000/svg">
<path fill-rule="evenodd" clip-rule="evenodd" d="M0 8.50356C0 3.81869 3.57082 0 8 0C12.4292 0 16 3.81869 16 8.50356C16 11.6387 14.3975 13.9905 12.0933 15.4185C12.0076 15.4716 11.9615 15.5446 11.9464 15.6083L10.9091 16C10.4476 16 10.5677 16 9.78899 16C8.09599 16 5.81818 16 5.81818 16C5.0395 16 4.36364 15.6083 3.95706 15.6083C3.94193 15.5449 3.89582 15.4713 3.80906 15.4173C1.49962 13.9793 0 11.6206 0 8.50356ZM7.02274 13.4603C7.02274 12.8993 7.45687 12.4444 7.99244 12.4444H8.00116C8.53673 12.4444 8.97086 12.8993 8.97086 13.4603C8.97086 14.0214 8.53673 14.4762 8.00116 14.4762H7.99244C7.45687 14.4762 7.02274 14.0214 7.02274 13.4603ZM7.0303 6.85714C7.0303 6.2961 7.46444 5.84127 8 5.84127C8.53556 5.84127 8.9697 6.2961 8.9697 6.85714C8.9697 7.0609 8.91346 7.24779 8.81668 7.40538C8.70216 7.59182 8.55651 7.78835 8.37712 8.0219L8.29023 8.13466C8.13973 8.32958 7.96965 8.55007 7.81459 8.77324C7.44999 9.29829 7.0303 10.025 7.0303 10.9206C7.0303 11.4817 7.46444 11.9365 8 11.9365C8.53556 11.9365 8.9697 11.4817 8.9697 10.9206C8.9697 10.6941 9.07627 10.41 9.38279 9.96866C9.50613 9.79109 9.63918 9.61849 9.78899 9.42425L9.8881 9.29564C10.069 9.05996 10.2723 8.79018 10.4476 8.5048C10.7397 8.02918 10.9091 7.46233 10.9091 6.85714C10.9091 5.17399 9.60669 3.80952 8 3.80952C6.39331 3.80952 5.09091 5.17399 5.09091 6.85714C5.09091 7.41819 5.52506 7.87302 6.06061 7.87302C6.59617 7.87302 7.0303 7.41819 7.0303 6.85714Z" fill="#FF75C6"/>
</svg>
