<svg width="30" height="30" viewBox="0 0 30 30" fill="none" xmlns="http://www.w3.org/2000/svg">
<path d="M29.6482 23.9107L24.3908 14.1882C24.9272 12.9709 25.2273 11.6255 25.2273 10.2101C25.2273 4.75495 20.8049 0.333008 15.3502 0.333008C9.8942 0.333008 5.47225 4.7554 5.47225 10.2101C5.47225 11.6596 5.78714 13.0351 6.34775 14.2749L1.06693 23.9062C0.896655 24.2157 0.924955 24.5975 1.13788 24.8801C1.35125 25.1618 1.71151 25.2943 2.05557 25.2134L6.56511 24.1789L8.10856 28.4778C8.22895 28.812 8.53396 29.0438 8.88748 29.0698C8.91042 29.0716 8.9324 29.0725 8.95396 29.0725C9.11641 29.0725 9.2758 29.0284 9.41518 28.9449C9.55455 28.8615 9.66869 28.7418 9.74546 28.5986L14.3412 20.0364C14.6763 20.0703 15.0129 20.0873 15.3497 20.0872C15.6619 20.0872 15.97 20.071 16.2746 20.0422L20.9701 28.6054C21.0532 28.7572 21.1784 28.8817 21.3306 28.964C21.4828 29.0463 21.6555 29.0829 21.8281 29.0694C22.1807 29.0411 22.4843 28.8097 22.6038 28.4773L24.1473 24.1785L28.6568 25.213C29.0027 25.2965 29.3594 25.1622 29.5727 24.8814C29.787 24.6011 29.8158 24.2211 29.6482 23.9107ZM9.11742 25.9708L7.98717 22.8218C7.83264 22.3937 7.38437 22.1444 6.94053 22.25L3.6052 23.015L7.40685 16.0811C8.65878 17.7723 10.4376 19.0481 12.5008 19.6689L9.11742 25.9708ZM23.7717 22.25C23.3261 22.1448 22.8796 22.3937 22.7251 22.8218L21.5872 25.9936L18.1297 19.689C20.2477 19.0687 22.0697 17.7593 23.3378 16.0186L27.1236 23.0185L23.7717 22.25Z" fill="#CECDD2"/>
<path d="M13.2878 13.333C13.0744 13.333 12.9178 13.2863 12.8178 13.193C12.7244 13.093 12.6778 12.9497 12.6778 12.763C12.6778 12.6497 12.7078 12.5397 12.7678 12.433C12.8278 12.3263 12.9144 12.213 13.0278 12.093L15.0378 9.95301C15.3444 9.63301 15.5644 9.34301 15.6978 9.08301C15.8311 8.81634 15.8978 8.54967 15.8978 8.28301C15.8978 7.94967 15.7911 7.69634 15.5778 7.52301C15.3711 7.34967 15.0678 7.26301 14.6678 7.26301C14.4411 7.26301 14.2144 7.29634 13.9878 7.36301C13.7611 7.42301 13.5311 7.52967 13.2978 7.68301C13.1778 7.76301 13.0644 7.79634 12.9578 7.78301C12.8578 7.76967 12.7678 7.72634 12.6878 7.65301C12.6144 7.57967 12.5644 7.48967 12.5378 7.38301C12.5111 7.27634 12.5144 7.16967 12.5478 7.06301C12.5878 6.94967 12.6678 6.85301 12.7878 6.77301C13.0744 6.57967 13.3944 6.43301 13.7478 6.33301C14.1078 6.23301 14.4678 6.18301 14.8278 6.18301C15.3344 6.18301 15.7611 6.25967 16.1078 6.41301C16.4544 6.56634 16.7178 6.78967 16.8978 7.08301C17.0778 7.37634 17.1678 7.73301 17.1678 8.15301C17.1678 8.43301 17.1211 8.70634 17.0278 8.97301C16.9411 9.23967 16.8044 9.50967 16.6178 9.78301C16.4378 10.0563 16.2011 10.3463 15.9078 10.653L14.0278 12.613V12.273H16.9678C17.1478 12.273 17.2844 12.3163 17.3778 12.403C17.4711 12.4897 17.5178 12.6197 17.5178 12.793C17.5178 12.9663 17.4711 13.0997 17.3778 13.193C17.2844 13.2863 17.1478 13.333 16.9678 13.333H13.2878Z" fill="white"/>
</svg>
