<svg width="48" height="48" viewBox="0 0 48 48" fill="none" xmlns="http://www.w3.org/2000/svg">
<circle cx="24" cy="24" r="24" fill="#DFEBFF"/>
<mask id="mask0_54678_21590" style="mask-type:alpha" maskUnits="userSpaceOnUse" x="0" y="0" width="48" height="48">
<circle cx="24" cy="24" r="24" fill="#9EBA72"/>
</mask>
<g mask="url(#mask0_54678_21590)">
<path fill-rule="evenodd" clip-rule="evenodd" d="M23.9999 12.4255C19.1799 12.4255 15.2726 16.3329 15.2726 21.1528V22.041C14.3882 22.1894 13.7143 22.9586 13.7143 23.8852V26.0225C13.7143 26.9679 14.4157 27.7494 15.3266 27.875C15.6671 30.9357 17.5905 33.5186 20.2596 34.7866V37.6555C13.6586 38.0109 8.41553 43.476 8.41553 50.1656H39.5844C39.5844 43.4759 34.3412 38.0108 27.7402 37.6555V34.7865C30.4093 33.5186 32.3326 30.9357 32.6732 27.8751C33.5841 27.7495 34.2857 26.968 34.2857 26.0225V23.8852C34.2857 22.9586 33.6117 22.1893 32.7272 22.041V21.1528C32.7272 16.3329 28.8198 12.4255 23.9999 12.4255Z" fill="#D0C6AC"/>
<mask id="mask1_54678_21590" style="mask-type:luminance" maskUnits="userSpaceOnUse" x="8" y="12" width="32" height="39">
<path fill-rule="evenodd" clip-rule="evenodd" d="M23.9999 12.4255C19.1799 12.4255 15.2726 16.3329 15.2726 21.1528V22.041C14.3882 22.1894 13.7143 22.9586 13.7143 23.8852V26.0225C13.7143 26.9679 14.4157 27.7494 15.3266 27.875C15.6671 30.9357 17.5905 33.5186 20.2596 34.7866V37.6555C13.6586 38.0109 8.41553 43.476 8.41553 50.1656H39.5844C39.5844 43.4759 34.3412 38.0108 27.7402 37.6555V34.7865C30.4093 33.5186 32.3326 30.9357 32.6732 27.8751C33.5841 27.7495 34.2857 26.968 34.2857 26.0225V23.8852C34.2857 22.9586 33.6117 22.1893 32.7272 22.041V21.1528C32.7272 16.3329 28.8198 12.4255 23.9999 12.4255Z" fill="white"/>
</mask>
<g mask="url(#mask1_54678_21590)">
<rect width="41.1429" height="37.7401" transform="translate(3.42847 12.4255)" fill="#FFCCD7"/>
<rect x="3.42847" y="12.4255" width="41.1429" height="37.7401" fill="#FFCCD7"/>
<path fill-rule="evenodd" clip-rule="evenodd" d="M15.2727 26.8992V28.1366C15.2727 32.9565 19.18 36.8639 24 36.8639C28.8199 36.8639 32.7272 32.9565 32.7272 28.1366V26.8992C32.7272 31.7191 28.8199 35.6264 24 35.6264C19.18 35.6264 15.2727 31.7191 15.2727 26.8992Z" fill="black" fill-opacity="0.1"/>
</g>
<path fill-rule="evenodd" clip-rule="evenodd" d="M24.0778 43.3331C28.3383 43.3331 31.7921 41.2916 31.7921 38.7733C31.7921 38.7036 31.7895 38.6342 31.7842 38.5652C36.3594 40.4288 39.5844 44.9204 39.5844 50.1653H8.41553C8.41553 44.859 11.7166 40.3236 16.3771 38.5007C16.3681 38.5909 16.3636 38.6818 16.3636 38.7733C16.3636 41.2916 19.8174 43.3331 24.0778 43.3331Z" fill="#296B6C"/>
<mask id="mask2_54678_21590" style="mask-type:luminance" maskUnits="userSpaceOnUse" x="8" y="38" width="32" height="13">
<path fill-rule="evenodd" clip-rule="evenodd" d="M24.0778 43.3331C28.3383 43.3331 31.7921 41.2916 31.7921 38.7733C31.7921 38.7036 31.7895 38.6342 31.7842 38.5652C36.3594 40.4288 39.5844 44.9204 39.5844 50.1653H8.41553C8.41553 44.859 11.7166 40.3236 16.3771 38.5007C16.3681 38.5909 16.3636 38.6818 16.3636 38.7733C16.3636 41.2916 19.8174 43.3331 24.0778 43.3331Z" fill="white"/>
</mask>
<g mask="url(#mask2_54678_21590)">
<rect x="3.42859" y="33.1514" width="41.1429" height="17.014" fill="#296B6C"/>
</g>
<path fill-rule="evenodd" clip-rule="evenodd" d="M21.8184 29.9036C21.8184 31.0995 22.7952 32.069 24.0002 32.069V32.069C25.2052 32.069 26.182 31.0995 26.182 29.9036" fill="#0C092A"/>
<g opacity="0.3">
<path fill-rule="evenodd" clip-rule="evenodd" d="M22.1299 26.9646C22.1299 27.648 22.9672 28.202 24 28.202V28.202C25.0329 28.202 25.8701 27.648 25.8701 26.9646" fill="#0C092A"/>
</g>
<ellipse cx="19.9481" cy="24.1805" rx="0.935065" ry="0.928034" fill="#0C092A"/>
<ellipse cx="28.052" cy="24.1805" rx="0.935065" ry="0.928034" fill="#0C092A"/>
<path d="M17.7086 22.1943C18.3187 21.3422 19.9914 20.8645 21.4321 21.2156C21.5993 21.2564 21.7681 21.1549 21.8092 20.989C21.8502 20.8231 21.748 20.6555 21.5808 20.6148C19.9076 20.207 17.9707 20.7602 17.2005 21.8359C17.1008 21.9752 17.1337 22.1683 17.274 22.2672C17.4143 22.3662 17.6089 22.3336 17.7086 22.1943Z" fill="#0C092A"/>
<path d="M30.2915 22.1943C29.6814 21.3422 28.0088 20.8645 26.568 21.2156C26.4008 21.2564 26.232 21.1549 26.1909 20.989C26.1499 20.8231 26.2521 20.6555 26.4193 20.6148C28.0925 20.207 30.0294 20.7602 30.7997 21.8359C30.8994 21.9752 30.8665 22.1683 30.7261 22.2672C30.5858 22.3662 30.3912 22.3336 30.2915 22.1943Z" fill="#0C092A"/>
<mask id="mask3_54678_21590" style="mask-type:luminance" maskUnits="userSpaceOnUse" x="3" y="6" width="42" height="45">
<rect x="3.42859" y="6.85718" width="41.1429" height="43.3083" fill="white"/>
</mask>
<g mask="url(#mask3_54678_21590)">
<path fill-rule="evenodd" clip-rule="evenodd" d="M9.5064 29.2846C9.41022 24.5151 13.9197 14.559 15.5843 12.58C16.8191 11.112 20.2122 9.88106 23.9999 9.95056C27.7877 10.0201 31.3031 10.8495 32.5714 12.4253C34.492 14.8115 38.473 23.8832 38.4934 29.2846C38.508 33.1205 37.0071 36.9656 34.909 37.1729C33.7244 37.2899 32.2197 37.138 30.4116 36.9555C29.5841 36.8719 28.6931 36.782 27.7401 36.7085V34.7862C30.6886 33.3855 32.7271 30.3802 32.7271 26.8988V22.5661C31.0894 21.6706 29.6952 20.5895 28.5337 19.491C29.0567 20.4564 29.6548 21.333 30.3294 21.9955C25.5631 20.6683 22.2684 17.9503 20.2939 15.8194C19.3861 17.5331 17.7603 20.0391 15.2726 21.9481V26.8988C15.2726 30.3802 17.3111 33.3856 20.2596 34.7862V36.8242C19.176 36.9715 18.1689 37.1583 17.2422 37.3302L17.2421 37.3302C15.5514 37.6438 14.128 37.9079 12.9949 37.7916C10.7783 37.5643 9.58373 33.1198 9.5064 29.2846Z" fill="#E6E6E6"/>
<mask id="mask4_54678_21590" style="mask-type:luminance" maskUnits="userSpaceOnUse" x="9" y="9" width="30" height="29">
<path fill-rule="evenodd" clip-rule="evenodd" d="M9.5064 29.2846C9.41022 24.5151 13.9197 14.559 15.5843 12.58C16.8191 11.112 20.2122 9.88106 23.9999 9.95056C27.7877 10.0201 31.3031 10.8495 32.5714 12.4253C34.492 14.8115 38.473 23.8832 38.4934 29.2846C38.508 33.1205 37.0071 36.9656 34.909 37.1729C33.7244 37.2899 32.2197 37.138 30.4116 36.9555C29.5841 36.8719 28.6931 36.782 27.7401 36.7085V34.7862C30.6886 33.3855 32.7271 30.3802 32.7271 26.8988V22.5661C31.0894 21.6706 29.6952 20.5895 28.5337 19.491C29.0567 20.4564 29.6548 21.333 30.3294 21.9955C25.5631 20.6683 22.2684 17.9503 20.2939 15.8194C19.3861 17.5331 17.7603 20.0391 15.2726 21.9481V26.8988C15.2726 30.3802 17.3111 33.3856 20.2596 34.7862V36.8242C19.176 36.9715 18.1689 37.1583 17.2422 37.3302L17.2421 37.3302C15.5514 37.6438 14.128 37.9079 12.9949 37.7916C10.7783 37.5643 9.58373 33.1198 9.5064 29.2846Z" fill="white"/>
</mask>
<g mask="url(#mask4_54678_21590)">
<rect x="3.27258" y="6.85693" width="41.4545" height="43.3083" fill="#0C092A"/>
</g>
</g>
</g>
</svg>
