<svg width="367" height="79" viewBox="0 0 367 79" fill="none" xmlns="http://www.w3.org/2000/svg">
<g clip-path="url(#clip0_1006_6732)">
<path opacity="0.2" d="M546 -56C546 -56 528.623 54.6653 494.62 78.4673C437.863 118.196 363.318 -9.56213 289.696 20.4019C230.204 44.6151 172 162 172 162" stroke="#D1E3B3" stroke-width="3"/>
<path opacity="0.2" d="M547 -58C547 -58 532.458 34.3903 504 54.2617C456.5 87.4299 394.114 -19.2308 332.5 5.78504C282.711 25.9998 234 124 234 124" stroke="#D1E3B3" stroke-width="3"/>
<g clip-path="url(#clip1_1006_6732)">
<path d="M21.1466 69.5463C20.9095 69.5033 20.6856 69.4063 20.4919 69.263C20.2983 69.1196 20.1402 68.9337 20.0298 68.7196C19.8934 68.4567 19.8324 68.1612 19.8536 67.8659C19.8748 67.5705 19.9773 67.2868 20.1498 67.0461L23.0567 63.0558L19.5331 58.2121C19.5143 58.1864 19.5029 58.156 19.5003 58.1242C19.4978 58.0924 19.5041 58.0605 19.5187 58.0322C19.5332 58.0038 19.5553 57.98 19.5826 57.9635C19.6099 57.947 19.6413 57.9384 19.6731 57.9387H20.8199C20.9579 57.9341 21.092 57.892 21.208 57.8171C21.3239 57.7421 21.4173 57.6371 21.4782 57.5132C21.5392 57.3893 21.5653 57.2512 21.5539 57.1136C21.5424 56.976 21.4938 56.8441 21.4133 56.732L16.5096 49.5348C16.4921 49.5087 16.482 49.4784 16.4803 49.4471C16.4787 49.4157 16.4856 49.3846 16.5004 49.3568C16.5151 49.3291 16.537 49.3059 16.5639 49.2897C16.5908 49.2735 16.6215 49.2649 16.6529 49.2648H17.6463C17.7532 49.2628 17.8572 49.2303 17.9462 49.1711C18.0352 49.1119 18.1054 49.0285 18.1485 48.9307C18.1916 48.833 18.2058 48.7249 18.1895 48.6193C18.1732 48.5136 18.127 48.4149 18.0564 48.3347L13.5994 42.2876C13.5328 42.1983 13.4463 42.1259 13.3467 42.0759C13.2472 42.026 13.1373 42 13.026 42C12.9146 42 12.8048 42.026 12.7053 42.0759C12.6057 42.1259 12.5192 42.1983 12.4526 42.2876L7.99561 48.3347C7.92526 48.415 7.8793 48.5137 7.86313 48.6192C7.84695 48.7247 7.86124 48.8327 7.9043 48.9304C7.94736 49.0281 8.01742 49.1114 8.10623 49.1706C8.19504 49.2299 8.29891 49.2625 8.40564 49.2648H9.39905C9.43043 49.2649 9.4612 49.2735 9.48807 49.2897C9.51494 49.3059 9.5369 49.3291 9.55161 49.3568C9.56633 49.3846 9.57324 49.4157 9.57162 49.4471C9.56999 49.4784 9.55989 49.5087 9.54239 49.5348L4.63869 56.732C4.55812 56.8444 4.50963 56.9766 4.49839 57.1144C4.48715 57.2522 4.51359 57.3905 4.57488 57.5145C4.63617 57.6384 4.73001 57.7434 4.84636 57.8181C4.96271 57.8928 5.09718 57.9345 5.2354 57.9387H6.38215C6.41379 57.939 6.44475 57.948 6.47167 57.9646C6.49859 57.9812 6.52044 58.0049 6.53487 58.0331C6.54929 58.0612 6.55573 58.0928 6.55349 58.1244C6.55125 58.1559 6.54042 58.1863 6.52217 58.2121L1.28844 65.406C1.20789 65.5181 1.1593 65.65 1.14786 65.7876C1.13642 65.9252 1.16255 66.0633 1.22347 66.1872C1.28439 66.3111 1.37781 66.4161 1.49376 66.4911C1.60971 66.566 1.74383 66.6081 1.88182 66.6127H3.42193C3.45187 66.6131 3.48121 66.6212 3.50709 66.6362C3.53297 66.6513 3.55451 66.6728 3.56962 66.6986C3.58472 66.7244 3.59288 66.7538 3.59328 66.7837C3.59369 66.8136 3.58634 66.8432 3.57195 66.8694L-0.458356 74.08C-0.538906 74.1921 -0.587496 74.324 -0.598939 74.4616C-0.610382 74.5992 -0.584248 74.7373 -0.523327 74.8612C-0.462407 74.9851 -0.368986 75.0901 -0.253036 75.165C-0.137087 75.24 -0.00296217 75.282 0.135022 75.2867H10.6691V78.8C10.6691 78.911 10.6909 79.0209 10.7334 79.1235C10.7758 79.226 10.8381 79.3192 10.9165 79.3977C10.995 79.4762 11.0882 79.5385 11.1907 79.581C11.2933 79.6235 11.4032 79.6454 11.5142 79.6454H14.5394C14.6504 79.6454 14.7603 79.6235 14.8629 79.581C14.9654 79.5385 15.0586 79.4762 15.1371 79.3977C15.2156 79.3192 15.2778 79.226 15.3203 79.1235C15.3627 79.0209 15.3845 78.911 15.3845 78.8V75.2867H18.6097C18.516 75.0494 18.4802 74.7932 18.5051 74.5393C18.53 74.2855 18.615 74.0411 18.7531 73.8266L21.1466 69.5463Z" fill="#D1E3B3"/>
<path d="M40.4911 74.3513L37.3695 68.7696C37.3578 68.7492 37.3516 68.726 37.3517 68.7025C37.3517 68.679 37.358 68.6559 37.3699 68.6355C37.3818 68.6152 37.3989 68.5984 37.4193 68.5868C37.4398 68.5752 37.463 68.5693 37.4866 68.5695H38.6766C38.7833 68.5657 38.8869 68.533 38.9765 68.4751C39.0661 68.4172 39.1384 68.3361 39.1857 68.2404C39.2329 68.1448 39.2535 68.0381 39.2451 67.9317C39.2367 67.8253 39.1997 67.7232 39.138 67.6361L35.086 62.0691C35.0713 62.0492 35.0624 62.0255 35.0603 62.0009C35.0583 61.9762 35.0631 61.9514 35.0743 61.9293C35.0855 61.9073 35.1027 61.8887 35.1238 61.8759C35.145 61.863 35.1693 61.8562 35.194 61.8564H36.0824C36.1893 61.8527 36.2932 61.82 36.383 61.762C36.4728 61.7039 36.5453 61.6226 36.5926 61.5267C36.6398 61.4308 36.6603 61.3238 36.6516 61.2172C36.643 61.1106 36.6056 61.0084 36.5435 60.9213L32.7462 55.3476C32.7324 55.3275 32.7243 55.304 32.7229 55.2796C32.7215 55.2553 32.7267 55.231 32.7381 55.2095C32.7496 55.1879 32.7667 55.1699 32.7876 55.1574C32.8085 55.1449 32.8325 55.1384 32.8569 55.1385H33.6256C33.7086 55.1375 33.7895 55.1126 33.8587 55.0669C33.928 55.0212 33.9826 54.9566 34.0162 54.8807C34.0498 54.8048 34.0609 54.7209 34.0482 54.6389C34.0355 54.5569 33.9996 54.4803 33.9446 54.4182L30.493 49.7365C30.4417 49.6669 30.3747 49.6104 30.2975 49.5714C30.2204 49.5325 30.1351 49.5122 30.0487 49.5122C29.9622 49.5122 29.877 49.5325 29.7998 49.5714C29.7226 49.6104 29.6556 49.6669 29.6043 49.7365L26.1527 54.4182C26.0978 54.4803 26.0618 54.5569 26.0491 54.6389C26.0364 54.7209 26.0475 54.8048 26.0811 54.8807C26.1147 54.9566 26.1694 55.0212 26.2386 55.0669C26.3079 55.1126 26.3888 55.1375 26.4717 55.1385H27.2405C27.2648 55.1384 27.2888 55.1449 27.3097 55.1574C27.3307 55.1699 27.3478 55.1879 27.3592 55.2095C27.3706 55.231 27.3759 55.2553 27.3745 55.2796C27.373 55.304 27.365 55.3275 27.3511 55.3476L23.5538 60.9193C23.4914 61.0064 23.4537 61.1088 23.4449 61.2156C23.436 61.3224 23.4564 61.4296 23.5037 61.5257C23.551 61.6218 23.6236 61.7033 23.7136 61.7614C23.8037 61.8196 23.9078 61.8521 24.0149 61.8557H24.9033C24.928 61.8556 24.9524 61.8623 24.9735 61.8752C24.9947 61.8881 25.0118 61.9066 25.023 61.9287C25.0342 61.9508 25.0391 61.9755 25.037 62.0002C25.0349 62.0249 25.026 62.0485 25.0113 62.0684L20.9593 67.6355C20.8976 67.7225 20.8606 67.8247 20.8522 67.931C20.8439 68.0374 20.8644 68.1441 20.9117 68.2397C20.959 68.3354 21.0312 68.4165 21.1208 68.4744C21.2104 68.5324 21.3141 68.565 21.4207 68.5689H22.6108C22.6343 68.5686 22.6575 68.5746 22.678 68.5862C22.6985 68.5978 22.7155 68.6146 22.7274 68.6349C22.7393 68.6552 22.7456 68.6783 22.7457 68.7018C22.7457 68.7254 22.7396 68.7485 22.7278 68.7689L19.6062 74.3513C19.5445 74.4384 19.5075 74.5405 19.4991 74.6469C19.4908 74.7533 19.5113 74.8599 19.5586 74.9556C19.6059 75.0512 19.6781 75.1323 19.7677 75.1903C19.8573 75.2482 19.961 75.2808 20.0676 75.2847H28.2225V78.9303C28.2225 79.1195 28.2977 79.301 28.4315 79.4348C28.5653 79.5685 28.7467 79.6437 28.9359 79.6437H31.1614C31.3506 79.6437 31.5321 79.5685 31.6659 79.4348C31.7996 79.301 31.8748 79.1195 31.8748 78.9303V75.2864H40.0297C40.1367 75.2827 40.2406 75.2501 40.3304 75.1921C40.4203 75.1341 40.4928 75.0528 40.5401 74.9568C40.5874 74.8609 40.6079 74.7539 40.5992 74.6473C40.5906 74.5407 40.5532 74.4384 40.4911 74.3513Z" fill="#D1E3B3"/>
</g>
<path d="M65.7482 70.5463C65.5111 70.5033 65.2871 70.4063 65.0935 70.263C64.8999 70.1196 64.7418 69.9337 64.6314 69.7196C64.495 69.4567 64.434 69.1612 64.4552 68.8659C64.4764 68.5705 64.5789 68.2868 64.7514 68.0461L67.6583 64.0558L64.1347 59.2121C64.1158 59.1864 64.1045 59.156 64.1019 59.1242C64.0993 59.0924 64.1057 59.0605 64.1202 59.0322C64.1348 59.0038 64.1569 58.98 64.1842 58.9635C64.2115 58.947 64.2428 58.9384 64.2747 58.9387H65.4215C65.5594 58.9341 65.6936 58.892 65.8095 58.8171C65.9255 58.7421 66.0189 58.6371 66.0798 58.5132C66.1407 58.3893 66.1669 58.2512 66.1554 58.1136C66.144 57.976 66.0954 57.8441 66.0148 57.732L61.1111 50.5348C61.0936 50.5087 61.0835 50.4784 61.0819 50.4471C61.0803 50.4157 61.0872 50.3846 61.1019 50.3568C61.1166 50.3291 61.1386 50.3059 61.1655 50.2897C61.1923 50.2735 61.2231 50.2649 61.2545 50.2648H62.2479C62.3547 50.2628 62.4588 50.2303 62.5478 50.1711C62.6368 50.1119 62.707 50.0285 62.7501 49.9307C62.7932 49.833 62.8074 49.7249 62.7911 49.6193C62.7748 49.5136 62.7285 49.4149 62.6579 49.3347L58.2009 43.2876C58.1343 43.1983 58.0478 43.1259 57.9483 43.0759C57.8487 43.026 57.7389 43 57.6275 43C57.5162 43 57.4064 43.026 57.3068 43.0759C57.2073 43.1259 57.1208 43.1983 57.0542 43.2876L52.5972 49.3347C52.5268 49.415 52.4809 49.5137 52.4647 49.6192C52.4485 49.7247 52.4628 49.8327 52.5059 49.9304C52.5489 50.0281 52.619 50.1114 52.7078 50.1706C52.7966 50.2299 52.9005 50.2625 53.0072 50.2648H54.0006C54.032 50.2649 54.0628 50.2735 54.0896 50.2897C54.1165 50.3059 54.1385 50.3291 54.1532 50.3568C54.1679 50.3846 54.1748 50.4157 54.1732 50.4471C54.1716 50.4784 54.1615 50.5087 54.144 50.5348L49.2403 57.732C49.1597 57.8444 49.1112 57.9766 49.0999 58.1144C49.0887 58.2522 49.1151 58.3905 49.1764 58.5145C49.2377 58.6384 49.3316 58.7434 49.4479 58.8181C49.5643 58.8928 49.6987 58.9345 49.837 58.9387H50.9837C51.0154 58.939 51.0463 58.948 51.0732 58.9646C51.1002 58.9812 51.122 59.0049 51.1364 59.0331C51.1509 59.0612 51.1573 59.0928 51.1551 59.1244C51.1528 59.1559 51.142 59.1863 51.1237 59.2121L45.89 66.406C45.8095 66.5181 45.7609 66.65 45.7494 66.7876C45.738 66.9252 45.7641 67.0633 45.825 67.1872C45.886 67.3111 45.9794 67.4161 46.0953 67.4911C46.2113 67.566 46.3454 67.6081 46.4834 67.6127H48.0235C48.0534 67.6131 48.0828 67.6212 48.1086 67.6362C48.1345 67.6513 48.1561 67.6728 48.1712 67.6986C48.1863 67.7244 48.1944 67.7538 48.1948 67.7837C48.1953 67.8136 48.1879 67.8432 48.1735 67.8694L44.1432 75.08C44.0627 75.1921 44.0141 75.324 44.0026 75.4616C43.9912 75.5992 44.0173 75.7373 44.0782 75.8612C44.1392 75.9851 44.2326 76.0901 44.3485 76.165C44.4645 76.24 44.5986 76.282 44.7366 76.2867H55.2707V79.8C55.2707 79.911 55.2925 80.0209 55.3349 80.1235C55.3774 80.226 55.4396 80.3192 55.5181 80.3977C55.5966 80.4762 55.6897 80.5385 55.7923 80.581C55.8948 80.6235 56.0048 80.6454 56.1158 80.6454H59.141C59.252 80.6454 59.3619 80.6235 59.4645 80.581C59.567 80.5385 59.6602 80.4762 59.7387 80.3977C59.8171 80.3192 59.8794 80.226 59.9218 80.1235C59.9643 80.0209 59.9861 79.911 59.9861 79.8V76.2867H63.2113C63.1176 76.0494 63.0817 75.7932 63.1067 75.5393C63.1316 75.2855 63.2166 75.0411 63.3546 74.8266L65.7482 70.5463Z" fill="#D1E3B3"/>
<path d="M85.0927 75.3513L81.9711 69.7696C81.9593 69.7492 81.9532 69.726 81.9532 69.7025C81.9533 69.679 81.9596 69.6559 81.9715 69.6355C81.9834 69.6152 82.0004 69.5984 82.0209 69.5868C82.0414 69.5752 82.0646 69.5693 82.0881 69.5695H83.2782C83.3848 69.5657 83.4884 69.533 83.5781 69.4751C83.6677 69.4172 83.7399 69.3361 83.7872 69.2404C83.8345 69.1448 83.855 69.0381 83.8466 68.9317C83.8383 68.8253 83.8013 68.7232 83.7396 68.6361L79.6876 63.0691C79.6729 63.0492 79.664 63.0255 79.6619 63.0009C79.6598 62.9762 79.6647 62.9514 79.6759 62.9293C79.6871 62.9073 79.7042 62.8887 79.7254 62.8759C79.7465 62.863 79.7708 62.8562 79.7956 62.8564H80.684C80.7909 62.8527 80.8948 62.82 80.9846 62.762C81.0744 62.7039 81.1468 62.6226 81.1941 62.5267C81.2414 62.4308 81.2618 62.3238 81.2532 62.2172C81.2445 62.1106 81.2072 62.0084 81.145 61.9213L77.3478 56.3476C77.3339 56.3275 77.3259 56.304 77.3244 56.2796C77.323 56.2553 77.3283 56.231 77.3397 56.2095C77.3511 56.1879 77.3682 56.1699 77.3892 56.1574C77.4101 56.1449 77.4341 56.1384 77.4584 56.1385H78.2272C78.3101 56.1375 78.391 56.1126 78.4603 56.0669C78.5295 56.0212 78.5842 55.9566 78.6178 55.8807C78.6514 55.8048 78.6625 55.7209 78.6498 55.6389C78.6371 55.5569 78.6011 55.4803 78.5462 55.4182L75.0946 50.7365C75.0432 50.6669 74.9763 50.6104 74.8991 50.5714C74.8219 50.5325 74.7367 50.5122 74.6502 50.5122C74.5638 50.5122 74.4785 50.5325 74.4014 50.5714C74.3242 50.6104 74.2572 50.6669 74.2059 50.7365L70.7543 55.4182C70.6993 55.4803 70.6634 55.5569 70.6507 55.6389C70.638 55.7209 70.6491 55.8048 70.6827 55.8807C70.7163 55.9566 70.7709 56.0212 70.8402 56.0669C70.9094 56.1126 70.9903 56.1375 71.0733 56.1385H71.842C71.8664 56.1384 71.8904 56.1449 71.9113 56.1574C71.9322 56.1699 71.9493 56.1879 71.9607 56.2095C71.9722 56.231 71.9774 56.2553 71.976 56.2796C71.9746 56.304 71.9665 56.3275 71.9527 56.3476L68.1554 61.9193C68.0929 62.0064 68.0553 62.1088 68.0464 62.2156C68.0376 62.3224 68.0579 62.4296 68.1053 62.5257C68.1526 62.6218 68.2252 62.7033 68.3152 62.7614C68.4052 62.8196 68.5093 62.8521 68.6164 62.8557H69.5048C69.5296 62.8556 69.5539 62.8623 69.5751 62.8752C69.5962 62.8881 69.6134 62.9066 69.6246 62.9287C69.6358 62.9508 69.6406 62.9755 69.6386 63.0002C69.6365 63.0249 69.6276 63.0485 69.6129 63.0684L65.5609 68.6355C65.4992 68.7225 65.4622 68.8247 65.4538 68.931C65.4454 69.0374 65.466 69.1441 65.5132 69.2397C65.5605 69.3354 65.6328 69.4165 65.7224 69.4744C65.812 69.5324 65.9156 69.565 66.0223 69.5689H67.2123C67.2359 69.5686 67.2591 69.5746 67.2795 69.5862C67.3 69.5978 67.3171 69.6146 67.329 69.6349C67.3409 69.6552 67.3472 69.6783 67.3472 69.7018C67.3473 69.7254 67.3411 69.7485 67.3293 69.7689L64.2078 75.3513C64.1461 75.4384 64.1091 75.5405 64.1007 75.6469C64.0923 75.7533 64.1129 75.8599 64.1601 75.9556C64.2074 76.0512 64.2797 76.1323 64.3693 76.1903C64.4589 76.2482 64.5625 76.2808 64.6692 76.2847H72.8241V79.9303C72.8241 80.1195 72.8993 80.301 73.033 80.4348C73.1668 80.5685 73.3483 80.6437 73.5375 80.6437H75.763C75.9522 80.6437 76.1336 80.5685 76.2674 80.4348C76.4012 80.301 76.4764 80.1195 76.4764 79.9303V76.2864H84.6313C84.7382 76.2827 84.8421 76.2501 84.932 76.1921C85.0219 76.1341 85.0943 76.0528 85.1417 75.9568C85.189 75.8609 85.2094 75.7539 85.2008 75.6473C85.1922 75.5407 85.1548 75.4384 85.0927 75.3513Z" fill="#D1E3B3"/>
<g clip-path="url(#clip2_1006_6732)">
<path d="M332.147 70.5463C331.91 70.5033 331.686 70.4063 331.492 70.263C331.298 70.1196 331.14 69.9337 331.03 69.7196C330.893 69.4567 330.832 69.1612 330.854 68.8659C330.875 68.5705 330.977 68.2868 331.15 68.0461L334.057 64.0558L330.533 59.2121C330.514 59.1864 330.503 59.156 330.5 59.1242C330.498 59.0924 330.504 59.0605 330.519 59.0322C330.533 59.0038 330.555 58.98 330.583 58.9635C330.61 58.947 330.641 58.9384 330.673 58.9387H331.82C331.958 58.9341 332.092 58.892 332.208 58.8171C332.324 58.7421 332.417 58.6371 332.478 58.5132C332.539 58.3893 332.565 58.2512 332.554 58.1136C332.542 57.976 332.494 57.8441 332.413 57.732L327.51 50.5348C327.492 50.5087 327.482 50.4784 327.48 50.4471C327.479 50.4157 327.486 50.3846 327.5 50.3568C327.515 50.3291 327.537 50.3059 327.564 50.2897C327.591 50.2735 327.622 50.2649 327.653 50.2648H328.646C328.753 50.2628 328.857 50.2303 328.946 50.1711C329.035 50.1119 329.105 50.0285 329.149 49.9307C329.192 49.833 329.206 49.7249 329.19 49.6193C329.173 49.5136 329.127 49.4149 329.056 49.3347L324.599 43.2876C324.533 43.1983 324.446 43.1259 324.347 43.0759C324.247 43.026 324.137 43 324.026 43C323.915 43 323.805 43.026 323.705 43.0759C323.606 43.1259 323.519 43.1983 323.453 43.2876L318.996 49.3347C318.925 49.415 318.879 49.5137 318.863 49.6192C318.847 49.7247 318.861 49.8327 318.904 49.9304C318.947 50.0281 319.017 50.1114 319.106 50.1706C319.195 50.2299 319.299 50.2625 319.406 50.2648H320.399C320.43 50.2649 320.461 50.2735 320.488 50.2897C320.515 50.3059 320.537 50.3291 320.552 50.3568C320.566 50.3846 320.573 50.4157 320.572 50.4471C320.57 50.4784 320.56 50.5087 320.542 50.5348L315.639 57.732C315.558 57.8444 315.51 57.9766 315.498 58.1144C315.487 58.2522 315.514 58.3905 315.575 58.5145C315.636 58.6384 315.73 58.7434 315.846 58.8181C315.963 58.8928 316.097 58.9345 316.235 58.9387H317.382C317.414 58.939 317.445 58.948 317.472 58.9646C317.499 58.9812 317.52 59.0049 317.535 59.0331C317.549 59.0612 317.556 59.0928 317.553 59.1244C317.551 59.1559 317.54 59.1863 317.522 59.2121L312.288 66.406C312.208 66.5181 312.159 66.65 312.148 66.7876C312.136 66.9252 312.163 67.0633 312.223 67.1872C312.284 67.3111 312.378 67.4161 312.494 67.4911C312.61 67.566 312.744 67.6081 312.882 67.6127H314.422C314.452 67.6131 314.481 67.6212 314.507 67.6362C314.533 67.6513 314.555 67.6728 314.57 67.6986C314.585 67.7244 314.593 67.7538 314.593 67.7837C314.594 67.8136 314.586 67.8432 314.572 67.8694L310.542 75.08C310.461 75.1921 310.413 75.324 310.401 75.4616C310.39 75.5992 310.416 75.7373 310.477 75.8612C310.538 75.9851 310.631 76.0901 310.747 76.165C310.863 76.24 310.997 76.282 311.135 76.2867H321.669V79.8C321.669 79.911 321.691 80.0209 321.733 80.1235C321.776 80.226 321.838 80.3192 321.917 80.3977C321.995 80.4762 322.088 80.5385 322.191 80.581C322.293 80.6235 322.403 80.6454 322.514 80.6454H325.539C325.65 80.6454 325.76 80.6235 325.863 80.581C325.965 80.5385 326.059 80.4762 326.137 80.3977C326.216 80.3192 326.278 80.226 326.32 80.1235C326.363 80.0209 326.385 79.911 326.384 79.8V76.2867H329.61C329.516 76.0494 329.48 75.7932 329.505 75.5393C329.53 75.2855 329.615 75.0411 329.753 74.8266L332.147 70.5463Z" fill="#D1E3B3"/>
<path d="M351.491 75.3513L348.37 69.7696C348.358 69.7492 348.352 69.726 348.352 69.7025C348.352 69.679 348.358 69.6559 348.37 69.6355C348.382 69.6152 348.399 69.5984 348.419 69.5868C348.44 69.5752 348.463 69.5693 348.487 69.5695H349.677C349.783 69.5657 349.887 69.533 349.976 69.4751C350.066 69.4172 350.138 69.3361 350.186 69.2404C350.233 69.1448 350.253 69.0381 350.245 68.9317C350.237 68.8253 350.2 68.7232 350.138 68.6361L346.086 63.0691C346.071 63.0492 346.062 63.0255 346.06 63.0009C346.058 62.9762 346.063 62.9514 346.074 62.9293C346.086 62.9073 346.103 62.8887 346.124 62.8759C346.145 62.863 346.169 62.8562 346.194 62.8564H347.082C347.189 62.8527 347.293 62.82 347.383 62.762C347.473 62.7039 347.545 62.6226 347.593 62.5267C347.64 62.4308 347.66 62.3238 347.652 62.2172C347.643 62.1106 347.606 62.0084 347.543 61.9213L343.746 56.3476C343.732 56.3275 343.724 56.304 343.723 56.2796C343.721 56.2553 343.727 56.231 343.738 56.2095C343.75 56.1879 343.767 56.1699 343.788 56.1574C343.809 56.1449 343.832 56.1384 343.857 56.1385H344.626C344.709 56.1375 344.789 56.1126 344.859 56.0669C344.928 56.0212 344.983 55.9566 345.016 55.8807C345.05 55.8048 345.061 55.7209 345.048 55.6389C345.036 55.5569 345 55.4803 344.945 55.4182L341.493 50.7365C341.442 50.6669 341.375 50.6104 341.298 50.5714C341.22 50.5325 341.135 50.5122 341.049 50.5122C340.962 50.5122 340.877 50.5325 340.8 50.5714C340.723 50.6104 340.656 50.6669 340.604 50.7365L337.153 55.4182C337.098 55.4803 337.062 55.5569 337.049 55.6389C337.036 55.7209 337.048 55.8048 337.081 55.8807C337.115 55.9566 337.169 56.0212 337.239 56.0669C337.308 56.1126 337.389 56.1375 337.472 56.1385H338.24C338.265 56.1384 338.289 56.1449 338.31 56.1574C338.331 56.1699 338.348 56.1879 338.359 56.2095C338.371 56.231 338.376 56.2553 338.374 56.2796C338.373 56.304 338.365 56.3275 338.351 56.3476L334.554 61.9193C334.491 62.0064 334.454 62.1088 334.445 62.2156C334.436 62.3224 334.456 62.4296 334.504 62.5257C334.551 62.6218 334.624 62.7033 334.714 62.7614C334.804 62.8196 334.908 62.8521 335.015 62.8557H335.903C335.928 62.8556 335.952 62.8623 335.974 62.8752C335.995 62.8881 336.012 62.9066 336.023 62.9287C336.034 62.9508 336.039 62.9755 336.037 63.0002C336.035 63.0249 336.026 63.0485 336.011 63.0684L331.959 68.6355C331.898 68.7225 331.861 68.8247 331.852 68.931C331.844 69.0374 331.864 69.1441 331.912 69.2397C331.959 69.3354 332.031 69.4165 332.121 69.4744C332.21 69.5324 332.314 69.565 332.421 69.5689H333.611C333.634 69.5686 333.658 69.5746 333.678 69.5862C333.698 69.5978 333.716 69.6146 333.727 69.6349C333.739 69.6552 333.746 69.6783 333.746 69.7018C333.746 69.7254 333.74 69.7485 333.728 69.7689L330.606 75.3513C330.545 75.4384 330.508 75.5405 330.499 75.6469C330.491 75.7533 330.511 75.8599 330.559 75.9556C330.606 76.0512 330.678 76.1323 330.768 76.1903C330.857 76.2482 330.961 76.2808 331.068 76.2847H339.223V79.9303C339.223 80.1195 339.298 80.301 339.431 80.4348C339.565 80.5685 339.747 80.6437 339.936 80.6437H342.161C342.351 80.6437 342.532 80.5685 342.666 80.4348C342.8 80.301 342.875 80.1195 342.875 79.9303V76.2864H351.03C351.137 76.2827 351.241 76.2501 351.33 76.1921C351.42 76.1341 351.493 76.0528 351.54 75.9568C351.587 75.8609 351.608 75.7539 351.599 75.6473C351.591 75.5407 351.553 75.4384 351.491 75.3513Z" fill="#D1E3B3"/>
</g>
<rect x="140" y="16" width="56" height="56" rx="28" fill="#EDF3E2"/>
<path d="M179.244 33.9991C177.634 30.2951 173.352 28.0003 168.059 28.0003C168.04 28.0003 168.021 27.9997 168 28.0003C167.981 27.9997 167.961 28.0003 167.941 28.0003C162.649 28.0003 158.365 30.2957 156.756 33.9991C154.605 38.9479 157.287 45.8054 164.305 53.3169C164.338 53.434 164.393 53.544 164.466 53.6411L165.592 56.2667H165.334C165.192 56.2668 165.057 56.323 164.957 56.423C164.857 56.523 164.801 56.6586 164.801 56.8C164.801 56.9415 164.857 57.0771 164.957 57.1771C165.057 57.2771 165.192 57.3333 165.334 57.3333V59.4667C165.334 59.6081 165.39 59.7437 165.49 59.8437C165.59 59.9437 165.726 60 165.867 60H170.134C170.275 60 170.411 59.9437 170.511 59.8437C170.611 59.7437 170.667 59.6081 170.667 59.4667V57.3333C170.809 57.3333 170.944 57.2771 171.044 57.1771C171.144 57.0771 171.2 56.9415 171.2 56.8C171.2 56.6586 171.144 56.523 171.044 56.423C170.944 56.323 170.809 56.2668 170.667 56.2667H170.41L171.535 53.6411C171.608 53.5439 171.663 53.434 171.696 53.3169C178.713 45.8049 181.395 38.9479 179.244 33.9991ZM169.248 56.2667H166.751L165.97 54.4433C166.579 54.5942 167.29 54.6667 168 54.6667C168.709 54.6667 169.42 54.5941 170.029 54.4433L169.248 56.2667Z" fill="#9EBA72"/>
<path fill-rule="evenodd" clip-rule="evenodd" d="M168.576 35.4229C168.23 35.1813 167.771 35.1813 167.426 35.4229L164.585 37.4113C164.261 37.638 164.1 38.0339 164.175 38.4222L164.884 42.1062C164.975 42.5782 165.388 42.9194 165.868 42.9194H166.633L166.633 40.8228C166.633 40.4706 166.919 40.185 167.271 40.185H168.729C169.081 40.185 169.367 40.4706 169.367 40.8229L169.367 42.9194H170.133C170.613 42.9194 171.026 42.5782 171.117 42.1061L171.826 38.4221C171.9 38.0339 171.74 37.638 171.416 37.4113L168.576 35.4229ZM168.82 42.9194L168.82 40.823C168.82 40.7727 168.779 40.7319 168.729 40.7319H167.271C167.221 40.7319 167.18 40.7726 167.18 40.823L167.18 42.9194H168.82Z" fill="#E8EFD9"/>
</g>
<defs>
<clipPath id="clip0_1006_6732">
<rect width="367" height="79" fill="white"/>
</clipPath>
<clipPath id="clip1_1006_6732">
<rect width="40" height="40" fill="white" transform="translate(0 42)"/>
</clipPath>
<clipPath id="clip2_1006_6732">
<rect width="40" height="40" fill="white" transform="translate(311 43)"/>
</clipPath>
</defs>
</svg>
