<svg width="441" height="140" viewBox="0 0 441 140" fill="none" xmlns="http://www.w3.org/2000/svg">
<g clip-path="url(#clip0_999_8878)">
<path opacity="0.2" d="M546 2C546 2 528.623 112.665 494.62 136.467C437.863 176.196 363.318 48.4379 289.696 78.4019C230.204 102.615 172 220 172 220" stroke="#D1E3B3" stroke-width="3"/>
<path opacity="0.2" d="M547 0C547 0 532.458 92.3903 504 112.262C456.5 145.43 394.114 38.7692 332.5 63.785C282.711 83.9998 234 182 234 182" stroke="#D1E3B3" stroke-width="3"/>
<g clip-path="url(#clip1_999_8878)">
<path d="M21.1466 127.546C20.9095 127.503 20.6856 127.406 20.4919 127.263C20.2983 127.12 20.1402 126.934 20.0298 126.72C19.8934 126.457 19.8324 126.161 19.8536 125.866C19.8748 125.571 19.9773 125.287 20.1498 125.046L23.0567 121.056L19.5331 116.212C19.5143 116.186 19.5029 116.156 19.5003 116.124C19.4978 116.092 19.5041 116.061 19.5187 116.032C19.5332 116.004 19.5553 115.98 19.5826 115.964C19.6099 115.947 19.6413 115.938 19.6731 115.939H20.8199C20.9579 115.934 21.092 115.892 21.208 115.817C21.3239 115.742 21.4173 115.637 21.4782 115.513C21.5392 115.389 21.5653 115.251 21.5539 115.114C21.5424 114.976 21.4938 114.844 21.4133 114.732L16.5096 107.535C16.4921 107.509 16.482 107.478 16.4803 107.447C16.4787 107.416 16.4856 107.385 16.5004 107.357C16.5151 107.329 16.537 107.306 16.5639 107.29C16.5908 107.273 16.6215 107.265 16.6529 107.265H17.6463C17.7532 107.263 17.8572 107.23 17.9462 107.171C18.0352 107.112 18.1054 107.029 18.1485 106.931C18.1916 106.833 18.2058 106.725 18.1895 106.619C18.1732 106.514 18.127 106.415 18.0564 106.335L13.5994 100.288C13.5328 100.198 13.4463 100.126 13.3467 100.076C13.2472 100.026 13.1373 100 13.026 100C12.9146 100 12.8048 100.026 12.7053 100.076C12.6057 100.126 12.5192 100.198 12.4526 100.288L7.99561 106.335C7.92526 106.415 7.8793 106.514 7.86313 106.619C7.84695 106.725 7.86124 106.833 7.9043 106.93C7.94736 107.028 8.01742 107.111 8.10623 107.171C8.19504 107.23 8.29891 107.263 8.40564 107.265H9.39905C9.43043 107.265 9.4612 107.273 9.48807 107.29C9.51494 107.306 9.5369 107.329 9.55161 107.357C9.56633 107.385 9.57324 107.416 9.57162 107.447C9.56999 107.478 9.55989 107.509 9.54239 107.535L4.63869 114.732C4.55812 114.844 4.50963 114.977 4.49839 115.114C4.48715 115.252 4.51359 115.39 4.57488 115.514C4.63617 115.638 4.73001 115.743 4.84636 115.818C4.96271 115.893 5.09718 115.935 5.2354 115.939H6.38215C6.41379 115.939 6.44475 115.948 6.47167 115.965C6.49859 115.981 6.52044 116.005 6.53487 116.033C6.54929 116.061 6.55573 116.093 6.55349 116.124C6.55125 116.156 6.54042 116.186 6.52217 116.212L1.28844 123.406C1.20789 123.518 1.1593 123.65 1.14786 123.788C1.13642 123.925 1.16255 124.063 1.22347 124.187C1.28439 124.311 1.37781 124.416 1.49376 124.491C1.60971 124.566 1.74383 124.608 1.88182 124.613H3.42193C3.45187 124.613 3.48121 124.621 3.50709 124.636C3.53297 124.651 3.55451 124.673 3.56962 124.699C3.58472 124.724 3.59287 124.754 3.59328 124.784C3.59369 124.814 3.58634 124.843 3.57195 124.869L-0.458356 132.08C-0.538906 132.192 -0.587496 132.324 -0.598939 132.462C-0.610382 132.599 -0.584248 132.737 -0.523327 132.861C-0.462407 132.985 -0.368986 133.09 -0.253036 133.165C-0.137087 133.24 -0.00296215 133.282 0.135022 133.287H10.6691V136.8C10.6691 136.911 10.6909 137.021 10.7334 137.123C10.7758 137.226 10.8381 137.319 10.9165 137.398C10.995 137.476 11.0882 137.539 11.1907 137.581C11.2933 137.623 11.4032 137.645 11.5142 137.645H14.5394C14.6504 137.645 14.7603 137.623 14.8629 137.581C14.9654 137.539 15.0586 137.476 15.1371 137.398C15.2156 137.319 15.2778 137.226 15.3203 137.123C15.3627 137.021 15.3845 136.911 15.3845 136.8V133.287H18.6097C18.516 133.049 18.4802 132.793 18.5051 132.539C18.53 132.285 18.615 132.041 18.7531 131.827L21.1466 127.546Z" fill="#D1E3B3"/>
<path d="M40.4911 132.351L37.3695 126.77C37.3578 126.749 37.3516 126.726 37.3517 126.703C37.3517 126.679 37.358 126.656 37.3699 126.636C37.3818 126.615 37.3989 126.598 37.4193 126.587C37.4398 126.575 37.463 126.569 37.4866 126.57H38.6766C38.7833 126.566 38.8869 126.533 38.9765 126.475C39.0661 126.417 39.1384 126.336 39.1857 126.24C39.2329 126.145 39.2535 126.038 39.2451 125.932C39.2367 125.825 39.1997 125.723 39.138 125.636L35.086 120.069C35.0713 120.049 35.0624 120.026 35.0603 120.001C35.0583 119.976 35.0631 119.951 35.0743 119.929C35.0855 119.907 35.1027 119.889 35.1238 119.876C35.145 119.863 35.1693 119.856 35.194 119.856H36.0824C36.1893 119.853 36.2932 119.82 36.383 119.762C36.4728 119.704 36.5453 119.623 36.5926 119.527C36.6398 119.431 36.6603 119.324 36.6516 119.217C36.643 119.111 36.6056 119.008 36.5435 118.921L32.7462 113.348C32.7324 113.327 32.7243 113.304 32.7229 113.28C32.7215 113.255 32.7267 113.231 32.7381 113.209C32.7496 113.188 32.7667 113.17 32.7876 113.157C32.8085 113.145 32.8325 113.138 32.8569 113.139H33.6256C33.7086 113.137 33.7895 113.113 33.8587 113.067C33.928 113.021 33.9826 112.957 34.0162 112.881C34.0498 112.805 34.0609 112.721 34.0482 112.639C34.0355 112.557 33.9996 112.48 33.9446 112.418L30.493 107.736C30.4417 107.667 30.3747 107.61 30.2975 107.571C30.2204 107.532 30.1351 107.512 30.0487 107.512C29.9622 107.512 29.877 107.532 29.7998 107.571C29.7226 107.61 29.6556 107.667 29.6043 107.736L26.1527 112.418C26.0978 112.48 26.0618 112.557 26.0491 112.639C26.0364 112.721 26.0475 112.805 26.0811 112.881C26.1147 112.957 26.1694 113.021 26.2386 113.067C26.3079 113.113 26.3888 113.137 26.4717 113.139H27.2405C27.2648 113.138 27.2888 113.145 27.3097 113.157C27.3307 113.17 27.3478 113.188 27.3592 113.209C27.3706 113.231 27.3759 113.255 27.3745 113.28C27.373 113.304 27.365 113.327 27.3511 113.348L23.5538 118.919C23.4914 119.006 23.4537 119.109 23.4449 119.216C23.436 119.322 23.4564 119.43 23.5037 119.526C23.551 119.622 23.6236 119.703 23.7136 119.761C23.8037 119.82 23.9078 119.852 24.0149 119.856H24.9033C24.928 119.856 24.9524 119.862 24.9735 119.875C24.9947 119.888 25.0118 119.907 25.023 119.929C25.0342 119.951 25.0391 119.976 25.037 120C25.0349 120.025 25.026 120.048 25.0113 120.068L20.9593 125.635C20.8976 125.723 20.8606 125.825 20.8522 125.931C20.8439 126.037 20.8644 126.144 20.9117 126.24C20.959 126.335 21.0312 126.417 21.1208 126.474C21.2104 126.532 21.3141 126.565 21.4207 126.569H22.6108C22.6343 126.569 22.6575 126.575 22.678 126.586C22.6985 126.598 22.7155 126.615 22.7274 126.635C22.7393 126.655 22.7456 126.678 22.7457 126.702C22.7457 126.725 22.7396 126.749 22.7278 126.769L19.6062 132.351C19.5445 132.438 19.5075 132.541 19.4991 132.647C19.4908 132.753 19.5113 132.86 19.5586 132.956C19.6059 133.051 19.6781 133.132 19.7677 133.19C19.8573 133.248 19.961 133.281 20.0676 133.285H28.2225V136.93C28.2225 137.12 28.2977 137.301 28.4315 137.435C28.5653 137.569 28.7467 137.644 28.9359 137.644H31.1614C31.3506 137.644 31.5321 137.569 31.6659 137.435C31.7996 137.301 31.8748 137.12 31.8748 136.93V133.286H40.0297C40.1367 133.283 40.2406 133.25 40.3304 133.192C40.4203 133.134 40.4928 133.053 40.5401 132.957C40.5874 132.861 40.6079 132.754 40.5992 132.647C40.5906 132.541 40.5532 132.438 40.4911 132.351Z" fill="#D1E3B3"/>
</g>
<path d="M65.7482 128.546C65.5111 128.503 65.2871 128.406 65.0935 128.263C64.8999 128.12 64.7418 127.934 64.6314 127.72C64.495 127.457 64.434 127.161 64.4552 126.866C64.4764 126.571 64.5789 126.287 64.7514 126.046L67.6583 122.056L64.1347 117.212C64.1158 117.186 64.1045 117.156 64.1019 117.124C64.0993 117.092 64.1057 117.061 64.1202 117.032C64.1348 117.004 64.1569 116.98 64.1842 116.964C64.2115 116.947 64.2428 116.938 64.2747 116.939H65.4215C65.5594 116.934 65.6936 116.892 65.8095 116.817C65.9255 116.742 66.0189 116.637 66.0798 116.513C66.1407 116.389 66.1669 116.251 66.1554 116.114C66.144 115.976 66.0954 115.844 66.0148 115.732L61.1111 108.535C61.0936 108.509 61.0835 108.478 61.0819 108.447C61.0803 108.416 61.0872 108.385 61.1019 108.357C61.1166 108.329 61.1386 108.306 61.1655 108.29C61.1923 108.273 61.2231 108.265 61.2545 108.265H62.2479C62.3547 108.263 62.4588 108.23 62.5478 108.171C62.6368 108.112 62.707 108.029 62.7501 107.931C62.7932 107.833 62.8074 107.725 62.7911 107.619C62.7748 107.514 62.7285 107.415 62.6579 107.335L58.2009 101.288C58.1343 101.198 58.0478 101.126 57.9483 101.076C57.8487 101.026 57.7389 101 57.6275 101C57.5162 101 57.4064 101.026 57.3068 101.076C57.2073 101.126 57.1208 101.198 57.0542 101.288L52.5972 107.335C52.5268 107.415 52.4809 107.514 52.4647 107.619C52.4485 107.725 52.4628 107.833 52.5059 107.93C52.5489 108.028 52.619 108.111 52.7078 108.171C52.7966 108.23 52.9005 108.263 53.0072 108.265H54.0006C54.032 108.265 54.0628 108.273 54.0896 108.29C54.1165 108.306 54.1385 108.329 54.1532 108.357C54.1679 108.385 54.1748 108.416 54.1732 108.447C54.1716 108.478 54.1615 108.509 54.144 108.535L49.2403 115.732C49.1597 115.844 49.1112 115.977 49.0999 116.114C49.0887 116.252 49.1151 116.39 49.1764 116.514C49.2377 116.638 49.3316 116.743 49.4479 116.818C49.5643 116.893 49.6987 116.935 49.837 116.939H50.9837C51.0154 116.939 51.0463 116.948 51.0732 116.965C51.1001 116.981 51.122 117.005 51.1364 117.033C51.1509 117.061 51.1573 117.093 51.1551 117.124C51.1528 117.156 51.142 117.186 51.1237 117.212L45.89 124.406C45.8095 124.518 45.7609 124.65 45.7494 124.788C45.738 124.925 45.7641 125.063 45.825 125.187C45.886 125.311 45.9794 125.416 46.0953 125.491C46.2113 125.566 46.3454 125.608 46.4834 125.613H48.0235C48.0534 125.613 48.0828 125.621 48.1086 125.636C48.1345 125.651 48.1561 125.673 48.1712 125.699C48.1863 125.724 48.1944 125.754 48.1948 125.784C48.1953 125.814 48.1879 125.843 48.1735 125.869L44.1432 133.08C44.0627 133.192 44.0141 133.324 44.0026 133.462C43.9912 133.599 44.0173 133.737 44.0782 133.861C44.1392 133.985 44.2326 134.09 44.3485 134.165C44.4645 134.24 44.5986 134.282 44.7366 134.287H55.2707V137.8C55.2707 137.911 55.2925 138.021 55.3349 138.123C55.3774 138.226 55.4396 138.319 55.5181 138.398C55.5966 138.476 55.6897 138.539 55.7923 138.581C55.8948 138.623 56.0048 138.645 56.1158 138.645H59.141C59.252 138.645 59.3619 138.623 59.4645 138.581C59.567 138.539 59.6602 138.476 59.7387 138.398C59.8171 138.319 59.8794 138.226 59.9218 138.123C59.9643 138.021 59.9861 137.911 59.9861 137.8V134.287H63.2113C63.1176 134.049 63.0817 133.793 63.1067 133.539C63.1316 133.285 63.2166 133.041 63.3546 132.827L65.7482 128.546Z" fill="#D1E3B3"/>
<path d="M85.0927 133.351L81.9711 127.77C81.9593 127.749 81.9532 127.726 81.9532 127.703C81.9533 127.679 81.9596 127.656 81.9715 127.636C81.9834 127.615 82.0004 127.598 82.0209 127.587C82.0414 127.575 82.0646 127.569 82.0881 127.57H83.2782C83.3848 127.566 83.4884 127.533 83.5781 127.475C83.6677 127.417 83.7399 127.336 83.7872 127.24C83.8345 127.145 83.855 127.038 83.8466 126.932C83.8383 126.825 83.8013 126.723 83.7396 126.636L79.6876 121.069C79.6729 121.049 79.664 121.026 79.6619 121.001C79.6598 120.976 79.6647 120.951 79.6759 120.929C79.6871 120.907 79.7042 120.889 79.7254 120.876C79.7465 120.863 79.7708 120.856 79.7956 120.856H80.684C80.7909 120.853 80.8948 120.82 80.9846 120.762C81.0744 120.704 81.1468 120.623 81.1941 120.527C81.2414 120.431 81.2618 120.324 81.2532 120.217C81.2445 120.111 81.2072 120.008 81.145 119.921L77.3478 114.348C77.3339 114.327 77.3259 114.304 77.3244 114.28C77.323 114.255 77.3283 114.231 77.3397 114.209C77.3511 114.188 77.3682 114.17 77.3892 114.157C77.4101 114.145 77.4341 114.138 77.4584 114.139H78.2272C78.3101 114.137 78.391 114.113 78.4603 114.067C78.5295 114.021 78.5842 113.957 78.6178 113.881C78.6514 113.805 78.6625 113.721 78.6498 113.639C78.6371 113.557 78.6011 113.48 78.5462 113.418L75.0946 108.736C75.0432 108.667 74.9763 108.61 74.8991 108.571C74.8219 108.532 74.7367 108.512 74.6502 108.512C74.5638 108.512 74.4785 108.532 74.4014 108.571C74.3242 108.61 74.2572 108.667 74.2059 108.736L70.7543 113.418C70.6993 113.48 70.6634 113.557 70.6507 113.639C70.638 113.721 70.6491 113.805 70.6827 113.881C70.7163 113.957 70.7709 114.021 70.8402 114.067C70.9094 114.113 70.9903 114.137 71.0733 114.139H71.842C71.8664 114.138 71.8904 114.145 71.9113 114.157C71.9322 114.17 71.9493 114.188 71.9607 114.209C71.9722 114.231 71.9774 114.255 71.976 114.28C71.9746 114.304 71.9665 114.327 71.9527 114.348L68.1554 119.919C68.0929 120.006 68.0553 120.109 68.0464 120.216C68.0376 120.322 68.0579 120.43 68.1053 120.526C68.1526 120.622 68.2252 120.703 68.3152 120.761C68.4052 120.82 68.5093 120.852 68.6164 120.856H69.5048C69.5296 120.856 69.5539 120.862 69.5751 120.875C69.5962 120.888 69.6134 120.907 69.6246 120.929C69.6358 120.951 69.6406 120.976 69.6386 121C69.6365 121.025 69.6276 121.048 69.6129 121.068L65.5609 126.635C65.4992 126.723 65.4622 126.825 65.4538 126.931C65.4454 127.037 65.466 127.144 65.5132 127.24C65.5605 127.335 65.6328 127.417 65.7224 127.474C65.812 127.532 65.9156 127.565 66.0223 127.569H67.2123C67.2359 127.569 67.2591 127.575 67.2795 127.586C67.3 127.598 67.3171 127.615 67.329 127.635C67.3409 127.655 67.3472 127.678 67.3472 127.702C67.3473 127.725 67.3411 127.749 67.3293 127.769L64.2078 133.351C64.1461 133.438 64.1091 133.541 64.1007 133.647C64.0923 133.753 64.1129 133.86 64.1601 133.956C64.2074 134.051 64.2797 134.132 64.3693 134.19C64.4589 134.248 64.5625 134.281 64.6692 134.285H72.8241V137.93C72.8241 138.12 72.8993 138.301 73.033 138.435C73.1668 138.569 73.3483 138.644 73.5375 138.644H75.763C75.9522 138.644 76.1336 138.569 76.2674 138.435C76.4012 138.301 76.4764 138.12 76.4764 137.93V134.286H84.6313C84.7382 134.283 84.8421 134.25 84.932 134.192C85.0219 134.134 85.0943 134.053 85.1417 133.957C85.189 133.861 85.2094 133.754 85.2008 133.647C85.1922 133.541 85.1548 133.438 85.0927 133.351Z" fill="#D1E3B3"/>
<path d="M332.147 128.546C331.91 128.503 331.686 128.406 331.492 128.263C331.298 128.12 331.14 127.934 331.03 127.72C330.893 127.457 330.832 127.161 330.854 126.866C330.875 126.571 330.977 126.287 331.15 126.046L334.057 122.056L330.533 117.212C330.514 117.186 330.503 117.156 330.5 117.124C330.498 117.092 330.504 117.061 330.519 117.032C330.533 117.004 330.555 116.98 330.583 116.964C330.61 116.947 330.641 116.938 330.673 116.939H331.82C331.958 116.934 332.092 116.892 332.208 116.817C332.324 116.742 332.417 116.637 332.478 116.513C332.539 116.389 332.565 116.251 332.554 116.114C332.542 115.976 332.494 115.844 332.413 115.732L327.51 108.535C327.492 108.509 327.482 108.478 327.48 108.447C327.479 108.416 327.486 108.385 327.5 108.357C327.515 108.329 327.537 108.306 327.564 108.29C327.591 108.273 327.622 108.265 327.653 108.265H328.646C328.753 108.263 328.857 108.23 328.946 108.171C329.035 108.112 329.105 108.029 329.149 107.931C329.192 107.833 329.206 107.725 329.19 107.619C329.173 107.514 329.127 107.415 329.056 107.335L324.599 101.288C324.533 101.198 324.446 101.126 324.347 101.076C324.247 101.026 324.137 101 324.026 101C323.915 101 323.805 101.026 323.705 101.076C323.606 101.126 323.519 101.198 323.453 101.288L318.996 107.335C318.925 107.415 318.879 107.514 318.863 107.619C318.847 107.725 318.861 107.833 318.904 107.93C318.947 108.028 319.017 108.111 319.106 108.171C319.195 108.23 319.299 108.263 319.406 108.265H320.399C320.43 108.265 320.461 108.273 320.488 108.29C320.515 108.306 320.537 108.329 320.552 108.357C320.566 108.385 320.573 108.416 320.572 108.447C320.57 108.478 320.56 108.509 320.542 108.535L315.639 115.732C315.558 115.844 315.51 115.977 315.498 116.114C315.487 116.252 315.514 116.39 315.575 116.514C315.636 116.638 315.73 116.743 315.846 116.818C315.963 116.893 316.097 116.935 316.235 116.939H317.382C317.414 116.939 317.445 116.948 317.472 116.965C317.499 116.981 317.52 117.005 317.535 117.033C317.549 117.061 317.556 117.093 317.553 117.124C317.551 117.156 317.54 117.186 317.522 117.212L312.288 124.406C312.208 124.518 312.159 124.65 312.148 124.788C312.136 124.925 312.163 125.063 312.223 125.187C312.284 125.311 312.378 125.416 312.494 125.491C312.61 125.566 312.744 125.608 312.882 125.613H314.422C314.452 125.613 314.481 125.621 314.507 125.636C314.533 125.651 314.555 125.673 314.57 125.699C314.585 125.724 314.593 125.754 314.593 125.784C314.594 125.814 314.586 125.843 314.572 125.869L310.542 133.08C310.461 133.192 310.413 133.324 310.401 133.462C310.39 133.599 310.416 133.737 310.477 133.861C310.538 133.985 310.631 134.09 310.747 134.165C310.863 134.24 310.997 134.282 311.135 134.287H321.669V137.8C321.669 137.911 321.691 138.021 321.733 138.123C321.776 138.226 321.838 138.319 321.917 138.398C321.995 138.476 322.088 138.539 322.191 138.581C322.293 138.623 322.403 138.645 322.514 138.645H325.539C325.65 138.645 325.76 138.623 325.863 138.581C325.965 138.539 326.059 138.476 326.137 138.398C326.216 138.319 326.278 138.226 326.32 138.123C326.363 138.021 326.385 137.911 326.384 137.8V134.287H329.61C329.516 134.049 329.48 133.793 329.505 133.539C329.53 133.285 329.615 133.041 329.753 132.827L332.147 128.546Z" fill="#D1E3B3"/>
<path d="M351.491 133.351L348.37 127.77C348.358 127.749 348.352 127.726 348.352 127.703C348.352 127.679 348.358 127.656 348.37 127.636C348.382 127.615 348.399 127.598 348.419 127.587C348.44 127.575 348.463 127.569 348.487 127.57H349.677C349.783 127.566 349.887 127.533 349.976 127.475C350.066 127.417 350.138 127.336 350.186 127.24C350.233 127.145 350.253 127.038 350.245 126.932C350.237 126.825 350.2 126.723 350.138 126.636L346.086 121.069C346.071 121.049 346.062 121.026 346.06 121.001C346.058 120.976 346.063 120.951 346.074 120.929C346.086 120.907 346.103 120.889 346.124 120.876C346.145 120.863 346.169 120.856 346.194 120.856H347.082C347.189 120.853 347.293 120.82 347.383 120.762C347.473 120.704 347.545 120.623 347.593 120.527C347.64 120.431 347.66 120.324 347.652 120.217C347.643 120.111 347.606 120.008 347.543 119.921L343.746 114.348C343.732 114.327 343.724 114.304 343.723 114.28C343.721 114.255 343.727 114.231 343.738 114.209C343.75 114.188 343.767 114.17 343.788 114.157C343.809 114.145 343.832 114.138 343.857 114.139H344.626C344.709 114.137 344.789 114.113 344.859 114.067C344.928 114.021 344.983 113.957 345.016 113.881C345.05 113.805 345.061 113.721 345.048 113.639C345.036 113.557 345 113.48 344.945 113.418L341.493 108.736C341.442 108.667 341.375 108.61 341.298 108.571C341.22 108.532 341.135 108.512 341.049 108.512C340.962 108.512 340.877 108.532 340.8 108.571C340.723 108.61 340.656 108.667 340.604 108.736L337.153 113.418C337.098 113.48 337.062 113.557 337.049 113.639C337.036 113.721 337.048 113.805 337.081 113.881C337.115 113.957 337.169 114.021 337.239 114.067C337.308 114.113 337.389 114.137 337.472 114.139H338.24C338.265 114.138 338.289 114.145 338.31 114.157C338.331 114.17 338.348 114.188 338.359 114.209C338.371 114.231 338.376 114.255 338.374 114.28C338.373 114.304 338.365 114.327 338.351 114.348L334.554 119.919C334.491 120.006 334.454 120.109 334.445 120.216C334.436 120.322 334.456 120.43 334.504 120.526C334.551 120.622 334.624 120.703 334.714 120.761C334.804 120.82 334.908 120.852 335.015 120.856H335.903C335.928 120.856 335.952 120.862 335.974 120.875C335.995 120.888 336.012 120.907 336.023 120.929C336.034 120.951 336.039 120.976 336.037 121C336.035 121.025 336.026 121.048 336.011 121.068L331.959 126.635C331.898 126.723 331.861 126.825 331.852 126.931C331.844 127.037 331.864 127.144 331.912 127.24C331.959 127.335 332.031 127.417 332.121 127.474C332.21 127.532 332.314 127.565 332.421 127.569H333.611C333.634 127.569 333.658 127.575 333.678 127.586C333.698 127.598 333.716 127.615 333.727 127.635C333.739 127.655 333.746 127.678 333.746 127.702C333.746 127.725 333.74 127.749 333.728 127.769L330.606 133.351C330.545 133.438 330.508 133.541 330.499 133.647C330.491 133.753 330.511 133.86 330.559 133.956C330.606 134.051 330.678 134.132 330.768 134.19C330.857 134.248 330.961 134.281 331.068 134.285H339.223V137.93C339.223 138.12 339.298 138.301 339.431 138.435C339.565 138.569 339.747 138.644 339.936 138.644H342.161C342.351 138.644 342.532 138.569 342.666 138.435C342.8 138.301 342.875 138.12 342.875 137.93V134.286H351.03C351.137 134.283 351.241 134.25 351.33 134.192C351.42 134.134 351.493 134.053 351.54 133.957C351.587 133.861 351.608 133.754 351.599 133.647C351.591 133.541 351.553 133.438 351.491 133.351Z" fill="#D1E3B3"/>
<rect x="140" y="74" width="56" height="56" rx="28" fill="#EDF3E2"/>
<path d="M179.244 91.9991C177.634 88.2951 173.352 86.0003 168.059 86.0003C168.04 86.0003 168.021 85.9997 168 86.0003C167.981 85.9997 167.961 86.0003 167.941 86.0003C162.649 86.0003 158.365 88.2957 156.756 91.9991C154.605 96.9479 157.287 103.805 164.305 111.317C164.338 111.434 164.393 111.544 164.466 111.641L165.592 114.267H165.334C165.192 114.267 165.057 114.323 164.957 114.423C164.857 114.523 164.801 114.659 164.801 114.8C164.801 114.941 164.857 115.077 164.957 115.177C165.057 115.277 165.192 115.333 165.334 115.333V117.467C165.334 117.608 165.39 117.744 165.49 117.844C165.59 117.944 165.726 118 165.867 118H170.134C170.275 118 170.411 117.944 170.511 117.844C170.611 117.744 170.667 117.608 170.667 117.467V115.333C170.809 115.333 170.944 115.277 171.044 115.177C171.144 115.077 171.2 114.941 171.2 114.8C171.2 114.659 171.144 114.523 171.044 114.423C170.944 114.323 170.809 114.267 170.667 114.267H170.41L171.535 111.641C171.608 111.544 171.663 111.434 171.696 111.317C178.713 103.805 181.395 96.9479 179.244 91.9991ZM169.248 114.267H166.751L165.97 112.443C166.579 112.594 167.29 112.667 168 112.667C168.709 112.667 169.42 112.594 170.029 112.443L169.248 114.267Z" fill="#9EBA72"/>
<path fill-rule="evenodd" clip-rule="evenodd" d="M168.576 93.4229C168.23 93.1813 167.771 93.1813 167.426 93.4229L164.585 95.4113C164.261 95.638 164.1 96.0339 164.175 96.4222L164.884 100.106C164.975 100.578 165.388 100.919 165.868 100.919H166.633L166.633 98.8228C166.633 98.4706 166.919 98.185 167.271 98.185H168.729C169.081 98.185 169.367 98.4705 169.367 98.8229L169.367 100.919H170.133C170.613 100.919 171.026 100.578 171.117 100.106L171.826 96.4221C171.9 96.0339 171.74 95.638 171.416 95.4113L168.576 93.4229ZM168.82 100.919L168.82 98.823C168.82 98.7727 168.779 98.7319 168.729 98.7319H167.271C167.221 98.7319 167.18 98.7726 167.18 98.823L167.18 100.919H168.82Z" fill="#E8EFD9"/>
</g>
<defs>
<clipPath id="clip0_999_8878">
<rect width="441" height="140" fill="white"/>
</clipPath>
<clipPath id="clip1_999_8878">
<rect width="40" height="40" fill="white" transform="translate(0 100)"/>
</clipPath>
</defs>
</svg>
