<svg width="18" height="18" viewBox="0 0 18 18" fill="none" xmlns="http://www.w3.org/2000/svg">
<path fill-rule="evenodd" clip-rule="evenodd" d="M14.6869 11.7423C14.6294 12.6822 14.5837 13.4281 14.4902 14.0238C14.3941 14.6348 14.2406 15.1436 13.9333 15.5887C13.6522 15.9959 13.2903 16.3395 12.8706 16.5977C12.4118 16.88 11.8996 17.0035 11.2898 17.0625L6.69554 17.0624C6.08512 17.0033 5.57229 16.8796 5.1132 16.5968C4.69322 16.3381 4.33121 15.9938 4.05021 15.586C3.74305 15.1402 3.58992 14.6306 3.49468 14.0188C3.40181 13.4221 3.35717 12.6752 3.30091 11.734L2.8125 3.5625H15.1875L14.6869 11.7423ZM7.125 13.4707C6.81434 13.4707 6.5625 13.2189 6.5625 12.9082V8.40818C6.5625 8.09753 6.81434 7.84568 7.125 7.84568C7.43566 7.84568 7.6875 8.09753 7.6875 8.40818V12.9082C7.6875 13.2189 7.43566 13.4707 7.125 13.4707ZM11.4375 8.40818C11.4375 8.09753 11.1856 7.84568 10.875 7.84568C10.5644 7.84568 10.3125 8.09753 10.3125 8.40818V12.9082C10.3125 13.2189 10.5644 13.4707 10.875 13.4707C11.1856 13.4707 11.4375 13.2189 11.4375 12.9082V8.40818Z" fill="#777980"/>
<path fill-rule="evenodd" clip-rule="evenodd" d="M10.0105 0.962076C10.4343 0.999981 10.8326 1.12932 11.1747 1.38443C11.4277 1.57311 11.6034 1.80406 11.7535 2.0542C11.8927 2.28598 12.0328 2.57497 12.1916 2.9028L12.5117 3.56302H15.75C16.1642 3.56302 16.5 3.89881 16.5 4.31302C16.5 4.72724 16.1642 5.06302 15.75 5.06302C11.2499 5.06302 6.75014 5.06302 2.25 5.06302C1.83579 5.06302 1.5 4.72724 1.5 4.31302C1.5 3.89881 1.83579 3.56302 2.25 3.56302H5.55732L5.82417 2.97762C5.97909 2.63772 6.11552 2.33836 6.25257 2.09815C6.4004 1.83905 6.57541 1.59928 6.83146 1.40284C7.17774 1.13719 7.58408 1.00252 8.01743 0.963066C8.34368 0.933366 8.67255 0.937453 9 0.937978C9.3831 0.938593 9.7275 0.936763 10.0105 0.962076ZM7.20582 3.56302H10.8448C10.6747 3.21248 10.566 2.9903 10.4675 2.82615C10.3232 2.5859 10.1504 2.48059 9.87683 2.45611C9.68235 2.43872 9.42893 2.43802 9.02588 2.43802C8.61277 2.43802 8.35275 2.43874 8.1534 2.45689C7.87282 2.48243 7.69793 2.59176 7.55543 2.84149C7.46206 3.00515 7.3604 3.22423 7.20582 3.56302Z" fill="#777980"/>
</svg>
