<svg width="25" height="24" viewBox="0 0 25 24" fill="none" xmlns="http://www.w3.org/2000/svg">
<path opacity="0.4" d="M17.5 2H7.5C5.84315 2 4.5 3.34315 4.5 5V19H20.5V5C20.5 3.34315 19.1569 2 17.5 2Z" fill="#6A42C2"/>
<path fill-rule="evenodd" clip-rule="evenodd" d="M7.75 7C7.75 6.58579 8.08579 6.25 8.5 6.25H16.5C16.9142 6.25 17.25 6.58579 17.25 7C17.25 7.41421 16.9142 7.75 16.5 7.75H8.5C8.08579 7.75 7.75 7.41421 7.75 7Z" fill="#6A42C2"/>
<path fill-rule="evenodd" clip-rule="evenodd" d="M7.75 11C7.75 10.5858 8.08579 10.25 8.5 10.25H12.5C12.9142 10.25 13.25 10.5858 13.25 11C13.25 11.4142 12.9142 11.75 12.5 11.75H8.5C8.08579 11.75 7.75 11.4142 7.75 11Z" fill="#6A42C2"/>
<path d="M20.5 16H7.5C5.84315 16 4.5 17.3431 4.5 19C4.5 20.6569 5.84315 22 7.5 22H17.5C19.1569 22 20.5 20.6569 20.5 19V16Z" fill="#6A42C2"/>
</svg>
