<svg width="18" height="18" viewBox="0 0 18 18" fill="none" xmlns="http://www.w3.org/2000/svg">
<ellipse cx="9" cy="12.375" rx="4.5" ry="1.875" stroke="#5C59F3" stroke-width="1.5" stroke-linejoin="round"/>
<circle cx="9" cy="6" r="2.25" stroke="#5C59F3" stroke-width="1.5" stroke-linejoin="round"/>
<path d="M5.22852 9.75098C4.24429 10.199 3.51676 10.818 3.19043 11.5283C3.07889 11.5625 2.9737 11.597 2.87695 11.6357C2.59006 11.7505 2.40752 11.8684 2.30957 11.9609C2.29473 11.975 2.28549 11.9896 2.27637 12C2.28551 12.0103 2.29473 12.025 2.30957 12.0391C2.40748 12.1317 2.58999 12.2495 2.87695 12.3643C2.91685 12.3802 2.95849 12.3949 3.00098 12.4102C3.01253 13.0513 3.34155 13.6492 3.9043 14.1572C3.31562 14.0746 2.77551 13.9393 2.31934 13.7568C1.92795 13.6002 1.56076 13.3951 1.2793 13.1289C0.996161 12.8611 0.75 12.4797 0.75 12C0.750083 11.5203 0.996157 11.1389 1.2793 10.8711C1.56077 10.605 1.92798 10.3998 2.31934 10.2432C3.10159 9.93028 4.1301 9.75327 5.22852 9.75098Z" fill="#5C59F3"/>
<path d="M12.7715 9.75098C13.8699 9.75325 14.8984 9.9303 15.6807 10.2432C16.072 10.3997 16.4392 10.605 16.7207 10.8711C17.0038 11.1389 17.2499 11.5203 17.25 12C17.25 12.4798 17.0039 12.8611 16.7207 13.1289C16.4392 13.3951 16.0721 13.6002 15.6807 13.7568C15.2245 13.9393 14.6844 14.0746 14.0957 14.1572C14.6585 13.6492 14.9875 13.0513 14.999 12.4102C15.0415 12.3949 15.0831 12.3802 15.123 12.3643C15.4101 12.2495 15.5925 12.1317 15.6904 12.0391C15.7051 12.0252 15.7136 12.0103 15.7227 12C15.7136 11.9897 15.705 11.9747 15.6904 11.9609C15.5925 11.8684 15.4099 11.7505 15.123 11.6357C15.0263 11.597 14.9211 11.5625 14.8096 11.5283C14.4832 10.818 13.7557 10.199 12.7715 9.75098Z" fill="#5C59F3"/>
<path d="M12.7498 4.5C13.9924 4.5 14.9998 5.50736 14.9998 6.75C14.9998 7.99264 13.9924 9 12.7498 9C12.3344 8.99994 11.9469 8.88476 11.613 8.68848C11.9743 8.3373 12.2657 7.91463 12.4626 7.44238C12.5511 7.47916 12.648 7.49996 12.7498 7.5C13.164 7.5 13.4998 7.16421 13.4998 6.75C13.4998 6.36173 13.205 6.04239 12.8269 6.00391L12.7498 6L12.7449 5.80664C12.7218 5.35293 12.6183 4.92054 12.448 4.52344C12.5468 4.51016 12.6473 4.50001 12.7498 4.5Z" fill="#5C59F3"/>
<path d="M5.25 4.5C5.35248 4.5 5.45291 4.51017 5.55176 4.52344C5.35747 4.97657 5.25 5.47574 5.25 6C4.83579 6 4.5 6.33579 4.5 6.75C4.5 7.16421 4.83579 7.5 5.25 7.5C5.3518 7.5 5.44861 7.47912 5.53711 7.44238C5.73412 7.91482 6.02625 8.33721 6.3877 8.68848C6.05359 8.88499 5.66564 9 5.25 9C4.00736 9 3 7.99264 3 6.75C3 5.50736 4.00736 4.5 5.25 4.5Z" fill="#5C59F3"/>
</svg>
