<svg width="24" height="24" viewBox="0 0 24 24" fill="none" xmlns="http://www.w3.org/2000/svg">
<g id="Group">
<rect id="Rectangle" width="24" height="24" rx="12" fill="url(#paint0_linear_148_15073)"/>
<g id="Vector">
<path d="M8.67103 17H15.6358C15.8593 17 16.0763 16.9299 16.2525 16.8008C16.4286 16.6718 16.5537 16.4911 16.6079 16.2877L17.6961 12.2027C17.711 12.1468 17.7102 12.0883 17.6938 12.0328C17.6774 11.9773 17.646 11.9267 17.6026 11.886C17.5592 11.8452 17.5053 11.8158 17.4462 11.8004C17.387 11.785 17.3247 11.7843 17.2651 11.7982L16.6601 11.9402C16.1637 12.0567 15.6422 12.0369 15.1574 11.8834C14.6727 11.7298 14.2451 11.4488 13.9254 11.0739L12.7085 9.64624C12.6419 9.56812 12.5574 9.50506 12.4613 9.46172C12.3652 9.41838 12.26 9.39588 12.1534 9.39588C12.0468 9.39588 11.9416 9.41838 11.8455 9.46172C11.7494 9.50506 11.665 9.56812 11.5984 9.64624L10.3814 11.0739C10.0618 11.4488 9.63418 11.7298 9.14942 11.8834C8.66466 12.0369 8.14312 12.0566 7.64677 11.9402L7.04172 11.7982C6.98218 11.7843 6.9198 11.785 6.86066 11.8004C6.80151 11.8158 6.74762 11.8452 6.70422 11.886C6.66083 11.9267 6.62941 11.9773 6.61302 12.0328C6.59664 12.0883 6.59585 12.1468 6.61074 12.2027L7.69891 16.2877C7.75311 16.4911 7.87823 16.6718 8.05437 16.8008C8.23051 16.9299 8.44756 17 8.67103 17Z" fill="#F8F9FB"/>
<path d="M6.59981 11.0851C7.09719 11.0851 7.50039 10.7067 7.50039 10.2399C7.50039 9.77312 7.09719 9.39472 6.59981 9.39472C6.10243 9.39472 5.69922 9.77312 5.69922 10.2399C5.69922 10.7067 6.10243 11.0851 6.59981 11.0851Z" fill="#F8F9FB"/>
<path d="M17.707 11.0851C18.2044 11.0851 18.6076 10.7067 18.6076 10.2399C18.6076 9.77312 18.2044 9.39472 17.707 9.39472C17.2097 9.39472 16.8065 9.77312 16.8065 10.2399C16.8065 10.7067 17.2097 11.0851 17.707 11.0851Z" fill="#F8F9FB"/>
<path d="M12.1534 8.69039C12.6508 8.69039 13.054 8.31198 13.054 7.84519C13.054 7.37841 12.6508 7 12.1534 7C11.656 7 11.2528 7.37841 11.2528 7.84519C11.2528 8.31198 11.656 8.69039 12.1534 8.69039Z" fill="#F8F9FB"/>
</g>
</g>
<defs>
<linearGradient id="paint0_linear_148_15073" x1="12" y1="0" x2="12" y2="24" gradientUnits="userSpaceOnUse">
<stop stop-color="#FF5200"/>
<stop offset="1" stop-color="#FF864D"/>
</linearGradient>
</defs>
</svg>
