<svg width="30" height="30" viewBox="0 0 30 30" fill="none" xmlns="http://www.w3.org/2000/svg">
<path d="M1.44343 0.439671C0.903562 0.570374 0.386429 1.00227 0.153435 1.51372L0.0284139 1.78081L0.0113656 15.0103L0 28.2341L0.119338 28.4728C0.312553 28.8536 0.460305 29.024 0.772858 29.2343C1.36955 29.6264 0.306869 29.6037 15.1503 29.5866L28.556 29.5696L28.914 29.4048C29.1526 29.2968 29.3629 29.1377 29.5504 28.9388C30.0505 28.3876 30.0051 29.7628 29.9937 14.908L29.9766 1.72398L29.8175 1.42279C29.6129 1.03068 29.3174 0.746542 28.9253 0.564692L28.6128 0.416939L15.1162 0.405575C7.69448 0.405575 1.54003 0.416939 1.44343 0.439671ZM14.6047 7.91821V14.5386H7.75699H0.909244V8.316C0.909244 1.46257 0.886513 1.92856 1.26158 1.61032C1.64232 1.2864 1.27862 1.30345 8.20025 1.29777H14.6047V7.91821ZM28.556 1.46825C28.7833 1.60464 28.9481 1.77512 29.0788 2.00244C29.1299 2.09336 29.147 3.5652 29.1526 8.32737V14.5386H22.3049H15.4572V7.91821V1.29777L21.8957 1.30914L28.3286 1.32618L28.556 1.46825ZM14.6047 22.0683V28.6888H8.17183C2.03443 28.6888 1.72188 28.6831 1.50594 28.5808C1.24453 28.4614 1.057 28.2739 0.971755 28.0466C0.926293 27.9386 0.909244 25.9326 0.909244 21.6648V15.4479H7.75699H14.6047V22.0683ZM29.1129 18.187C29.1697 22.3468 29.164 27.717 29.0958 27.9557C29.0333 28.183 28.823 28.4217 28.556 28.5637C28.4025 28.649 27.8058 28.6603 21.9242 28.6774L15.4572 28.6944V22.074V15.4479H22.2651H29.0788L29.1129 18.187Z" fill="black"/>
<path d="M14.6047 22.0683V28.6888H8.17183C2.03443 28.6888 1.72188 28.6831 1.50594 28.5808C1.24453 28.4614 1.057 28.2739 0.971755 28.0466C0.926293 27.9386 0.909244 25.9326 0.909244 21.6648V15.4479H7.75699H14.6047V22.0683Z" fill="#A9EB9E"/>
<path d="M29.1129 18.187C29.1697 22.3468 29.164 27.717 29.0958 27.9557C29.0333 28.183 28.823 28.4217 28.556 28.5637C28.4025 28.649 27.8058 28.6603 21.9242 28.6774L15.4572 28.6944V22.074V15.4479H22.2651H29.0788L29.1129 18.187Z" fill="#FFA7BC"/>
<path d="M14.6047 7.91821V14.5386H7.75699H0.909244V8.316C0.909244 1.46257 0.886513 1.92856 1.26158 1.61032C1.64232 1.2864 1.27862 1.30345 8.20025 1.29777H14.6047V7.91821Z" fill="#FF843E"/>
<path d="M28.556 1.46825C28.7833 1.60464 28.9481 1.77512 29.0788 2.00244C29.1299 2.09336 29.147 3.5652 29.1526 8.32737V14.5386H22.3049H15.4572V7.91821V1.29777L21.8957 1.30914L28.3286 1.32618L28.556 1.46825Z" fill="#FDDD6F"/>
<path d="M14.1045 14.0386V1.79736H8.2002C4.73005 1.80021 3.10822 1.7982 2.30078 1.83447C1.88594 1.85312 1.74703 1.88049 1.69629 1.89795C1.68263 1.90266 1.72623 1.87136 1.58594 1.99072L1.58496 1.9917C1.54307 2.02725 1.5139 2.0487 1.49609 2.06299C1.49203 2.07902 1.48542 2.10417 1.47949 2.14209C1.46634 2.2263 1.45426 2.35079 1.44434 2.53857C1.4242 2.91982 1.4148 3.50448 1.41113 4.42334L1.40918 8.31592V14.0386H14.1045ZM8.17188 28.189H14.1045V15.9478H1.40918V21.6646C1.40918 23.7981 1.41391 25.3647 1.42383 26.4106C1.42879 26.9341 1.43454 27.3246 1.44238 27.5894C1.44631 27.722 1.45086 27.8187 1.45508 27.8833C1.45556 27.8907 1.45561 27.8978 1.45605 27.9038C1.48313 27.9561 1.52907 28.0139 1.60547 28.0659L1.71387 28.1255L1.71973 28.1284C1.72948 28.1308 1.75811 28.1368 1.82324 28.1431C1.95678 28.1559 2.19025 28.1662 2.62695 28.1733C3.49417 28.1875 5.10125 28.189 8.17188 28.189ZM21.9229 28.1772C24.8653 28.1687 26.4808 28.1615 27.3799 28.146C27.8315 28.1382 28.0907 28.1287 28.2432 28.1167C28.2958 28.1126 28.3293 28.1078 28.3486 28.105C28.4988 28.0168 28.5833 27.8987 28.6074 27.8354C28.6078 27.8302 28.6089 27.8239 28.6094 27.8169C28.6126 27.7716 28.6159 27.7061 28.6191 27.6196C28.6255 27.4472 28.6311 27.2055 28.6357 26.9058C28.6449 26.3071 28.6499 25.4856 28.6514 24.5405C28.6528 23.5958 28.6499 22.5286 28.6436 21.438L28.6133 18.1938V18.1929L28.585 15.9478H15.957V28.1938L21.9229 28.1772ZM15.957 14.0386H28.6523V8.32764L28.6455 5.34521C28.6423 4.53714 28.6385 3.90525 28.6328 3.41943C28.6271 2.93313 28.6199 2.59727 28.6113 2.37939C28.6079 2.29255 28.603 2.22838 28.5996 2.18311C28.5433 2.09948 28.4818 2.02948 28.4043 1.96924L28.2988 1.89697L28.291 1.89209L28.1846 1.82666L21.8945 1.80908L15.957 1.79834V14.0386Z" stroke="black"/>
<path d="M4.95538 5.0487C4.4553 5.4124 4.40984 5.93521 4.84741 6.34437C5.10882 6.58873 5.56912 6.59441 5.88736 6.35574C6.34198 6.01477 6.28515 5.29874 5.78507 4.99187C5.5123 4.82707 5.23384 4.84412 4.95538 5.0487Z" fill="black"/>
<path d="M9.80279 5.01417C9.2061 5.28126 9.12654 6.16209 9.67209 6.44623C9.93918 6.58261 10.5188 6.53715 10.7064 6.36098C11.1326 5.96319 10.9905 5.24148 10.4449 5.01985C10.1835 4.91756 10.0301 4.91188 9.80279 5.01417Z" fill="black"/>
<path d="M7.07506 8.83311C6.50679 8.88993 6.01238 9.09451 5.42138 9.50936C4.81332 9.94125 4.20526 10.6914 4.20526 11.0039C4.20526 11.0664 4.25641 11.1801 4.3246 11.2653C4.41552 11.379 4.4894 11.4131 4.65988 11.4131C4.86446 11.4131 4.90424 11.3847 5.10314 11.1119C5.5123 10.5607 6.24538 10.0094 6.78524 9.85032C7.14894 9.74235 8.03545 9.74235 8.54122 9.85032C9.28566 10.0094 9.71755 10.2936 10.121 10.8903C10.4279 11.3392 10.5131 11.4131 10.7405 11.4131C11.0132 11.4131 11.1382 11.2767 11.1382 10.9698C11.1382 10.6061 11.053 10.4584 10.5813 9.99239C10.0983 9.52072 9.46751 9.15134 8.83104 8.96949C8.46166 8.86152 7.51264 8.79333 7.07506 8.83311Z" fill="black"/>
<path d="M19.4635 5.04289C19.1623 5.22474 19.0771 5.3725 19.0486 5.71915C19.0259 6.00897 19.043 6.07148 19.1737 6.22491C19.5999 6.73068 20.5262 6.55451 20.691 5.94646C20.7762 5.62822 20.6284 5.25316 20.35 5.06563C20.1056 4.90083 19.7078 4.88946 19.4635 5.04289Z" fill="black"/>
<path d="M24.4019 5.01435C23.9302 5.21893 23.8109 5.8895 24.1746 6.2873C24.3678 6.49188 24.3791 6.49756 24.7769 6.49756C25.1747 6.49756 25.1861 6.49188 25.3793 6.2873C25.5441 6.10545 25.5725 6.03157 25.5725 5.80426C25.5725 5.16211 24.9815 4.76431 24.4019 5.01435Z" fill="black"/>
<path d="M19.0941 8.78175C18.9521 8.8329 18.7532 9.03748 18.7532 9.13409C18.7532 9.67395 19.6397 10.6343 20.5432 11.0776C21.0945 11.3504 21.5491 11.447 22.3447 11.464C23.1232 11.4811 23.4869 11.4072 24.1461 11.089C24.5837 10.8787 24.7599 10.7537 25.1463 10.3729C25.5952 9.92399 25.9135 9.44664 25.9135 9.20796C25.9135 9.14545 25.8623 9.0318 25.7941 8.94655C25.7032 8.8329 25.6293 8.7988 25.4645 8.7988C25.2315 8.7988 25.0895 8.91814 24.9304 9.22501C24.7258 9.63985 23.9018 10.2536 23.3335 10.4184C22.9755 10.5264 21.7878 10.532 21.3957 10.4241C20.7535 10.2536 20.1682 9.82738 19.7931 9.24774C19.5147 8.81017 19.3385 8.69083 19.0941 8.78175Z" fill="black"/>
<path d="M9.8596 19.0791C9.67207 19.1644 9.38793 19.4997 9.33111 19.7099C9.24587 20.0452 9.42771 20.4146 9.76868 20.5908C10.0017 20.7101 10.479 20.6817 10.7007 20.5339C11.1439 20.2498 11.1155 19.5224 10.6495 19.2042C10.4449 19.0621 10.0415 18.9996 9.8596 19.0791Z" fill="black"/>
<path d="M5.03494 19.1418C4.82468 19.21 4.65988 19.3577 4.56895 19.5794C4.33028 20.1363 4.73944 20.7102 5.37022 20.7045C5.91009 20.6989 6.28515 20.3238 6.23401 19.8408C6.17718 19.2725 5.643 18.9599 5.03494 19.1418Z" fill="black"/>
<path d="M7.29099 23.9038L4.72238 23.9152L4.60872 24.0629C4.44961 24.2618 4.46097 24.4436 4.62577 24.6369L4.76216 24.796L7.68879 24.813L10.6154 24.8301L10.7916 24.6766C11.0018 24.5005 11.0246 24.2845 10.8541 24.0686C10.7063 23.8867 10.6609 23.8811 7.29099 23.9038Z" fill="black"/>
<path d="M19.3953 19.1927C18.7361 19.6076 18.9237 20.4827 19.7022 20.6475C20.1114 20.7328 20.6285 20.4316 20.7024 20.0679C20.7535 19.8235 20.6342 19.4542 20.4523 19.278C20.225 19.062 19.6738 19.0166 19.3953 19.1927Z" fill="black"/>
<path d="M24.2825 19.1927C23.7767 19.511 23.8108 20.3293 24.3393 20.5793C24.7826 20.7953 25.3338 20.6418 25.5327 20.2554C25.635 20.0622 25.6407 20.0111 25.5782 19.7326C25.4872 19.3234 25.2599 19.1416 24.7939 19.1018C24.5325 19.0848 24.4302 19.1018 24.2825 19.1927Z" fill="black"/>
<path d="M18.9975 22.8013C18.7475 22.915 18.6736 23.0798 18.719 23.4265C18.81 24.2164 19.6681 25.2961 20.5318 25.6996C21.1626 25.9951 21.6173 26.0917 22.4469 26.0974C23.2539 26.103 23.5835 26.0292 24.237 25.6882C25.1178 25.2336 25.8055 24.2732 25.8452 23.4378C25.868 23.0628 25.8566 23.023 25.7145 22.8923L25.5611 22.7502L22.3731 22.7388C19.7306 22.7275 19.1509 22.7388 18.9975 22.8013Z" fill="black"/>
</svg>
