<svg width="29" height="24" viewBox="0 0 29 24" fill="none" xmlns="http://www.w3.org/2000/svg">
<g id="Vector">
<path d="M6.94624 24H22.0538C22.5385 24 23.0093 23.8317 23.3914 23.522C23.7734 23.2122 24.0448 22.7787 24.1624 22.2904L26.5228 12.4865C26.5551 12.3524 26.5534 12.2119 26.5178 12.0787C26.4823 11.9455 26.4142 11.8241 26.32 11.7263C26.2259 11.6286 26.109 11.5578 25.9807 11.5209C25.8524 11.484 25.7171 11.4822 25.5879 11.5158L24.2755 11.8565C23.1989 12.136 22.0675 12.0886 21.016 11.7201C19.9645 11.3515 19.037 10.6772 18.3437 9.77736L15.7039 6.35098C15.5595 6.16349 15.3763 6.01214 15.1679 5.90813C14.9595 5.80412 14.7312 5.75011 14.5 5.75011C14.2687 5.75011 14.0405 5.80412 13.8321 5.90813C13.6237 6.01214 13.4405 6.16349 13.296 6.35098L10.6562 9.77736C9.96293 10.6772 9.03543 11.3515 7.98393 11.72C6.93243 12.0886 5.80114 12.136 4.72448 11.8565L3.41206 11.5158C3.28292 11.4822 3.14761 11.484 3.01931 11.5209C2.89102 11.5578 2.77411 11.6286 2.67998 11.7263C2.58585 11.8241 2.5177 11.9455 2.48216 12.0787C2.44662 12.2119 2.44492 12.3524 2.4772 12.4865L4.83759 22.2904C4.95516 22.7787 5.22655 23.2122 5.60862 23.522C5.99069 23.8317 6.46151 24 6.94624 24Z" fill="#FC9502"/>
<path d="M2.45349 9.80425C3.53237 9.80425 4.40698 8.89607 4.40698 7.77578C4.40698 6.65549 3.53237 5.74732 2.45349 5.74732C1.37461 5.74732 0.5 6.65549 0.5 7.77578C0.5 8.89607 1.37461 9.80425 2.45349 9.80425Z" fill="#FC9502"/>
<path d="M26.5465 9.80425C27.6254 9.80425 28.5 8.89607 28.5 7.77578C28.5 6.65549 27.6254 5.74732 26.5465 5.74732C25.4676 5.74732 24.593 6.65549 24.593 7.77578C24.593 8.89607 25.4676 9.80425 26.5465 9.80425Z" fill="#FC9502"/>
<path d="M14.5 4.05693C15.5789 4.05693 16.4535 3.14876 16.4535 2.02847C16.4535 0.908175 15.5789 0 14.5 0C13.4211 0 12.5465 0.908175 12.5465 2.02847C12.5465 3.14876 13.4211 4.05693 14.5 4.05693Z" fill="#FC9502"/>
</g>
</svg>
