<svg width="16" height="16" viewBox="0 0 16 16" fill="none" xmlns="http://www.w3.org/2000/svg">
<g id="Frame" clip-path="url(#clip0_148_15921)">
<g id="Group">
<path id="Vector" d="M15.3864 3.07446C15.3858 2.42258 15.1266 1.79758 14.6657 1.33657C14.2048 0.875563 13.5798 0.616201 12.928 0.615387H3.07565C2.42377 0.616201 1.79883 0.875563 1.33794 1.33657C0.877044 1.79758 0.617839 2.42258 0.617188 3.07446V12.9262C0.618002 13.5779 0.877279 14.2028 1.33815 14.6637C1.79903 15.1245 2.42387 15.3838 3.07565 15.3846H12.928C13.5797 15.3838 14.2046 15.1245 14.6655 14.6637C15.1263 14.2028 15.3856 13.5779 15.3864 12.9262V3.07446ZM1.84796 3.07446C1.84796 2.39693 2.39873 1.84616 3.07565 1.84616H12.928C13.6049 1.84616 14.1556 2.39693 14.1556 3.07446V4.872H1.84796V3.07446ZM14.1556 12.9262C14.1556 13.6031 13.6049 14.1538 12.928 14.1538H3.07565C2.39873 14.1538 1.84796 13.6031 1.84796 12.9262V6.10277H14.1556V12.9262Z" fill="#8D58FA"/>
<path id="Vector_2" d="M4.19034 12.3569H8.00081C8.16402 12.3569 8.32054 12.2921 8.43595 12.1767C8.55136 12.0613 8.61619 11.9047 8.61619 11.7415C8.61619 11.5783 8.55136 11.4218 8.43595 11.3064C8.32054 11.191 8.16402 11.1262 8.00081 11.1262H4.19034C4.02713 11.1262 3.87061 11.191 3.7552 11.3064C3.63979 11.4218 3.57496 11.5783 3.57496 11.7415C3.57496 11.9047 3.63979 12.0613 3.7552 12.1767C3.87061 12.2921 4.02713 12.3569 4.19034 12.3569ZM4.19034 9.12985H11.8113C11.9745 9.12985 12.131 9.06501 12.2464 8.9496C12.3618 8.8342 12.4267 8.67767 12.4267 8.51446C12.4267 8.35125 12.3618 8.19473 12.2464 8.07932C12.131 7.96391 11.9745 7.89908 11.8113 7.89908H4.19034C4.02713 7.89908 3.87061 7.96391 3.7552 8.07932C3.63979 8.19473 3.57496 8.35125 3.57496 8.51446C3.57496 8.67767 3.63979 8.8342 3.7552 8.9496C3.87061 9.06501 4.02713 9.12985 4.19034 9.12985ZM3.17496 2.92185C2.90727 3.22031 2.96758 3.58769 3.17496 3.79569C3.40265 4.01108 3.78665 4.05169 4.04265 3.79569C4.10093 3.73883 4.14725 3.67087 4.17887 3.59584C4.21049 3.5208 4.22678 3.4402 4.22678 3.35877C4.22678 3.27734 4.21049 3.19674 4.17887 3.1217C4.14725 3.04667 4.10093 2.97871 4.04265 2.92185C3.81496 2.68431 3.40881 2.68615 3.17496 2.92185ZM6.3565 2.92185C6.09927 2.66462 5.70234 2.70831 5.48881 2.92185C5.23527 3.17292 5.26542 3.57169 5.48881 3.79569C5.60457 3.90942 5.76037 3.97314 5.92265 3.97314C6.08494 3.97314 6.24073 3.90942 6.3565 3.79569C6.63404 3.51877 6.56573 3.10831 6.3565 2.92185ZM7.80327 2.92185C7.68886 3.0385 7.62477 3.19538 7.62477 3.35877C7.62477 3.52216 7.68886 3.67904 7.80327 3.79569C8.01865 4.01108 8.41558 4.048 8.67096 3.79569C8.72924 3.73883 8.77555 3.67087 8.80717 3.59584C8.8388 3.5208 8.85509 3.4402 8.85509 3.35877C8.85509 3.27734 8.8388 3.19674 8.80717 3.1217C8.77555 3.04667 8.72924 2.97871 8.67096 2.92185C8.44327 2.69415 8.03096 2.69415 7.80327 2.92185Z" fill="#8D58FA"/>
</g>
</g>
<defs>
<clipPath id="clip0_148_15921">
<rect width="16" height="16" fill="white"/>
</clipPath>
</defs>
</svg>
