<svg width="91" height="20" viewBox="0 0 91 20" fill="none" xmlns="http://www.w3.org/2000/svg">
<rect width="91" height="20" rx="4.61956" fill="url(#paint0_linear_550_10032)"/>
<path d="M12.6704 15.7745H20.714C20.972 15.7745 21.2227 15.6935 21.4261 15.5444C21.6296 15.3954 21.7741 15.1868 21.8367 14.9518L23.0934 10.2341C23.1106 10.1696 23.1097 10.102 23.0907 10.0379C23.0718 9.97376 23.0355 9.91535 22.9854 9.86831C22.9353 9.82128 22.8731 9.78722 22.8047 9.76947C22.7364 9.75171 22.6644 9.75086 22.5956 9.76699L21.8969 9.93094C21.3236 10.0654 20.7213 10.0426 20.1615 9.8653C19.6016 9.68795 19.1078 9.36348 18.7387 8.93046L17.3332 7.28167C17.2563 7.19145 17.1587 7.11862 17.0478 7.06857C16.9368 7.01852 16.8153 6.99253 16.6922 6.99253C16.5691 6.99253 16.4475 7.01852 16.3366 7.06857C16.2256 7.11862 16.1281 7.19145 16.0512 7.28167L14.6457 8.93046C14.2765 9.36348 13.7827 9.68794 13.2229 9.86529C12.663 10.0426 12.0607 10.0654 11.4875 9.93094L10.7887 9.76699C10.72 9.75086 10.6479 9.75171 10.5796 9.76947C10.5113 9.78722 10.4491 9.82128 10.3989 9.86831C10.3488 9.91535 10.3125 9.97376 10.2936 10.0379C10.2747 10.102 10.2738 10.1696 10.291 10.2341L11.5477 14.9518C11.6103 15.1868 11.7548 15.3954 11.9582 15.5444C12.1616 15.6935 12.4123 15.7745 12.6704 15.7745Z" fill="#F8F9FB"/>
<path d="M10.2784 8.9434C10.8528 8.9434 11.3184 8.50638 11.3184 7.96729C11.3184 7.42821 10.8528 6.99119 10.2784 6.99119C9.70394 6.99119 9.23828 7.42821 9.23828 7.96729C9.23828 8.50638 9.70394 8.9434 10.2784 8.9434Z" fill="#F8F9FB"/>
<path d="M23.106 8.9434C23.6804 8.9434 24.1461 8.50638 24.1461 7.96729C24.1461 7.42821 23.6804 6.99119 23.106 6.99119C22.5316 6.99119 22.0659 7.42821 22.0659 7.96729C22.0659 8.50638 22.5316 8.9434 23.106 8.9434Z" fill="#F8F9FB"/>
<path d="M16.6922 6.17777C17.2666 6.17777 17.7323 5.74075 17.7323 5.20166C17.7323 4.66257 17.2666 4.22556 16.6922 4.22556C16.1178 4.22556 15.6521 4.66257 15.6521 5.20166C15.6521 5.74075 16.1178 6.17777 16.6922 6.17777Z" fill="#F8F9FB"/>
<path d="M29.7767 14.5V5.89607H32.8141C33.3839 5.89607 33.8843 6.00386 34.3155 6.21944C34.7466 6.43502 35.0815 6.74299 35.3202 7.14335C35.5666 7.54371 35.6898 8.01337 35.6898 8.55232C35.6898 9.09126 35.5666 9.56092 35.3202 9.96128C35.0815 10.3539 34.7466 10.6619 34.3155 10.8852C33.892 11.1008 33.3916 11.2086 32.8141 11.2086H30.9085V14.5H29.7767ZM30.9085 10.1692H32.8488C33.1952 10.1692 33.4955 10.1037 33.7496 9.97283C34.0036 9.84194 34.2 9.65331 34.3386 9.40693C34.4772 9.16056 34.5464 8.87568 34.5464 8.55232C34.5464 8.22125 34.4772 7.93637 34.3386 7.6977C34.2 7.45132 34.0036 7.26269 33.7496 7.1318C33.4955 7.00091 33.1952 6.93547 32.8488 6.93547H30.9085V10.1692ZM37.2204 14.5V5.89607H40.2577C40.8275 5.89607 41.3279 6.00386 41.7591 6.21944C42.1903 6.43502 42.5252 6.74299 42.7638 7.14335C43.0102 7.54371 43.1334 8.01337 43.1334 8.55232C43.1334 9.16056 42.9794 9.67641 42.6715 10.0999C42.3635 10.5233 41.9477 10.8274 41.4242 11.0122L43.4221 14.5H42.1056L40.0037 10.7697L40.7543 11.2086H38.3522V14.5H37.2204ZM38.3522 10.1692H40.2924C40.6312 10.1692 40.9276 10.1037 41.1816 9.97283C41.4357 9.84194 41.6321 9.65331 41.7706 9.40693C41.9169 9.16056 41.9901 8.87568 41.9901 8.55232C41.9901 8.22125 41.9169 7.93637 41.7706 7.6977C41.6321 7.45132 41.4357 7.26269 41.1816 7.1318C40.9276 7.00091 40.6312 6.93547 40.2924 6.93547H38.3522V10.1692ZM44.7091 14.5V5.89607H50.3103V6.93547H45.8409V9.66101H50.0794V10.7004H45.8409V13.4606H50.3103V14.5H44.7091ZM51.7129 14.5V5.89607H52.7523L55.9744 10.481H55.4432L58.6422 5.89607H59.6816V14.5H58.5383V7.32813L58.9425 7.45517L55.7435 11.9592H55.6511L52.4867 7.45517L52.8447 7.32813V14.5H51.7129ZM61.5926 14.5V5.89607H62.7244V14.5H61.5926ZM67.7559 14.6386C67.1323 14.6386 66.578 14.5077 66.0929 14.2459C65.6155 13.9841 65.2421 13.6261 64.9727 13.1719C64.7109 12.7099 64.58 12.1864 64.58 11.6012V5.89607H65.7233V11.5781C65.7233 11.9708 65.808 12.3211 65.9774 12.6291C66.1545 12.9293 66.3932 13.1642 66.6934 13.3336C67.0014 13.5029 67.3556 13.5876 67.7559 13.5876C68.1563 13.5876 68.5066 13.5029 68.8069 13.3336C69.1149 13.1642 69.3535 12.9293 69.5229 12.6291C69.7 12.3211 69.7886 11.9708 69.7886 11.5781V5.89607H70.9319V11.6012C70.9319 12.1864 70.7972 12.7099 70.5277 13.1719C70.2659 13.6261 69.8963 13.9841 69.419 14.2459C68.9416 14.5077 68.3873 14.6386 67.7559 14.6386ZM72.7919 14.5V5.89607H73.8313L77.0534 10.481H76.5222L79.7212 5.89607H80.7606V14.5H79.6173V7.32813L80.0215 7.45517L76.8225 11.9592H76.7301L73.5657 7.45517L73.9237 7.32813V14.5H72.7919Z" fill="white"/>
<defs>
<linearGradient id="paint0_linear_550_10032" x1="45.5" y1="20" x2="48.9185" y2="-5.87806" gradientUnits="userSpaceOnUse">
<stop stop-color="#FD5900"/>
<stop offset="1" stop-color="#FFDE00"/>
</linearGradient>
</defs>
</svg>
