<svg width="16" height="12" viewBox="0 0 16 12" fill="none" xmlns="http://www.w3.org/2000/svg">
<path d="M3.6704 11.7745H11.714C11.972 11.7745 12.2227 11.6935 12.4261 11.5444C12.6296 11.3954 12.7741 11.1868 12.8367 10.9518L14.0934 6.23411C14.1106 6.16958 14.1097 6.10197 14.0907 6.03786C14.0718 5.97376 14.0355 5.91535 13.9854 5.86831C13.9353 5.82128 13.8731 5.78722 13.8047 5.76947C13.7364 5.75171 13.6644 5.75086 13.5956 5.76699L12.8969 5.93094C12.3236 6.06543 11.7213 6.04265 11.1615 5.8653C10.6016 5.68795 10.1078 5.36348 9.73867 4.93046L8.33318 3.28167C8.25627 3.19145 8.15873 3.11862 8.04777 3.06857C7.93681 3.01852 7.81528 2.99253 7.69217 2.99253C7.56906 2.99253 7.44752 3.01852 7.33657 3.06857C7.22561 3.11862 7.12806 3.19145 7.05116 3.28167L5.64567 4.93046C5.27655 5.36348 4.78273 5.68794 4.22289 5.86529C3.66305 6.04264 3.06072 6.06543 2.48749 5.93094L1.78873 5.76699C1.71997 5.75086 1.64792 5.75171 1.57962 5.76947C1.51131 5.78722 1.44907 5.82128 1.39895 5.86831C1.34883 5.91535 1.31255 5.97376 1.29363 6.03786C1.27471 6.10197 1.2738 6.16958 1.29099 6.23411L2.54771 10.9518C2.6103 11.1868 2.7548 11.3954 2.95822 11.5444C3.16164 11.6935 3.41232 11.7745 3.6704 11.7745Z" fill="#F8F9FB"/>
<path d="M1.27836 4.9434C1.85278 4.9434 2.31844 4.50638 2.31844 3.96729C2.31844 3.42821 1.85278 2.99119 1.27836 2.99119C0.703941 2.99119 0.238281 3.42821 0.238281 3.96729C0.238281 4.50638 0.703941 4.9434 1.27836 4.9434Z" fill="#F8F9FB"/>
<path d="M14.106 4.9434C14.6804 4.9434 15.1461 4.50638 15.1461 3.96729C15.1461 3.42821 14.6804 2.99119 14.106 2.99119C13.5316 2.99119 13.0659 3.42821 13.0659 3.96729C13.0659 4.50638 13.5316 4.9434 14.106 4.9434Z" fill="#F8F9FB"/>
<path d="M7.69218 2.17777C8.2666 2.17777 8.73226 1.74075 8.73226 1.20166C8.73226 0.662573 8.2666 0.225555 7.69218 0.225555C7.11776 0.225555 6.6521 0.662573 6.6521 1.20166C6.6521 1.74075 7.11776 2.17777 7.69218 2.17777Z" fill="#F8F9FB"/>
</svg>
