<svg width="25" height="24" viewBox="0 0 25 24" fill="none" xmlns="http://www.w3.org/2000/svg">
<g id="zap-solid-rounded 1">
<path id="Vector" d="M16.5174 2.32514C17.0423 2.40348 17.6136 2.59299 17.9412 3.16038C18.2679 3.72637 18.1485 4.31617 17.9564 4.81136C17.7716 5.2879 17.4439 5.86433 17.0622 6.53565L15.9612 8.47252C15.753 8.8388 15.6189 9.07576 15.5336 9.25737C15.4695 9.39366 15.4577 9.4495 15.4558 9.45874C15.4591 9.56981 15.5177 9.67007 15.609 9.7266C15.6189 9.72978 15.673 9.74649 15.8181 9.75782C16.0168 9.77336 16.3183 9.7739 16.7381 9.7739C17.2269 9.77389 17.637 9.77388 17.9569 9.79838C18.2661 9.82206 18.6304 9.87463 18.9357 10.0776C19.5285 10.4716 19.8368 11.1749 19.7287 11.8773C19.673 12.2386 19.468 12.5434 19.2774 12.7893C19.0804 13.0435 18.8047 13.3484 18.4758 13.7121L12.8841 19.8952C12.3712 20.4625 11.9394 20.94 11.5881 21.2463C11.4095 21.402 11.1984 21.5621 10.963 21.6576C10.7036 21.7629 10.3614 21.8076 10.0215 21.6305C9.68235 21.4538 9.52299 21.1486 9.4596 20.8774C9.40187 20.6304 9.41024 20.3659 9.43387 20.1296C9.48034 19.6648 9.61958 19.035 9.78511 18.2864L10.4834 15.1277C10.6219 14.5012 10.7064 14.1103 10.728 13.8242C10.7577 13.5884 10.552 13.4872 10.4454 13.4662C10.1639 13.4254 9.767 13.4236 9.12816 13.4236H8.6121C7.91921 13.4236 7.31605 13.4237 6.84997 13.3543C6.35689 13.2808 5.82903 13.1044 5.49753 12.5916C5.16682 12.0801 5.22084 11.5262 5.35378 11.0454C5.47975 10.5899 5.72449 10.0364 6.00617 9.39944L7.85643 5.21448C8.117 4.62508 8.33611 4.12946 8.55957 3.74142C8.7964 3.33017 9.07004 2.98046 9.4698 2.71931C9.86982 2.45798 10.2996 2.34835 10.7707 2.2977C11.2147 2.24997 11.7547 2.24998 12.396 2.25H14.5837C15.3523 2.24995 16.0134 2.24991 16.5174 2.32514Z" fill="#FC9502"/>
</g>
</svg>
