<svg width="20" height="20" viewBox="0 0 20 20" fill="none" xmlns="http://www.w3.org/2000/svg">
<path d="M10.0001 9.99967L12.4409 12.4644C14.8526 14.8998 16.0584 16.1175 17.0988 15.7766C17.1883 15.7473 17.2753 15.7109 17.359 15.6678C18.3334 15.166 18.3334 13.4439 18.3334 9.99967C18.3334 6.55549 18.3334 4.83339 17.359 4.33155C17.2753 4.28841 17.1883 4.25202 17.0988 4.22272C16.0584 3.88181 14.8526 5.09952 12.4409 7.53493L10.0001 9.99967ZM10.0001 9.99967L7.5593 7.53493C5.14758 5.09952 3.94172 3.88181 2.90132 4.22272C2.81189 4.25202 2.72489 4.28841 2.64113 4.33155C1.66675 4.83339 1.66675 6.55549 1.66675 9.99967C1.66675 13.4439 1.66675 15.166 2.64113 15.6678C2.72489 15.7109 2.81189 15.7473 2.90132 15.7766C3.94172 16.1175 5.14758 14.8998 7.5593 12.4644L10.0001 9.99967Z" stroke="#5C59F3" stroke-width="1.25"/>
<path d="M4.58325 11.667L4.58325 8.33366" stroke="#5C59F3" stroke-width="1.25" stroke-linecap="round"/>
<path d="M15.4167 11.667L15.4167 8.33366" stroke="#5C59F3" stroke-width="1.25" stroke-linecap="round"/>
</svg>
