<svg width="50" height="16" viewBox="0 0 50 16" fill="none" xmlns="http://www.w3.org/2000/svg">
<path d="M25.5223 5.09513C25.4942 7.31498 27.5006 8.55382 29.0121 9.29032C30.5652 10.0461 31.0868 10.5306 31.0808 11.2064C31.069 12.2407 29.842 12.6971 28.6935 12.7149C26.6901 12.746 25.5253 12.174 24.5991 11.7413L23.8775 15.1185C24.8066 15.5468 26.527 15.9202 28.3112 15.9365C32.499 15.9365 35.239 13.8693 35.2538 10.664C35.2701 6.59627 29.6271 6.37102 29.6657 4.55276C29.679 4.0015 30.2051 3.4132 31.358 3.26353C31.9285 3.18795 33.5037 3.13016 35.2894 3.9526L35.9903 0.685068C35.03 0.335345 33.7956 0.000441551 32.2589 0.000441551C28.3171 0.000441551 25.5446 2.09581 25.5223 5.09513ZM42.7254 0.281998C41.9608 0.281998 41.3162 0.728043 41.0287 1.41267L35.0463 15.6965H39.2312L40.064 13.3951H45.1779L45.661 15.6965H49.3494L46.1308 0.281998H42.7254ZM43.3108 4.44607L44.5185 10.2343H41.2109L43.3108 4.44607ZM20.4484 0.281998L17.1497 15.6965H21.1375L24.4346 0.281998H20.4484ZM14.549 0.281998L10.3983 10.7737L8.71935 1.85279C8.52226 0.856965 7.74428 0.281998 6.88035 0.281998H0.09484L0 0.729524C1.39296 1.03183 2.97561 1.51936 3.93438 2.04098C4.5212 2.35959 4.68865 2.63818 4.8813 3.39542L8.0614 15.6965H12.2759L18.7368 0.281998H14.549Z" fill="#151916"/>
</svg>
