<svg width="16" height="16" viewBox="0 0 16 16" fill="none" xmlns="http://www.w3.org/2000/svg">
<g clip-path="url(#clip0_148_14115)">
<path d="M1.33398 8.00002C1.33398 8.70129 1.45429 9.37442 1.6754 10M1.6754 10H7.33398M1.6754 10C2.49907 12.3304 4.72154 14 7.33398 14C6.30453 14 5.45673 11.6666 5.34619 8.66669M8.67645 6H14.335M14.335 6C13.5113 3.66961 11.2889 2 8.67645 2C9.74372 2 10.6157 4.508 10.6734 7.66669M14.335 6C14.5208 6.52578 14.6355 7.08522 14.6673 7.66669" stroke="#8D58FA" stroke-width="1.5" stroke-linecap="round" stroke-linejoin="round"/>
<path d="M1.33398 3.53154C1.33398 2.79929 1.33398 2.43317 1.4589 2.14924C1.59138 1.84813 1.81972 1.60612 2.10382 1.46571C2.37172 1.33331 2.71717 1.33331 3.40806 1.33331H4.00065C5.25773 1.33331 5.88627 1.33331 6.27679 1.74721C6.66732 2.16111 6.66732 2.82728 6.66732 4.15961V5.66565C6.66732 6.24682 6.66732 6.5374 6.49127 6.63726C6.31522 6.73711 6.0871 6.57593 5.63085 6.25355L5.56134 6.20444C5.22789 5.96884 5.06117 5.85103 4.87222 5.7904C4.68326 5.72977 4.48289 5.72977 4.08214 5.72977H3.40806C2.71717 5.72977 2.37172 5.72977 2.10382 5.59737C1.81972 5.45696 1.59138 5.21495 1.4589 4.91384C1.33398 4.62991 1.33398 4.26379 1.33398 3.53154Z" stroke="#8D58FA" stroke-width="1.5"/>
<path d="M14.6673 11.5315C14.6673 10.7993 14.6673 10.4332 14.5424 10.1492C14.4099 9.84811 14.1816 9.60611 13.8975 9.46571C13.6296 9.33331 13.2841 9.33331 12.5933 9.33331H12.0007C10.7436 9.33331 10.1151 9.33331 9.72452 9.74725C9.33398 10.1611 9.33398 10.8272 9.33398 12.1596V13.6656C9.33398 14.2468 9.33398 14.5374 9.51005 14.6372C9.68605 14.7371 9.91418 14.5759 10.3705 14.2536L10.44 14.2044C10.7734 13.9688 10.9401 13.851 11.1291 13.7904C11.3181 13.7298 11.5184 13.7298 11.9192 13.7298H12.5933C13.2841 13.7298 13.6296 13.7298 13.8975 13.5974C14.1816 13.457 14.4099 13.215 14.5424 12.9138C14.6673 12.6299 14.6673 12.2638 14.6673 11.5315Z" stroke="#8D58FA" stroke-width="1.5"/>
</g>
<defs>
<clipPath id="clip0_148_14115">
<rect width="16" height="16" fill="white"/>
</clipPath>
</defs>
</svg>
