<svg width="16" height="16" viewBox="0 0 16 16" fill="none" xmlns="http://www.w3.org/2000/svg">
<path d="M3.33333 13.667H12.6667" stroke="#8D58FA" stroke-width="1.5" stroke-linecap="round" stroke-linejoin="round"/>
<path d="M11.2478 11.6663H4.7522C4.06678 11.6663 3.72407 11.6663 3.46415 11.4819C3.20423 11.2975 3.09099 10.9741 2.86453 10.3271L1.36749 6.05079C1.28781 5.81517 1.35002 5.55541 1.52817 5.37978C1.75236 5.15877 2.10363 5.12447 2.36745 5.29785L3.18899 5.83779C4.01826 6.38281 4.4329 6.65531 4.8521 6.55626C5.27131 6.45721 5.52013 6.02795 6.01777 5.16941L7.49413 2.62242C7.59787 2.44345 7.79093 2.33301 8 2.33301C8.20907 2.33301 8.40213 2.44345 8.50587 2.62242L9.9822 5.16941C10.4799 6.02795 10.7287 6.45721 11.1479 6.55626C11.5671 6.65531 11.9817 6.38281 12.811 5.83779L13.6325 5.29785C13.8963 5.12447 14.2477 5.15877 14.4719 5.37978C14.65 5.55541 14.7122 5.81517 14.6325 6.05079L13.1355 10.3271C12.909 10.9741 12.7958 11.2975 12.5359 11.4819C12.2759 11.6663 11.9332 11.6663 11.2478 11.6663Z" stroke="#8D58FA" stroke-width="1.5" stroke-linecap="round" stroke-linejoin="round"/>
</svg>
