<svg width="16" height="16" viewBox="0 0 16 16" fill="none" xmlns="http://www.w3.org/2000/svg">
<g clip-path="url(#clip0_683_17682)">
<path d="M1.68661 9.59567C1.54484 10.4977 2.17867 11.1238 2.9547 11.4358C5.92987 12.6321 10.0701 12.6321 13.0453 11.4358C13.8213 11.1238 14.4551 10.4977 14.3134 9.59567C14.2263 9.04134 13.7955 8.57974 13.4763 8.12901C13.0582 7.53134 13.0167 6.87947 13.0166 6.18595C13.0166 3.50574 10.7706 1.33301 8 1.33301C5.22942 1.33301 2.98342 3.50574 2.98342 6.18595C2.98335 6.87947 2.94181 7.53134 2.52374 8.12901C2.20456 8.57974 1.77374 9.04134 1.68661 9.59567Z" stroke="#8D58FA" stroke-width="1.5" stroke-linecap="round" stroke-linejoin="round"/>
<path d="M6 14C6.53075 14.4146 7.23167 14.6667 8 14.6667C8.76833 14.6667 9.46927 14.4146 10 14" stroke="#8D58FA" stroke-width="1.5" stroke-linecap="round" stroke-linejoin="round"/>
</g>
<defs>
<clipPath id="clip0_683_17682">
<rect width="16" height="16" fill="white"/>
</clipPath>
</defs>
</svg>
