<svg width="11" height="18" viewBox="0 0 11 18" fill="none" xmlns="http://www.w3.org/2000/svg">
<path d="M10.2322 1.077C9.72759 0.288736 8.42222 0.442217 8.21302 1.39766L7.19811 6.29598C7.17165 6.43772 7.09585 6.5655 6.98416 6.65668C6.87246 6.74786 6.73209 6.79654 6.58792 6.79409C6.44304 6.79513 6.30231 6.7457 6.1899 6.6543C6.07748 6.5629 6.00037 6.43522 5.97182 6.29318L4.86383 0.806773C4.79732 0.538603 4.62894 0.3069 4.39441 0.16083C4.15988 0.0147596 3.87767 -0.0341818 3.60766 0.0243904C3.33764 0.0829626 3.10107 0.244439 2.94815 0.474555C2.79522 0.704672 2.73798 0.985318 2.78856 1.25694C3.02704 2.46207 3.90309 6.90741 4.12413 8.02817C5.71591 7.78658 8.8204 9.3049 9.20862 9.49636C9.3042 7.10261 10.2845 2.03836 10.373 1.87523C10.4034 1.73948 10.4067 1.59904 10.3825 1.46202C10.3584 1.32501 10.3073 1.19414 10.2322 1.077ZM3.53947 12.3393C3.79543 12.4483 4.08347 12.4548 4.34407 12.3575C4.60468 12.2601 4.81794 12.0664 4.93979 11.8163C4.41112 11.5652 3.96336 11.171 3.64725 10.6784C3.33113 10.1859 3.15931 9.6146 3.15125 9.02938C3.15189 8.86866 3.19231 8.7106 3.26891 8.5693C3.34551 8.42801 3.45589 8.30788 3.59022 8.21963L3.28357 6.67859C2.9124 6.62536 2.53394 6.69235 2.20359 6.86974C1.98586 7.03364 1.8236 7.26034 1.73866 7.51928C1.65371 7.77823 1.65018 8.05699 1.72852 8.31801C2.27395 10.5368 2.98563 12.1143 3.53947 12.3393ZM0.415367 11.071C0.873009 12.2307 1.69023 13.4128 2.94329 12.6008C2.11642 11.8163 1.49783 9.73234 1.18308 8.45281C1.13299 8.25346 1.11119 8.04805 1.11833 7.84262C0.849053 7.84751 0.590118 7.94716 0.387037 8.12406C-0.241831 8.73424 -0.00989704 10.0773 0.415056 11.071H0.415367Z" fill="#6A42C2"/>
<path d="M9.34421 11.1593C9.25121 10.9338 9.11024 10.7313 8.93109 10.5659C7.40126 9.80656 4.7102 8.78886 3.91976 9.25272C3.43285 9.4034 3.66572 12.0378 6.52676 12.2025C6.56787 12.2061 6.60772 12.2186 6.6436 12.239C6.67949 12.2594 6.71056 12.2873 6.73472 12.3208C6.75927 12.3548 6.77583 12.394 6.78316 12.4353C6.79049 12.4767 6.7884 12.5191 6.77706 12.5596C6.66561 12.897 6.62762 13.9652 7.38413 14.2862C7.44942 14.3204 7.49873 14.3788 7.52154 14.4489C7.54435 14.519 7.53885 14.5952 7.50621 14.6613C7.47357 14.7274 7.41639 14.7781 7.34686 14.8026C7.27734 14.8271 7.201 14.8234 7.13414 14.7924C6.82552 14.6455 6.57073 14.4055 6.40565 14.1062C5.83562 14.1075 4.63424 14.1887 4.00973 15.3409C3.97387 15.4051 3.91438 15.4528 3.84392 15.4738C3.77346 15.4948 3.69758 15.4875 3.63242 15.4534C3.56725 15.4194 3.51795 15.3612 3.49498 15.2914C3.47201 15.2215 3.4772 15.1455 3.50943 15.0794C4.18687 13.7887 5.52275 13.5695 6.20049 13.5468C6.14837 13.2791 6.13892 13.0049 6.17247 12.7342C5.93386 12.7041 5.69784 12.6561 5.4664 12.5907C5.29787 12.9706 4.99418 13.2743 4.61431 13.4428C4.25347 13.5842 3.85569 13.601 3.48422 13.4904C2.31552 14.4185 1.06463 14.025 0.368209 12.8127C0.35887 15.6174 1.79655 18.0385 5.25563 17.9784C6.30054 18.0846 7.34701 17.7924 8.18578 17.1603C9.16987 16.3726 9.73523 15.0682 9.86723 13.2853C9.79972 12.5545 9.62344 11.8379 9.34421 11.1593Z" fill="#6A42C2"/>
</svg>
